<?xml version="1.0" encoding="utf-8"?>
<!-- Generator: Adobe Illustrator 20.1.0, SVG Export Plug-In . SVG Version: 6.00 Build 0)  -->
<svg version="1.1" id="Layer_1" xmlns="http://www.w3.org/2000/svg" xmlns:xlink="http://www.w3.org/1999/xlink" x="0px" y="0px"
	 viewBox="0 0 432 144" style="enable-background:new 0 0 432 144;" xml:space="preserve">
<style type="text/css">
	.st0{fill:#231F20;}
	.st1{fill:#DF1174;}
	.st2{fill:#F17622;}
</style>
<g>
	<g>
		<g>
			<g>
				<path class="st0" d="M31.1,101.4c0,0-0.6-2-2.4-1C28.4,100.6,29.6,102.8,31.1,101.4z M30.9,103.2c0,0-1.6-1.4-2.5,0.5
					C28.2,103.9,30.4,105.1,30.9,103.2z M38.9,99.7c0-0.4-2.2,0.3-2.2,0.7c0.3,2.8-1.3,3-1.3,3l-0.1,0.2c0.1-0.1,0.1-0.3,0.1-0.4
					c0-0.1,0-0.2,0-0.2c0.1-1.2-0.8-2.2-2-2.2c-1.1-0.1-2.1,0.9-2.2,2.1c0,1.2,0.8,2.2,2,2.3c0.5,0,0.9-0.1,1.2-0.4l-0.1,0.1
					C39.7,104.8,38.9,100.2,38.9,99.7z M31.8,105c0,0-1.9-0.3-1.7,1.7C30.1,106.9,32.4,106.7,31.8,105z M31.6,98.2
					c0,0-0.9,1.5,0.8,2.1C32.6,100.3,33.3,98.3,31.6,98.2z M111.1,92.8c-0.1-1.9-1.2-2.4-1.2-2.7c0.3-6.2,0.2-8.3-1.8-13.7
					c-0.9-2.4-2.1-4.4-3.4-6c-0.5-0.9-4.5-6.8-17.6-17.7c-2.1-1.8-5.9-4.7-8.8-6.5c-0.4-0.2-2.4-1.6-4.9-3
					c10.8-1.6,12.4-11.6,12-11.7c-0.4-0.1-3.7-4.2-3.7-4.2c-2.2-0.9-2.4,1.5-2.7,1.5c-3.6,0-1.7,3-1.8,3c-2.1-0.4-2.7,0.9-3,1.5
					c-0.8,1.9,0.9,3.3,0.8,3.4c-2,2,0.2,3,0.5,3.3c-3,0.7-4-1.2-4.1-1.1c-0.7,0.5,0.1,1,0,1.1c-0.1,0.1-4-1-4-3.4
					c-0.1-3.4,2.1-3.1,2.9-3c1.1,0.2,1.8,2.1,1.3,2.6c-1.4,1.2-2,0.5-2.3,0.1c0.2,0.2,0.5,0.1,0.6,0.1c0.3-0.1,0.2-0.8-0.3-0.9
					c-0.6-0.1-1.1,0.5-0.6,1.3c0.1,0.1,1.2,1.5,2.9-0.2c1.4-1.5-0.6-3.4-1.2-3.5c-0.6-0.1-4.4-0.9-4.1,3.7c0.2,3.6,4.4,4.2,6.9,4.2
					c-1.2,0.3-2.7,0.5-3.4,0.6c-0.3-0.1-0.7-0.3-1-0.4c0,0-8.6-3.3-13,0.6c-4.4,3.9-2.2,10.7,3.8,8.2c0.2-0.1-5.9-0.7-3.8-5.1
					c0,0,3.4-6.3,9.5-0.1c0.2,0.2-3.8,1.1-3.4,4.8c0.3,2.4,2.4,4.2,4.4,2.9c1.8-1.2,0.3-2.8,0.3-2.8c-2.3-1.5-2.8,0.8-3.1,0.6
					c-0.9-0.6,0-4.4,5.5-3.7c2.9,0.3,5.5,1.8,7.4,3.1c-2.3-0.9-4.9-1.2-6.9,0.8c-3.7,3.8,0.1,6.8,0.9,7.2c1.3,0.6,4.5,0.3,4.4-2.2
					c-0.1-2.9-2.7-2.8-2.9-2.8c-1.1,0.3-1.2,1.3-0.5,1.7c0.5,0.3,1.2-0.3,1-0.6c-0.1-0.1-0.3-0.5-0.6-0.4c0.6-0.2,1.8-0.4,2,1.9
					c0.1,0.9-1.8,1.9-3,1.3c-0.8-0.4-2.9-2.2-0.5-5c2-2.3,6.5-0.1,6.5,0c0.1,0.2-2.6,0.3-0.8,2.7c0.1,0.1,0.2-3.9,4.8,0.8
					c0,0,0-0.1,0.1-0.2c-0.5,8.5,8.3,6.4,8.3,6.4c-5.9-0.2-3.3-4.3-2.5-4.2c-1.9,2.5,1.6,3.5,1.4,3.2c-1.6-2.1,0.4-1.1,2-0.3
					c0.1,0.1,0.1,0.2,0.2,0.2c1.6,1.6,2,2.6,2.3,3c-3.8-0.6-7.7-0.2-9.2,0.2c-0.3,0.1-0.5,0.2-0.8,0.2c-1.3-1-3.4-2-5.8-0.9
					c-0.8,0.3-4-4.9-8.6-2.4c-2.9,1.5-2,4.9-1.5,5.6c1.1,1.6,4.1,2.8,4.5-0.2c0.3-2.3-3.5-2-3.7-0.8c-0.2,1.2-0.8-2.5,1.7-3.4
					c2.5-0.9,4.5,1.8,4,3.8c-0.5,1.8-2.2,4.1,0.1,5.8c-2.9,4.7-1.8,8.7-1.6,9.6c0.4,1.4,2,4.6,4.7,5.1c3.9,0.8,4.8-2.2,5.3-2.8
					c0.5-0.6,1.1-3.9-1.4-3.8c-2.5,0.1-2,2.5-2,2.5c0.6,2.4,2.9,1.2,2.8,1.5c-0.1,0.3-1.4,2.7-4.8,1.6c-0.1,0-3.6-1.4-3.8-5.3
					c-0.4-5.5,1.6-8,7.6-12c6-3.9,10-1.7,10-1.7C87,67.7,87,71.7,87,71.7c0,4.6,5.7,6.3,5.3,6c-0.4-0.3-0.8-2.4-0.3-2
					c0.2,0.2,0.9,0.5,0.8,0.3c-0.1-0.2-0.2-0.4-0.6-1.2c-2.6-6.6,4.6-6.2,4.6-6.2c1.8,0.2,3.9,2.6,3.4,2.7c-2.6,0.4-4,2.9-3.4,4.7
					c0.7,1.8,3.3,1.7,3,1.5c-0.3-0.1-2.6-0.8-1.7-3.1c0.8-2.3,3.9-1.5,4.7,0.1c1.8,3.7,0.4,5.3,0,5.1c-6.1-3-6.9,3.5-7,3.9
					c-0.1,0.5,0.5-0.4,0.7-0.8c1.5-2.8,3.7-1.9,4.4-1.5c1.7,0.8,2.1,2.8,1.3,4.2c-1,1.6-4.8-0.2-5.5-0.4c-0.3-0.1-0.2,0.2-0.2,0.2
					c12.5,7.8,6.1,18.7,5,20.3c-0.8,1.1-1.9,2.2-3.4,3.2c-0.1-1.4-0.8-3.5-2.6-6.4c-0.3-0.4,2.7,1.7,2.6,2.4
					c-0.1,0.7,9.1-6.9-1.3-12.2c-0.4-0.2,2.5,3.3,1.7,3.2c-0.7-0.2-1,0.1-0.9,0.5c0,0,0.7-0.3,0.9,1c0,0.2-0.8-0.2-0.7,0.1
					c0.1,0.9,1,2.7,0.5,4.2c-0.1,0.3-3.2-3.7-5-4.3c0,0-0.3,3.6-1.5,4.5c-1.2,0.9,0.4-0.8,0-1.3c-0.4-0.5-1.1,1.4-1.9,1.5
					c-0.8,0.1,0.1-3.6,1.3-4.6c1.1-1-4.1,1.8-5,1.4c-0.2-0.1-0.1-1.7,0.1-2.1c0.2-0.4-0.3,0.2-0.9-0.7c-0.1-0.2,1.3-1.6,1.1-1.6
					c-3.5-0.5-5.4,2.2-6.2,4.5c-0.8,2.3-1,3.5-3.9,4.3c0,0,1.4,3.1,8.6,0.1c0.2-0.1,0.1,0,0.1,0s-1,2.9,3.7,3.3
					c2.7,0.2,2.1,3.4,2,3.6c0,0.3,4.4-1.8,4.3-6.2c0,0,0-0.2,0.5,0.9c1.1,2.7,1.1,4.3,0.6,5.4c-2.3,1.1-5.3,1.8-8.7,1.4
					c-3-0.3-6.1-1.3-8.8-2.5c-5.2-3.4-3-7.3-3.1-7.4c-3.1-1.3-2.5,1.6-2.7,1.5c-0.2,0-3.7-4.2-1.8-6.9c2.3-3.3,4.7-1.5,5.4-0.8
					c1,1.1,0.4,3.4-0.5,3.5c-2.5,0.4-2.7-0.9-2.6-1.6c0,0.4,0.4,0.4,0.6,0.5c0.4,0.2,0.9-0.7,0.4-1.2c-0.6-0.6-1.6-0.2-1.7,1
					c0,0.2,0.6,3,3.7,2.3c2.7-0.6,2.1-4.1,1.2-5.3c-0.7-0.8-4.8-4-7.9,0.9c-2.2,3.5,0.1,7.3,2.3,9.8c-1.3-0.8-2.4-1.6-3.3-2.3
					c0.1,0,0.1,0,0.2,0c-0.1,0-0.2-0.1-0.3-0.1c-1.2-0.9-1.9-1.5-1.9-1.5c-4.5-2.9-3.7-5.3-2.9-6c1.1-0.9,3.6-0.2,3.6-0.2
					s0.7,0.2,0.4,0c-1.6-1.7-2.4-1.5-3.5-1.5c-1.1,0.1-2.9,0.5-3.4,3.5c-0.3,1.5,1.3,3.2,3,4.6c-4.1-0.1-5.5-0.9-6.4-1.8
					c-1-0.9-0.2-2.6,1.3-2.9c1.2-0.3,2.2,0,2.1-0.2c-1.7-1.5-3.5-0.7-3.5-0.7s-2.8,1.1-1.9,3.8c0.9,2.8,5.7,2.7,5.8,2.7
					c0.1,0,0,0.1,0,0.1s-2.5-0.4-5.4,2.8c-0.1,0.1-0.2,0.2-0.3,0.3c-7.7-0.1-6.2-6.8-6.4-6.8c-0.8,0.2-1.3,0.1-1.3,0.1
					c0.5,6,4.5,7.1,7.1,7.2c-2.7,2.5-5.3,3.3-5.3,3.3c-1.9,0.5-4.1-0.5-4.2-0.5c-0.1-0.1-0.1,0.1-0.1,0.1c-0.3,1.1,0.6,1.5,0.4,1.6
					c-2.9,1.3-4-2.6-4.3-2.8c-0.3-0.2-0.6,0.9-0.6,0.9s-1.8-0.5-0.3-3.2c1.5-2.7,4.7-2,4.7-2c2.6,0.9,0.9,3.4,0.9,3.4
					c0.1-0.2,0.2-1.1-0.1-1.6c-0.3-0.4-1-0.5-1.5-0.5c-1.2,0.1-1,1.7-0.9,1.9c0.1,0.6,1.7,1.5,2.9,0.2c1.8-1.9,0-3.9-1.4-4.2
					c-1.4-0.4-5.9-0.2-6.3,4.4c-0.4,4.6,4.5,5.6,4.5,5.6l0,0.1c-6.6,2.5-10.3-2.8-10.5-3c-0.2-0.2-0.2,0-0.2,0s-2.8,4.6-5.4,1.3
					c-2.5-3.3-0.2-4.5-0.4-4.8c-0.5-0.8-2.3,0.2-2.3,0.2c-1.2-1.1,0.4-4.2,0.9-4.6c0.7-0.5-1.6-0.8-1.6-0.8s1.7-5,6.6-5.6
					c5-0.5,5.7,4.2,5.7,4.2c0.4-0.7,3.1-1,3.1-1s-0.5-1.8-0.9-2.2c-4.7-5.1-10.6-2.5-10.9-2.4c-0.3,0.1-3.8,1.1-5.2,6.2
					c-1.4,5,1.4,7.8,1.5,8.3c0,0.3-0.8,0.2-0.7,0.6c0.2,0.8,3.5,4.6,7.5,5.7c6.3,1.8,14.1,0.5,15.3,0.2c1.2-0.3,6.6-2.4,12.3-7.6
					c3-2.7,5.7-3.8,7.7-4.3c0.6,0.4,1,0.6,1.2,0.8c-1.8,0.9-2.6,2.9-3.4,5.6c-1,3.1-2.6,3.4-3.6,3.5c-1.5,0.2-2.5-0.9-2.4-1.5
					c0.5-1.8,2.6,0,2.6,0c-0.1-2.8-4.5-2.4-4.8,0.4c-0.1,0.9-0.1,3,3.4,3.8c4.2,0.9,6.1-2.5,6.1-2.5c0.5,3,6.6,5.3,9.2,2.1
					c0.9-1.1,0.8-2.5,0.1-3.4c1.7,1.4,3.8,2.6,7.3,3.5c4.4,1.2,11.7,1.1,17.1-2.6c8.8-6,10.7-17.3,10.7-17.3
					C110.5,95.6,111.2,94.7,111.1,92.8z M77.6,32.2c-0.1-2.8,2.2-2.7,2.5-2.7c2,0.2,2.9,1.3,3.2,2.5c0.1,0.5-0.1,0.7-0.1,0.7
					c-1.6-1.2-2.6-1.4-3.4-1.3c-1.2,0.2-3.5,2.4-1.4,4.1c1.3,1.1,2.5-0.2,2.3-0.2c-0.1-0.1-1.3-0.1-1.5-0.6
					c-0.5-0.9,0.7-1.4,1.1-1.4c1.4,0.1,1.7,1.2,1.4,2.4c-0.1,0.2-1.2,1.6-1.3,1.4c-0.3-0.4-1-0.5-1.2-0.6c-0.1,0-0.9-0.1-1.5,0.9
					c-0.7,1.2,1,1.5,0.8,1.3c-0.2-0.1-0.4-0.2,0-0.8c0.4-0.6,1.3-0.3,1,0.5c-0.3,0.8-3,1.2-3.1,1.1c-1.6-1.1,0.1-3,0.1-3.2
					C74.7,32.8,77.6,32.4,77.6,32.2z M72,112.1c0.9,0.2,1.2,1.2,0.2,2c-0.9,0.7-3.4,0.3-4-0.8c-1.4-2.8,0.4-4.2,2.1-4.9
					c1,1,1.9,2,2.8,2.9c-0.2-0.1-0.5-0.2-0.7-0.3c-1.7-0.4-2.4,1.9-2.4,1.9C70.3,112.5,71,111.8,72,112.1z M64.9,119.1
					c0,0-0.6,1.8,1.3,2C66.5,121.2,66.7,118.9,64.9,119.1z M66.3,117.9c0,0,0,1.9,1.9,1.5C68.5,119.3,67.9,117.1,66.3,117.9z
					 M63.2,119.5c0,0-1.7,0.9-0.4,2.3C62.9,122,64.6,120.5,63.2,119.5z M59.9,120.1c0,0.3,2.3,0.1,1.8-1.6
					C61.6,118.5,59.7,118.2,59.9,120.1z M60.9,117.1c0,0-1.4-1.3-2.4,0.4C58.5,117.7,60.4,118.8,60.9,117.1z M65,115.9
					c-2.1-1.3-2.9,1.1-2.9,1.1c-0.1,2,2.4,1.9,3,1.4C65.6,118.1,66.4,116.8,65,115.9z M93.8,88.6c0.2,0.9,2.3,1.2,2.5-0.4
					c0-1.4-1.4-3.7-3.3-3.7c-3.6,0.1-3.3,4.8-3.4,5.2c0,0-2.6,0.8-2.8,3.3c0,0.4,0.1,2,4.7,2.5c0.7,0.1,5.9-0.7,4.8-3.9
					c-0.8-2.3-3.3-2.3-3.5-2.4c-0.2-0.1-0.6-2.8,0.7-3.1c1.3-0.3,2.1,1,2.1,1S93.3,86.8,93.8,88.6z M78.2,72.4c0-0.5-0.4-0.9-1-0.9
					c-0.5,0-0.9,0.4-0.9,0.9c0,0.5,0.4,0.9,0.9,0.9C77.8,73.3,78.2,72.9,78.2,72.4z M85.8,67.4c0-0.6-0.6-1.2-1.3-1.2
					c-0.7,0-1.3,0.5-1.3,1.2c0,0.6,0.6,1.2,1.3,1.2C85.2,68.5,85.8,68,85.8,67.4z M76.1,81.5c0.5,0,1-0.4,1-0.8c0-0.5-0.4-0.8-1-0.8
					c-0.5,0-0.9,0.4-0.9,0.8C75.2,81.2,75.6,81.5,76.1,81.5z M76.4,76.1c0-0.5-0.4-0.9-0.9-0.9c-0.5,0-0.9,0.4-0.9,0.9
					c0,0.5,0.4,0.9,0.9,0.9C76,77,76.4,76.6,76.4,76.1z M79.3,69.2c0,0.5,0.5,1,1.1,1c0.6,0,1.1-0.4,1.1-1c0-0.5-0.5-0.9-1.1-0.9
					C79.7,68.2,79.3,68.6,79.3,69.2z M69.5,28.4c0.1-0.1-0.8-1.1-1.4-0.2C68.1,28.1,68.6,29.1,69.5,28.4z M66.5,31
					c0.1,0.1,0.9-0.9,0-1.4C66.5,29.6,65.6,30.3,66.5,31z M69.3,26.5c0.1-0.1-1.1-0.8-1.4,0.2C67.9,26.8,68.7,27.5,69.3,26.5z
					 M67.4,29c0,0-0.3,1.1,0.8,1.1C68.4,30.1,68.4,28.8,67.4,29z M46.8,96.6c1.4,0-0.3,1.2-0.9,1.1c-0.5-0.1,0.3,1.3,3,0.8
					c0,0,1.2-0.3,1.6,2.8c0.1,0.6,1.2-1.2,0.9-2.7c-0.1-0.5,2.2-0.4,2.3,1.2c0,0.1,1.2-1.7-0.8-3.3c-0.8-0.7-1.9,0.6-3.2-0.7
					c-1.4-1.3-0.9-1.2-1.2-2.3c-0.3-1.1-3.5-1.4-4.3-0.7c-0.3,0.3,0.6-0.5,2.8,1.1c2.2,1.5-2.3,1.3-2.8,1.1
					C43.5,95,45.4,96.7,46.8,96.6z M57,86.5c-0.9-3.1-3.3-0.9-3.5-1.1c-1.7-2.6-3.4-0.5-3.4-0.5s-2.2-0.6-1.7-0.1
					c0,0,3.6,2.5,2.3,6.1c-0.2,0.2-0.4,0.3-0.5,0.5c0.8-1.5,1.3-3.4-0.8-4.2c-0.6-0.2-1.4,0.4-1.3,0.9c0,0,1.4-0.6,2.2,0.6
					c0.1,0.2-0.7-0.2-1.4,0.8c-0.1,0.1,2.2-0.7,1.4,1.4c-0.1,0.3-0.2,0.6-0.4,0.8c-0.3,0.3-0.5,0.6-0.6,0.8c0,0.1,0,0.1-0.1,0.2
					c-0.2,0.3-0.5,0.6-0.7,1c0,0,0.3-0.3,0.7-0.8c0,0.2-0.1,0.3-0.1,0.5c-0.1,0.1-0.1,0.1-0.2,0.2c0,0,0.1-0.1,0.2-0.2
					c-0.6,3.5,3.4,3.4,3.8,2.5c0,0,0-3.4,4.3-6.2c0.9-0.6-3.9,1.9-4.4,2.5c0.3-0.5,1-1.9,1.2-2.9c0-0.2-1.7,3.4-2.9,3.4
					c-1.2,0,1.4-3.1,2.9-4.4c0.2-0.2-1.8,1.3-3.3,2.5c0.5-1.3,0.7-3-0.4-4.9c-0.1-0.1,1-1.1,1.6-0.9c0.4,0.1,1.1,0.3,1.5,0.7
					c0.1,0.1,1.5,0,2.1,0.1c0.5,0.2,1.2,0.7,1.3,0.8c0.2,0.1,1.6,0.5,2.1,1.1c0.3,0.3,0.7,1.1,0.9,1.4c0.9,1.2,0.7,1.8,0.8,2
					c0,0,0,0-0.1,0c-1-0.5-5.8,2.3-7.8,4.7c0,0,0.6-0.5,1.5-1.1c-0.4,0.4-0.9,0.8-1.4,1.3c0.7-0.6,1.3-1.2,1.9-1.6
					c1.9-1.4,4.7-2.8,4.8-0.2c0,0.1,0.6-1.6-0.1-2.2c-0.1-0.1,1-0.1,1.1,0.9c0,0.2,0.5-0.3,0.3-1.1c0.7,0.1,1,0.4,1,0.3
					c0.4-2.1-1.9-2.7-1.8-3C60.7,85.9,57,86.5,57,86.5z M49.1,20.5c0,0,0.2,0,0.2-0.1c0,0-3-2.9-1.8-5.9c0.2-0.6,0.5,2.4,3.1,1.1
					c0.3-0.2-2.9-0.1-1.1-4c0.4-0.9-0.5,1.9,2.7,2.3c0.2,0-1.9-1.9-0.6-3.6c0.4-0.5,0.9,3.2,3.6,3c0.4,0-3.7-2.7-0.2-5.9
					c0.3-0.3-1.7,1.9,0.4,3.7c0.3,0.2,0.1-3.8,4.5-3.2c0.3,0,2.5,0.8,1.3,2.1c0,0-0.6,0.8-1.6-0.2c-0.5-0.6-0.2,2.3,2.1,3.2
					c0.2,0.1-1.4,1.5-2.1-0.7c-0.1-0.3-2.4,3.2,3.3,3.8c0.3,0-0.1,4.1-2.8,1.2c-0.4-0.4,0.4,4.9,7-0.3c0,0,1.3,1.2,3.1,2.9
					c-0.5-0.1-0.9-0.2-0.9-0.2c-4.1,0.1-6.1,2.3-6.5,2.8c-0.6,0.8-1.7,2.9-0.9,4.7c1.2,2.5,3.2,1.9,3.7,1.9c0.5,0.1,2.6-0.9,1.5-2.3
					c-1.1-1.4-2.2-0.1-2.2-0.1c-1.1,1.3,0.5,2.1,0.3,2.2c-0.2,0.1-2-0.5-2.2-2.3c0-0.1,0-2.5,2.5-3.4c2.6-0.9,4.5-0.8,6.1-0.1
					c-2.1,2.1,1,3.6,0.9,3.3c-0.5-1.2-0.2-1.9,0.7-1.3c0.9,0.5,2.2,2.6,2.7,3.4c0.2,0.5,0.2,0.8,0.3,0.7c0.6-1.3,2-1,2-1.2
					c0.2-0.9,0.7-1.3,1.1-1.4c0.3,0,0.5-0.1,0.7-0.1c0.1,0,0.2,0,0.2,0c0.1,0,0.1,0,0.1,0c-1.7-1.1-14.5-13.8-15.9-16
					C63,7.8,62.1,6.3,59.3,5c-0.7-0.3-8.2-3-12.5,6.4c0,0-0.6,1.3-0.6,3.6C46.2,15.3,46.3,18.6,49.1,20.5z M49.6,22.7
					c0,0-2.5-0.3-2.2,2.2C47.5,25.3,50.4,25,49.6,22.7z M49.4,21.9c0.3-0.2-1.4-2.7-3-0.9C46.4,21,47.3,23.3,49.4,21.9z M52.4,25.6
					c0.4,0,0.5-3-1.9-2.5C50.5,23.1,49.8,25.5,52.4,25.6z M50.9,21.9c-0.2,0.3,2.5,1.6,3-0.7C54,21.2,52,19.6,50.9,21.9z M51.1,18.3
					c0,0-2.4,0.9-1,3C50.4,21.5,52.8,19.9,51.1,18.3z"/>
			</g>
		</g>
		<g>
			<path class="st0" d="M88.5,71c-0.7,3.7,3.1,5.7,2.8,5.4c-0.4-0.2-0.6-2.1-0.1-1.7c0.2,0.1,0.9,0.5,0.8,0.3
				c-0.1-0.1-0.6-0.7-0.9-1.4c-2.1-5.4,6.1-6.1,6.1-6.1C97.2,67,89.9,63.9,88.5,71z"/>
			<path class="st0" d="M38.5,114.2c0.2-0.1-2.4,1.2-5.6-3.1c0,0,0,1.6-2.8,1.9C30.1,113.1,36.7,115.1,38.5,114.2z"/>
			<path class="st0" d="M92.4,106.7c0-0.3-0.6-1.3-3.1-1.6c-4.4-0.4-2.6-4.3-2.6-4.3s-1.2,1-1.7,1.2c-2.7,0.8-4.5,0.3-4.5,0.3
				c1.3-1.4-0.2-2,0.2-3.5c0.7-2.2,2.2-3.7,5.1-4.1c0.2,0-1.1,1.2-1,1.4c0.3,0.4,1,0.4,0.8,0.8c-0.2,0.4-0.1,2,0.1,2.1
				c0.8,0.4,5.5-2,4.4-1c-1.1,1-1.5,3.8-0.9,4.2c1,0.7,1.8-1.9,2.2-1.5c0.4,0.5-1.4,2,0.2,1.4c1.3-0.5,1.8-4.5,1.8-4.5
				c1.7,0.6,4.3,4.4,4.6,4.2c1.4-0.7,0.1-3.3,0.1-4.2c0-0.3,0.5,0.2,0.6,0c0.4-1.1-0.5-1.5-0.5-1.6c-0.1-0.3,0-0.3,0.6-0.1
				c0.7,0.2-0.7-1.8-0.4-1.6c5.5,3.2-0.4,9.5-0.3,8.9c0.1-0.6-3.5-2.8-3.4-2.4c0.3,1.4,0.2,2-0.3,3.2
				C93.9,105.6,92.4,107,92.4,106.7z"/>
			<path class="st0" d="M76.7,63.2c0,0,3.5-1.1,5,0.5c0.2,0.2-0.9,0.1-4.5,2.8c-3.1,2.3-3.4,3.1-3.6,2.9c-0.3-0.4-1.3-1.2,0.5-4.5
				c0.8-1.4-0.3-2.2-0.4-2.2c-0.3,0,0.4-1,1.3-0.5C76.2,62.8,76.4,63,76.7,63.2z"/>
			<ellipse class="st0" cx="84.5" cy="67.2" rx="0.9" ry="0.8"/>
			<ellipse class="st0" cx="66.1" cy="27.7" rx="1" ry="1.1"/>
			<ellipse class="st0" cx="69.6" cy="65.7" rx="1.4" ry="1.4"/>
			<ellipse class="st0" cx="65.2" cy="51.1" rx="1.5" ry="1.2"/>
			<ellipse class="st0" cx="33.1" cy="102.8" rx="1.4" ry="1.5"/>
			<ellipse class="st0" cx="44.8" cy="106.5" rx="0.9" ry="1"/>
			<ellipse class="st0" cx="80.5" cy="81" rx="1.5" ry="1.4"/>
			<ellipse class="st0" cx="80.2" cy="69.2" rx="0.7" ry="0.7"/>
			<ellipse class="st0" cx="77.2" cy="72.4" rx="0.6" ry="0.6"/>
			<ellipse class="st0" cx="75.3" cy="76.3" rx="0.6" ry="0.6"/>
			<ellipse class="st0" cx="75.9" cy="80.8" rx="0.6" ry="0.6"/>
			<path class="st0" d="M52.4,95.2c0,0-0.8-0.9,1.9-3.7c0.5-0.6-2,0.9-2.2,1.4c-0.2,0.4,0.6-0.7,0.8-1.6c0-0.1-1.2,1.6-2,1.5
				c-0.8,0,0.3-2,1.2-3c0.2-0.2-2,2.1-2.3,2.9C48.7,95.9,52.1,95.9,52.4,95.2z"/>
			<g>
				<path class="st0" d="M66.2,15.4c-1.4-2.3-1.9-2.6-2.9-4.6c-0.8-1.5-1.8-0.9-1.7-0.9c0.2,0.1,1.1,0.7,0.5,1.1
					c0,0-0.7,0.6-1.5-0.3c-0.5-0.5-0.2,1.4,1.7,2.1c0.2,0.1-0.4,1.4-2,1.1c-0.3,0,0.4,1,3.2,1.7c0.2,0.1,0.3,1.4-0.4,2.5
					c-0.2,0.4,2.2,0.2,3.6-2.1"/>
			</g>
			<path class="st0" d="M49.4,23c0,0-1.6-0.2-1.4,1.5C48.1,24.7,50,24.4,49.4,23z"/>
			<path class="st0" d="M50.8,19.2c0,0-1.5,0.6-0.6,1.9C50.4,21.3,51.9,20.2,50.8,19.2z"/>
			<path class="st0" d="M50.6,23.1c0,0-0.4,1.5,1.2,1.6C52,24.7,52.1,22.9,50.6,23.1z"/>
			<path class="st0" d="M47.4,21.3c0,0,0.5,1.4,1.8,0.6C49.4,21.7,48.4,20.2,47.4,21.3z"/>
			<path class="st0" d="M53.1,21.4c0,0-1.2-1-1.9,0.4C51.1,22.1,52.7,22.9,53.1,21.4z"/>
			<g>
				<path class="st0" d="M57.4,6.9c0.3-0.1-4-3.5-8.6,2c0,0-1.5,1.9-2,3.9c-0.1,0.3-0.4,1.3,0,2.3c0,0,0-1.4,0.7-1.6
					c0.4-0.1,0.3,1.8,1.9,2c0.3,0-2.6-1.7,0.2-4.8c0.5-0.5-0.1,1.3,1.6,2.5c0.1,0.1-1.4-1.7,0.3-3.6c0.3-0.3,0.8,2.1,2.3,2.6
					c0.3,0.1-2.7-3.5,1.4-5.2c0.3-0.1-1.1,2.1,0,3.2C55.6,10.4,55.1,8.1,57.4,6.9z"/>
			</g>
			<path class="st0" d="M83.1,33.1c-1.5-1.2-2.4-1.2-3.1-1.2c-1,0-3.1,1.8-1.5,3.5c0.4,0.4,1.4,0.2,1.3,0.1
				c-0.1-0.1-0.6-0.3-0.8-0.8c-0.5-0.8,0.6-1.7,1.6-1.6c0.8,0.1,1.9,0.8,1.6,1.9C81.9,35.3,83.1,33.1,83.1,33.1z"/>
			<path class="st0" d="M80.4,37.4c-0.6-0.5-1.1-0.6-1.4-0.6c-0.4,0-1.3,0.5-1.2,1.3c0,0.3,0.4,0.4,0.3,0.4c-0.1,0,0-0.5,0.1-0.7
				c0.3-0.4,0.6-0.6,1.1-0.5c0.4,0.1,0.7,0.4,0.4,1C79.7,38.5,80.4,37.4,80.4,37.4z"/>
			<path class="st0" d="M89.4,90.3c0,0-2.5,0.9-2.3,3.1c0,0.7,5.5,3.7,8.7-0.2c0.2-0.2-3.9,1.5-6.3,0.1C89,93,87.2,92,89.4,90.3z"/>
		</g>
		<g>
			<path class="st0" d="M91.1,69c-1.1,1.1-2.2,3.8-1,5.8c0.1,0.2-1.7-1.4-1.2-4c0.5-2.8,2.2-4,4.4-4.1c1.9-0.1,3.4,0.7,2,0.5
				C95.3,67.2,92.3,67.7,91.1,69z"/>
			<path class="st0" d="M92.8,105.2c0-0.2-1.1-0.4-3.3-1.3c-3.3-1.3-2.1-3.8-2.1-3.8s-0.4-0.1-1.7,0.4c-1.7,0.7-3.4-0.2-3.4-0.2
				c0.5-1.3-0.1-2.1-0.2-2.9c0-0.8,1.7-2.6,2.9-2.2c0.2,0.1-0.5,0.7-0.4,1c0.2,0.4,0.9,0.5,0.7,0.9c-0.2,0.4-0.1,2.2,0.4,2.3
				c0.9,0.2,4.6-1.6,3.6-0.7c-1,0.9-0.7,3.4-0.1,3.7c1.1,0.6,1.8-1.6,2.1-1.4c0.4,0.4-1.6,1.8,0,1.4c2.2-0.5,2.4-4.2,2.4-4.2
				c1.6,0.6,4.1,3.9,4.4,3.8c1.9-0.8,0.4-3.3,0.3-4.1c0-0.3,0.4,0.2,0.6-0.2c0.4-1-0.4-1.4-0.4-1.5c-0.1-0.3,0-0.1,0.7,0
				c0.7,0.2-0.4-1.5-0.1-1.2c2.7,3.3-0.6,8.1-0.9,7.6c-0.9-1.2-3.6-2.3-3.5-1.9c0.3,1.3,0,1.7-0.4,2.9
				C93.7,105.1,92.7,105.5,92.8,105.2z"/>
			<path class="st0" d="M77.4,63.4c0,0,2-0.7,3.1,0.4c0.2,0.2-0.6,0.2-3.2,2.1c-2.2,1.6-2.4,2.2-2.5,2.1c-0.2-0.3-1.3-0.5,0-2.9
				C75.4,64.1,76.9,63.5,77.4,63.4z"/>
			<ellipse class="st0" cx="94.9" cy="88.2" rx="0.9" ry="0.8"/>
			<g>
				<path class="st0" d="M66,15.6c-1.2-1.9-1.6-2.2-2.4-3.8c-0.5-1-0.9-0.9-0.9-0.9c0.2,0.1,0.1,0.6-0.3,0.8c0,0-0.6,0.3-1,0
					c-0.4-0.3-0.2,0.5,1.4,1.1c0.1,0.1-0.2,1.9-1.5,1.6c-0.2,0,0,0.3,2.4,0.9c0.2,0,0.7,1.6,0,2.5c-0.2,0.3,1.4,0.5,2.5-1.5"/>
			</g>
			<g>
				<path class="st0" d="M56.6,6.6c0.2-0.1-4-1.9-7.5,2.1c-1.6,1.9-1.9,3.4-2,4.5c0,0,0.1-0.6,0.6-0.8c0.2-0.1-0.2,0.4,0.7,0.9
					c0.2,0.1-0.9-1.3,1.3-3.3c0.4-0.4-0.2-0.1,0.8,1c0.1,0.1-0.2-1.6,1-2.3c0.3-0.2,0.2,0.6,1.2,1.4c0.2,0.2-0.8-2.3,2.6-3.4
					c0.5-0.2-0.5,1.6-0.2,2.3C55.3,9.3,55.6,7,56.6,6.6z"/>
			</g>
			<path class="st0" d="M82.9,33c-1.5-1-2-1-2.9-1c-0.5,0-1.8,0.5-1.8,2.2c0,0.5,0.4,0.8,0.4,0.7c-0.1-0.5-0.2-0.6,0-1.1
				c0.4-0.9,1.1-1.1,2-1c0.8,0.1,1.8,0.8,1.5,1.8C82.1,35,82.9,33,82.9,33z"/>
			<path class="st0" d="M89.7,94.5c0,0-2.1-0.9-2.2-1.8c0-0.3,0.1,0.8,3.5,1.3c2.4,0.4,4-0.5,4-0.3c-0.1,0.4-1,0.9-2.1,1
				C91.7,94.9,90.6,94.8,89.7,94.5z"/>
		</g>
	</g>
	<g>
		<g>
			<path class="st0" d="M410.1,74.9c0,1.7-1.4,3-3.1,3c-1.7,0-3.1-1.3-3.1-3c0-1.7,1.4-3,3.1-3C408.7,71.9,410.1,73.2,410.1,74.9z
				 M404.6,74.9c0,1.3,1,2.4,2.3,2.4c1.3,0,2.3-1.1,2.3-2.4c0-1.3-1-2.4-2.3-2.4C405.7,72.5,404.6,73.6,404.6,74.9z M406.5,76.4
				h-0.7v-3c0.3,0,0.7-0.1,1.2-0.1c0.6,0,0.8,0.1,1,0.2c0.2,0.1,0.3,0.3,0.3,0.6c0,0.4-0.3,0.6-0.6,0.7v0c0.3,0.1,0.4,0.3,0.5,0.7
				c0.1,0.5,0.2,0.6,0.2,0.7h-0.7c-0.1-0.1-0.1-0.4-0.2-0.7c-0.1-0.3-0.2-0.5-0.6-0.5h-0.3V76.4z M406.5,74.7h0.3
				c0.4,0,0.7-0.1,0.7-0.4c0-0.3-0.2-0.5-0.6-0.5c-0.2,0-0.3,0-0.4,0V74.7z"/>
		</g>
		<path class="st0" d="M158.7,92.9v0.3c0,0.6-0.2,1-0.6,1.4c-0.4,0.3-0.9,0.5-1.5,0.5H122c0.2,4.6,1.9,8.5,5.1,11.6
			c3.2,3.1,6.9,4.7,11.3,4.7c2.8,0,5.4-0.7,7.8-2.1c2.4-1.4,4.3-3.2,5.8-5.6c0.7-1.1,1.6-1.4,2.8-0.7c1.1,0.8,1.4,1.8,0.7,2.9
			c-1.8,2.9-4.3,5.3-7.3,7c-3,1.7-6.3,2.6-9.8,2.6c-5.7,0-10.5-2.1-14.5-6.2c-4-4.1-6-9.1-6-14.9c0-5.8,2-10.8,6-15
			c4-4.1,8.8-6.2,14.3-6.2c5.5,0,10.2,1.9,14.1,5.6C156.1,82.6,158.2,87.3,158.7,92.9z M148.7,81.2c-3-2.6-6.5-3.9-10.4-3.9
			c-3.9,0-7.4,1.3-10.4,3.8c-3,2.6-4.9,5.9-5.7,9.9h32C153.5,87.1,151.7,83.8,148.7,81.2z"/>
		<path class="st0" d="M166.5,113.4V57.2c0-0.6,0.2-1.1,0.6-1.5c0.4-0.4,0.9-0.6,1.5-0.6c0.6,0,1.1,0.2,1.5,0.6
			c0.4,0.4,0.6,0.9,0.6,1.5v56.2c0,0.6-0.2,1.1-0.6,1.5c-0.4,0.4-0.9,0.6-1.5,0.6c-0.6,0-1.1-0.2-1.5-0.6
			C166.7,114.5,166.5,114,166.5,113.4z"/>
		<path class="st0" d="M182.2,113.4V57.2c0-0.6,0.2-1.1,0.6-1.5c0.4-0.4,0.9-0.6,1.5-0.6c0.6,0,1.1,0.2,1.5,0.6
			c0.4,0.4,0.6,0.9,0.6,1.5v56.2c0,0.6-0.2,1.1-0.6,1.5c-0.4,0.4-0.9,0.6-1.5,0.6c-0.6,0-1.1-0.2-1.5-0.6
			C182.4,114.5,182.2,114,182.2,113.4z"/>
		<path class="st0" d="M228.6,73.2c1.2,0.3,1.8,0.9,1.8,2v36.9c0,5.5-2,10.2-5.9,14.1c-3.9,3.9-8.7,5.8-14.2,5.8
			c-2.9,0-5.8-0.7-8.7-2c-1.2-0.7-1.5-1.7-0.9-2.7c0.5-1.1,1.5-1.4,2.7-1.1c2.2,1.1,4.5,1.6,6.9,1.6c4.4,0,8.1-1.5,11.2-4.6
			c3.1-3,4.7-6.8,4.7-11.1v-2.8c-3.6,4-7.8,6-12.8,6c-4.9,0-9.1-1.7-12.4-5.1c-3.3-3.4-5-7.4-5-12.1V75.2c0-0.6,0.2-1,0.6-1.4
			c0.4-0.4,0.9-0.6,1.5-0.6c0.6,0,1.1,0.2,1.5,0.6c0.4,0.4,0.6,0.8,0.6,1.4v22.9c0,3.6,1.3,6.7,3.8,9.2c2.5,2.5,5.6,3.8,9.2,3.8
			c3.6,0,6.7-1.3,9.2-3.8c2.5-2.5,3.8-5.6,3.9-9.2V75.2c0-0.5,0.1-0.7,0.2-0.9c0.1-0.1,0.2-0.3,0.3-0.4c0-0.2,0.3-0.4,0.9-0.6h0.2
			c0.1-0.1,0.2-0.1,0.3-0.1H228.6z"/>
		<path class="st0" d="M261.2,113.4V57.2c0-0.6,0.2-1.1,0.6-1.5c0.4-0.4,0.9-0.6,1.5-0.6h13.5c4.1,0,7.7,1.5,10.6,4.4
			c2.9,2.9,4.4,6.6,4.4,11.1c0,4.5-1.9,8.2-5.8,11.3c3.4,1.2,6.3,3.3,8.5,6.3c2.2,3,3.3,6.3,3.3,10c0,4.8-1.7,8.8-5,12.2
			c-3.4,3.4-7.4,5-12.2,5h-17.3c-0.6,0-1.1-0.2-1.4-0.6C261.3,114.5,261.2,114,261.2,113.4z M265.4,80.9h11.3c3,0,5.5-1,7.6-3.1
			c2.1-2.1,3.1-4.6,3.1-7.6c0-3-1.1-5.5-3.1-7.6c-2.1-2.1-4.6-3.2-7.6-3.2h-11.3V80.9z M265.4,111.2h15.1c3.6,0,6.6-1.3,9.1-3.8
			c2.5-2.5,3.8-5.6,3.9-9.2c-0.1-3.6-1.4-6.6-3.9-9.2c-2.5-2.6-5.6-3.8-9.1-3.8h-15.1V111.2z"/>
		<path class="st0" d="M305.1,113.4V57.2c0-0.6,0.2-1.1,0.6-1.5c0.4-0.4,0.9-0.6,1.5-0.6c0.6,0,1.1,0.2,1.5,0.6
			c0.4,0.4,0.6,0.9,0.6,1.5v56.2c0,0.6-0.2,1.1-0.6,1.5c-0.4,0.4-0.9,0.6-1.5,0.6c-0.6,0-1.1-0.2-1.5-0.6
			C305.3,114.5,305.1,114,305.1,113.4z"/>
		<path class="st0" d="M320.7,63.5v-2c0-0.6,0.2-1.1,0.6-1.5c0.4-0.4,0.9-0.6,1.5-0.6c0.6,0,1.1,0.2,1.5,0.6
			c0.4,0.4,0.6,0.9,0.6,1.5v2c0,0.6-0.2,1.2-0.6,1.6c-0.4,0.4-0.9,0.6-1.5,0.6c-0.6,0-1.1-0.2-1.5-0.6
			C320.9,64.6,320.7,64.1,320.7,63.5z M320.7,113.4V75.3c0-0.6,0.2-1.1,0.6-1.5c0.4-0.4,0.9-0.6,1.5-0.6s1.1,0.2,1.5,0.6
			c0.4,0.4,0.6,0.9,0.6,1.5v38.1c0,0.6-0.2,1.1-0.6,1.5c-0.4,0.4-0.9,0.6-1.5,0.6c-0.6,0-1.1-0.2-1.5-0.6
			C320.9,114.5,320.7,114,320.7,113.4z"/>
		<path class="st0" d="M333.1,109.4c-1-0.9-1.1-1.8-0.3-2.8c0.3-0.5,0.8-0.7,1.4-0.8c0.6-0.1,1.1,0.1,1.6,0.5
			c4.5,3.3,8.6,4.9,12.2,4.9c3.7,0,6.6-0.9,8.7-2.6c2.1-1.4,3.2-3.1,3.1-5c0-1.9-1-3.6-2.8-5.1c-1.9-1.5-4.9-2.6-9.1-3.3l-0.2-0.1
			c-4.5-0.8-7.7-1.9-9.6-3.3c-3-1.8-4.6-4.3-4.6-7.6c0-3.3,1.5-6,4.6-8.3c2.8-1.9,6.2-2.8,10.3-2.8c1.7,0,3.3,0.3,5,0.8
			c1.7,0.5,3,1.1,3.9,1.6c0.9,0.5,2.1,1.2,3.7,2.2c0.5,0.3,0.7,0.8,0.9,1.4c0.1,0.6,0,1.1-0.3,1.6c-0.3,0.5-0.7,0.7-1.3,0.9
			c-0.6,0.1-1.1,0-1.6-0.3c-1.4-1-2.5-1.7-3.2-2.1c-0.7-0.4-1.8-0.9-3.1-1.4c-1.4-0.5-2.7-0.7-4-0.7c-3.3,0-6,0.8-7.8,2.3
			c-1.9,1.5-2.8,3.1-2.8,4.8c0,1.7,0.8,3.1,2.4,4.4c2,1.4,4.9,2.4,8.6,2.9h0.2c3.7,0.6,7.2,1.7,10.3,3.5c3.2,2.1,4.7,4.8,4.7,8.3
			c0,3.5-1.6,6.4-4.7,8.7c-3.1,2.3-6.7,3.5-10.7,3.5C343.2,115.4,338,113.4,333.1,109.4z"/>
		<path class="st0" d="M372,109.4c-1-0.9-1.1-1.8-0.3-2.8c0.3-0.5,0.8-0.7,1.4-0.8c0.6-0.1,1.1,0.1,1.6,0.5
			c4.5,3.3,8.6,4.9,12.2,4.9c3.7,0,6.6-0.9,8.7-2.6c2.1-1.4,3.2-3.1,3.1-5c0-1.9-1-3.6-2.8-5.1c-1.9-1.5-4.9-2.6-9.1-3.3l-0.2-0.1
			c-4.5-0.8-7.7-1.9-9.6-3.3c-3-1.8-4.6-4.3-4.6-7.6c0-3.3,1.5-6,4.6-8.3c2.8-1.9,6.2-2.8,10.3-2.8c1.7,0,3.3,0.3,5,0.8
			c1.7,0.5,3,1.1,3.9,1.6c0.9,0.5,2.1,1.2,3.7,2.2c0.5,0.3,0.7,0.8,0.9,1.4c0.1,0.6,0,1.1-0.3,1.6c-0.3,0.5-0.7,0.7-1.3,0.9
			c-0.6,0.1-1.1,0-1.6-0.3c-1.4-1-2.5-1.7-3.2-2.1c-0.7-0.4-1.8-0.9-3.1-1.4c-1.4-0.5-2.7-0.7-4-0.7c-3.3,0-6,0.8-7.8,2.3
			c-1.9,1.5-2.8,3.1-2.8,4.8c0,1.7,0.8,3.1,2.4,4.4c2,1.4,4.9,2.4,8.6,2.9h0.2c3.7,0.6,7.2,1.7,10.3,3.5c3.2,2.1,4.7,4.8,4.7,8.3
			c0,3.5-1.6,6.4-4.7,8.7c-3.1,2.3-6.7,3.5-10.7,3.5C382.1,115.4,376.9,113.4,372,109.4z"/>
	</g>
	<g>
		<path class="st0" d="M272.7,127h1.8l-3.7,8.5h-0.5l-2.5-5.8l-2.4,5.8h-0.5l-3.7-8.5h1.8l2.2,5.1l2.1-5.1h1.2l2.1,5.1L272.7,127z"
			/>
		<path class="st0" d="M282.7,131.3h-5.9c0,0.8,0.3,1.4,0.8,1.9c0.5,0.5,1.1,0.7,1.9,0.7c1.1,0,2.1-0.3,3-1v1.6
			c-0.5,0.3-1,0.6-1.5,0.7c-0.5,0.1-1.1,0.2-1.8,0.2c-0.9,0-1.7-0.2-2.2-0.6c-0.6-0.4-1-0.9-1.4-1.5c-0.3-0.6-0.5-1.4-0.5-2.2
			c0-1.3,0.4-2.3,1.1-3.1c0.7-0.8,1.7-1.2,2.8-1.2c1.1,0,2,0.4,2.7,1.2c0.7,0.8,1,1.8,1,3.1V131.3z M276.9,130.3h4.2
			c0-0.7-0.2-1.2-0.6-1.5c-0.4-0.4-0.8-0.5-1.4-0.5s-1.1,0.2-1.5,0.5S277,129.7,276.9,130.3z"/>
		<path class="st0" d="M294.9,130.3v3.5c0,0.3,0.1,0.4,0.3,0.4c0.2,0,0.5-0.1,0.9-0.4v1c-0.4,0.2-0.7,0.4-0.9,0.5s-0.5,0.1-0.7,0.1
			c-0.7,0-1.1-0.3-1.3-0.8c-0.7,0.5-1.4,0.8-2.2,0.8c-0.6,0-1.1-0.2-1.5-0.6c-0.4-0.4-0.6-0.9-0.6-1.4c0-0.5,0.2-1,0.6-1.4
			c0.4-0.4,0.9-0.7,1.6-1l2.1-0.7v-0.4c0-1-0.5-1.5-1.5-1.5c-0.9,0-1.8,0.5-2.6,1.4v-1.8c0.6-0.8,1.6-1.1,2.8-1.1
			c0.9,0,1.6,0.2,2.2,0.7c0.2,0.2,0.3,0.4,0.5,0.6c0.1,0.3,0.2,0.5,0.3,0.8C294.9,129.1,294.9,129.6,294.9,130.3z M293.3,133.7v-2.5
			l-1.1,0.4c-0.6,0.2-1,0.4-1.2,0.7c-0.2,0.2-0.3,0.5-0.3,0.8c0,0.3,0.1,0.6,0.3,0.8c0.2,0.2,0.5,0.3,0.9,0.3
			C292.4,134.3,292.9,134.1,293.3,133.7z"/>
		<path class="st0" d="M299.4,127v1.9l0.1-0.1c0.8-1.3,1.6-1.9,2.4-1.9c0.6,0,1.3,0.3,2,0.9l-0.9,1.5c-0.6-0.5-1.1-0.8-1.6-0.8
			c-0.5,0-1,0.3-1.4,0.8s-0.6,1.1-0.6,1.8v4.4h-1.7V127H299.4z"/>
		<path class="st0" d="M312.1,131.3h-5.9c0,0.8,0.3,1.4,0.8,1.9c0.5,0.5,1.1,0.7,1.9,0.7c1.1,0,2.1-0.3,3-1v1.6
			c-0.5,0.3-1,0.6-1.5,0.7c-0.5,0.1-1.1,0.2-1.8,0.2c-0.9,0-1.7-0.2-2.2-0.6c-0.6-0.4-1-0.9-1.4-1.5c-0.3-0.6-0.5-1.4-0.5-2.2
			c0-1.3,0.4-2.3,1.1-3.1c0.7-0.8,1.7-1.2,2.8-1.2c1.1,0,2,0.4,2.7,1.2c0.7,0.8,1,1.8,1,3.1V131.3z M306.3,130.3h4.2
			c0-0.7-0.2-1.2-0.6-1.5c-0.4-0.4-0.8-0.5-1.4-0.5s-1.1,0.2-1.5,0.5S306.4,129.7,306.3,130.3z"/>
		<path class="st0" d="M324.2,127h1.9l-5.9,12.6h-1.8l2.8-6.1l-3.2-6.6h1.9l2.3,4.7L324.2,127z"/>
		<path class="st0" d="M331.2,127c1.3,0,2.3,0.4,3.2,1.2c0.8,0.8,1.3,1.9,1.3,3.1c0,1.2-0.4,2.2-1.3,3c-0.9,0.8-1.9,1.2-3.2,1.2
			c-1.3,0-2.3-0.4-3.1-1.2s-1.3-1.8-1.3-3c0-1.2,0.4-2.2,1.3-3.1C328.8,127.4,329.9,127,331.2,127z M331.1,128.4
			c-0.8,0-1.4,0.3-2,0.8c-0.5,0.5-0.8,1.2-0.8,2c0,0.8,0.3,1.5,0.8,2c0.5,0.5,1.2,0.8,2,0.8c0.8,0,1.5-0.3,2-0.8
			c0.5-0.5,0.8-1.2,0.8-2c0-0.8-0.3-1.4-0.8-2C332.6,128.7,331.9,128.4,331.1,128.4z"/>
		<path class="st0" d="M342.8,135.3v-1.1c-0.4,0.4-0.8,0.7-1.2,0.9c-0.5,0.2-0.9,0.3-1.3,0.3c-0.5,0-1-0.1-1.5-0.4
			c-0.4-0.3-0.8-0.6-1-1.1s-0.3-1.2-0.3-2.2V127h1.7v4.8c0,0.9,0.1,1.5,0.4,1.8c0.3,0.3,0.7,0.5,1.3,0.5c0.8,0,1.5-0.4,2-1.2v-6h1.7
			v8.4H342.8z"/>
		<path class="st0" d="M348.5,127v1.9l0.1-0.1c0.8-1.3,1.6-1.9,2.4-1.9c0.6,0,1.3,0.3,2,0.9l-0.9,1.5c-0.6-0.5-1.1-0.8-1.6-0.8
			c-0.5,0-1,0.3-1.4,0.8c-0.4,0.5-0.6,1.1-0.6,1.8v4.4h-1.7V127H348.5z"/>
		<path class="st0" d="M364.4,127h1.8l-3.7,8.5h-0.6l-3.8-8.5h1.8l2.3,5.1L364.4,127z"/>
		<path class="st0" d="M368.3,123.5c0.3,0,0.5,0.1,0.7,0.3c0.2,0.2,0.3,0.4,0.3,0.7c0,0.3-0.1,0.5-0.3,0.7c-0.2,0.2-0.4,0.3-0.7,0.3
			c-0.3,0-0.5-0.1-0.7-0.3c-0.2-0.2-0.3-0.4-0.3-0.7c0-0.3,0.1-0.5,0.3-0.7C367.8,123.6,368,123.5,368.3,123.5z M367.5,127h1.7v8.4
			h-1.7V127z"/>
		<path class="st0" d="M371.5,122.6h1.7v12.7h-1.7V122.6z"/>
		<path class="st0" d="M375.6,122.6h1.7v12.7h-1.7V122.6z"/>
		<path class="st0" d="M384.9,130.3v3.5c0,0.3,0.1,0.4,0.3,0.4c0.2,0,0.5-0.1,0.9-0.4v1c-0.4,0.2-0.7,0.4-0.9,0.5s-0.5,0.1-0.7,0.1
			c-0.7,0-1.1-0.3-1.3-0.8c-0.7,0.5-1.4,0.8-2.2,0.8c-0.6,0-1.1-0.2-1.5-0.6c-0.4-0.4-0.6-0.9-0.6-1.4c0-0.5,0.2-1,0.6-1.4
			c0.4-0.4,0.9-0.7,1.6-1l2.1-0.7v-0.4c0-1-0.5-1.5-1.5-1.5c-0.9,0-1.8,0.5-2.6,1.4v-1.8c0.6-0.8,1.6-1.1,2.8-1.1
			c0.9,0,1.6,0.2,2.2,0.7c0.2,0.2,0.3,0.4,0.5,0.6c0.1,0.3,0.2,0.5,0.3,0.8C384.9,129.1,384.9,129.6,384.9,130.3z M383.3,133.7v-2.5
			l-1.1,0.4c-0.6,0.2-1,0.4-1.2,0.7c-0.2,0.2-0.3,0.5-0.3,0.8c0,0.3,0.1,0.6,0.3,0.8c0.2,0.2,0.5,0.3,0.9,0.3
			C382.3,134.3,382.8,134.1,383.3,133.7z"/>
		<path class="st0" d="M387.2,129.9c0-0.9,0.3-1.6,1-2.1c0.7-0.5,1.5-0.8,2.7-0.8h3.4v1.3h-1.7c0.3,0.3,0.6,0.6,0.7,0.9
			s0.2,0.6,0.2,0.9c0,0.4-0.1,0.9-0.4,1.3c-0.2,0.4-0.6,0.7-1,1c-0.4,0.2-1,0.4-1.9,0.5c-0.6,0.1-0.9,0.3-0.9,0.6
			c0,0.2,0.1,0.4,0.3,0.5c0.2,0.1,0.7,0.3,1.3,0.4c1,0.2,1.7,0.4,2,0.5c0.3,0.1,0.6,0.3,0.8,0.5c0.4,0.4,0.6,0.9,0.6,1.5
			c0,0.8-0.4,1.4-1.1,1.9c-0.7,0.5-1.6,0.7-2.8,0.7c-1.2,0-2.1-0.2-2.9-0.7c-0.7-0.5-1.1-1.1-1.1-1.9c0-1.1,0.7-1.9,2.1-2.2
			c-0.6-0.4-0.8-0.7-0.8-1.1c0-0.3,0.1-0.5,0.4-0.7c0.2-0.2,0.6-0.4,1-0.5C387.8,132,387.2,131.1,387.2,129.9z M389.9,135.7
			c-0.6,0-1,0.1-1.4,0.4s-0.5,0.5-0.5,0.9c0,0.9,0.8,1.3,2.3,1.3c0.7,0,1.3-0.1,1.7-0.3c0.4-0.2,0.6-0.5,0.6-0.9
			c0-0.4-0.3-0.7-0.8-0.9S390.7,135.7,389.9,135.7z M390.3,128.4c-0.4,0-0.8,0.2-1.1,0.5s-0.5,0.7-0.5,1.1c0,0.4,0.2,0.8,0.5,1.1
			c0.3,0.3,0.7,0.4,1.2,0.4c0.5,0,0.9-0.1,1.2-0.4c0.3-0.3,0.5-0.6,0.5-1.1c0-0.4-0.2-0.8-0.5-1.1
			C391.1,128.6,390.7,128.4,390.3,128.4z"/>
		<path class="st0" d="M402.6,131.3h-5.9c0,0.8,0.3,1.4,0.8,1.9c0.5,0.5,1.1,0.7,1.9,0.7c1.1,0,2.1-0.3,3-1v1.6
			c-0.5,0.3-1,0.6-1.5,0.7c-0.5,0.1-1.1,0.2-1.8,0.2c-0.9,0-1.7-0.2-2.2-0.6c-0.6-0.4-1-0.9-1.4-1.5c-0.3-0.6-0.5-1.4-0.5-2.2
			c0-1.3,0.4-2.3,1.1-3.1c0.7-0.8,1.7-1.2,2.8-1.2c1.1,0,2,0.4,2.7,1.2c0.7,0.8,1,1.8,1,3.1V131.3z M396.8,130.3h4.2
			c0-0.7-0.2-1.2-0.6-1.5c-0.4-0.4-0.8-0.5-1.4-0.5c-0.6,0-1.1,0.2-1.5,0.5C397.2,129.1,396.9,129.7,396.8,130.3z"/>
	</g>
</g>
</svg>
