<?xml version="1.0" encoding="utf-8"?>
<!-- Generator: Adobe Illustrator 20.1.0, SVG Export Plug-In . SVG Version: 6.00 Build 0)  -->
<svg version="1.1" id="Layer_1" xmlns="http://www.w3.org/2000/svg" xmlns:xlink="http://www.w3.org/1999/xlink" x="0px" y="0px"
	 viewBox="0 0 432 144" style="enable-background:new 0 0 432 144;" xml:space="preserve">
<style type="text/css">
	.st0{fill:#231F20;}
	.st1{fill:#DF1174;}
	.st2{fill:#F17622;}
</style>
<g>
	<g>
		<g>
			<g>
				<path class="st0" d="M21.4,107c0,0-0.6-2.1-2.5-1.1C18.6,106.1,19.8,108.4,21.4,107z M29.6,105.1c0-0.4-2.3,0.4-2.3,0.7
					c0.3,3-1.4,3.2-1.4,3.2l-0.1,0.2c0.1-0.1,0.1-0.3,0.1-0.5c0-0.1,0-0.2,0-0.3c0.1-1.3-0.9-2.3-2.1-2.4c-1.2-0.1-2.2,0.9-2.3,2.2
					c0,1.3,0.9,2.3,2.1,2.4c0.5,0,0.9-0.1,1.3-0.4l-0.1,0.1C30.5,110.6,29.6,105.7,29.6,105.1z M21.2,108.9c0,0-1.6-1.5-2.7,0.5
					C18.4,109.6,20.6,110.9,21.2,108.9z M22.2,110.7c0,0-2-0.3-1.8,1.7C20.4,112.8,22.7,112.6,22.2,110.7z M21.9,103.6
					c0,0-1,1.6,0.8,2.2C23,105.8,23.7,103.7,21.9,103.6z M61.1,108.8C61.1,108.8,61.1,108.8,61.1,108.8
					C61.2,108.8,61.1,108.8,61.1,108.8z M105.6,97.9c-0.1-2-1.3-2.5-1.3-2.9c0.3-6.5,0.3-8.7-1.9-14.4c-1-2.5-2.2-4.6-3.6-6.3
					c-0.6-1-4.7-7.2-18.5-18.7c-2.2-1.9-6.2-5-9.3-6.9c-0.4-0.2-2.5-1.7-5.2-3.2c11.3-1.6,13-12.2,12.6-12.3
					c-0.4-0.1-3.9-4.5-3.9-4.5c-2.3-0.9-2.6,1.5-2.8,1.5c-3.8,0-1.7,3.2-1.9,3.2c-2.2-0.4-2.9,0.9-3.2,1.6c-0.8,2,1,3.4,0.8,3.6
					c-2.1,2.1,0.3,3.2,0.5,3.5c-3.2,0.7-4.2-1.3-4.3-1.2c-0.7,0.5,0.2,1.1,0,1.1c-0.2,0.1-4.2-1.1-4.2-3.6c-0.1-3.6,2.3-3.3,3-3.1
					c1.1,0.2,1.9,2.2,1.3,2.7c-1.5,1.3-2.1,0.5-2.4,0.1c0.2,0.2,0.5,0.1,0.6,0.1c0.4-0.1,0.3-0.8-0.3-0.9c-0.7-0.1-1.2,0.6-0.6,1.4
					c0.1,0.1,1.3,1.6,3-0.2c1.5-1.6-0.7-3.6-1.3-3.7c-0.7-0.1-4.6-0.9-4.3,3.9c0.2,3.8,4.6,4.4,7.3,4.4c-1.3,0.3-2.9,0.6-3.6,0.7
					c-0.4-0.2-0.7-0.3-1.1-0.4c0,0-9.1-3.5-13.7,0.6c-4.6,4.1-2.3,11.3,4,8.7c0.2-0.1-6.2-0.8-4-5.4c0,0,3.6-6.6,10-0.1
					c0.2,0.2-4,1.2-3.6,5c0.3,2.5,2.5,4.5,4.6,3.1c1.8-1.2,0.3-2.9,0.3-2.9c-2.4-1.5-3,0.8-3.3,0.6c-1-0.6,0-4.6,5.8-3.9
					c3.1,0.4,5.8,1.9,7.8,3.3c-2.4-1-5.2-1.3-7.2,0.8c-3.9,4,0.1,7.2,1,7.6c1.3,0.6,4.8,0.3,4.7-2.4c-0.1-3.1-2.9-3-3-2.9
					c-1.2,0.3-1.3,1.4-0.6,1.8c0.6,0.3,1.3-0.3,1-0.7c-0.1-0.2-0.3-0.5-0.6-0.5c0.6-0.2,1.9-0.4,2.1,2c0.1,0.9-1.9,2-3.2,1.3
					c-0.8-0.5-3.1-2.3-0.5-5.2c2.1-2.4,6.8-0.1,6.9,0.1c0.1,0.2-2.7,0.3-0.8,2.9c0.1,0.1,0.3-4.1,5.1,0.9c0,0,0-0.1,0.1-0.2
					c-0.5,8.9,8.8,6.7,8.8,6.7c-6.2-0.2-3.5-4.5-2.6-4.5c-2,2.6,1.7,3.7,1.4,3.4c-1.7-2.2,0.4-1.2,2.1-0.3c0.1,0.1,0.2,0.2,0.2,0.3
					c1.6,1.7,2.1,2.7,2.4,3.2c-4-0.6-8.1-0.2-9.7,0.2c-0.3,0.1-0.5,0.2-0.8,0.3c-1.4-1.1-3.6-2.1-6.1-1c-0.8,0.4-4.2-5.1-9-2.6
					c-3.1,1.6-2.1,5.1-1.6,5.9c1.1,1.7,4.3,3,4.7-0.2c0.3-2.5-3.7-2.1-3.9-0.9c-0.2,1.2-0.9-2.6,1.8-3.6c2.6-1,4.8,1.9,4.2,4
					c-0.5,1.9-2.3,4.3,0.1,6.2c-3,5-1.9,9.2-1.7,10.1c0.4,1.5,2.1,4.8,5,5.4c4.1,0.8,5.1-2.3,5.6-3c0.5-0.6,1.2-4.1-1.4-4
					c-2.6,0.1-2.1,2.7-2.1,2.7c0.6,2.5,3,1.3,2.9,1.6c-0.1,0.3-1.5,2.8-5,1.7c-0.2-0.1-3.7-1.5-4-5.6c-0.4-5.7,1.6-8.5,8-12.6
					c6.3-4.1,10.6-1.8,10.6-1.8c-3.4,2.2-3.4,6.4-3.4,6.4c0,4.9,6,6.7,5.5,6.4c-0.5-0.3-0.9-2.6-0.3-2.1c0.2,0.2,0.9,0.5,0.8,0.4
					c-0.1-0.2-0.2-0.4-0.6-1.3c-2.8-6.9,4.9-6.5,4.9-6.5c1.8,0.2,4.1,2.8,3.6,2.9c-2.8,0.5-4.3,3.1-3.6,5c0.7,1.9,3.4,1.7,3.2,1.6
					c-0.3-0.1-2.7-0.9-1.8-3.3c0.9-2.4,4.1-1.6,5,0.1c1.9,3.8,0.4,5.6,0,5.4c-6.4-3.2-7.3,3.7-7.4,4.2c-0.1,0.5,0.6-0.4,0.8-0.8
					c1.6-3,3.9-2,4.6-1.6c1.8,0.9,2.2,3,1.3,4.4c-1,1.6-5-0.2-5.7-0.4c-0.3-0.1-0.2,0.2-0.2,0.2c13.1,8.2,6.4,19.7,5.3,21.3
					c-0.8,1.1-2,2.3-3.5,3.4c-0.1-1.5-0.8-3.7-2.8-6.8c-0.3-0.4,2.8,1.8,2.7,2.5c-0.1,0.7,9.5-7.2-1.4-12.8
					c-0.4-0.2,2.6,3.5,1.8,3.3c-0.8-0.2-1,0.1-0.9,0.5c0,0,0.8-0.3,0.9,1.1c0,0.3-0.8-0.2-0.8,0.1c0.1,0.9,1.1,2.8,0.5,4.4
					c-0.1,0.3-3.4-3.9-5.3-4.5c0,0-0.4,3.8-1.6,4.8c-1.2,1,0.4-0.8,0-1.4c-0.4-0.5-1.2,1.5-2,1.6c-0.8,0.1,0.1-3.8,1.4-4.9
					c1.2-1.1-4.3,1.9-5.2,1.5c-0.2-0.1-0.1-1.8,0.1-2.3c0.2-0.4-0.4,0.2-0.9-0.8c-0.1-0.3,1.4-1.7,1.2-1.7c-3.7-0.5-5.7,2.3-6.5,4.7
					c-0.9,2.4-1.1,3.6-4.1,4.5c0,0,1.5,3.3,9,0.1c0.3-0.1,0.1,0,0.1,0s-1,3,3.8,3.5c2.8,0.3,2.2,3.5,2.2,3.8c0,0.3,4.6-1.9,4.6-6.6
					c0,0,0-0.2,0.5,0.9c1.1,2.8,1.1,4.6,0.6,5.7c-2.5,1.2-5.5,1.9-9.1,1.5c-3.2-0.3-6.4-1.3-9.3-2.6c-5.4-3.6-3.1-7.7-3.3-7.8
					c-3.2-1.3-2.6,1.7-2.8,1.6c-0.2,0-3.8-4.5-1.9-7.3c2.4-3.5,5-1.6,5.7-0.8c1,1.1,0.4,3.6-0.6,3.7c-2.6,0.4-2.8-1-2.7-1.7
					c0,0.4,0.5,0.5,0.7,0.5c0.4,0.2,0.9-0.7,0.4-1.3c-0.6-0.7-1.7-0.2-1.8,1.1c0,0.2,0.6,3.1,3.9,2.4c2.9-0.6,2.3-4.3,1.2-5.6
					c-0.7-0.8-5.1-4.2-8.3,1c-2.3,3.7,0.1,7.7,2.5,10.3c-1.4-0.9-2.5-1.7-3.4-2.4c0.1,0,0.1,0,0.1,0c-0.1,0-0.2-0.1-0.3-0.1
					c-1.3-1-2-1.6-2-1.6c-4.7-3-3.9-5.6-3.1-6.3c1.1-1,3.8-0.2,3.8-0.2s0.7,0.2,0.5-0.1c-1.7-1.8-2.5-1.6-3.6-1.5
					c-1.1,0.1-3,0.5-3.6,3.7c-0.3,1.6,1.4,3.4,3.1,4.8c-4.3-0.1-5.8-1-6.8-1.9c-1-1-0.3-2.7,1.3-3.1c1.3-0.3,2.4,0,2.2-0.2
					c-1.8-1.6-3.6-0.8-3.6-0.8s-2.9,1.2-2,4c1,3,6,2.8,6.1,2.9c0.1,0,0,0.1,0,0.1s-2.6-0.5-5.6,2.9c-0.1,0.1-0.2,0.2-0.3,0.4
					c-8.1-0.1-6.5-7.2-6.7-7.1c-0.8,0.2-1.4,0.1-1.4,0.1c0.6,6.3,4.7,7.5,7.5,7.6c-2.8,2.7-5.6,3.4-5.6,3.4
					c-1.9,0.6-4.3-0.5-4.4-0.6c-0.1-0.1-0.1,0.1-0.1,0.1c-0.3,1.1,0.6,1.6,0.4,1.7c-3.1,1.4-4.2-2.7-4.5-2.9c-0.3-0.2-0.6,1-0.6,1
					s-1.9-0.5-0.3-3.4c1.6-2.9,4.9-2.1,4.9-2.1c2.7,0.9,1,3.6,1,3.6c0.1-0.2,0.2-1.2-0.1-1.7c-0.3-0.5-1-0.5-1.5-0.5
					c-1.3,0.1-1,1.8-1,2c0.1,0.6,1.8,1.5,3.1,0.2c1.9-2,0-4.1-1.5-4.5c-1.5-0.4-6.3-0.2-6.6,4.6c-0.4,4.8,4.7,5.9,4.7,5.9l0,0.1
					c-7,2.6-10.8-2.9-11-3.1c-0.2-0.2-0.2,0-0.2,0s-2.9,4.8-5.6,1.4c-2.7-3.4-0.2-4.7-0.4-5c-0.5-0.9-2.4,0.2-2.4,0.2
					c-1.2-1.1,0.4-4.4,1-4.8c0.8-0.5-1.7-0.9-1.7-0.9s1.8-5.3,7-5.9c5.2-0.6,6,4.4,6,4.4c0.5-0.7,3.2-1.1,3.2-1.1s-0.5-1.9-0.9-2.3
					C24.2,97,18,99.6,17.7,99.7c-0.3,0.1-4,1.2-5.5,6.5c-1.5,5.3,1.5,8.2,1.5,8.7c0,0.3-0.8,0.3-0.7,0.6c0.2,0.8,3.7,4.8,7.9,6
					c6.6,1.9,14.9,0.6,16.1,0.2c1.3-0.3,6.9-2.6,13-8.1c3.1-2.8,6-4,8.1-4.6c0.6,0.4,1.1,0.7,1.3,0.8c-1.9,1-2.7,3.1-3.6,5.9
					c-1,3.2-2.7,3.5-3.8,3.7c-1.6,0.2-2.7-1-2.5-1.6c0.6-1.9,2.7,0,2.7,0c-0.1-3-4.8-2.6-5.1,0.4c-0.1,0.9-0.1,3.2,3.6,4
					c4.4,1,6.4-2.6,6.4-2.6c0.5,3.1,7,5.6,9.7,2.2c1-1.2,0.8-2.6,0.1-3.6c1.8,1.5,4,2.7,7.7,3.7c4.7,1.2,12.3,1.2,18-2.8
					c9.2-6.3,11.3-18.2,11.3-18.2C104.9,100.9,105.7,99.9,105.6,97.9z M70.4,34.2c-0.1-2.9,2.3-2.8,2.6-2.8c2.1,0.2,3,1.3,3.4,2.6
					c0.1,0.5-0.1,0.7-0.1,0.7c-1.7-1.3-2.7-1.5-3.6-1.3c-1.2,0.2-3.7,2.6-1.5,4.3c1.4,1.1,2.6-0.2,2.5-0.3c-0.1-0.1-1.3-0.1-1.6-0.7
					c-0.5-0.9,0.7-1.5,1.2-1.4c1.5,0.1,1.8,1.3,1.5,2.5c-0.1,0.3-1.2,1.7-1.3,1.5c-0.3-0.4-1.1-0.5-1.3-0.6c-0.1,0-1-0.1-1.6,0.9
					c-0.7,1.2,1,1.5,0.8,1.4c-0.2-0.1-0.4-0.2,0-0.9c0.4-0.6,1.4-0.3,1,0.6c-0.3,0.8-3.2,1.2-3.3,1.2c-1.7-1.2,0.1-3.2,0.1-3.3
					C67.3,34.8,70.4,34.4,70.4,34.2z M64.4,118.2c1,0.2,1.3,1.3,0.3,2.1c-1,0.7-3.6,0.3-4.2-0.8c-1.5-2.9,0.4-4.4,2.3-5.2
					c1.1,1.1,2,2.1,3,3c-0.2-0.1-0.5-0.2-0.8-0.3c-1.8-0.4-2.6,2-2.6,2C62.6,118.7,63.4,117.9,64.4,118.2z M58.4,124.4
					c0,0,0,2,2,1.5C60.7,125.8,60.1,123.5,58.4,124.4z M56.9,125.6c0,0-0.6,1.9,1.4,2.1C58.6,127.8,58.8,125.4,56.9,125.6z
					 M51.7,126.6c0,0.3,2.4,0.1,1.9-1.7C53.5,124.9,51.5,124.6,51.7,126.6z M55.2,126c0,0-1.8,0.9-0.5,2.5
					C54.9,128.6,56.7,127.1,55.2,126z M57,122.3c-2.3-1.3-3,1.1-3,1.1c-0.1,2.1,2.5,2,3.2,1.5C57.7,124.5,58.6,123.2,57,122.3z
					 M52.8,123.5c0,0-1.5-1.4-2.5,0.4C50.2,124.1,52.2,125.3,52.8,123.5z M87.3,93.5c0.2,0.9,2.4,1.3,2.6-0.4c0-1.5-1.5-3.9-3.5-3.9
					c-3.8,0.1-3.5,5.1-3.6,5.5c0,0-2.7,0.9-3,3.5c0,0.4,0.1,2.1,4.9,2.6c0.8,0.1,6.2-0.7,5.1-4.1c-0.8-2.4-3.5-2.4-3.7-2.5
					c-0.2-0.1-0.7-2.9,0.8-3.3c1.4-0.3,2.2,1,2.2,1S86.9,91.6,87.3,93.5z M71,76.4c0-0.5-0.4-0.9-1-0.9c-0.5,0-1,0.4-1,0.9
					c0,0.5,0.4,0.9,1,0.9C70.6,77.4,71,76.9,71,76.4z M78.9,71.1c0-0.7-0.6-1.2-1.4-1.2c-0.7,0-1.3,0.5-1.3,1.2
					c0,0.7,0.6,1.2,1.3,1.2C78.3,72.3,78.9,71.8,78.9,71.1z M69,80.4c0-0.5-0.4-0.9-1-0.9c-0.5,0-1,0.4-1,0.9c0,0.5,0.4,0.9,1,0.9
					C68.6,81.3,69,80.9,69,80.4z M72.1,73c0,0.6,0.5,1,1.1,1c0.6,0,1.1-0.4,1.1-1c0-0.6-0.5-1-1.1-1C72.6,72,72.1,72.5,72.1,73z
					 M68.8,86c0.6,0,1-0.4,1-0.9c0-0.5-0.4-0.9-1-0.9c-0.6,0-1,0.4-1,0.9C67.8,85.7,68.2,86,68.8,86z M58.6,32.9c0.1,0.1,1-1,0-1.4
					C58.6,31.4,57.7,32.2,58.6,32.9z M61.8,30.1c0.1-0.1-0.8-1.1-1.4-0.2C60.3,29.8,60.9,30.9,61.8,30.1z M59.6,30.8
					c0,0-0.3,1.1,0.9,1.1C60.6,31.9,60.6,30.6,59.6,30.8z M61.6,28.2c0.1-0.1-1.1-0.8-1.4,0.2C60.1,28.4,61,29.2,61.6,28.2z
					 M48.7,91.2c-1-3.3-3.5-1-3.6-1.2c-1.7-2.8-3.6-0.6-3.6-0.6s-2.3-0.6-1.8-0.1c0,0,3.8,2.6,2.4,6.4c-0.2,0.2-0.4,0.4-0.6,0.5
					c0.9-1.6,1.4-3.5-0.8-4.4c-0.6-0.2-1.5,0.5-1.3,0.9c0,0,1.5-0.7,2.3,0.6c0.1,0.2-0.8-0.2-1.4,0.8c-0.1,0.2,2.4-0.7,1.5,1.5
					c-0.1,0.3-0.3,0.6-0.4,0.8c-0.3,0.3-0.5,0.6-0.6,0.8c0,0.1,0,0.1-0.1,0.2c-0.3,0.3-0.5,0.7-0.8,1.1c0,0,0.3-0.3,0.7-0.9
					c-0.1,0.2-0.1,0.4-0.1,0.5c-0.1,0.1-0.1,0.1-0.2,0.2c0,0,0.1-0.1,0.2-0.2c-0.7,3.7,3.6,3.5,4,2.7c0,0,0-3.6,4.6-6.5
					c0.9-0.6-4.1,2-4.7,2.7c0.3-0.5,1.1-2,1.3-3c0-0.2-1.8,3.6-3,3.5c-1.2,0,1.4-3.3,3.1-4.7c0.2-0.2-1.9,1.3-3.5,2.7
					c0.6-1.4,0.7-3.2-0.4-5.1c-0.1-0.1,1.1-1.2,1.7-1c0.4,0.1,1.1,0.3,1.5,0.8c0.1,0.1,1.6,0,2.2,0.1c0.5,0.2,1.2,0.8,1.4,0.9
					c0.2,0.1,1.6,0.6,2.2,1.2c0.3,0.3,0.7,1.2,1,1.5c0.9,1.2,0.8,1.8,0.8,2.2c0,0,0,0-0.1,0c-1-0.5-6.2,2.4-8.2,4.9
					c0,0,0.6-0.6,1.5-1.2c-0.5,0.4-0.9,0.9-1.5,1.4c0.7-0.7,1.4-1.2,2-1.7c2.1-1.4,4.9-2.9,5-0.2c0,0.1,0.7-1.6-0.1-2.3
					c-0.1-0.1,1.1-0.1,1.2,1c0,0.2,0.6-0.3,0.3-1.2c0.7,0.1,1,0.4,1.1,0.3c0.4-2.2-2-2.9-1.9-3.1C52.6,90.6,48.7,91.2,48.7,91.2z
					 M37.9,102c1.4,0-0.4,1.3-0.9,1.2c-0.6-0.1,0.3,1.3,3.2,0.8c0,0,1.3-0.4,1.7,2.9c0.1,0.6,1.3-1.3,1-2.8
					c-0.1-0.6,2.3-0.5,2.4,1.3c0,0.1,1.3-1.8-0.9-3.5c-0.9-0.7-2,0.6-3.4-0.7c-1.5-1.3-1-1.3-1.3-2.4c-0.3-1.1-3.7-1.5-4.6-0.7
					c-0.3,0.3,0.6-0.5,2.9,1.1c2.3,1.6-2.4,1.4-3,1.2C34.5,100.2,36.5,102,37.9,102z M40.4,21.8c0,0,0.2,0,0.2-0.1
					c0,0-3.2-3-1.9-6.2c0.2-0.6,0.5,2.5,3.3,1.1c0.4-0.2-3.1-0.1-1.1-4.2c0.5-0.9-0.5,2,2.8,2.4c0.2,0-2-2-0.6-3.8
					c0.4-0.5,0.9,3.4,3.8,3.2c0.5,0-3.9-2.8-0.2-6.2c0.3-0.3-1.8,2,0.4,3.9c0.3,0.2,0.1-4,4.8-3.4c0.3,0,2.7,0.8,1.4,2.3
					c0,0-0.6,0.8-1.7-0.3c-0.6-0.6-0.3,2.4,2.2,3.4c0.2,0.1-1.5,1.5-2.2-0.7c-0.1-0.3-2.6,3.4,3.5,4c0.3,0-0.1,4.3-3,1.2
					c-0.4-0.4,0.4,5.2,7.4-0.3c0,0,1.4,1.3,3.3,3C62.1,21,61.7,21,61.7,21c-4.3,0.1-6.4,2.4-6.8,2.9c-0.6,0.8-1.8,3.1-0.9,4.9
					c1.2,2.6,3.4,2,3.9,2c0.6,0.1,2.7-0.9,1.6-2.4c-1.1-1.5-2.3-0.1-2.3-0.1c-1.1,1.3,0.5,2.2,0.3,2.3c-0.2,0.1-2.1-0.6-2.4-2.4
					c0-0.1,0-2.6,2.6-3.5c2.7-0.9,4.7-0.8,6.4-0.1c-2.2,2.2,1.1,3.8,1,3.5c-0.6-1.3-0.2-2,0.8-1.4c0.9,0.6,2.3,2.8,2.8,3.6
					C69,30.7,69,31,69.1,31c0.7-1.4,2.1-1,2.2-1.2c0.3-0.9,0.7-1.3,1.2-1.5c0.3,0,0.6-0.1,0.8-0.1c0.1,0,0.2,0,0.2,0
					c0.1,0,0.1,0,0.1,0c-1.8-1.2-15.3-14.6-16.7-16.8C55,8.4,54,6.8,51,5.5c-0.7-0.3-8.6-3.2-13.1,6.7c0,0-0.6,1.4-0.6,3.8
					C37.3,16.4,37.4,19.8,40.4,21.8z M42.3,23.2c-0.2,0.3,2.6,1.7,3.2-0.7C45.5,22.5,43.4,20.8,42.3,23.2z M40.9,24.2
					c0,0-2.6-0.3-2.3,2.4C38.6,26.9,41.7,26.5,40.9,24.2z M43.8,27.1c0.4,0,0.5-3.1-2-2.6C41.8,24.5,41.1,27.1,43.8,27.1z
					 M40.7,23.3c0.3-0.2-1.4-2.8-3.1-1C37.5,22.3,38.5,24.8,40.7,23.3z M42.5,19.5c0,0-2.5,0.9-1,3.1C41.7,22.9,44.3,21.2,42.5,19.5
					z"/>
			</g>
		</g>
		<g>
			<path class="st1" d="M81.8,75c-0.8,3.9,3.3,5.9,2.9,5.7c-0.4-0.2-0.6-2.2-0.1-1.8c0.2,0.1,1,0.5,0.9,0.3c-0.1-0.1-0.7-0.8-1-1.5
				c-2.2-5.7,6.5-6.4,6.5-6.4C91,70.7,83.3,67.5,81.8,75z"/>
			<path class="st1" d="M29.2,120.4c0.3-0.1-2.5,1.3-5.9-3.2c0,0,0,1.7-2.9,2C20.4,119.3,27.3,121.4,29.2,120.4z"/>
			<path class="st1" d="M86,112.6c0-0.3-0.6-1.4-3.3-1.6c-4.6-0.4-2.7-4.5-2.7-4.5s-1.3,1.1-1.8,1.2c-2.9,0.8-4.7,0.3-4.7,0.3
				c1.3-1.5-0.2-2.1,0.3-3.7c0.7-2.3,2.3-3.9,5.3-4.3c0.2,0-1.2,1.3-1,1.5c0.3,0.4,1.1,0.4,0.9,0.8c-0.2,0.4-0.1,2.1,0.1,2.2
				c0.9,0.4,5.8-2.1,4.6-1.1c-1.1,1-1.6,4-1,4.4c1.1,0.7,1.9-2,2.3-1.5c0.4,0.5-1.4,2.1,0.2,1.5c1.4-0.6,1.9-4.7,1.9-4.7
				c1.8,0.6,4.5,4.6,4.8,4.5c1.5-0.7,0.1-3.5,0.1-4.4c0-0.3,0.5,0.2,0.6,0c0.4-1.2-0.6-1.6-0.6-1.6c-0.1-0.3,0-0.3,0.7-0.1
				c0.8,0.2-0.8-1.9-0.4-1.7c5.8,3.4-0.4,10-0.3,9.3c0.1-0.7-3.7-2.9-3.6-2.5c0.3,1.4,0.2,2.1-0.3,3.4
				C87.5,111.4,85.9,112.8,86,112.6z"/>
			<path class="st1" d="M69.4,66.8c0,0,3.7-1.1,5.3,0.5c0.2,0.3-0.9,0.1-4.7,3c-3.2,2.4-3.6,3.3-3.8,3.1c-0.3-0.5-1.4-1.3,0.6-4.7
				c0.8-1.5-0.3-2.3-0.4-2.3c-0.3-0.1,0.4-1,1.4-0.5C68.8,66.3,69.1,66.5,69.4,66.8z"/>
			<ellipse class="st1" cx="77.6" cy="71" rx="0.9" ry="0.8"/>
			<ellipse class="st1" cx="58.2" cy="29.4" rx="1" ry="1.1"/>
			<ellipse class="st1" cx="61.9" cy="69.4" rx="1.4" ry="1.4"/>
			<ellipse class="st1" cx="57.3" cy="54" rx="1.6" ry="1.3"/>
			<ellipse class="st1" cx="23.5" cy="108.5" rx="1.4" ry="1.6"/>
			<ellipse class="st1" cx="35.8" cy="112.3" rx="1" ry="1"/>
			<ellipse class="st1" cx="73.4" cy="85.5" rx="1.6" ry="1.5"/>
			<ellipse class="st1" cx="73.1" cy="73.1" rx="0.8" ry="0.7"/>
			<ellipse class="st1" cx="70" cy="76.5" rx="0.7" ry="0.6"/>
			<ellipse class="st1" cx="67.9" cy="80.5" rx="0.6" ry="0.7"/>
			<ellipse class="st1" cx="68.6" cy="85.3" rx="0.6" ry="0.6"/>
			<path class="st1" d="M43.8,100.5c0,0-0.8-1,2-3.9c0.6-0.6-2.1,1-2.3,1.4c-0.2,0.5,0.7-0.7,0.9-1.7c0-0.1-1.3,1.7-2.1,1.6
				c-0.9,0,0.3-2.1,1.3-3.2c0.2-0.2-2.2,2.2-2.4,3C39.9,101.2,43.5,101.2,43.8,100.5z"/>
			<g>
				<path class="st1" d="M58.4,16.4c-1.5-2.4-2-2.8-3-4.8c-0.8-1.6-1.9-1-1.8-0.9c0.3,0.1,1.1,0.8,0.5,1.2c0,0-0.7,0.6-1.6-0.3
					c-0.5-0.5-0.2,1.4,1.8,2.2c0.2,0.1-0.5,1.5-2.1,1.2c-0.3,0,0.4,1.1,3.4,1.8c0.3,0.1,0.3,1.5-0.5,2.6c-0.3,0.4,2.3,0.3,3.8-2.2"
					/>
			</g>
			<path class="st1" d="M40.7,24.4c0,0-1.7-0.2-1.5,1.5C39.2,26.2,41.3,25.9,40.7,24.4z"/>
			<path class="st1" d="M42.2,20.4c0,0-1.6,0.6-0.6,2C41.7,22.6,43.3,21.5,42.2,20.4z"/>
			<path class="st1" d="M41.9,24.6c0,0-0.4,1.6,1.2,1.6C43.4,26.3,43.5,24.3,41.9,24.6z"/>
			<path class="st1" d="M38.5,22.6c0,0,0.6,1.5,1.9,0.6C40.6,23.1,39.6,21.5,38.5,22.6z"/>
			<path class="st1" d="M44.5,22.8c0,0-1.3-1.1-2,0.4C42.4,23.5,44.2,24.3,44.5,22.8z"/>
			<g>
				<path class="st1" d="M49.1,7.5c0.3-0.1-4.2-3.6-9.1,2.1c0,0-1.6,2-2.1,4.1c-0.1,0.3-0.4,1.3,0,2.4c0,0,0.1-1.5,0.8-1.7
					c0.5-0.1,0.4,1.9,2,2.1c0.3,0-2.7-1.8,0.2-5c0.5-0.6-0.1,1.4,1.7,2.6c0.1,0.1-1.5-1.8,0.3-3.8c0.3-0.4,0.9,2.2,2.4,2.8
					c0.3,0.1-2.8-3.7,1.5-5.5c0.3-0.1-1.1,2.2,0.1,3.4C47.2,11.2,46.6,8.7,49.1,7.5z"/>
			</g>
			<path class="st1" d="M76.1,35c-1.6-1.2-2.5-1.3-3.3-1.3c-1,0-3.2,1.9-1.5,3.7c0.4,0.4,1.5,0.2,1.4,0.2c-0.1-0.1-0.6-0.4-0.9-0.9
				c-0.5-0.9,0.7-1.8,1.7-1.7c0.9,0.1,2,0.8,1.6,2C74.9,37.4,76.1,35,76.1,35z"/>
			<path class="st1" d="M73.3,39.6C72.7,39,72.1,39,71.8,39c-0.5,0-1.4,0.5-1.2,1.4c0.1,0.3,0.4,0.4,0.4,0.4c-0.1,0-0.1-0.5,0.1-0.7
				c0.3-0.5,0.7-0.6,1.1-0.5c0.4,0.1,0.7,0.5,0.4,1C72.5,40.7,73.3,39.6,73.3,39.6z"/>
			<path class="st1" d="M82.8,95.3c0,0-2.6,1-2.4,3.3c0.1,0.7,5.8,3.9,9.2-0.3c0.2-0.2-4.1,1.5-6.7,0.2
				C82.3,98.2,80.4,97.1,82.8,95.3z"/>
		</g>
		<g>
			<path class="st2" d="M84.5,72.9c-1.1,1.1-2.3,4-1,6.1c0.1,0.2-1.8-1.5-1.3-4.2c0.5-3,2.3-4.2,4.7-4.3c2-0.2,3.6,0.7,2.1,0.5
				C88.9,71,85.9,71.5,84.5,72.9z"/>
			<path class="st2" d="M86.3,111c0-0.3-1.1-0.4-3.5-1.4c-3.5-1.4-2.2-3.9-2.2-3.9s-0.4-0.2-1.8,0.4c-1.8,0.8-3.6-0.2-3.6-0.2
				c0.5-1.3-0.1-2.2-0.2-3c-0.1-0.8,1.8-2.7,3.1-2.3c0.2,0.1-0.6,0.8-0.4,1c0.3,0.4,1,0.5,0.8,0.9c-0.2,0.4-0.1,2.3,0.5,2.4
				c0.9,0.2,4.9-1.7,3.8-0.7c-1.1,1-0.8,3.6-0.1,3.9c1.2,0.7,1.9-1.7,2.2-1.5c0.4,0.4-1.7,1.9-0.1,1.5c2.3-0.6,2.5-4.4,2.5-4.4
				c1.7,0.6,4.3,4.1,4.6,4c2-0.8,0.4-3.5,0.3-4.3c0-0.3,0.4,0.2,0.6-0.3c0.4-1.1-0.5-1.5-0.5-1.5c-0.1-0.3,0-0.2,0.7,0
				c0.7,0.2-0.4-1.6-0.2-1.3c2.9,3.4-0.6,8.5-1,8c-1-1.3-3.8-2.4-3.7-2c0.3,1.3,0,1.8-0.4,3.1C87.3,110.8,86.3,111.3,86.3,111z"/>
			<path class="st2" d="M70.2,67c0,0,2.1-0.7,3.3,0.4c0.2,0.2-0.6,0.2-3.3,2.2c-2.3,1.7-2.6,2.3-2.7,2.2c-0.2-0.3-1.3-0.6,0-3
				C68,67.8,69.6,67.1,70.2,67z"/>
			<ellipse class="st2" cx="88.6" cy="93.1" rx="0.9" ry="0.9"/>
			<g>
				<path class="st2" d="M58.1,16.6c-1.2-2-1.7-2.3-2.5-4c-0.5-1.1-1-1-0.9-0.9c0.2,0.1,0.1,0.6-0.3,0.8c0,0-0.6,0.3-1-0.1
					c-0.4-0.4-0.2,0.5,1.5,1.2c0.2,0.1-0.2,2-1.6,1.7c-0.2,0,0,0.3,2.5,0.9c0.2,0.1,0.7,1.7,0.1,2.7c-0.2,0.3,1.5,0.5,2.6-1.6"/>
			</g>
			<g>
				<path class="st2" d="M48.2,7.2c0.2-0.1-4.2-2-7.9,2.2c-1.7,2-2,3.6-2.1,4.7c0,0,0.1-0.6,0.7-0.8c0.2-0.1-0.2,0.5,0.7,1
					c0.2,0.1-1-1.4,1.4-3.5c0.5-0.4-0.2-0.1,0.9,1.1c0.1,0.1-0.2-1.7,1.1-2.4c0.4-0.2,0.2,0.6,1.3,1.4c0.2,0.2-0.8-2.5,2.8-3.6
					c0.5-0.2-0.5,1.7-0.2,2.4C46.9,10,47.2,7.6,48.2,7.2z"/>
			</g>
			<path class="st2" d="M75.9,35c-1.6-1.1-2.1-1.1-3-1.1c-0.5,0-1.9,0.5-1.8,2.3c0,0.5,0.5,0.9,0.4,0.7c-0.1-0.5-0.2-0.7,0-1.1
				c0.4-0.9,1.2-1.1,2.1-1c0.8,0.1,1.9,0.9,1.5,1.9C75,37.1,75.9,35,75.9,35z"/>
			<path class="st2" d="M83.1,99.7c0,0-2.2-1-2.3-1.9c0-0.3,0.1,0.8,3.6,1.3c2.5,0.4,4.2-0.5,4.2-0.3c-0.1,0.4-1.1,0.9-2.2,1.1
				C85.1,100.2,84,100,83.1,99.7z"/>
		</g>
	</g>
	<g>
		<g>
			<path class="st0" d="M420.2,79c0,1.8-1.4,3.2-3.2,3.2c-1.8,0-3.3-1.4-3.3-3.2c0-1.8,1.4-3.2,3.3-3.2
				C418.8,75.9,420.2,77.3,420.2,79z M414.5,79c0,1.4,1.1,2.5,2.5,2.5c1.4,0,2.4-1.1,2.4-2.5c0-1.4-1-2.5-2.5-2.5
				C415.6,76.5,414.5,77.7,414.5,79z M416.5,80.7h-0.7v-3.2c0.3,0,0.7-0.1,1.2-0.1c0.6,0,0.9,0.1,1.1,0.3c0.2,0.1,0.3,0.4,0.3,0.7
				c0,0.4-0.3,0.6-0.7,0.8v0c0.3,0.1,0.5,0.3,0.6,0.8c0.1,0.5,0.2,0.7,0.2,0.8h-0.8c-0.1-0.1-0.2-0.4-0.3-0.8
				c-0.1-0.3-0.3-0.5-0.7-0.5h-0.3V80.7z M416.5,78.9h0.3c0.4,0,0.7-0.1,0.7-0.5c0-0.3-0.2-0.5-0.7-0.5c-0.2,0-0.3,0-0.4,0V78.9z"/>
		</g>
		<path class="st0" d="M155.7,98v0.4c0,0.6-0.2,1.1-0.6,1.5c-0.4,0.4-0.9,0.5-1.5,0.5H117c0.2,4.8,2,8.9,5.4,12.2
			c3.3,3.3,7.3,4.9,11.9,4.9c3,0,5.7-0.7,8.3-2.2s4.6-3.4,6.1-5.9c0.7-1.2,1.7-1.5,2.9-0.7c1.2,0.8,1.5,1.9,0.7,3.1
			c-1.9,3.1-4.5,5.5-7.7,7.4c-3.2,1.8-6.6,2.7-10.3,2.7c-6,0-11.1-2.2-15.3-6.5c-4.2-4.3-6.3-9.6-6.3-15.7c0-6.1,2.1-11.4,6.3-15.7
			c4.2-4.4,9.2-6.5,15.1-6.5c5.8,0,10.8,2,14.8,5.9C152.9,87.2,155.2,92.1,155.7,98z M145.2,85.7c-3.1-2.7-6.8-4.1-10.9-4.1
			c-4.1,0-7.8,1.3-10.9,4c-3.1,2.7-5.1,6.2-6,10.4H151C150.2,91.9,148.3,88.5,145.2,85.7z"/>
		<path class="st0" d="M163.9,119.6V60.4c0-0.6,0.2-1.1,0.6-1.5c0.4-0.4,0.9-0.6,1.5-0.6c0.6,0,1.1,0.2,1.6,0.6
			c0.5,0.4,0.7,0.9,0.7,1.5v59.2c0,0.6-0.2,1.1-0.7,1.5c-0.5,0.4-1,0.6-1.6,0.6c-0.6,0-1.1-0.2-1.5-0.6
			C164.1,120.7,163.9,120.2,163.9,119.6z"/>
		<path class="st0" d="M180.5,119.6V60.4c0-0.6,0.2-1.1,0.6-1.5c0.4-0.4,0.9-0.6,1.5-0.6c0.6,0,1.1,0.2,1.6,0.6
			c0.5,0.4,0.7,0.9,0.7,1.5v59.2c0,0.6-0.2,1.1-0.7,1.5c-0.5,0.4-1,0.6-1.6,0.6c-0.6,0-1.1-0.2-1.5-0.6
			C180.7,120.7,180.5,120.2,180.5,119.6z"/>
		<path class="st0" d="M229.2,77.3c1.3,0.3,1.9,1,1.9,2.1v38.9c0,5.8-2.1,10.7-6.2,14.8c-4.1,4.1-9.1,6.1-15,6.1
			c-3,0-6.1-0.7-9.2-2.1c-1.2-0.8-1.5-1.7-1-2.9c0.6-1.1,1.5-1.5,2.9-1.1c2.3,1.1,4.7,1.7,7.3,1.7c4.6,0,8.5-1.6,11.8-4.8
			c3.3-3.2,4.9-7.1,5-11.7v-2.9c-3.8,4.2-8.2,6.3-13.4,6.3c-5.2,0-9.6-1.8-13.1-5.4c-3.5-3.5-5.3-7.8-5.3-12.8V79.4
			c0-0.6,0.2-1.1,0.6-1.5c0.4-0.4,0.9-0.6,1.5-0.6c0.6,0,1.1,0.2,1.5,0.6c0.4,0.4,0.6,0.9,0.6,1.5v24.1c0,3.8,1.3,7.1,4,9.7
			c2.7,2.7,5.9,4,9.7,4c3.8,0,7-1.3,9.7-4c2.7-2.7,4-5.9,4.1-9.7V79.4c0-0.5,0.1-0.8,0.2-0.9c0.1-0.1,0.2-0.3,0.4-0.5
			c0-0.2,0.3-0.5,0.9-0.6h0.2c0.1-0.1,0.2-0.1,0.3-0.1H229.2z"/>
		<path class="st0" d="M263.5,119.6V60.4c0-0.6,0.2-1.1,0.6-1.5c0.4-0.4,0.9-0.6,1.5-0.6h14.2c4.4,0,8.1,1.5,11.2,4.6
			c3.1,3.1,4.6,7,4.6,11.7c0,4.7-2,8.7-6.1,11.9c3.6,1.3,6.6,3.5,8.9,6.6c2.3,3.1,3.5,6.6,3.5,10.6c0,5-1.8,9.3-5.3,12.8
			c-3.5,3.5-7.8,5.3-12.8,5.3h-18.2c-0.6,0-1.1-0.2-1.5-0.6C263.7,120.7,263.5,120.2,263.5,119.6z M268,85.4h11.9
			c3.1,0,5.8-1.1,8-3.3c2.2-2.2,3.3-4.9,3.3-8c0-3.1-1.1-5.8-3.3-8c-2.2-2.2-4.9-3.4-8-3.4H268V85.4z M268,117.3h15.9
			c3.8,0,7-1.3,9.6-4c2.7-2.7,4-5.9,4.1-9.7c-0.1-3.8-1.4-7-4.1-9.7c-2.7-2.7-5.9-4-9.6-4H268V117.3z"/>
		<path class="st0" d="M309.7,119.6V60.4c0-0.6,0.2-1.1,0.6-1.5c0.4-0.4,0.9-0.6,1.5-0.6c0.6,0,1.1,0.2,1.6,0.6
			c0.5,0.4,0.7,0.9,0.7,1.5v59.2c0,0.6-0.2,1.1-0.7,1.5c-0.5,0.4-1,0.6-1.6,0.6c-0.6,0-1.1-0.2-1.5-0.6
			C309.9,120.7,309.7,120.2,309.7,119.6z"/>
		<path class="st0" d="M326.2,67V65c0-0.6,0.2-1.1,0.6-1.5c0.4-0.4,0.9-0.6,1.5-0.6c0.6,0,1.1,0.2,1.6,0.6c0.5,0.4,0.7,0.9,0.7,1.5
			V67c0,0.7-0.2,1.2-0.7,1.7c-0.5,0.5-1,0.7-1.6,0.7c-0.6,0-1.1-0.2-1.5-0.7C326.5,68.3,326.2,67.7,326.2,67z M326.2,119.6V79.5
			c0-0.6,0.2-1.1,0.6-1.5c0.4-0.4,1-0.6,1.6-0.6s1.2,0.2,1.6,0.6c0.4,0.4,0.6,0.9,0.6,1.5v40.1c0,0.6-0.2,1.1-0.7,1.5
			c-0.5,0.4-1,0.6-1.6,0.6c-0.6,0-1.1-0.2-1.5-0.6C326.5,120.7,326.2,120.2,326.2,119.6z"/>
		<path class="st0" d="M339.2,115.4c-1-0.9-1.1-1.9-0.3-2.9c0.4-0.5,0.8-0.8,1.5-0.8c0.6-0.1,1.1,0.1,1.6,0.5
			c4.7,3.4,9,5.2,12.9,5.2c3.9,0,6.9-0.9,9.2-2.7c2.2-1.5,3.3-3.3,3.3-5.3c0-2-1-3.8-3-5.4c-2-1.6-5.2-2.7-9.6-3.4l-0.2-0.1
			c-4.7-0.8-8.1-2-10.1-3.4c-3.2-1.9-4.8-4.5-4.8-8c0-3.4,1.6-6.4,4.8-8.7c2.9-2,6.5-3,10.9-3c1.8,0,3.5,0.3,5.3,0.9
			c1.8,0.6,3.1,1.1,4.1,1.6c0.9,0.5,2.2,1.3,3.9,2.3c0.5,0.4,0.8,0.8,0.9,1.5c0.1,0.6,0,1.1-0.3,1.6c-0.3,0.5-0.8,0.8-1.4,0.9
			c-0.6,0.1-1.2,0-1.6-0.3c-1.5-1-2.6-1.8-3.4-2.2c-0.8-0.5-1.9-0.9-3.3-1.5c-1.5-0.5-2.8-0.8-4.2-0.8c-3.5,0-6.3,0.8-8.3,2.4
			c-2,1.6-3,3.3-3,5c0,1.8,0.8,3.3,2.5,4.6c2.1,1.5,5.1,2.5,9.1,3.1h0.2c3.9,0.6,7.5,1.8,10.8,3.6c3.3,2.2,5,5.1,5,8.8
			c0,3.7-1.6,6.7-4.9,9.2c-3.3,2.5-7,3.7-11.2,3.7C349.9,121.7,344.4,119.6,339.2,115.4z"/>
		<path class="st0" d="M380.2,115.4c-1-0.9-1.1-1.9-0.3-2.9c0.4-0.5,0.8-0.8,1.5-0.8c0.6-0.1,1.1,0.1,1.6,0.5
			c4.7,3.4,9,5.2,12.9,5.2c3.9,0,6.9-0.9,9.2-2.7c2.2-1.5,3.3-3.3,3.3-5.3c0-2-1-3.8-3-5.4c-2-1.6-5.2-2.7-9.6-3.4l-0.2-0.1
			c-4.7-0.8-8.1-2-10.1-3.4c-3.2-1.9-4.8-4.5-4.8-8c0-3.4,1.6-6.4,4.8-8.7c2.9-2,6.5-3,10.9-3c1.8,0,3.5,0.3,5.3,0.9
			c1.8,0.6,3.1,1.1,4.1,1.6c0.9,0.5,2.2,1.3,3.9,2.3c0.5,0.4,0.8,0.8,0.9,1.5c0.1,0.6,0,1.1-0.3,1.6c-0.3,0.5-0.8,0.8-1.4,0.9
			c-0.6,0.1-1.2,0-1.6-0.3c-1.5-1-2.6-1.8-3.4-2.2c-0.8-0.5-1.9-0.9-3.3-1.5c-1.5-0.5-2.8-0.8-4.2-0.8c-3.5,0-6.3,0.8-8.3,2.4
			c-2,1.6-3,3.3-3,5c0,1.8,0.8,3.3,2.5,4.6c2.1,1.5,5.1,2.5,9.1,3.1h0.2c3.9,0.6,7.5,1.8,10.8,3.6c3.3,2.2,5,5.1,5,8.8
			c0,3.7-1.6,6.7-4.9,9.2c-3.3,2.5-7,3.7-11.2,3.7C390.8,121.7,385.4,119.6,380.2,115.4z"/>
	</g>
</g>
</svg>
