<?xml version="1.0" encoding="utf-8"?>
<!-- Generator: Adobe Illustrator 20.1.0, SVG Export Plug-In . SVG Version: 6.00 Build 0)  -->
<svg version="1.1" id="Layer_1" xmlns="http://www.w3.org/2000/svg" xmlns:xlink="http://www.w3.org/1999/xlink" x="0px" y="0px"
	 viewBox="0 0 576 144" style="enable-background:new 0 0 576 144;" xml:space="preserve">
<style type="text/css">
	.st0{fill:#231F20;}
	.st1{fill:#DF1174;}
	.st2{fill:#F17622;}
</style>
<g>
	<g>
		<g>
			<g>
				<path class="st0" d="M30.8,109.1c0,0-1.9-0.3-1.7,1.7C29.1,111,31.4,110.8,30.8,109.1z M29.9,107.3c0,0-1.6-1.4-2.6,0.5
					C27.1,108,29.3,109.2,29.9,107.3z M37.9,103.7c0-0.4-2.2,0.3-2.2,0.7c0.3,2.9-1.3,3-1.3,3l-0.1,0.2c0.1-0.1,0.1-0.3,0.1-0.4
					c0-0.1,0-0.2,0-0.3c0.1-1.2-0.8-2.2-2-2.3c-1.2-0.1-2.1,0.9-2.2,2.1c0,1.2,0.8,2.2,2,2.3c0.5,0,0.9-0.1,1.2-0.4l-0.1,0.1
					C38.7,108.9,37.9,104.3,37.9,103.7z M30.1,105.5c0,0-0.6-2.1-2.4-1C27.4,104.6,28.6,106.9,30.1,105.5z M30.6,102.2
					c0,0-0.9,1.5,0.8,2.1C31.6,104.4,32.3,102.4,30.6,102.2z M110.7,96.8c-0.1-1.9-1.2-2.4-1.2-2.7c0.3-6.3,0.2-8.4-1.9-13.8
					c-0.9-2.4-2.1-4.4-3.4-6.1c-0.6-0.9-4.5-6.9-17.7-17.9c-2.1-1.8-5.9-4.7-8.9-6.6c-0.4-0.2-2.4-1.6-5-3.1
					C83.4,45.2,85.1,35.1,84.7,35c-0.4-0.1-3.7-4.3-3.7-4.3c-2.2-0.9-2.5,1.5-2.7,1.5c-3.6,0-1.7,3.1-1.8,3c-2.1-0.4-2.8,0.9-3,1.5
					c-0.8,1.9,0.9,3.3,0.8,3.4c-2,2,0.2,3.1,0.5,3.3c-3,0.7-4-1.2-4.1-1.1c-0.7,0.5,0.1,1,0,1.1c-0.1,0.1-4-1-4.1-3.4
					c-0.1-3.4,2.2-3.1,2.9-3c1.1,0.2,1.8,2.1,1.3,2.6c-1.4,1.3-2.1,0.5-2.3,0.1c0.2,0.2,0.5,0.1,0.6,0.1c0.3-0.1,0.2-0.8-0.3-0.9
					c-0.6-0.1-1.1,0.5-0.6,1.3c0.1,0.1,1.2,1.5,2.9-0.2c1.4-1.5-0.6-3.4-1.3-3.5c-0.6-0.1-4.4-0.9-4.1,3.7c0.2,3.6,4.4,4.2,7,4.2
					c-1.3,0.3-2.7,0.5-3.5,0.6c-0.3-0.1-0.7-0.3-1-0.4c0,0-8.7-3.3-13.1,0.6c-4.4,3.9-2.2,10.8,3.9,8.3c0.2-0.1-6-0.7-3.9-5.2
					c0,0,3.4-6.3,9.6-0.1c0.2,0.2-3.9,1.1-3.4,4.8c0.3,2.4,2.4,4.3,4.4,2.9c1.8-1.2,0.3-2.8,0.3-2.8c-2.3-1.5-2.8,0.8-3.2,0.6
					c-0.9-0.6,0-4.4,5.5-3.7c3,0.4,5.6,1.8,7.5,3.1c-2.3-1-4.9-1.2-6.9,0.8c-3.7,3.8,0.1,6.9,0.9,7.3c1.3,0.6,4.6,0.3,4.5-2.3
					c-0.1-3-2.7-2.9-2.9-2.8c-1.1,0.3-1.2,1.3-0.5,1.7c0.5,0.3,1.2-0.3,1-0.6c-0.1-0.1-0.3-0.5-0.6-0.4c0.6-0.2,1.8-0.4,2,1.9
					c0.1,0.9-1.9,1.9-3,1.3c-0.8-0.4-2.9-2.2-0.5-5c2-2.3,6.5-0.1,6.6,0c0.1,0.2-2.6,0.3-0.8,2.7c0.1,0.1,0.2-4,4.8,0.8
					c0,0,0-0.1,0.1-0.2c-0.5,8.5,8.4,6.4,8.4,6.4c-5.9-0.2-3.3-4.3-2.5-4.3c-1.9,2.5,1.6,3.5,1.4,3.2c-1.6-2.1,0.4-1.2,2-0.3
					c0.1,0.1,0.1,0.2,0.2,0.3c1.6,1.7,2,2.6,2.3,3.1c-3.8-0.6-7.8-0.2-9.3,0.2c-0.3,0.1-0.5,0.2-0.8,0.2c-1.3-1-3.5-2-5.9-0.9
					c-0.8,0.3-4.1-4.9-8.7-2.5c-2.9,1.5-2.1,4.9-1.6,5.6c1.1,1.6,4.1,2.8,4.5-0.2c0.3-2.4-3.5-2-3.7-0.8c-0.2,1.2-0.8-2.5,1.7-3.5
					c2.5-0.9,4.6,1.8,4,3.9c-0.5,1.8-2.2,4.1,0.1,5.9c-2.9,4.8-1.9,8.8-1.6,9.6c0.4,1.4,2,4.6,4.7,5.2c3.9,0.8,4.9-2.2,5.4-2.8
					c0.5-0.6,1.1-3.9-1.4-3.9c-2.5,0.1-2,2.5-2,2.5c0.6,2.4,2.9,1.2,2.8,1.5c-0.1,0.3-1.4,2.7-4.8,1.7c-0.2,0-3.6-1.4-3.8-5.4
					c-0.4-5.5,1.6-8.1,7.6-12c6.1-4,10.1-1.7,10.1-1.7c-3.3,2.1-3.3,6.1-3.3,6.1c0,4.7,5.8,6.4,5.3,6.1c-0.4-0.3-0.9-2.5-0.3-2
					c0.2,0.2,0.9,0.5,0.8,0.4c-0.1-0.2-0.2-0.4-0.6-1.2c-2.6-6.6,4.7-6.3,4.7-6.3c1.8,0.2,3.9,2.6,3.4,2.7c-2.7,0.4-4.1,2.9-3.4,4.8
					c0.7,1.8,3.3,1.7,3,1.5c-0.3-0.1-2.6-0.8-1.7-3.1c0.8-2.3,3.9-1.5,4.8,0.1c1.8,3.7,0.4,5.3,0,5.2c-6.1-3.1-7,3.5-7.1,4
					c-0.1,0.5,0.5-0.4,0.8-0.8c1.5-2.9,3.7-1.9,4.4-1.6c1.7,0.8,2.1,2.8,1.3,4.2c-1,1.6-4.8-0.2-5.5-0.4c-0.3-0.1-0.2,0.2-0.2,0.2
					c12.6,7.9,6.2,18.9,5.1,20.4c-0.8,1.1-1.9,2.2-3.4,3.3c-0.1-1.4-0.8-3.5-2.7-6.5c-0.3-0.4,2.7,1.7,2.6,2.4
					c-0.1,0.7,9.1-6.9-1.3-12.3c-0.4-0.2,2.5,3.4,1.7,3.2c-0.7-0.2-1,0.1-0.9,0.5c0,0,0.7-0.3,0.9,1c0,0.2-0.8-0.2-0.7,0.1
					c0.1,0.9,1,2.7,0.5,4.2c-0.1,0.3-3.2-3.7-5-4.3c0,0-0.4,3.6-1.5,4.6c-1.2,0.9,0.4-0.8,0-1.3c-0.4-0.5-1.2,1.4-1.9,1.5
					c-0.8,0.1,0.1-3.6,1.3-4.6c1.2-1.1-4.1,1.8-5,1.4c-0.2-0.1-0.1-1.7,0.1-2.2c0.2-0.4-0.4,0.2-0.9-0.7c-0.1-0.2,1.3-1.6,1.1-1.6
					c-3.5-0.5-5.4,2.2-6.2,4.5c-0.8,2.3-1.1,3.5-3.9,4.3c0,0,1.5,3.2,8.7,0.1c0.2-0.1,0.1,0,0.1,0s-1,2.9,3.7,3.3
					c2.7,0.3,2.1,3.4,2.1,3.7c0,0.3,4.4-1.8,4.4-6.3c0,0,0-0.2,0.5,0.9c1.1,2.7,1.1,4.4,0.6,5.4c-2.4,1.1-5.3,1.8-8.8,1.4
					c-3.1-0.3-6.1-1.3-8.9-2.5c-5.2-3.5-3-7.4-3.2-7.4c-3.1-1.3-2.5,1.6-2.7,1.6c-0.2,0-3.7-4.3-1.8-7c2.3-3.3,4.8-1.5,5.4-0.8
					c1,1.1,0.4,3.4-0.6,3.6c-2.5,0.4-2.7-0.9-2.6-1.6c0,0.4,0.5,0.4,0.6,0.5c0.4,0.2,0.9-0.7,0.4-1.2c-0.6-0.6-1.7-0.2-1.7,1
					c0,0.2,0.6,3,3.7,2.3c2.8-0.6,2.2-4.2,1.2-5.3c-0.7-0.8-4.9-4.1-7.9,0.9c-2.2,3.6,0.1,7.4,2.3,9.8c-1.3-0.8-2.4-1.6-3.3-2.3
					c0.1,0,0.1,0,0.2,0c-0.1,0-0.2-0.1-0.3-0.1c-1.2-0.9-1.9-1.5-1.9-1.5c-4.5-2.9-3.7-5.4-2.9-6c1.1-0.9,3.6-0.2,3.6-0.2
					s0.7,0.2,0.5-0.1c-1.6-1.7-2.4-1.5-3.5-1.5c-1.1,0.1-2.9,0.5-3.5,3.5c-0.3,1.5,1.3,3.2,3,4.6c-4.1-0.1-5.5-0.9-6.5-1.8
					c-1-0.9-0.2-2.6,1.3-3c1.2-0.3,2.3,0,2.1-0.2c-1.7-1.5-3.5-0.7-3.5-0.7s-2.8,1.1-1.9,3.9c0.9,2.8,5.7,2.7,5.9,2.8
					c0.1,0,0,0.1,0,0.1s-2.5-0.4-5.4,2.8c-0.1,0.1-0.2,0.2-0.3,0.3c-7.8-0.1-6.2-6.9-6.4-6.8c-0.8,0.2-1.3,0.1-1.3,0.1
					c0.5,6,4.5,7.2,7.2,7.3c-2.7,2.5-5.4,3.3-5.4,3.3c-1.9,0.5-4.1-0.5-4.2-0.5c-0.1-0.1-0.1,0.1-0.1,0.1c-0.3,1.1,0.6,1.5,0.4,1.6
					c-2.9,1.3-4-2.6-4.4-2.8c-0.3-0.2-0.6,0.9-0.6,0.9s-1.8-0.5-0.3-3.2c1.5-2.8,4.7-2,4.7-2c2.6,0.9,0.9,3.4,0.9,3.4
					c0.1-0.2,0.2-1.1-0.1-1.6c-0.3-0.4-1-0.5-1.5-0.5c-1.3,0.1-1,1.7-0.9,1.9c0.1,0.6,1.8,1.5,2.9,0.2c1.8-2,0-3.9-1.4-4.3
					c-1.4-0.4-6-0.2-6.4,4.4c-0.4,4.6,4.5,5.7,4.5,5.7l0,0.1c-6.7,2.5-10.4-2.8-10.6-3c-0.2-0.2-0.2,0-0.2,0s-2.8,4.6-5.4,1.3
					c-2.6-3.3-0.2-4.5-0.4-4.8c-0.5-0.8-2.3,0.2-2.3,0.2c-1.2-1.1,0.4-4.2,0.9-4.6c0.8-0.5-1.7-0.8-1.7-0.8s1.7-5.1,6.7-5.6
					c5-0.5,5.7,4.2,5.7,4.2c0.4-0.7,3.1-1,3.1-1s-0.5-1.8-0.9-2.2c-4.7-5.1-10.6-2.6-10.9-2.5c-0.3,0.1-3.8,1.2-5.3,6.2
					c-1.5,5.1,1.4,7.9,1.5,8.3c0,0.3-0.8,0.3-0.7,0.6c0.2,0.8,3.6,4.6,7.5,5.8c6.3,1.8,14.2,0.6,15.4,0.2c1.2-0.3,6.6-2.5,12.4-7.7
					c3-2.7,5.8-3.9,7.7-4.4c0.6,0.4,1,0.6,1.2,0.8c-1.9,1-2.6,3-3.5,5.6c-1,3.1-2.6,3.4-3.6,3.5c-1.5,0.2-2.6-0.9-2.4-1.5
					c0.5-1.8,2.6,0,2.6,0c-0.1-2.8-4.6-2.5-4.8,0.4c-0.1,0.9-0.1,3,3.4,3.8c4.3,0.9,6.1-2.5,6.1-2.5c0.5,3,6.7,5.3,9.3,2.1
					c0.9-1.2,0.8-2.5,0.1-3.5c1.7,1.4,3.8,2.6,7.4,3.5c4.5,1.2,11.8,1.1,17.2-2.6c8.8-6.1,10.8-17.4,10.8-17.4
					C110,99.7,110.8,98.7,110.7,96.8z M76.9,35.8c-0.1-2.8,2.2-2.7,2.5-2.7c2,0.2,2.9,1.3,3.3,2.5c0.1,0.5-0.1,0.7-0.1,0.7
					C81,35,79.9,34.9,79.2,35c-1.2,0.2-3.5,2.5-1.4,4.2c1.3,1.1,2.5-0.2,2.4-0.2c-0.1-0.1-1.3-0.1-1.5-0.6c-0.5-0.9,0.7-1.4,1.2-1.4
					c1.4,0.1,1.7,1.2,1.4,2.4c-0.1,0.3-1.2,1.6-1.3,1.4c-0.3-0.4-1-0.5-1.3-0.6c-0.1,0-0.9-0.1-1.5,0.9c-0.7,1.2,1,1.5,0.8,1.4
					c-0.2-0.1-0.4-0.2,0-0.8c0.4-0.6,1.3-0.3,1,0.5c-0.3,0.8-3.1,1.2-3.1,1.1c-1.6-1.1,0.1-3,0.1-3.2C74,36.4,76.9,36,76.9,35.8z
					 M71.3,116.2c0.9,0.2,1.2,1.3,0.2,2c-0.9,0.7-3.5,0.3-4-0.8c-1.5-2.8,0.4-4.2,2.2-4.9c1,1,1.9,2,2.9,2.9
					c-0.2-0.1-0.5-0.2-0.7-0.3c-1.7-0.4-2.4,1.9-2.4,1.9C69.5,116.7,70.3,116,71.3,116.2z M59,124.3c0,0.3,2.3,0.1,1.8-1.6
					C60.8,122.7,58.9,122.4,59,124.3z M65.5,122.2c0,0,0,1.9,1.9,1.5C67.7,123.5,67.2,121.3,65.5,122.2z M64.1,123.4
					c0,0-0.6,1.8,1.3,2C65.7,125.4,65.9,123.1,64.1,123.4z M62.4,123.7c0,0-1.7,0.9-0.4,2.4C62.1,126.2,63.9,124.8,62.4,123.7z
					 M60.1,121.3c0,0-1.4-1.3-2.4,0.4C57.6,121.9,59.6,123,60.1,121.3z M64.2,120.1c-2.2-1.3-2.9,1.1-2.9,1.1
					c-0.1,2,2.4,1.9,3.1,1.4C64.8,122.3,65.6,121,64.2,120.1z M93.2,92.6c0.2,0.9,2.3,1.3,2.5-0.4c0-1.4-1.4-3.8-3.4-3.7
					c-3.6,0.1-3.3,4.9-3.4,5.3c0,0-2.6,0.8-2.8,3.4c0,0.4,0.1,2,4.7,2.5c0.7,0.1,5.9-0.7,4.9-3.9c-0.8-2.3-3.3-2.3-3.5-2.4
					c-0.2-0.1-0.6-2.8,0.7-3.1c1.4-0.3,2.1,1,2.1,1S92.7,90.8,93.2,92.6z M78.6,73c0,0.5,0.5,1,1.1,1c0.6,0,1.1-0.4,1.1-1
					c0-0.5-0.5-1-1.1-1C79.1,72,78.6,72.5,78.6,73z M75.4,85.5c0.5,0,1-0.4,1-0.8c0-0.5-0.4-0.8-1-0.8s-1,0.4-1,0.8
					C74.5,85.1,74.9,85.5,75.4,85.5z M85.1,71.2c0-0.6-0.6-1.2-1.3-1.2c-0.7,0-1.3,0.5-1.3,1.2c0,0.6,0.6,1.2,1.3,1.2
					C84.6,72.3,85.1,71.8,85.1,71.2z M75.7,80c0-0.5-0.4-0.9-0.9-0.9c-0.5,0-0.9,0.4-0.9,0.9s0.4,0.9,0.9,0.9
					C75.3,80.9,75.7,80.5,75.7,80z M77.6,76.2c0-0.5-0.4-0.9-1-0.9c-0.5,0-1,0.4-1,0.9c0,0.5,0.4,0.9,1,0.9
					C77.1,77.1,77.6,76.7,77.6,76.2z M68.7,31.9c0.1-0.1-0.8-1.1-1.4-0.2C67.3,31.6,67.9,32.6,68.7,31.9z M66.6,32.5
					c0,0-0.3,1.1,0.8,1.1C67.6,33.6,67.6,32.3,66.6,32.5z M68.5,30c0.1-0.1-1.1-0.8-1.4,0.2C67.1,30.3,68,31,68.5,30z M65.7,34.5
					c0.1,0.1,1-0.9,0-1.4C65.7,33.2,64.8,33.8,65.7,34.5z M45.9,100.7c1.4,0-0.3,1.2-0.9,1.1c-0.6-0.1,0.3,1.3,3,0.8
					c0,0,1.2-0.3,1.6,2.8c0.1,0.6,1.2-1.2,0.9-2.7c-0.1-0.5,2.2-0.4,2.3,1.2c0,0.1,1.2-1.8-0.8-3.4c-0.8-0.7-1.9,0.6-3.3-0.7
					c-1.4-1.3-0.9-1.2-1.2-2.3c-0.3-1.1-3.5-1.4-4.4-0.7c-0.3,0.3,0.6-0.5,2.8,1.1c2.2,1.6-2.3,1.3-2.8,1.1
					C42.6,99,44.5,100.7,45.9,100.7z M56.2,90.4c-0.9-3.1-3.4-0.9-3.5-1.1c-1.7-2.6-3.5-0.5-3.5-0.5s-2.2-0.6-1.7-0.1
					c0,0,3.6,2.5,2.3,6.1c-0.2,0.2-0.4,0.3-0.6,0.5c0.8-1.5,1.3-3.4-0.8-4.3c-0.6-0.2-1.4,0.4-1.3,0.9c0,0,1.4-0.6,2.2,0.6
					c0.1,0.2-0.7-0.2-1.4,0.8c-0.1,0.1,2.3-0.7,1.4,1.5c-0.1,0.3-0.2,0.6-0.4,0.8c-0.3,0.3-0.5,0.6-0.6,0.8c0,0.1,0,0.1-0.1,0.2
					c-0.2,0.3-0.5,0.6-0.7,1c0,0,0.3-0.3,0.7-0.8c0,0.2-0.1,0.3-0.1,0.5c-0.1,0.1-0.1,0.1-0.2,0.2c0,0,0.1-0.1,0.2-0.2
					c-0.6,3.5,3.4,3.4,3.8,2.6c0,0,0-3.5,4.4-6.2c0.9-0.6-3.9,1.9-4.5,2.6c0.3-0.5,1-1.9,1.2-2.9c0-0.2-1.7,3.4-2.9,3.4
					c-1.2,0,1.4-3.2,2.9-4.5c0.2-0.2-1.9,1.3-3.3,2.5c0.5-1.3,0.7-3-0.4-4.9c-0.1-0.1,1-1.1,1.6-0.9c0.4,0.1,1.1,0.3,1.5,0.8
					c0.1,0.1,1.5,0,2.1,0.1c0.5,0.2,1.2,0.7,1.3,0.8c0.2,0.1,1.6,0.5,2.1,1.1c0.3,0.3,0.7,1.1,0.9,1.4c0.9,1.2,0.7,1.8,0.8,2.1
					c0,0,0,0-0.1,0c-1-0.5-5.9,2.3-7.8,4.7c0,0,0.6-0.5,1.5-1.2c-0.4,0.4-0.9,0.8-1.4,1.3c0.7-0.6,1.3-1.2,1.9-1.7
					c2-1.4,4.7-2.8,4.8-0.2c0,0.1,0.7-1.6-0.1-2.2c-0.1-0.1,1-0.1,1.1,0.9c0,0.2,0.5-0.3,0.3-1.1c0.7,0.1,1,0.4,1,0.3
					c0.4-2.1-1.9-2.7-1.8-3C59.9,89.9,56.2,90.4,56.2,90.4z M50,25.3c-0.2,0.3,2.5,1.7,3.1-0.7C53.1,24.6,51.1,23,50,25.3z
					 M48.7,26.2c0,0-2.5-0.3-2.2,2.3C46.6,28.8,49.5,28.4,48.7,26.2z M48.2,23.9c0,0,0.2,0,0.2-0.1c0,0-3.1-2.9-1.8-6
					c0.2-0.6,0.5,2.4,3.2,1.1c0.3-0.2-3-0.1-1.1-4c0.4-0.9-0.5,1.9,2.7,2.3c0.2,0-1.9-1.9-0.6-3.6c0.4-0.5,0.9,3.2,3.6,3
					c0.4,0-3.7-2.7-0.2-5.9c0.3-0.3-1.7,1.9,0.4,3.8c0.3,0.2,0.1-3.8,4.6-3.3c0.3,0,2.5,0.8,1.3,2.2c0,0-0.6,0.8-1.6-0.2
					c-0.5-0.6-0.2,2.3,2.1,3.3c0.2,0.1-1.4,1.5-2.1-0.7c-0.1-0.3-2.5,3.2,3.4,3.9c0.3,0-0.1,4.1-2.8,1.2c-0.4-0.4,0.4,5,7.1-0.3
					c0,0,1.3,1.2,3.1,2.9c-0.5-0.1-0.9-0.2-0.9-0.2c-4.1,0.1-6.1,2.3-6.5,2.8c-0.6,0.8-1.7,3-0.9,4.7c1.2,2.5,3.2,1.9,3.7,2
					c0.5,0.1,2.6-0.9,1.6-2.3c-1.1-1.4-2.2-0.1-2.2-0.1c-1.1,1.3,0.5,2.1,0.3,2.2c-0.2,0.1-2-0.5-2.3-2.3c0-0.1,0-2.5,2.5-3.4
					c2.6-0.9,4.5-0.8,6.1-0.1c-2.1,2.1,1.1,3.6,0.9,3.3c-0.6-1.2-0.2-1.9,0.8-1.3c0.9,0.6,2.2,2.7,2.7,3.4c0.2,0.5,0.2,0.8,0.3,0.7
					c0.6-1.3,2-1,2.1-1.2c0.2-0.9,0.7-1.3,1.1-1.4c0.3,0,0.5-0.1,0.7-0.1c0.1,0,0.2,0,0.2,0c0.1,0,0.1,0,0.1,0
					c-1.7-1.1-14.7-13.9-16-16.1c-1.7-2.7-2.6-4.3-5.5-5.5c-0.7-0.3-8.2-3-12.6,6.4c0,0-0.6,1.3-0.6,3.6
					C45.3,18.8,45.4,22,48.2,23.9z M48.5,25.3c0.3-0.2-1.4-2.7-3-0.9C45.5,24.4,46.4,26.8,48.5,25.3z M50.2,21.7c0,0-2.4,0.9-1,3
					C49.5,25,52,23.3,50.2,21.7z M51.5,29c0.4,0,0.5-3-1.9-2.5C49.6,26.5,48.9,29,51.5,29z"/>
			</g>
		</g>
		<g>
			<path class="st1" d="M87.9,74.9c-0.7,3.7,3.2,5.7,2.8,5.5c-0.4-0.2-0.6-2.1-0.1-1.8c0.2,0.1,0.9,0.5,0.8,0.3
				c-0.1-0.1-0.6-0.7-0.9-1.4c-2.2-5.4,6.2-6.1,6.2-6.1C96.7,70.8,89.3,67.7,87.9,74.9z"/>
			<path class="st1" d="M37.5,118.4c0.2-0.1-2.4,1.2-5.6-3.1c0,0,0,1.6-2.8,2C29.1,117.2,35.7,119.3,37.5,118.4z"/>
			<path class="st1" d="M91.9,110.8c0-0.3-0.6-1.3-3.1-1.6c-4.4-0.4-2.6-4.3-2.6-4.3s-1.2,1-1.8,1.2c-2.7,0.8-4.5,0.3-4.5,0.3
				c1.3-1.4-0.2-2,0.2-3.5c0.7-2.2,2.2-3.7,5.1-4.1c0.2,0-1.1,1.2-1,1.4c0.3,0.4,1,0.4,0.8,0.8c-0.2,0.4-0.1,2.1,0.1,2.1
				c0.8,0.4,5.5-2,4.4-1c-1.1,1-1.5,3.8-0.9,4.2c1,0.7,1.8-2,2.2-1.5c0.4,0.5-1.4,2,0.2,1.4c1.3-0.5,1.8-4.5,1.8-4.5
				c1.7,0.6,4.3,4.4,4.6,4.3c1.4-0.7,0.1-3.4,0.1-4.2c0-0.3,0.5,0.2,0.6,0c0.4-1.1-0.5-1.5-0.6-1.6c-0.1-0.3,0-0.3,0.7-0.1
				c0.7,0.2-0.7-1.9-0.4-1.7c5.6,3.3-0.4,9.6-0.3,8.9c0.1-0.6-3.5-2.8-3.4-2.4c0.3,1.4,0.2,2-0.3,3.2
				C93.4,109.7,91.8,111.1,91.9,110.8z"/>
			<path class="st1" d="M76,67c0,0,3.5-1.1,5.1,0.5c0.2,0.2-0.9,0.1-4.5,2.8c-3.1,2.3-3.5,3.1-3.6,2.9c-0.3-0.4-1.3-1.2,0.5-4.5
				c0.8-1.4-0.3-2.2-0.4-2.2c-0.3,0,0.4-1,1.3-0.5C75.5,66.6,75.7,66.8,76,67z"/>
			<ellipse class="st1" cx="83.9" cy="71" rx="0.9" ry="0.8"/>
			<ellipse class="st1" cx="65.3" cy="31.3" rx="1" ry="1.1"/>
			<ellipse class="st1" cx="68.8" cy="69.5" rx="1.4" ry="1.4"/>
			<ellipse class="st1" cx="64.4" cy="54.8" rx="1.5" ry="1.3"/>
			<ellipse class="st1" cx="32" cy="106.9" rx="1.4" ry="1.5"/>
			<ellipse class="st1" cx="43.9" cy="110.6" rx="1" ry="1"/>
			<ellipse class="st1" cx="79.9" cy="84.9" rx="1.5" ry="1.4"/>
			<ellipse class="st1" cx="79.5" cy="73" rx="0.7" ry="0.7"/>
			<ellipse class="st1" cx="76.5" cy="76.3" rx="0.6" ry="0.6"/>
			<ellipse class="st1" cx="74.6" cy="80.1" rx="0.6" ry="0.6"/>
			<ellipse class="st1" cx="75.2" cy="84.7" rx="0.6" ry="0.6"/>
			<path class="st1" d="M51.5,99.3c0,0-0.8-0.9,2-3.7c0.5-0.6-2,0.9-2.2,1.4c-0.2,0.4,0.6-0.7,0.8-1.7c0-0.1-1.2,1.6-2.1,1.6
				c-0.9,0,0.3-2,1.2-3c0.2-0.2-2.1,2.1-2.3,2.9C47.8,100,51.2,99.9,51.5,99.3z"/>
			<g>
				<path class="st1" d="M65.4,18.8c-1.4-2.3-1.9-2.6-2.9-4.6c-0.8-1.5-1.8-0.9-1.7-0.9c0.2,0.1,1.1,0.7,0.5,1.1
					c0,0-0.7,0.6-1.6-0.3c-0.5-0.5-0.2,1.4,1.7,2.1c0.2,0.1-0.4,1.4-2,1.1c-0.3,0,0.4,1.1,3.2,1.8c0.2,0.1,0.3,1.4-0.4,2.5
					c-0.2,0.4,2.2,0.2,3.6-2.1"/>
			</g>
			<path class="st1" d="M48.5,26.4c0,0-1.7-0.2-1.4,1.5C47.1,28.1,49.1,27.9,48.5,26.4z"/>
			<path class="st1" d="M49.9,22.6c0,0-1.5,0.6-0.6,1.9C49.5,24.7,51.1,23.7,49.9,22.6z"/>
			<path class="st1" d="M49.7,26.6c0,0-0.4,1.5,1.2,1.6C51.1,28.2,51.2,26.3,49.7,26.6z"/>
			<path class="st1" d="M46.5,24.7c0,0,0.6,1.5,1.8,0.6C48.5,25.2,47.5,23.6,46.5,24.7z"/>
			<path class="st1" d="M52.2,24.9c0,0-1.2-1-1.9,0.4C50.2,25.5,51.9,26.4,52.2,24.9z"/>
			<g>
				<path class="st1" d="M56.6,10.2c0.3-0.1-4.1-3.5-8.7,2c0,0-1.6,2-2,3.9c-0.1,0.3-0.4,1.3,0,2.3c0,0,0-1.4,0.7-1.6
					c0.4-0.1,0.3,1.8,2,2c0.3,0-2.6-1.7,0.2-4.8c0.5-0.5-0.1,1.3,1.7,2.5c0.1,0.1-1.4-1.8,0.3-3.6c0.3-0.3,0.8,2.1,2.3,2.6
					c0.3,0.1-2.7-3.5,1.4-5.2c0.3-0.1-1.1,2.1,0,3.2C54.8,13.8,54.2,11.4,56.6,10.2z"/>
			</g>
			<path class="st1" d="M82.4,36.6c-1.5-1.2-2.4-1.2-3.1-1.2c-1,0-3.1,1.8-1.5,3.5c0.4,0.4,1.4,0.2,1.3,0.1
				c-0.1-0.1-0.6-0.3-0.9-0.8c-0.5-0.8,0.6-1.8,1.6-1.6c0.8,0.1,1.9,0.8,1.6,1.9C81.3,38.9,82.4,36.6,82.4,36.6z"/>
			<path class="st1" d="M79.8,41c-0.6-0.5-1.1-0.6-1.4-0.6c-0.4,0-1.3,0.5-1.2,1.3c0,0.3,0.4,0.4,0.3,0.4c-0.1,0,0-0.5,0.1-0.7
				c0.3-0.4,0.6-0.6,1.1-0.5c0.4,0.1,0.7,0.4,0.4,1C79,42.1,79.8,41,79.8,41z"/>
			<path class="st1" d="M88.9,94.3c0,0-2.5,0.9-2.3,3.1c0,0.7,5.6,3.8,8.8-0.2c0.2-0.2-4,1.5-6.4,0.1C88.4,97,86.6,96,88.9,94.3z"/>
		</g>
		<g>
			<path class="st2" d="M90.5,72.9c-1.1,1.1-2.2,3.8-1,5.8c0.1,0.2-1.7-1.5-1.2-4c0.5-2.8,2.2-4,4.5-4.2c1.9-0.1,3.5,0.7,2,0.5
				C94.7,71,91.8,71.5,90.5,72.9z"/>
			<path class="st2" d="M92.2,109.3c0-0.2-1.1-0.4-3.3-1.3c-3.3-1.3-2.1-3.8-2.1-3.8s-0.4-0.1-1.8,0.4c-1.7,0.7-3.4-0.2-3.4-0.2
				c0.5-1.3-0.1-2.1-0.2-2.9c0-0.8,1.7-2.6,3-2.2c0.2,0.1-0.5,0.7-0.4,1c0.2,0.4,0.9,0.5,0.8,0.9c-0.2,0.4-0.1,2.2,0.4,2.3
				c0.9,0.2,4.6-1.6,3.6-0.7c-1,0.9-0.7,3.4-0.1,3.8c1.1,0.6,1.8-1.7,2.1-1.4c0.4,0.4-1.6,1.8,0,1.4c2.2-0.5,2.4-4.2,2.4-4.2
				c1.6,0.6,4.1,4,4.4,3.8c1.9-0.8,0.4-3.3,0.3-4.1c0-0.3,0.4,0.2,0.6-0.2c0.4-1-0.4-1.4-0.4-1.5c-0.1-0.3,0-0.1,0.7,0
				c0.7,0.2-0.4-1.5-0.1-1.2c2.8,3.3-0.6,8.2-1,7.7c-0.9-1.2-3.6-2.3-3.5-1.9c0.3,1.3,0,1.8-0.4,2.9
				C93.1,109.2,92.2,109.6,92.2,109.3z"/>
			<path class="st2" d="M76.7,67.2c0,0,2-0.7,3.1,0.4c0.2,0.2-0.6,0.2-3.2,2.1c-2.2,1.7-2.5,2.2-2.6,2.1c-0.2-0.3-1.3-0.5,0-2.9
				C74.7,67.9,76.2,67.3,76.7,67.2z"/>
			<ellipse class="st2" cx="94.4" cy="92.2" rx="0.9" ry="0.8"/>
			<g>
				<path class="st2" d="M65.2,19c-1.2-1.9-1.6-2.2-2.4-3.9c-0.5-1.1-1-0.9-0.9-0.9c0.2,0.1,0.1,0.6-0.3,0.8c0,0-0.6,0.3-1,0
					c-0.4-0.3-0.2,0.5,1.4,1.1c0.1,0.1-0.2,1.9-1.5,1.6c-0.2,0,0,0.3,2.4,0.9c0.2,0,0.7,1.6,0,2.5c-0.2,0.3,1.4,0.5,2.5-1.5"/>
			</g>
			<g>
				<path class="st2" d="M55.7,10c0.2-0.1-4-1.9-7.5,2.1c-1.6,1.9-1.9,3.4-2,4.5c0,0,0.1-0.6,0.6-0.8c0.2-0.1-0.2,0.4,0.7,0.9
					c0.2,0.1-0.9-1.3,1.3-3.3c0.5-0.4-0.2-0.1,0.8,1c0.1,0.1-0.2-1.6,1.1-2.3c0.3-0.2,0.2,0.6,1.2,1.4c0.2,0.2-0.8-2.3,2.6-3.5
					c0.5-0.2-0.5,1.6-0.2,2.3C54.5,12.6,54.7,10.3,55.7,10z"/>
			</g>
			<path class="st2" d="M82.2,36.6c-1.5-1-2-1-2.9-1c-0.5,0-1.8,0.5-1.8,2.2c0,0.5,0.4,0.8,0.4,0.7c-0.1-0.5-0.2-0.6,0-1.1
				c0.4-0.9,1.1-1.1,2-1c0.8,0.1,1.8,0.8,1.5,1.8C81.4,38.5,82.2,36.6,82.2,36.6z"/>
			<path class="st2" d="M89.1,98.5c0,0-2.1-0.9-2.2-1.8c0-0.3,0.1,0.8,3.5,1.3c2.4,0.4,4-0.5,4-0.3c-0.1,0.4-1.1,0.9-2.1,1
				C91.1,99,90,98.8,89.1,98.5z"/>
		</g>
	</g>
	<g>
		<g>
			<path class="st0" d="M412,78.7c0,1.7-1.4,3-3.1,3c-1.7,0-3.1-1.3-3.1-3c0-1.7,1.4-3,3.1-3C410.6,75.7,412,77,412,78.7z
				 M406.5,78.7c0,1.3,1,2.4,2.4,2.4c1.3,0,2.3-1.1,2.3-2.4c0-1.3-1-2.4-2.3-2.4C407.5,76.3,406.5,77.4,406.5,78.7z M408.4,80.3
				h-0.7v-3c0.3,0,0.7-0.1,1.2-0.1c0.6,0,0.8,0.1,1,0.2c0.2,0.1,0.3,0.4,0.3,0.6c0,0.4-0.3,0.6-0.6,0.7v0c0.3,0.1,0.4,0.3,0.5,0.7
				c0.1,0.5,0.2,0.6,0.2,0.7h-0.7c-0.1-0.1-0.1-0.4-0.2-0.7c-0.1-0.3-0.2-0.5-0.6-0.5h-0.3V80.3z M408.4,78.6h0.3
				c0.4,0,0.7-0.1,0.7-0.4c0-0.3-0.2-0.5-0.7-0.5c-0.2,0-0.3,0-0.4,0V78.6z"/>
		</g>
		<path class="st0" d="M158.6,96.9v0.3c0,0.6-0.2,1-0.6,1.4c-0.4,0.3-0.9,0.5-1.5,0.5h-34.9c0.2,4.6,1.9,8.5,5.1,11.6
			c3.2,3.1,7,4.7,11.4,4.7c2.8,0,5.5-0.7,7.9-2.1c2.4-1.4,4.4-3.3,5.8-5.7c0.7-1.2,1.6-1.4,2.8-0.7c1.2,0.8,1.4,1.8,0.7,3
			c-1.9,3-4.3,5.3-7.3,7c-3,1.7-6.3,2.6-9.9,2.6c-5.7,0-10.6-2.1-14.6-6.2c-4-4.1-6-9.2-6-15c0-5.9,2-10.9,6-15.1
			c4-4.2,8.8-6.3,14.4-6.3c5.6,0,10.3,1.9,14.2,5.7C156,86.6,158.2,91.3,158.6,96.9z M148.6,85.2c-3-2.6-6.5-3.9-10.5-3.9
			c-4,0-7.5,1.3-10.5,3.9c-3,2.6-4.9,5.9-5.7,10h32.2C153.4,91.1,151.6,87.8,148.6,85.2z"/>
		<path class="st0" d="M166.5,117.6V60.9c0-0.6,0.2-1.1,0.6-1.5c0.4-0.4,0.9-0.6,1.5-0.6c0.6,0,1.1,0.2,1.5,0.6
			c0.4,0.4,0.7,0.9,0.7,1.5v56.7c0,0.6-0.2,1.1-0.7,1.5c-0.4,0.4-0.9,0.6-1.5,0.6c-0.6,0-1.1-0.2-1.5-0.6
			C166.7,118.7,166.5,118.2,166.5,117.6z"/>
		<path class="st0" d="M182.4,117.6V60.9c0-0.6,0.2-1.1,0.6-1.5c0.4-0.4,0.9-0.6,1.5-0.6c0.6,0,1.1,0.2,1.5,0.6
			c0.4,0.4,0.7,0.9,0.7,1.5v56.7c0,0.6-0.2,1.1-0.7,1.5c-0.4,0.4-0.9,0.6-1.5,0.6c-0.6,0-1.1-0.2-1.5-0.6
			C182.6,118.7,182.4,118.2,182.4,117.6z"/>
		<path class="st0" d="M229,77.1c1.2,0.3,1.8,1,1.8,2v37.2c0,5.6-2,10.3-5.9,14.2c-3.9,3.9-8.7,5.8-14.3,5.8c-2.9,0-5.8-0.7-8.8-2
			c-1.2-0.8-1.5-1.7-0.9-2.7c0.5-1.1,1.5-1.4,2.7-1.1c2.2,1.1,4.5,1.7,7,1.7c4.4,0,8.2-1.5,11.3-4.6c3.1-3.1,4.7-6.8,4.8-11.2v-2.8
			c-3.6,4.1-7.9,6.1-12.9,6c-5,0-9.2-1.7-12.5-5.1c-3.4-3.4-5-7.5-5-12.2V79.1c0-0.6,0.2-1.1,0.6-1.4c0.4-0.4,0.9-0.6,1.5-0.6
			c0.6,0,1.1,0.2,1.5,0.6c0.4,0.4,0.6,0.9,0.6,1.4v23.1c0,3.7,1.3,6.8,3.8,9.3c2.5,2.6,5.6,3.8,9.3,3.8c3.6,0,6.7-1.3,9.3-3.8
			c2.5-2.5,3.9-5.6,3.9-9.3V79.1c0-0.5,0.1-0.8,0.2-0.9c0.1-0.1,0.2-0.3,0.3-0.4c0-0.2,0.3-0.4,0.9-0.6h0.2c0.1-0.1,0.2-0.1,0.3-0.1
			H229z"/>
		<path class="st0" d="M261.9,117.6V60.9c0-0.6,0.2-1.1,0.6-1.5c0.4-0.4,0.9-0.6,1.5-0.6h13.6c4.2,0,7.7,1.5,10.7,4.4
			c3,3,4.4,6.7,4.4,11.2c0,4.5-1.9,8.3-5.8,11.4c3.5,1.2,6.3,3.3,8.6,6.3c2.2,3,3.3,6.4,3.3,10.1c0,4.8-1.7,8.9-5.1,12.3
			c-3.4,3.4-7.5,5.1-12.3,5.1h-17.5c-0.6,0-1.1-0.2-1.4-0.6C262.1,118.7,261.9,118.2,261.9,117.6z M266.2,84.8h11.4
			c3,0,5.6-1.1,7.7-3.2c2.1-2.1,3.2-4.7,3.2-7.6c0-3-1.1-5.5-3.2-7.7c-2.1-2.1-4.7-3.2-7.7-3.2h-11.4V84.8z M266.2,115.4h15.2
			c3.6,0,6.7-1.3,9.2-3.8c2.5-2.5,3.9-5.6,3.9-9.3c-0.1-3.6-1.4-6.7-3.9-9.3c-2.6-2.6-5.6-3.9-9.2-3.9h-15.2V115.4z"/>
		<path class="st0" d="M306.1,117.6V60.9c0-0.6,0.2-1.1,0.6-1.5c0.4-0.4,0.9-0.6,1.5-0.6c0.6,0,1.1,0.2,1.5,0.6
			c0.4,0.4,0.7,0.9,0.7,1.5v56.7c0,0.6-0.2,1.1-0.7,1.5c-0.4,0.4-0.9,0.6-1.5,0.6c-0.6,0-1.1-0.2-1.5-0.6
			C306.3,118.7,306.1,118.2,306.1,117.6z"/>
		<path class="st0" d="M322,67.3v-2c0-0.6,0.2-1.1,0.6-1.5c0.4-0.4,0.9-0.6,1.5-0.6c0.6,0,1.1,0.2,1.5,0.6c0.4,0.4,0.7,0.9,0.7,1.5
			v2c0,0.6-0.2,1.2-0.7,1.6c-0.4,0.4-0.9,0.7-1.5,0.7c-0.6,0-1.1-0.2-1.5-0.7C322.2,68.4,322,67.9,322,67.3z M322,117.6V79.2
			c0-0.6,0.2-1.1,0.6-1.5c0.4-0.4,0.9-0.6,1.5-0.6c0.6,0,1.1,0.2,1.5,0.6c0.4,0.4,0.6,0.9,0.6,1.5v38.4c0,0.6-0.2,1.1-0.7,1.5
			c-0.4,0.4-0.9,0.6-1.5,0.6c-0.6,0-1.1-0.2-1.5-0.6C322.2,118.7,322,118.2,322,117.6z"/>
		<path class="st0" d="M334.4,113.6c-1-0.9-1.1-1.8-0.3-2.8c0.3-0.5,0.8-0.7,1.4-0.8c0.6-0.1,1.1,0.1,1.6,0.5c4.5,3.3,8.6,5,12.3,5
			c3.7,0,6.6-0.9,8.8-2.6c2.1-1.4,3.2-3.1,3.2-5.1c0-1.9-1-3.7-2.9-5.2c-1.9-1.5-4.9-2.6-9.2-3.3l-0.2-0.1c-4.5-0.8-7.7-1.9-9.6-3.3
			c-3.1-1.8-4.6-4.3-4.6-7.6c0-3.3,1.5-6.1,4.6-8.3c2.8-1.9,6.3-2.9,10.4-2.9c1.7,0,3.4,0.3,5.1,0.8c1.7,0.6,3,1.1,3.9,1.6
			c0.9,0.5,2.1,1.2,3.7,2.2c0.5,0.3,0.8,0.8,0.9,1.4c0.1,0.6,0,1.1-0.3,1.6c-0.3,0.5-0.7,0.8-1.3,0.9c-0.6,0.1-1.1,0-1.6-0.3
			c-1.4-1-2.5-1.7-3.3-2.1c-0.7-0.4-1.8-0.9-3.2-1.4c-1.4-0.5-2.7-0.7-4-0.7c-3.4,0-6,0.8-7.9,2.3c-1.9,1.5-2.9,3.1-2.9,4.8
			c0,1.7,0.8,3.2,2.4,4.4c2,1.4,4.9,2.4,8.7,3h0.2c3.8,0.6,7.2,1.7,10.3,3.5c3.2,2.1,4.8,4.9,4.8,8.4c0,3.5-1.6,6.4-4.7,8.8
			c-3.2,2.3-6.7,3.5-10.7,3.5C344.6,119.6,339.4,117.6,334.4,113.6z"/>
		<path class="st0" d="M373.6,113.6c-1-0.9-1.1-1.8-0.3-2.8c0.3-0.5,0.8-0.7,1.4-0.8c0.6-0.1,1.1,0.1,1.6,0.5c4.5,3.3,8.6,5,12.3,5
			c3.7,0,6.6-0.9,8.8-2.6c2.1-1.4,3.2-3.1,3.2-5.1c0-1.9-1-3.7-2.9-5.2c-1.9-1.5-4.9-2.6-9.2-3.3l-0.2-0.1c-4.5-0.8-7.7-1.9-9.6-3.3
			c-3.1-1.8-4.6-4.3-4.6-7.6c0-3.3,1.5-6.1,4.6-8.3c2.8-1.9,6.3-2.9,10.4-2.9c1.7,0,3.4,0.3,5.1,0.8c1.7,0.6,3,1.1,3.9,1.6
			c0.9,0.5,2.1,1.2,3.7,2.2c0.5,0.3,0.8,0.8,0.9,1.4c0.1,0.6,0,1.1-0.3,1.6c-0.3,0.5-0.7,0.8-1.3,0.9c-0.6,0.1-1.1,0-1.6-0.3
			c-1.4-1-2.5-1.7-3.3-2.1c-0.7-0.4-1.8-0.9-3.2-1.4c-1.4-0.5-2.7-0.7-4-0.7c-3.4,0-6,0.8-7.9,2.3c-1.9,1.5-2.9,3.1-2.9,4.8
			c0,1.7,0.8,3.2,2.4,4.4c2,1.4,4.9,2.4,8.7,3h0.2c3.8,0.6,7.2,1.7,10.3,3.5c3.2,2.1,4.8,4.9,4.8,8.4c0,3.5-1.6,6.4-4.7,8.8
			c-3.2,2.3-6.7,3.5-10.7,3.5C383.8,119.6,378.6,117.6,373.6,113.6z"/>
	</g>
	<g>
		<path class="st0" d="M424.2,111.9h1.8l-3.7,8.6h-0.5l-2.5-5.9l-2.5,5.9h-0.5l-3.7-8.6h1.8l2.2,5.1l2.2-5.1h1.2l2.1,5.1
			L424.2,111.9z"/>
		<path class="st0" d="M434.3,116.2h-5.9c0,0.8,0.3,1.4,0.8,1.9c0.5,0.5,1.1,0.7,1.9,0.7c1.1,0,2.1-0.3,3-1v1.6
			c-0.5,0.3-1,0.6-1.5,0.7s-1.1,0.2-1.8,0.2c-0.9,0-1.7-0.2-2.3-0.6c-0.6-0.4-1-0.9-1.4-1.6c-0.3-0.6-0.5-1.4-0.5-2.3
			c0-1.3,0.4-2.3,1.1-3.1c0.7-0.8,1.7-1.2,2.8-1.2c1.1,0,2,0.4,2.7,1.2c0.7,0.8,1,1.8,1,3.1V116.2z M428.4,115.2h4.2
			c0-0.7-0.2-1.2-0.6-1.5c-0.4-0.4-0.8-0.5-1.4-0.5s-1.1,0.2-1.5,0.5C428.8,114.1,428.6,114.6,428.4,115.2z"/>
		<path class="st0" d="M446.6,115.2v3.6c0,0.3,0.1,0.4,0.3,0.4c0.2,0,0.5-0.1,0.9-0.4v1c-0.4,0.2-0.7,0.4-0.9,0.5
			c-0.2,0.1-0.5,0.1-0.7,0.1c-0.7,0-1.1-0.3-1.3-0.8c-0.7,0.5-1.5,0.8-2.3,0.8c-0.6,0-1.1-0.2-1.5-0.6c-0.4-0.4-0.6-0.9-0.6-1.5
			c0-0.5,0.2-1,0.6-1.4c0.4-0.4,0.9-0.7,1.6-1l2.1-0.7v-0.4c0-1-0.5-1.5-1.5-1.5c-0.9,0-1.8,0.5-2.7,1.4v-1.8
			c0.6-0.8,1.6-1.1,2.8-1.1c0.9,0,1.6,0.2,2.2,0.7c0.2,0.2,0.3,0.4,0.5,0.6s0.2,0.5,0.3,0.8S446.6,114.5,446.6,115.2z M445,118.6
			v-2.5l-1.1,0.4c-0.6,0.2-1,0.5-1.2,0.7c-0.2,0.2-0.4,0.5-0.4,0.9c0,0.3,0.1,0.6,0.3,0.9s0.5,0.3,0.9,0.3
			C444,119.3,444.5,119.1,445,118.6z"/>
		<path class="st0" d="M451.1,111.9v1.9l0.1-0.1c0.8-1.3,1.6-1.9,2.4-1.9c0.6,0,1.3,0.3,2,1l-0.9,1.5c-0.6-0.5-1.1-0.8-1.6-0.8
			c-0.5,0-1,0.3-1.4,0.8c-0.4,0.5-0.6,1.1-0.6,1.8v4.4h-1.7v-8.4H451.1z"/>
		<path class="st0" d="M463.9,116.2H458c0,0.8,0.3,1.4,0.8,1.9c0.5,0.5,1.1,0.7,1.9,0.7c1.1,0,2.1-0.3,3-1v1.6
			c-0.5,0.3-1,0.6-1.5,0.7s-1.1,0.2-1.8,0.2c-0.9,0-1.7-0.2-2.3-0.6c-0.6-0.4-1-0.9-1.4-1.6c-0.3-0.6-0.5-1.4-0.5-2.3
			c0-1.3,0.4-2.3,1.1-3.1c0.7-0.8,1.7-1.2,2.8-1.2c1.1,0,2,0.4,2.7,1.2c0.7,0.8,1,1.8,1,3.1V116.2z M458,115.2h4.2
			c0-0.7-0.2-1.2-0.6-1.5c-0.4-0.4-0.8-0.5-1.4-0.5s-1.1,0.2-1.5,0.5C458.4,114.1,458.2,114.6,458,115.2z"/>
		<path class="st0" d="M476.1,111.9h1.9l-6,12.7h-1.9l2.9-6.1l-3.3-6.6h1.9l2.3,4.8L476.1,111.9z"/>
		<path class="st0" d="M483.2,111.9c1.3,0,2.3,0.4,3.2,1.2c0.8,0.8,1.3,1.9,1.3,3.1c0,1.2-0.4,2.2-1.3,3c-0.9,0.8-1.9,1.2-3.2,1.2
			c-1.3,0-2.3-0.4-3.2-1.2c-0.8-0.8-1.3-1.8-1.3-3.1c0-1.2,0.4-2.3,1.3-3.1C480.8,112.3,481.9,111.9,483.2,111.9z M483.1,113.4
			c-0.8,0-1.5,0.3-2,0.8c-0.5,0.5-0.8,1.2-0.8,2c0,0.8,0.3,1.5,0.8,2c0.5,0.5,1.2,0.8,2,0.8c0.8,0,1.5-0.3,2-0.8
			c0.5-0.5,0.8-1.2,0.8-2c0-0.8-0.3-1.5-0.8-2C484.6,113.6,483.9,113.4,483.1,113.4z"/>
		<path class="st0" d="M494.8,120.3v-1.1c-0.4,0.4-0.8,0.7-1.2,0.9c-0.5,0.2-0.9,0.3-1.4,0.3c-0.5,0-1-0.1-1.5-0.4s-0.8-0.6-1-1.1
			c-0.2-0.5-0.3-1.2-0.3-2.3v-4.8h1.7v4.8c0,0.9,0.1,1.5,0.4,1.9c0.3,0.4,0.7,0.5,1.3,0.5c0.8,0,1.5-0.4,2-1.2v-6h1.7v8.4H494.8z"/>
		<path class="st0" d="M500.6,111.9v1.9l0.1-0.1c0.8-1.3,1.6-1.9,2.4-1.9c0.6,0,1.3,0.3,2,1l-0.9,1.5c-0.6-0.5-1.1-0.8-1.6-0.8
			c-0.5,0-1,0.3-1.4,0.8c-0.4,0.5-0.6,1.1-0.6,1.8v4.4H499v-8.4H500.6z"/>
		<path class="st0" d="M516.6,111.9h1.8l-3.7,8.6h-0.6l-3.8-8.6h1.8l2.3,5.2L516.6,111.9z"/>
		<path class="st0" d="M520.5,108.3c0.3,0,0.5,0.1,0.7,0.3c0.2,0.2,0.3,0.4,0.3,0.7c0,0.3-0.1,0.5-0.3,0.7c-0.2,0.2-0.4,0.3-0.7,0.3
			c-0.3,0-0.5-0.1-0.7-0.3c-0.2-0.2-0.3-0.4-0.3-0.7c0-0.3,0.1-0.5,0.3-0.7C520.1,108.4,520.3,108.3,520.5,108.3z M519.7,111.9h1.7
			v8.4h-1.7V111.9z"/>
		<path class="st0" d="M523.8,107.5h1.7v12.8h-1.7V107.5z"/>
		<path class="st0" d="M527.9,107.5h1.7v12.8h-1.7V107.5z"/>
		<path class="st0" d="M537.3,115.2v3.6c0,0.3,0.1,0.4,0.3,0.4c0.2,0,0.5-0.1,0.9-0.4v1c-0.4,0.2-0.7,0.4-0.9,0.5
			c-0.2,0.1-0.5,0.1-0.7,0.1c-0.7,0-1.1-0.3-1.3-0.8c-0.7,0.5-1.5,0.8-2.3,0.8c-0.6,0-1.1-0.2-1.5-0.6c-0.4-0.4-0.6-0.9-0.6-1.5
			c0-0.5,0.2-1,0.6-1.4c0.4-0.4,0.9-0.7,1.6-1l2.1-0.7v-0.4c0-1-0.5-1.5-1.5-1.5c-0.9,0-1.8,0.5-2.7,1.4v-1.8
			c0.6-0.8,1.6-1.1,2.8-1.1c0.9,0,1.6,0.2,2.2,0.7c0.2,0.2,0.3,0.4,0.5,0.6s0.2,0.5,0.3,0.8S537.3,114.5,537.3,115.2z M535.7,118.6
			v-2.5l-1.1,0.4c-0.6,0.2-1,0.5-1.2,0.7c-0.2,0.2-0.4,0.5-0.4,0.9c0,0.3,0.1,0.6,0.3,0.9c0.2,0.2,0.5,0.3,0.9,0.3
			C534.7,119.3,535.2,119.1,535.7,118.6z"/>
		<path class="st0" d="M539.6,114.8c0-0.9,0.3-1.6,1-2.1c0.7-0.5,1.6-0.8,2.7-0.8h3.5v1.3H545c0.3,0.3,0.6,0.6,0.7,0.9
			c0.1,0.3,0.2,0.6,0.2,0.9c0,0.4-0.1,0.9-0.4,1.3c-0.2,0.4-0.6,0.7-1,1c-0.4,0.2-1,0.4-1.9,0.5c-0.6,0.1-0.9,0.3-0.9,0.6
			c0,0.2,0.1,0.4,0.4,0.5c0.2,0.1,0.7,0.3,1.3,0.4c1,0.2,1.7,0.4,2,0.5c0.3,0.1,0.6,0.3,0.8,0.5c0.4,0.4,0.6,0.9,0.6,1.5
			c0,0.8-0.4,1.4-1.1,1.9c-0.7,0.5-1.7,0.7-2.8,0.7c-1.2,0-2.2-0.2-2.9-0.7c-0.7-0.5-1.1-1.1-1.1-1.9c0-1.1,0.7-1.9,2.1-2.2
			c-0.6-0.4-0.8-0.7-0.8-1.1c0-0.3,0.1-0.5,0.4-0.7s0.6-0.4,1-0.5C540.2,116.9,539.6,116,539.6,114.8z M542.3,120.7
			c-0.6,0-1,0.1-1.4,0.4c-0.4,0.2-0.5,0.5-0.5,0.9c0,0.9,0.8,1.3,2.3,1.3c0.7,0,1.3-0.1,1.7-0.3c0.4-0.2,0.6-0.5,0.6-0.9
			c0-0.4-0.3-0.7-0.8-1C543.8,120.8,543.1,120.7,542.3,120.7z M542.7,113.3c-0.5,0-0.8,0.2-1.2,0.5c-0.3,0.3-0.5,0.7-0.5,1.1
			c0,0.4,0.2,0.8,0.5,1.1c0.3,0.3,0.7,0.4,1.2,0.4c0.5,0,0.9-0.1,1.2-0.4c0.3-0.3,0.5-0.7,0.5-1.1c0-0.4-0.2-0.8-0.5-1.1
			C543.6,113.5,543.2,113.3,542.7,113.3z"/>
		<path class="st0" d="M555.2,116.2h-5.9c0,0.8,0.3,1.4,0.8,1.9c0.5,0.5,1.1,0.7,1.9,0.7c1.1,0,2.1-0.3,3-1v1.6
			c-0.5,0.3-1,0.6-1.5,0.7c-0.5,0.1-1.1,0.2-1.8,0.2c-0.9,0-1.7-0.2-2.3-0.6c-0.6-0.4-1-0.9-1.4-1.6c-0.3-0.6-0.5-1.4-0.5-2.3
			c0-1.3,0.4-2.3,1.1-3.1c0.7-0.8,1.7-1.2,2.8-1.2c1.1,0,2,0.4,2.7,1.2s1,1.8,1,3.1V116.2z M549.3,115.2h4.2c0-0.7-0.2-1.2-0.6-1.5
			c-0.4-0.4-0.8-0.5-1.4-0.5c-0.6,0-1.1,0.2-1.5,0.5C549.6,114.1,549.4,114.6,549.3,115.2z"/>
	</g>
</g>
</svg>
