<?xml version="1.0" encoding="utf-8"?>
<!-- Generator: Adobe Illustrator 20.1.0, SVG Export Plug-In . SVG Version: 6.00 Build 0)  -->
<svg version="1.1" id="Layer_1" xmlns="http://www.w3.org/2000/svg" xmlns:xlink="http://www.w3.org/1999/xlink" x="0px" y="0px"
	 viewBox="0 0 432 324" style="enable-background:new 0 0 432 324;" xml:space="preserve">
<style type="text/css">
	.st0{fill:#231F20;}
	.st1{fill:#DF1174;}
	.st2{fill:#F17622;}
</style>
<g>
	<g>
		<g>
			<g>
				<g>
					<path class="st0" d="M153.2,182.4c0,0-1-3.6-4.3-1.8C148.4,180.8,150.5,184.7,153.2,182.4z M154.4,188.6c0,0-3.4-0.5-3.1,2.9
						C151.4,192.1,155.4,191.7,154.4,188.6z M152.8,185.5c0,0-2.8-2.5-4.5,0.8C148,186.8,151.9,188.9,152.8,185.5z M166.9,179.2
						c0-0.7-3.9,0.6-3.9,1.2c0.5,5-2.3,5.3-2.3,5.3l-0.2,0.3c0.1-0.3,0.2-0.5,0.2-0.8c0-0.1,0-0.3,0-0.4c0.1-2.1-1.5-3.9-3.5-4
						c-2-0.1-3.7,1.6-3.8,3.7c-0.1,2.1,1.5,3.9,3.5,4c0.8,0,1.5-0.2,2.2-0.6L159,188C168.4,188.4,166.9,180.2,166.9,179.2z
						 M220,185.4c0.1,0,0.1,0,0.1,0C220.2,185.5,220.2,185.4,220,185.4z M154,176.6c0,0-1.7,2.7,1.4,3.7
						C155.9,180.4,157,176.8,154,176.6z M295.1,167.1c-0.2-3.3-2.2-4.2-2.2-4.8c0.5-11,0.4-14.7-3.3-24.2c-1.6-4.2-3.7-7.7-6-10.7
						c-1-1.6-7.9-12.1-31.2-31.5c-3.8-3.2-10.4-8.4-15.6-11.6c-0.6-0.4-4.2-2.9-8.8-5.4c19.1-2.8,21.9-20.6,21.2-20.8
						c-0.7-0.2-6.6-7.5-6.6-7.5c-3.9-1.5-4.3,2.6-4.8,2.6c-6.4,0-2.9,5.4-3.2,5.4c-3.7-0.7-4.9,1.5-5.4,2.7c-1.4,3.3,1.6,5.8,1.4,6
						c-3.6,3.6,0.4,5.4,0.9,5.8c-5.3,1.2-7-2.1-7.2-2c-1.2,0.8,0.3,1.8,0,1.9c-0.3,0.1-7.1-1.8-7.2-6c-0.1-6,3.8-5.5,5.1-5.2
						c1.9,0.4,3.2,3.8,2.3,4.6c-2.5,2.2-3.6,0.9-4,0.2c0.3,0.4,0.8,0.1,1.1,0.1c0.6-0.1,0.4-1.4-0.5-1.6c-1.1-0.2-2,1-1.1,2.3
						c0.1,0.2,2.2,2.6,5.1-0.4c2.5-2.6-1.1-6-2.2-6.2c-1.1-0.2-7.7-1.5-7.2,6.5c0.4,6.4,7.8,7.4,12.3,7.5c-2.2,0.6-4.8,0.9-6.1,1.1
						c-0.6-0.3-1.2-0.5-1.8-0.8c0,0-15.3-5.9-23.1,1.1c-7.8,6.9-3.8,19,6.8,14.6c0.4-0.2-10.5-1.3-6.8-9.1c0,0,6-11.2,16.8-0.1
						c0.3,0.3-6.8,2-6,8.5c0.5,4.2,4.2,7.5,7.8,5.1c3.1-2.1,0.5-4.9,0.5-4.9c-4.1-2.6-5,1.4-5.6,1c-1.7-1.1,0-7.7,9.7-6.6
						c5.2,0.6,9.8,3.2,13.1,5.5c-4.1-1.7-8.7-2.2-12.2,1.4c-6.6,6.8,0.1,12.1,1.7,12.8c2.2,1,8,0.6,7.9-4c-0.2-5.2-4.8-5-5.1-5
						c-2,0.6-2.2,2.4-1,3.1c1,0.6,2.2-0.5,1.7-1.1c-0.2-0.3-0.5-0.9-1.1-0.8c1-0.4,3.1-0.7,3.6,3.4c0.2,1.6-3.3,3.4-5.4,2.3
						c-1.4-0.8-5.2-3.9-0.9-8.8c3.5-4,11.5-0.2,11.6,0.1c0.2,0.3-4.6,0.5-1.4,4.8c0.2,0.2,0.4-7,8.5,1.5c0,0,0.1-0.1,0.2-0.4
						c-0.9,15,14.8,11.3,14.8,11.3c-10.4-0.4-5.9-7.6-4.4-7.5c-3.4,4.4,2.8,6.2,2.4,5.7c-2.9-3.7,0.7-2,3.5-0.5
						c0.1,0.1,0.3,0.3,0.4,0.4c2.7,2.9,3.6,4.6,4.1,5.4c-6.7-1-13.7-0.4-16.4,0.4c-0.5,0.1-0.9,0.3-1.3,0.4
						c-2.3-1.8-6.1-3.5-10.4-1.6c-1.4,0.6-7.1-8.6-15.3-4.3c-5.1,2.7-3.6,8.6-2.7,9.9c1.9,2.9,7.2,5,7.9-0.4
						c0.6-4.2-6.2-3.6-6.6-1.5c-0.4,2.1-1.5-4.5,3-6.1c4.5-1.6,8.1,3.2,7.1,6.8c-0.9,3.1-4,7.2,0.1,10.4c-5.1,8.4-3.3,15.5-2.8,16.9
						c0.7,2.5,3.6,8.1,8.4,9.1c6.8,1.3,8.6-4,9.5-5c0.9-1,2-7-2.4-6.8c-4.4,0.2-3.5,4.5-3.5,4.5c1.1,4.2,5.1,2.2,4.9,2.6
						c-0.1,0.5-2.5,4.7-8.4,2.9c-0.3-0.1-6.3-2.5-6.8-9.5c-0.6-9.7,2.8-14.2,13.4-21.2c10.7-7,17.8-3.1,17.8-3.1
						c-5.8,3.7-5.7,10.8-5.7,10.8c0,8.2,10.1,11.2,9.3,10.7c-0.8-0.5-1.5-4.3-0.5-3.6c0.4,0.3,1.6,0.9,1.4,0.6
						c-0.2-0.3-0.4-0.7-1-2.2c-4.6-11.7,8.2-11,8.2-11c3.1,0.3,6.9,4.7,6,4.8c-4.7,0.8-7.2,5.2-6,8.4c1.2,3.2,5.8,2.9,5.3,2.7
						c-0.4-0.3-4.5-1.4-3.1-5.5c1.5-4.1,7-2.6,8.4,0.2c3.2,6.5,0.7,9.4,0,9.1c-10.7-5.4-12.3,6.2-12.5,7c-0.2,0.8,0.9-0.7,1.3-1.4
						c2.7-5,6.5-3.3,7.8-2.7c3,1.4,3.8,5,2.2,7.5c-1.7,2.8-8.4-0.4-9.7-0.7c-0.5-0.1-0.3,0.3-0.3,0.3c22.1,13.9,10.9,33.2,8.9,36
						c-1.4,1.9-3.4,3.9-6,5.7c-0.2-2.5-1.3-6.2-4.7-11.4c-0.4-0.7,4.7,3,4.6,4.2c-0.1,1.2,16.1-12.2-2.3-21.7
						c-0.6-0.3,4.4,5.9,3,5.6c-1.3-0.3-1.7,0.2-1.6,0.8c0,0.1,1.3-0.5,1.5,1.8c0,0.4-1.3-0.3-1.3,0.2c0.1,1.6,1.8,4.8,0.9,7.4
						c-0.2,0.6-5.7-6.5-8.9-7.6c0,0-0.6,6.4-2.7,8.1c-2.1,1.7,0.7-1.4,0-2.3c-0.7-0.9-2,2.5-3.4,2.7c-1.3,0.2,0.3-6.3,2.3-8.2
						c2-1.9-7.2,3.2-8.8,2.5c-0.4-0.2-0.2-3.1,0.1-3.8c0.4-0.8-0.6,0.3-1.5-1.3c-0.2-0.4,2.3-2.8,2-2.9c-6.2-0.9-9.5,3.8-11,7.9
						c-1.5,4.1-1.9,6.2-7,7.6c0,0,2.6,5.6,15.3,0.1c0.4-0.2,0.2,0,0.2,0s-1.7,5.1,6.5,5.9c4.7,0.4,3.7,6,3.6,6.5
						c-0.1,0.5,7.8-3.1,7.7-11.1c0,0,0.1-0.3,0.8,1.5c1.9,4.8,1.9,7.7,1,9.6c-4.2,2-9.3,3.2-15.4,2.5c-5.4-0.6-10.8-2.3-15.7-4.5
						c-9.1-6.1-5.2-13-5.5-13.1c-5.4-2.3-4.4,2.8-4.7,2.7c-0.4-0.1-6.5-7.5-3.2-12.3c4.1-5.9,8.4-2.7,9.6-1.4c1.8,1.9,0.7,6-1,6.3
						c-4.4,0.6-4.7-1.7-4.6-2.8c0.1,0.7,0.8,0.8,1.1,0.9c0.8,0.3,1.6-1.3,0.7-2.1c-1.1-1.1-2.9-0.4-3,1.8c0,0.3,1,5.3,6.6,4
						c4.9-1.1,3.8-7.3,2.1-9.4c-1.2-1.4-8.6-7.1-14,1.7c-3.9,6.3,0.2,13,4.1,17.3c-2.3-1.5-4.3-2.9-5.8-4c0.1,0,0.2,0,0.2,0
						c-0.1,0-0.3-0.1-0.5-0.2c-2.2-1.6-3.4-2.7-3.4-2.7c-8-5.1-6.6-9.4-5.2-10.6c1.9-1.7,6.4-0.4,6.4-0.4s1.2,0.4,0.8-0.1
						c-2.8-3-4.2-2.7-6.1-2.6c-1.9,0.1-5.1,0.9-6.1,6.2c-0.5,2.6,2.3,5.7,5.2,8.1c-7.3-0.1-9.7-1.7-11.4-3.3
						c-1.8-1.6-0.4-4.6,2.3-5.2c2.2-0.5,4-0.1,3.7-0.3c-3.1-2.7-6.1-1.3-6.1-1.3s-4.9,2-3.4,6.8c1.6,5,10.1,4.8,10.3,4.8
						c0.2,0,0,0.2,0,0.2s-4.4-0.8-9.5,5c-0.2,0.2-0.4,0.4-0.6,0.6c-13.7-0.1-11-12.1-11.3-12c-1.4,0.4-2.3,0.1-2.3,0.1
						c0.9,10.6,7.9,12.7,12.7,12.8c-4.7,4.5-9.5,5.8-9.5,5.8c-3.3,0.9-7.3-0.9-7.4-1c-0.2-0.1-0.2,0.1-0.2,0.1
						c-0.6,1.9,1,2.7,0.8,2.8c-5.2,2.3-7.1-4.6-7.7-4.9c-0.6-0.3-1,1.6-1,1.6s-3.2-0.8-0.5-5.7c2.7-4.9,8.3-3.5,8.3-3.5
						c4.6,1.5,1.6,6,1.6,6c0.1-0.4,0.4-2-0.2-2.9c-0.5-0.8-1.7-0.9-2.6-0.8c-2.2,0.2-1.7,3-1.6,3.4c0.2,1,3.1,2.6,5.2,0.3
						c3.1-3.4,0-6.8-2.5-7.5c-2.5-0.7-10.5-0.4-11.2,7.8c-0.7,8.2,7.9,10,7.9,10l0,0.2c-11.8,4.4-18.3-4.9-18.6-5.3
						c-0.3-0.4-0.4,0-0.4,0s-5,8.1-9.5,2.3c-4.5-5.8-0.4-8-0.7-8.5c-0.9-1.5-4.1,0.4-4.1,0.4c-2.1-1.9,0.7-7.5,1.7-8.1
						c1.3-0.9-2.9-1.5-2.9-1.5s3-9,11.7-9.9c8.8-0.9,10.1,7.4,10.1,7.4c0.8-1.2,5.5-1.8,5.5-1.8s-0.8-3.1-1.6-3.9
						c-8.3-9-18.8-4.5-19.3-4.3c-0.5,0.2-6.7,2-9.3,11c-2.6,8.9,2.5,13.9,2.6,14.7c0.1,0.5-1.3,0.4-1.2,1c0.4,1.4,6.3,8.2,13.3,10.1
						c11.1,3.2,25.1,1,27.2,0.4c2.1-0.6,11.7-4.3,21.9-13.6c5.3-4.7,10.2-6.8,13.6-7.7c1,0.7,1.8,1.1,2.1,1.4
						c-3.3,1.7-4.6,5.2-6.1,9.9c-1.8,5.5-4.6,6-6.4,6.2c-2.6,0.3-4.5-1.6-4.2-2.7c0.9-3.1,4.6,0,4.6,0c-0.2-5-8.1-4.3-8.5,0.7
						c-0.1,1.5-0.2,5.4,6,6.7c7.5,1.6,10.7-4.4,10.7-4.4c0.9,5.2,11.8,9.4,16.3,3.7c1.6-2,1.4-4.4,0.2-6.1c3,2.5,6.7,4.6,13,6.2
						c7.9,2.1,20.8,2,30.4-4.7c15.5-10.7,19-30.7,19-30.7C294,172.1,295.3,170.4,295.1,167.1z M235.7,59.6c-0.2-4.9,4-4.8,4.4-4.7
						c3.6,0.3,5.1,2.2,5.8,4.4c0.2,0.8-0.1,1.3-0.2,1.2c-2.8-2.2-4.6-2.5-6-2.3c-2.1,0.3-6.2,4.3-2.5,7.3c2.3,1.9,4.4-0.3,4.2-0.4
						c-0.2-0.1-2.2-0.2-2.7-1.1c-0.9-1.5,1.2-2.5,2-2.4c2.5,0.2,3.1,2.1,2.5,4.2c-0.1,0.4-2.1,2.8-2.3,2.5c-0.5-0.7-1.8-0.9-2.2-1
						c-0.2-0.1-1.7-0.2-2.6,1.5c-1.2,2.1,1.7,2.6,1.4,2.4c-0.3-0.2-0.6-0.4,0-1.4c0.6-1,2.3-0.4,1.7,0.9c-0.6,1.4-5.4,2.1-5.5,2
						c-2.8-2,0.2-5.4,0.1-5.6C230.6,60.6,235.7,59.9,235.7,59.6z M225.7,201.2c1.6,0.4,2.1,2.2,0.4,3.5c-1.6,1.2-6.1,0.5-7.1-1.4
						c-2.6-5,0.7-7.5,3.8-8.7c1.8,1.8,3.4,3.5,5,5.1c-0.4-0.2-0.8-0.4-1.3-0.5c-3-0.7-4.3,3.3-4.3,3.3
						C222.6,202.1,223.9,200.8,225.7,201.2z M210.1,214.3c0,0-3,1.6-0.8,4.2C209.6,218.9,212.7,216.2,210.1,214.3z M204.2,215.5
						c0,0.5,4,0.2,3.1-2.8C207.3,212.6,203.9,212.1,204.2,215.5z M213.1,213.8c0,0-1.1,3.2,2.3,3.5
						C215.9,217.4,216.3,213.4,213.1,213.8z M213.2,208.1c-3.8-2.2-5.1,1.9-5.1,1.9c-0.2,3.6,4.3,3.3,5.4,2.5
						C214.4,211.9,215.8,209.6,213.2,208.1z M215.6,211.7c0,0,0,3.4,3.3,2.6C219.4,214.1,218.5,210.2,215.6,211.7z M206.1,210.2
						c0,0-2.5-2.3-4.2,0.6C201.7,211.2,205.2,213.2,206.1,210.2z M264.3,159.6c0.4,1.6,4.1,2.2,4.4-0.6c0.1-2.5-2.5-6.6-5.9-6.5
						c-6.3,0.2-5.9,8.6-6,9.3c0,0-4.6,1.4-5,5.9c-0.1,0.7,0.1,3.6,8.3,4.4c1.3,0.1,10.4-1.2,8.6-6.9c-1.3-4.1-5.9-4-6.2-4.2
						c-0.3-0.2-1.1-4.9,1.3-5.5c2.4-0.6,3.7,1.7,3.7,1.7S263.5,156.4,264.3,159.6z M233.5,137.4c0-0.9-0.7-1.6-1.6-1.6
						c-0.9,0-1.6,0.7-1.6,1.6s0.7,1.6,1.6,1.6C232.8,139,233.5,138.3,233.5,137.4z M236.8,130.8c0-0.9-0.8-1.6-1.7-1.6
						c-0.9,0-1.7,0.7-1.7,1.6c0,0.9,0.8,1.6,1.7,1.6C236,132.4,236.8,131.7,236.8,130.8z M250.2,121.9c0-1.1-1-2.1-2.3-2.1
						c-1.2,0-2.3,0.9-2.3,2.1c0,1.1,1,2.1,2.3,2.1C249.1,123.9,250.2,123,250.2,121.9z M238.6,125.1c0,0.9,0.8,1.7,1.9,1.7
						c1,0,1.9-0.8,1.9-1.7c0-0.9-0.8-1.7-1.9-1.7C239.5,123.4,238.6,124.2,238.6,125.1z M233,147c0.9,0,1.7-0.7,1.7-1.5
						c0-0.8-0.8-1.5-1.7-1.5s-1.7,0.7-1.7,1.5C231.3,146.4,232.1,147,233,147z M220.9,49.5c0.1-0.2-1.9-1.4-2.4,0.4
						C218.5,49.9,219.9,51.2,220.9,49.5z M217.5,53.8c0,0-0.5,1.9,1.5,1.9C219.3,55.8,219.3,53.5,217.5,53.8z M215.9,57.4
						c0.2,0.2,1.7-1.6,0-2.4C216,55,214.4,56.2,215.9,57.4z M221.2,52.7c0.2-0.2-1.3-1.9-2.4-0.4C218.8,52.3,219.8,54,221.2,52.7z
						 M181,173.9c2.4,0-0.6,2.2-1.6,2c-1-0.2,0.6,2.3,5.3,1.4c0,0,2.2-0.6,2.9,5c0.1,1.1,2.2-2.1,1.7-4.7c-0.2-0.9,3.9-0.8,4,2.2
						c0,0.2,2.1-3.1-1.5-5.9c-1.5-1.2-3.3,1.1-5.7-1.2c-2.5-2.2-1.6-2.1-2.2-4c-0.5-1.9-6.2-2.5-7.7-1.2c-0.6,0.5,1.1-0.8,4.9,1.9
						c3.8,2.7-4.1,2.3-5,2C175.2,170.9,178.6,173.9,181,173.9z M199.2,155.8c-1.6-5.5-5.9-1.7-6.1-2c-2.9-4.7-6.1-0.9-6.1-0.9
						s-3.9-1-3-0.2c0,0,6.4,4.4,4,10.8c-0.3,0.3-0.7,0.6-1,0.9c1.5-2.7,2.3-6-1.4-7.5c-1-0.4-2.5,0.8-2.2,1.6c0,0.1,2.5-1.1,3.8,1
						c0.2,0.3-1.3-0.4-2.4,1.3c-0.2,0.3,4-1.2,2.5,2.6c-0.2,0.5-0.4,1-0.7,1.4c-0.5,0.5-0.9,1-1,1.4c0,0.1-0.1,0.3-0.1,0.4
						c-0.4,0.6-0.8,1.1-1.3,1.8c0,0,0.5-0.5,1.2-1.4c-0.1,0.3-0.1,0.6-0.2,0.8c-0.1,0.1-0.2,0.2-0.4,0.4c0,0,0.1-0.1,0.3-0.3
						c-1.1,6.2,6,6,6.7,4.5c0,0,0-6.1,7.7-11c1.5-1-6.7,3.2-7.8,4.5c0.5-0.9,1.8-3.3,2.2-5c0.1-0.3-3,6-5.1,6
						c-2.1-0.1,2.4-5.6,5.2-7.8c0.3-0.3-3.3,2.2-5.9,4.5c0.9-2.3,1.2-5.3-0.7-8.6c-0.1-0.2,1.8-1.9,2.8-1.6c0.6,0.2,1.9,0.4,2.6,1.3
						c0.2,0.2,2.7-0.1,3.7,0.2c0.9,0.3,2.1,1.3,2.3,1.4c0.3,0.2,2.8,1,3.8,2c0.6,0.6,1.2,2,1.6,2.5c1.6,2.1,1.3,3.1,1.4,3.6
						c0,0,0,0.1-0.1,0.1c-1.7-0.9-10.4,4-13.8,8.3c0,0,1-0.9,2.5-2c-0.8,0.7-1.6,1.4-2.4,2.3c1.2-1.1,2.3-2.1,3.3-2.9
						c3.5-2.4,8.3-5,8.5-0.4c0,0.2,1.1-2.8-0.1-3.9c-0.2-0.2,1.8-0.1,2,1.6c0,0.3,1-0.6,0.6-2c1.2,0.2,1.7,0.7,1.8,0.5
						c0.7-3.7-3.3-4.8-3.3-5.3C205.7,154.8,199.2,155.8,199.2,155.8z M185.1,38.7c0,0,0.3,0,0.3-0.2c0,0-5.4-5.1-3.2-10.5
						c0.4-1,0.8,4.3,5.6,1.9c0.6-0.3-5.2-0.2-1.9-7.1c0.8-1.6-0.9,3.3,4.8,4.1c0.3,0-3.4-3.4-1.1-6.3c0.7-0.9,1.5,5.7,6.3,5.3
						c0.8-0.1-6.6-4.8-0.4-10.4c0.6-0.5-3,3.4,0.7,6.6c0.5,0.4,0.1-6.7,8-5.8c0.6,0.1,4.5,1.4,2.3,3.8c0,0-1.1,1.4-2.9-0.4
						c-1-1-0.4,4.1,3.8,5.7c0.4,0.1-2.4,2.6-3.7-1.2c-0.2-0.5-4.3,5.7,5.9,6.8c0.5,0.1-0.2,7.3-5,2.1c-0.6-0.7,0.7,8.8,12.5-0.6
						c0,0,2.3,2.2,5.5,5.1c-0.9-0.3-1.6-0.3-1.6-0.3c-7.3,0.1-10.8,4.1-11.5,5c-1.1,1.4-3,5.2-1.5,8.3c2.1,4.4,5.7,3.3,6.6,3.4
						c0.9,0.1,4.6-1.6,2.7-4c-1.9-2.4-3.9-0.2-3.9-0.2c-1.9,2.3,0.9,3.7,0.6,3.8c-0.3,0.1-3.5-0.9-4-4.1c0-0.2,0-4.5,4.5-6
						c4.6-1.5,8-1.4,10.8-0.2c-3.8,3.7,1.9,6.4,1.6,5.9c-1-2.1-0.3-3.4,1.3-2.4c1.6,1,3.9,4.7,4.7,6c0.3,0.9,0.4,1.4,0.5,1.3
						c1.1-2.4,3.5-1.7,3.6-2.1c0.4-1.6,1.3-2.2,2-2.5c0.5-0.1,1-0.1,1.3-0.2c0.2,0,0.3,0,0.3,0c0.1,0,0.2,0,0.2-0.1
						c-3-2-25.8-24.5-28.2-28.3c-3-4.8-4.6-7.5-9.7-9.8c-1.2-0.5-14.5-5.3-22.1,11.3c0,0-1.1,2.3-1.1,6.4
						C179.9,29.6,180.2,35.4,185.1,38.7z M188.6,34.8c0,0-4.2,1.6-1.7,5.3C187.3,40.6,191.7,37.7,188.6,34.8z M186,42.7
						c0,0-4.5-0.5-3.8,4C182.2,47.3,187.4,46.6,186,42.7z M190.9,47.7c0.7,0,0.8-5.2-3.3-4.4C187.5,43.3,186.4,47.6,190.9,47.7z
						 M188.3,41.1c-0.3,0.6,4.4,2.9,5.4-1.2C193.7,39.9,190.3,37.1,188.3,41.1z M185.6,41.2c0.5-0.4-2.4-4.7-5.3-1.6
						C180.4,39.6,182,43.7,185.6,41.2z"/>
				</g>
			</g>
			<g>
				<path class="st1" d="M255,128.4c-1.3,6.6,5.6,10,4.9,9.6c-0.6-0.4-1-3.7-0.2-3.1c0.3,0.2,1.7,0.8,1.5,0.6
					c-0.2-0.2-1.1-1.3-1.6-2.5c-3.8-9.6,10.9-10.8,10.9-10.8C270.4,121.2,257.5,115.8,255,128.4z"/>
				<path class="st1" d="M166.2,205c0.4-0.2-4.3,2.2-9.9-5.4c0,0,0,2.8-4.9,3.4C151.4,203,163.1,206.7,166.2,205z"/>
				<path class="st1" d="M262,191.7c0.1-0.5-1-2.3-5.5-2.8c-7.7-0.7-4.5-7.6-4.5-7.6s-2.1,1.8-3.1,2.1c-4.8,1.4-7.9,0.5-7.9,0.5
					c2.2-2.5-0.4-3.6,0.4-6.2c1.2-3.9,3.9-6.6,9-7.2c0.3,0-2,2.1-1.7,2.5c0.5,0.7,1.8,0.7,1.5,1.4c-0.3,0.7-0.1,3.6,0.2,3.8
					c1.5,0.7,9.7-3.5,7.8-1.8c-1.9,1.7-2.7,6.7-1.6,7.4c1.8,1.2,3.2-3.4,3.8-2.6c0.6,0.9-2.4,3.6,0.3,2.5c2.3-0.9,3.1-7.9,3.1-7.9
					c3,1,7.6,7.8,8.1,7.5c2.5-1.2,0.2-5.9,0.1-7.4c0-0.5,0.9,0.3,1-0.1c0.6-1.9-1-2.7-1-2.8c-0.1-0.5-0.1-0.5,1.1-0.2
					c1.3,0.3-1.3-3.3-0.7-2.9c9.8,5.7-0.6,16.9-0.5,15.8c0.1-1.1-6.2-4.9-6.1-4.2c0.5,2.4,0.4,3.5-0.5,5.7
					C264.6,189.8,262,192.2,262,191.7z"/>
				<path class="st1" d="M234.1,114.5c0,0,6.2-1.9,8.9,0.9c0.4,0.4-1.6,0.1-8,5c-5.4,4.1-6.1,5.5-6.4,5.2c-0.6-0.8-2.3-2.1,0.9-8
					c1.4-2.5-0.6-3.8-0.7-3.9c-0.5-0.1,0.7-1.7,2.3-0.9C233.1,113.8,233.6,114.1,234.1,114.5z"/>
				<path class="st1" d="M249.5,121.6c0,0.8-0.7,1.4-1.6,1.4c-0.9,0-1.6-0.6-1.6-1.4c0-0.8,0.7-1.4,1.6-1.4
					C248.8,120.3,249.5,120.9,249.5,121.6z"/>
				<path class="st1" d="M216.9,51.6c0,1.1-0.8,1.9-1.7,1.9c-0.9,0-1.7-0.9-1.7-1.9c0-1.1,0.8-1.9,1.7-1.9
					C216.1,49.7,216.9,50.5,216.9,51.6z"/>
				<path class="st1" d="M223.8,118.9c0,1.3-1.1,2.4-2.4,2.4c-1.3,0-2.4-1.1-2.4-2.4c0-1.3,1.1-2.4,2.4-2.4
					C222.7,116.5,223.8,117.6,223.8,118.9z"/>
				<path class="st1" d="M216.3,93c0,1.2-1.2,2.2-2.6,2.2c-1.5,0-2.6-1-2.6-2.2c0-1.2,1.2-2.2,2.6-2.2
					C215.1,90.8,216.3,91.8,216.3,93z"/>
				<path class="st1" d="M159.1,184.9c0,1.5-1.1,2.7-2.4,2.7c-1.3,0-2.4-1.2-2.4-2.7c0-1.5,1.1-2.7,2.4-2.7
					C158,182.1,159.1,183.4,159.1,184.9z"/>
				<path class="st1" d="M179.2,191.3c0,1-0.8,1.8-1.7,1.8c-0.9,0-1.7-0.8-1.7-1.8c0-1,0.8-1.7,1.7-1.7
					C178.4,189.6,179.2,190.4,179.2,191.3z"/>
				<path class="st1" d="M243.5,146.1c0,1.4-1.2,2.5-2.6,2.5c-1.4,0-2.6-1.1-2.6-2.5c0-1.4,1.2-2.5,2.6-2.5
					C242.3,143.6,243.5,144.7,243.5,146.1z"/>
				<ellipse class="st1" cx="240.3" cy="125.2" rx="1.3" ry="1.2"/>
				<ellipse class="st1" cx="235" cy="130.9" rx="1.1" ry="1"/>
				<ellipse class="st1" cx="231.6" cy="137.7" rx="1.1" ry="1.1"/>
				<ellipse class="st1" cx="232.7" cy="145.7" rx="1" ry="1"/>
				<path class="st1" d="M190.9,171.4c0,0-1.4-1.6,3.5-6.5c1-1-3.5,1.6-4,2.4c-0.4,0.8,1.1-1.2,1.5-2.9c0-0.2-2.1,2.8-3.6,2.7
					c-1.5-0.1,0.5-3.5,2.2-5.3c0.3-0.3-3.6,3.7-4.1,5.1C184.4,172.6,190.4,172.5,190.9,171.4z"/>
				<g>
					<path class="st1" d="M215.5,29.7c-2.5-4-3.3-4.6-5.1-8.1c-1.4-2.7-3.2-1.6-3-1.5c0.4,0.2,1.9,1.3,0.9,2c0,0-1.3,1-2.8-0.5
						c-0.8-0.8-0.4,2.4,3,3.8c0.3,0.1-0.8,2.5-3.6,2c-0.5-0.1,0.6,1.9,5.7,3.1c0.4,0.1,0.5,2.5-0.8,4.5c-0.4,0.7,4,0.4,6.4-3.8"/>
				</g>
				<path class="st1" d="M185.7,43.1c0,0-2.9-0.3-2.5,2.6C183.2,46.1,186.6,45.7,185.7,43.1z"/>
				<path class="st1" d="M188.2,36.4c0,0-2.7,1-1.1,3.4C187.3,40.1,190.1,38.3,188.2,36.4z"/>
				<path class="st1" d="M187.8,43.4c0,0-0.7,2.7,2.1,2.8C190.3,46.2,190.4,42.9,187.8,43.4z"/>
				<path class="st1" d="M182,40.1c0,0,1,2.6,3.2,1C185.6,40.9,183.8,38.2,182,40.1z"/>
				<path class="st1" d="M192.2,40.4c0,0-2.2-1.8-3.4,0.7C188.6,41.5,191.6,43,192.2,40.4z"/>
				<g>
					<path class="st1" d="M199.9,14.6c0.5-0.2-7.2-6.1-15.3,3.6c0,0-2.7,3.4-3.5,6.9c-0.1,0.5-0.7,2.2,0,4c0,0,0.1-2.5,1.3-2.8
						c0.8-0.2,0.6,3.2,3.4,3.5c0.5,0.1-4.6-3,0.3-8.5c0.8-1-0.2,2.3,2.9,4.4c0.2,0.1-2.5-3.1,0.5-6.4c0.5-0.6,1.5,3.8,4,4.6
						c0.5,0.2-4.7-6.2,2.5-9.2c0.5-0.2-1.9,3.7,0.1,5.7C196.6,20.8,195.7,16.7,199.9,14.6z"/>
				</g>
				<path class="st1" d="M245.4,61c-2.7-2.1-4.2-2.2-5.5-2.1c-1.8,0-5.4,3.2-2.6,6.2c0.7,0.7,2.5,0.4,2.3,0.3
					c-0.2-0.1-1-0.6-1.5-1.5c-0.8-1.5,1.1-3.1,2.8-2.9c1.5,0.2,3.3,1.4,2.8,3.4C243.4,65,245.4,61,245.4,61z"/>
				<path class="st1" d="M240.7,68.7c-1-1-2-1-2.5-1c-0.8,0-2.4,0.8-2.1,2.3c0.1,0.5,0.7,0.7,0.6,0.6c-0.1-0.1-0.1-0.8,0.1-1.2
					c0.5-0.8,1.1-1.1,1.9-0.9c0.7,0.2,1.2,0.8,0.7,1.7C239.3,70.6,240.7,68.7,240.7,68.7z"/>
				<path class="st1" d="M256.7,162.6c0,0-4.4,1.6-4.1,5.5c0.1,1.2,9.8,6.6,15.5-0.4c0.3-0.3-7,2.6-11.3,0.3
					C255.9,167.5,252.7,165.7,256.7,162.6z"/>
			</g>
			<g>
				<path class="st2" d="M259.5,124.9c-1.9,1.9-3.9,6.8-1.8,10.3c0.2,0.3-3-2.6-2.2-7.1c0.9-5,3.9-7,7.9-7.3
					c3.4-0.3,6.1,1.2,3.5,0.9C267,121.7,261.8,122.5,259.5,124.9z"/>
				<path class="st2" d="M262.6,189.1c0.1-0.4-1.9-0.7-5.8-2.3c-5.8-2.4-3.7-6.7-3.7-6.7s-0.7-0.3-3.1,0.7c-3.1,1.3-6-0.4-6-0.4
					c0.8-2.3-0.2-3.7-0.3-5.1c-0.1-1.4,3-4.6,5.2-3.8c0.3,0.1-0.9,1.3-0.7,1.7c0.4,0.7,1.7,0.9,1.3,1.5c-0.3,0.7-0.1,3.9,0.8,4.1
					c1.5,0.4,8.2-2.9,6.4-1.2c-1.8,1.6-1.3,6-0.2,6.6c2,1.1,3.2-2.9,3.7-2.5c0.8,0.7-2.8,3.1-0.1,2.5c4-0.9,4.2-7.4,4.2-7.4
					c2.9,1,7.3,7,7.8,6.7c3.3-1.4,0.7-5.9,0.6-7.3c0-0.5,0.7,0.4,1-0.4c0.7-1.8-0.8-2.5-0.8-2.6c-0.1-0.5,0-0.3,1.2,0
					c1.2,0.3-0.7-2.7-0.3-2.2c4.9,5.8-1.1,14.4-1.7,13.5c-1.6-2.2-6.4-4.1-6.2-3.4c0.5,2.3,0.1,3.1-0.7,5.2
					C264.2,188.9,262.5,189.6,262.6,189.1z"/>
				<path class="st2" d="M235.4,114.9c0,0,3.6-1.3,5.5,0.7c0.3,0.3-1.1,0.3-5.6,3.7c-3.9,2.9-4.3,3.9-4.5,3.7
					c-0.4-0.6-2.3-0.9,0-5.1C231.8,116.2,234.4,115.1,235.4,114.9z"/>
				<ellipse class="st2" cx="266.4" cy="158.9" rx="1.5" ry="1.4"/>
				<g>
					<path class="st2" d="M215,30c-2.1-3.3-2.9-3.8-4.3-6.8c-0.9-1.9-1.7-1.7-1.5-1.6c0.4,0.2,0.2,1-0.5,1.4c0,0-1,0.5-1.7-0.1
						c-0.7-0.6-0.4,0.8,2.5,2c0.3,0.1-0.3,3.3-2.7,2.9c-0.4-0.1,0,0.6,4.2,1.6c0.4,0.1,1.2,2.8,0.1,4.5c-0.4,0.6,2.5,0.8,4.5-2.7"/>
				</g>
				<g>
					<path class="st2" d="M198.3,14.1c0.4-0.2-7-3.3-13.2,3.8c-2.9,3.3-3.3,6-3.5,7.9c0,0,0.2-1,1.1-1.4c0.4-0.1-0.3,0.8,1.2,1.7
						c0.3,0.2-1.7-2.3,2.3-5.9c0.8-0.7-0.3-0.1,1.4,1.8c0.1,0.1-0.3-2.8,1.8-4c0.6-0.3,0.4,1,2.1,2.4c0.4,0.3-1.3-4.1,4.7-6.1
						c0.8-0.3-0.9,2.9-0.3,4C196.1,18.8,196.6,14.8,198.3,14.1z"/>
				</g>
				<path class="st2" d="M245,61c-2.7-1.8-3.6-1.8-5.1-1.8c-0.8,0-3.2,0.9-3.1,3.8c0,0.9,0.8,1.5,0.7,1.2c-0.1-0.9-0.3-1.1,0-1.9
					c0.7-1.5,1.9-1.9,3.6-1.7c1.4,0.2,3.1,1.5,2.6,3.2C243.6,64.4,245,61,245,61z"/>
				<path class="st2" d="M257.2,170.1c0,0-3.7-1.7-3.9-3.2c-0.1-0.5,0.2,1.3,6.1,2.3c4.2,0.7,7.1-0.8,7-0.5
					c-0.1,0.7-1.9,1.5-3.7,1.8C260.6,170.8,258.7,170.6,257.2,170.1z"/>
			</g>
		</g>
		<g>
			<g>
				<path class="st0" d="M385,248.7c0,1.7-1.4,3.1-3.1,3.1c-1.7,0-3.1-1.4-3.1-3.1c0-1.7,1.4-3,3.1-3C383.7,245.7,385,247,385,248.7
					z M379.6,248.7c0,1.4,1,2.4,2.4,2.4c1.3,0,2.3-1.1,2.3-2.4c0-1.4-1-2.4-2.4-2.4C380.6,246.3,379.6,247.4,379.6,248.7z
					 M381.4,250.3h-0.7v-3c0.3,0,0.7-0.1,1.2-0.1c0.6,0,0.8,0.1,1,0.2c0.2,0.1,0.3,0.4,0.3,0.6c0,0.4-0.3,0.6-0.6,0.7v0
					c0.3,0.1,0.4,0.3,0.5,0.7c0.1,0.5,0.2,0.6,0.2,0.7h-0.7c-0.1-0.1-0.1-0.4-0.2-0.7c-0.1-0.3-0.2-0.5-0.6-0.5h-0.3V250.3z
					 M381.5,248.6h0.3c0.4,0,0.7-0.1,0.7-0.4c0-0.3-0.2-0.5-0.7-0.5c-0.2,0-0.3,0-0.4,0V248.6z"/>
			</g>
			<g>
				<path class="st0" d="M47,287.7v-56.8c0-0.6,0.2-1.1,0.6-1.5c0.4-0.4,0.9-0.6,1.5-0.6h13.6c4.2,0,7.8,1.5,10.7,4.4
					c3,3,4.4,6.7,4.4,11.2c0,4.5-1.9,8.3-5.8,11.5c3.5,1.2,6.3,3.3,8.6,6.3c2.2,3,3.4,6.4,3.4,10.2c0,4.8-1.7,8.9-5.1,12.3
					c-3.4,3.4-7.5,5.1-12.3,5.1H49c-0.6,0-1.1-0.2-1.4-0.6C47.1,288.7,47,288.3,47,287.7z M51.2,254.8h11.4c3,0,5.6-1.1,7.7-3.2
					c2.1-2.1,3.2-4.7,3.2-7.7c0-3-1.1-5.6-3.2-7.7c-2.1-2.1-4.7-3.2-7.7-3.2H51.2V254.8z M51.2,285.5h15.2c3.6,0,6.7-1.3,9.2-3.8
					c2.6-2.6,3.9-5.7,3.9-9.3c-0.1-3.6-1.4-6.7-3.9-9.3c-2.6-2.6-5.6-3.9-9.2-3.9H51.2V285.5z"/>
				<path class="st0" d="M131.1,266.9v0.3c0,0.6-0.2,1-0.6,1.4c-0.4,0.3-0.9,0.5-1.5,0.5H94c0.2,4.6,1.9,8.5,5.1,11.7
					c3.2,3.1,7,4.7,11.4,4.7c2.8,0,5.5-0.7,7.9-2.1c2.4-1.4,4.4-3.3,5.8-5.7c0.7-1.2,1.6-1.4,2.8-0.7c1.2,0.8,1.4,1.8,0.7,3
					c-1.9,3-4.3,5.3-7.4,7.1c-3,1.7-6.3,2.6-9.9,2.6c-5.8,0-10.6-2.1-14.7-6.2c-4-4.2-6.1-9.2-6.1-15.1c0-5.9,2-10.9,6.1-15.1
					c4-4.2,8.9-6.3,14.5-6.3c5.6,0,10.4,1.9,14.2,5.7C128.5,256.6,130.7,261.3,131.1,266.9z M121,255.2c-3-2.6-6.5-3.9-10.5-3.9
					c-4,0-7.5,1.3-10.5,3.9c-3,2.6-4.9,5.9-5.8,10h32.3C125.9,261.1,124,257.8,121,255.2z"/>
				<path class="st0" d="M139,287.7v-56.8c0-0.6,0.2-1.1,0.6-1.5c0.4-0.4,0.9-0.6,1.5-0.6c0.6,0,1.1,0.2,1.5,0.6
					c0.4,0.4,0.7,0.9,0.7,1.5v56.8c0,0.6-0.2,1.1-0.7,1.5c-0.4,0.4-0.9,0.6-1.5,0.6c-0.6,0-1.1-0.2-1.5-0.6
					C139.2,288.7,139,288.3,139,287.7z"/>
				<path class="st0" d="M154.9,287.7v-56.8c0-0.6,0.2-1.1,0.6-1.5c0.4-0.4,0.9-0.6,1.5-0.6c0.6,0,1.1,0.2,1.5,0.6
					c0.4,0.4,0.7,0.9,0.7,1.5v56.8c0,0.6-0.2,1.1-0.7,1.5c-0.4,0.4-0.9,0.6-1.5,0.6c-0.6,0-1.1-0.2-1.5-0.6
					C155.1,288.7,154.9,288.3,154.9,287.7z"/>
				<path class="st0" d="M201.7,247.1c1.2,0.3,1.8,1,1.8,2v37.3c0,5.6-2,10.3-5.9,14.2c-4,3.9-8.7,5.8-14.4,5.8
					c-2.9,0-5.8-0.7-8.8-2c-1.2-0.8-1.5-1.7-0.9-2.7c0.6-1.1,1.5-1.4,2.7-1.1c2.2,1.1,4.5,1.7,7,1.7c4.4,0,8.2-1.5,11.3-4.6
					c3.1-3.1,4.7-6.8,4.8-11.2v-2.8c-3.6,4.1-7.9,6.1-12.9,6.1c-5,0-9.2-1.7-12.5-5.1c-3.4-3.4-5.1-7.5-5.1-12.2v-23.2
					c0-0.6,0.2-1.1,0.6-1.4c0.4-0.4,0.9-0.6,1.5-0.6c0.6,0,1.1,0.2,1.5,0.6c0.4,0.4,0.6,0.9,0.6,1.4v23.2c0,3.7,1.3,6.8,3.8,9.3
					c2.6,2.6,5.6,3.8,9.3,3.8c3.6,0,6.7-1.3,9.3-3.8c2.6-2.6,3.9-5.7,3.9-9.3v-23.2c0-0.5,0.1-0.8,0.2-0.9c0.1-0.1,0.2-0.3,0.3-0.4
					c0-0.2,0.3-0.4,0.9-0.6h0.2c0.1-0.1,0.2-0.1,0.3-0.1H201.7z"/>
				<path class="st0" d="M234.6,287.7v-56.8c0-0.6,0.2-1.1,0.6-1.5c0.4-0.4,0.9-0.6,1.5-0.6h13.6c4.2,0,7.8,1.5,10.7,4.4
					c3,3,4.4,6.7,4.4,11.2c0,4.5-1.9,8.3-5.8,11.5c3.5,1.2,6.3,3.3,8.6,6.3c2.2,3,3.4,6.4,3.4,10.2c0,4.8-1.7,8.9-5.1,12.3
					c-3.4,3.4-7.5,5.1-12.3,5.1h-17.5c-0.6,0-1.1-0.2-1.4-0.6C234.8,288.7,234.6,288.3,234.6,287.7z M238.9,254.8h11.4
					c3,0,5.6-1.1,7.7-3.2c2.1-2.1,3.2-4.7,3.2-7.7c0-3-1.1-5.6-3.2-7.7c-2.1-2.1-4.7-3.2-7.7-3.2h-11.4V254.8z M238.9,285.5h15.2
					c3.6,0,6.7-1.3,9.2-3.8c2.6-2.6,3.9-5.7,3.9-9.3c-0.1-3.6-1.4-6.7-3.9-9.3c-2.6-2.6-5.6-3.9-9.2-3.9h-15.2V285.5z"/>
				<path class="st0" d="M279,287.7v-56.8c0-0.6,0.2-1.1,0.6-1.5c0.4-0.4,0.9-0.6,1.5-0.6c0.6,0,1.1,0.2,1.5,0.6
					c0.4,0.4,0.7,0.9,0.7,1.5v56.8c0,0.6-0.2,1.1-0.7,1.5c-0.4,0.4-0.9,0.6-1.5,0.6c-0.6,0-1.1-0.2-1.5-0.6
					C279.2,288.7,279,288.3,279,287.7z"/>
				<path class="st0" d="M294.8,237.2v-2c0-0.6,0.2-1.1,0.6-1.5c0.4-0.4,0.9-0.6,1.5-0.6c0.6,0,1.1,0.2,1.5,0.6
					c0.4,0.4,0.7,0.9,0.7,1.5v2c0,0.6-0.2,1.2-0.7,1.6c-0.4,0.4-0.9,0.7-1.5,0.7c-0.6,0-1.1-0.2-1.5-0.7
					C295,238.4,294.8,237.9,294.8,237.2z M294.8,287.7v-38.5c0-0.6,0.2-1.1,0.6-1.5c0.4-0.4,0.9-0.6,1.5-0.6c0.6,0,1.1,0.2,1.5,0.6
					c0.4,0.4,0.6,0.9,0.6,1.5v38.5c0,0.6-0.2,1.1-0.7,1.5c-0.4,0.4-0.9,0.6-1.5,0.6c-0.6,0-1.1-0.2-1.5-0.6
					C295,288.7,294.8,288.3,294.8,287.7z"/>
				<path class="st0" d="M307.3,283.7c-1-0.9-1.1-1.8-0.3-2.8c0.3-0.5,0.8-0.7,1.4-0.8c0.6-0.1,1.1,0.1,1.6,0.5
					c4.5,3.3,8.7,5,12.4,5c3.7,0,6.7-0.9,8.8-2.6c2.1-1.5,3.2-3.1,3.2-5.1c0-1.9-1-3.7-2.9-5.2c-1.9-1.5-5-2.6-9.2-3.3l-0.2-0.1
					c-4.5-0.8-7.8-1.9-9.7-3.3c-3.1-1.8-4.6-4.4-4.6-7.7c0-3.3,1.5-6.1,4.6-8.4c2.8-1.9,6.3-2.9,10.5-2.9c1.7,0,3.4,0.3,5.1,0.8
					c1.7,0.6,3,1.1,3.9,1.6c0.9,0.5,2.1,1.2,3.7,2.2c0.5,0.3,0.8,0.8,0.9,1.4c0.1,0.6,0,1.1-0.3,1.6c-0.3,0.5-0.7,0.8-1.3,0.9
					c-0.6,0.1-1.1,0-1.6-0.3c-1.5-1-2.5-1.7-3.3-2.1c-0.7-0.4-1.8-0.9-3.2-1.4c-1.4-0.5-2.7-0.7-4-0.7c-3.4,0-6,0.8-7.9,2.3
					c-1.9,1.5-2.9,3.2-2.9,4.8c0,1.7,0.8,3.2,2.4,4.4c2,1.4,4.9,2.4,8.7,3h0.2c3.8,0.6,7.2,1.7,10.4,3.5c3.2,2.1,4.8,4.9,4.8,8.4
					c0,3.5-1.6,6.4-4.7,8.8c-3.2,2.4-6.8,3.5-10.8,3.5C317.5,289.7,312.3,287.7,307.3,283.7z"/>
				<path class="st0" d="M346.6,283.7c-1-0.9-1.1-1.8-0.3-2.8c0.3-0.5,0.8-0.7,1.4-0.8c0.6-0.1,1.1,0.1,1.6,0.5
					c4.5,3.3,8.7,5,12.4,5c3.7,0,6.7-0.9,8.8-2.6c2.1-1.5,3.2-3.1,3.2-5.1c0-1.9-1-3.7-2.9-5.2c-1.9-1.5-5-2.6-9.2-3.3l-0.2-0.1
					c-4.5-0.8-7.8-1.9-9.7-3.3c-3.1-1.8-4.6-4.4-4.6-7.7c0-3.3,1.5-6.1,4.6-8.4c2.8-1.9,6.3-2.9,10.5-2.9c1.7,0,3.4,0.3,5.1,0.8
					c1.7,0.6,3,1.1,3.9,1.6c0.9,0.5,2.1,1.2,3.7,2.2c0.5,0.3,0.8,0.8,0.9,1.4c0.1,0.6,0,1.1-0.3,1.6c-0.3,0.5-0.7,0.8-1.3,0.9
					c-0.6,0.1-1.1,0-1.6-0.3c-1.5-1-2.5-1.7-3.3-2.1c-0.7-0.4-1.8-0.9-3.2-1.4c-1.4-0.5-2.7-0.7-4-0.7c-3.4,0-6,0.8-7.9,2.3
					c-1.9,1.5-2.9,3.2-2.9,4.8c0,1.7,0.8,3.2,2.4,4.4c2,1.4,4.9,2.4,8.7,3h0.2c3.8,0.6,7.2,1.7,10.4,3.5c3.2,2.1,4.8,4.9,4.8,8.4
					c0,3.5-1.6,6.4-4.7,8.8c-3.2,2.4-6.8,3.5-10.8,3.5C356.8,289.7,351.6,287.7,346.6,283.7z"/>
			</g>
		</g>
	</g>
	<g>
		<path class="st0" d="M246.5,301.1h1.8l-3.7,8.6H244l-2.5-5.9l-2.5,5.9h-0.5l-3.8-8.6h1.8l2.2,5.1l2.2-5.1h1.2l2.1,5.1L246.5,301.1
			z"/>
		<path class="st0" d="M256.6,305.4h-5.9c0,0.8,0.3,1.4,0.8,1.9s1.1,0.7,1.9,0.7c1.1,0,2.1-0.3,3-1v1.6c-0.5,0.3-1,0.6-1.5,0.7
			s-1.1,0.2-1.8,0.2c-0.9,0-1.7-0.2-2.3-0.6s-1-0.9-1.4-1.6s-0.5-1.4-0.5-2.3c0-1.3,0.4-2.3,1.1-3.1c0.7-0.8,1.7-1.2,2.8-1.2
			c1.1,0,2,0.4,2.7,1.2c0.7,0.8,1,1.8,1,3.1V305.4z M250.7,304.4h4.2c0-0.7-0.2-1.2-0.6-1.5c-0.4-0.4-0.8-0.5-1.4-0.5
			c-0.6,0-1.1,0.2-1.5,0.5C251.1,303.3,250.8,303.8,250.7,304.4z"/>
		<path class="st0" d="M268.9,304.4v3.6c0,0.3,0.1,0.4,0.3,0.4c0.2,0,0.5-0.1,0.9-0.4v1c-0.4,0.2-0.7,0.4-0.9,0.5s-0.5,0.1-0.7,0.1
			c-0.7,0-1.1-0.3-1.3-0.8c-0.7,0.6-1.5,0.8-2.3,0.8c-0.6,0-1.1-0.2-1.5-0.6c-0.4-0.4-0.6-0.9-0.6-1.5c0-0.5,0.2-1,0.6-1.4
			c0.4-0.4,0.9-0.8,1.6-1l2.1-0.7V304c0-1-0.5-1.5-1.5-1.5c-0.9,0-1.8,0.5-2.7,1.4v-1.8c0.6-0.8,1.6-1.1,2.8-1.1
			c0.9,0,1.6,0.2,2.2,0.7c0.2,0.2,0.3,0.4,0.5,0.6c0.1,0.3,0.2,0.5,0.3,0.8S268.9,303.7,268.9,304.4z M267.3,307.8v-2.5l-1.1,0.4
			c-0.6,0.2-1,0.5-1.2,0.7c-0.2,0.2-0.4,0.5-0.4,0.9c0,0.3,0.1,0.6,0.3,0.9c0.2,0.2,0.5,0.3,0.9,0.3
			C266.4,308.5,266.8,308.3,267.3,307.8z"/>
		<path class="st0" d="M273.4,301.1v1.9l0.1-0.1c0.8-1.3,1.6-2,2.4-2c0.6,0,1.3,0.3,2,1l-0.9,1.5c-0.6-0.6-1.1-0.8-1.6-0.8
			c-0.5,0-1,0.3-1.4,0.8c-0.4,0.5-0.6,1.1-0.6,1.8v4.4h-1.7v-8.4H273.4z"/>
		<path class="st0" d="M286.3,305.4h-5.9c0,0.8,0.3,1.4,0.8,1.9s1.1,0.7,1.9,0.7c1.1,0,2.1-0.3,3-1v1.6c-0.5,0.3-1,0.6-1.5,0.7
			c-0.5,0.1-1.1,0.2-1.8,0.2c-0.9,0-1.7-0.2-2.3-0.6c-0.6-0.4-1-0.9-1.4-1.6c-0.3-0.7-0.5-1.4-0.5-2.3c0-1.3,0.4-2.3,1.1-3.1
			c0.7-0.8,1.7-1.2,2.8-1.2c1.1,0,2,0.4,2.7,1.2c0.7,0.8,1,1.8,1,3.1V305.4z M280.4,304.4h4.2c0-0.7-0.2-1.2-0.6-1.5
			c-0.4-0.4-0.8-0.5-1.4-0.5c-0.6,0-1.1,0.2-1.5,0.5C280.7,303.3,280.5,303.8,280.4,304.4z"/>
		<path class="st0" d="M298.5,301.1h1.9l-6,12.7h-1.9l2.9-6.1l-3.3-6.6h1.9l2.3,4.8L298.5,301.1z"/>
		<path class="st0" d="M305.6,301.1c1.3,0,2.4,0.4,3.2,1.2c0.9,0.8,1.3,1.9,1.3,3.1c0,1.2-0.4,2.2-1.3,3c-0.9,0.8-1.9,1.2-3.3,1.2
			c-1.3,0-2.3-0.4-3.2-1.2s-1.3-1.8-1.3-3.1c0-1.2,0.4-2.3,1.3-3.1C303.2,301.5,304.3,301.1,305.6,301.1z M305.5,302.6
			c-0.8,0-1.5,0.3-2,0.8s-0.8,1.2-0.8,2c0,0.8,0.3,1.5,0.8,2c0.5,0.5,1.2,0.8,2,0.8c0.8,0,1.5-0.3,2-0.8c0.5-0.5,0.8-1.2,0.8-2
			c0-0.8-0.3-1.5-0.8-2S306.3,302.6,305.5,302.6z"/>
		<path class="st0" d="M317.3,309.5v-1.1c-0.4,0.4-0.8,0.7-1.2,0.9s-0.9,0.3-1.4,0.3c-0.5,0-1-0.1-1.5-0.4c-0.4-0.3-0.8-0.6-1-1.1
			s-0.3-1.2-0.3-2.3v-4.8h1.7v4.8c0,0.9,0.1,1.5,0.4,1.9c0.3,0.4,0.7,0.5,1.3,0.5c0.8,0,1.5-0.4,2-1.2v-6h1.7v8.4H317.3z"/>
		<path class="st0" d="M323.1,301.1v1.9l0.1-0.1c0.8-1.3,1.6-2,2.4-2c0.6,0,1.3,0.3,2,1l-0.9,1.5c-0.6-0.6-1.1-0.8-1.6-0.8
			c-0.5,0-1,0.3-1.4,0.8s-0.6,1.1-0.6,1.8v4.4h-1.7v-8.4H323.1z"/>
		<path class="st0" d="M339.1,301.1h1.8l-3.7,8.6h-0.6l-3.8-8.6h1.8l2.3,5.2L339.1,301.1z"/>
		<path class="st0" d="M343,297.5c0.3,0,0.5,0.1,0.7,0.3s0.3,0.4,0.3,0.7c0,0.3-0.1,0.5-0.3,0.7s-0.4,0.3-0.7,0.3
			c-0.3,0-0.5-0.1-0.7-0.3c-0.2-0.2-0.3-0.4-0.3-0.7c0-0.3,0.1-0.5,0.3-0.7C342.5,297.6,342.8,297.5,343,297.5z M342.2,301.1h1.7
			v8.4h-1.7V301.1z"/>
		<path class="st0" d="M346.3,296.7h1.7v12.8h-1.7V296.7z"/>
		<path class="st0" d="M350.4,296.7h1.7v12.8h-1.7V296.7z"/>
		<path class="st0" d="M359.8,304.4v3.6c0,0.3,0.1,0.4,0.3,0.4c0.2,0,0.5-0.1,0.9-0.4v1c-0.4,0.2-0.7,0.4-0.9,0.5s-0.5,0.1-0.7,0.1
			c-0.7,0-1.1-0.3-1.3-0.8c-0.7,0.6-1.5,0.8-2.3,0.8c-0.6,0-1.1-0.2-1.5-0.6c-0.4-0.4-0.6-0.9-0.6-1.5c0-0.5,0.2-1,0.6-1.4
			c0.4-0.4,0.9-0.8,1.6-1l2.1-0.7V304c0-1-0.5-1.5-1.5-1.5c-0.9,0-1.8,0.5-2.7,1.4v-1.8c0.6-0.8,1.6-1.1,2.8-1.1
			c0.9,0,1.6,0.2,2.2,0.7c0.2,0.2,0.3,0.4,0.5,0.6s0.2,0.5,0.3,0.8C359.8,303.3,359.8,303.7,359.8,304.4z M358.2,307.8v-2.5
			l-1.1,0.4c-0.6,0.2-1,0.5-1.2,0.7s-0.4,0.5-0.4,0.9c0,0.3,0.1,0.6,0.3,0.9c0.2,0.2,0.5,0.3,0.9,0.3
			C357.2,308.5,357.7,308.3,358.2,307.8z"/>
		<path class="st0" d="M362.1,304c0-0.9,0.3-1.6,1-2.1c0.7-0.5,1.6-0.8,2.7-0.8h3.5v1.3h-1.7c0.3,0.3,0.6,0.6,0.7,0.9
			c0.1,0.3,0.2,0.6,0.2,0.9c0,0.4-0.1,0.9-0.4,1.3c-0.3,0.4-0.6,0.8-1,1c-0.4,0.2-1,0.4-1.9,0.5c-0.6,0.1-0.9,0.3-0.9,0.7
			c0,0.2,0.1,0.4,0.4,0.5c0.2,0.1,0.7,0.3,1.3,0.4c1,0.2,1.7,0.4,2,0.5c0.3,0.1,0.6,0.3,0.8,0.6c0.4,0.4,0.6,0.9,0.6,1.5
			c0,0.8-0.4,1.4-1.1,1.9s-1.7,0.7-2.9,0.7c-1.2,0-2.2-0.2-2.9-0.7c-0.7-0.5-1.1-1.1-1.1-1.9c0-1.1,0.7-1.9,2.1-2.2
			c-0.6-0.4-0.8-0.7-0.8-1.1c0-0.3,0.1-0.5,0.4-0.7c0.2-0.2,0.6-0.4,1-0.5C362.7,306.1,362.1,305.2,362.1,304z M364.9,309.9
			c-0.6,0-1,0.1-1.4,0.4c-0.4,0.2-0.5,0.5-0.5,0.9c0,0.9,0.8,1.3,2.3,1.3c0.7,0,1.3-0.1,1.7-0.3c0.4-0.2,0.6-0.5,0.6-0.9
			c0-0.4-0.3-0.7-0.8-1C366.3,310,365.7,309.9,364.9,309.9z M365.2,302.5c-0.5,0-0.8,0.2-1.2,0.5s-0.5,0.7-0.5,1.1
			c0,0.4,0.2,0.8,0.5,1.1c0.3,0.3,0.7,0.4,1.2,0.4c0.5,0,0.9-0.1,1.2-0.4c0.3-0.3,0.5-0.7,0.5-1.1c0-0.4-0.2-0.8-0.5-1.1
			C366.1,302.7,365.7,302.5,365.2,302.5z"/>
		<path class="st0" d="M377.7,305.4h-5.9c0,0.8,0.3,1.4,0.8,1.9s1.1,0.7,1.9,0.7c1.1,0,2.1-0.3,3-1v1.6c-0.5,0.3-1,0.6-1.5,0.7
			c-0.5,0.1-1.1,0.2-1.8,0.2c-0.9,0-1.7-0.2-2.3-0.6c-0.6-0.4-1-0.9-1.4-1.6c-0.3-0.7-0.5-1.4-0.5-2.3c0-1.3,0.4-2.3,1.1-3.1
			c0.7-0.8,1.7-1.2,2.8-1.2c1.1,0,2,0.4,2.7,1.2c0.7,0.8,1,1.8,1,3.1V305.4z M371.8,304.4h4.2c0-0.7-0.2-1.2-0.6-1.5
			c-0.4-0.4-0.8-0.5-1.4-0.5s-1.1,0.2-1.5,0.5C372.2,303.3,372,303.8,371.8,304.4z"/>
	</g>
</g>
</svg>
