<svg id="Layer_1" data-name="Layer 1" xmlns="http://www.w3.org/2000/svg" viewBox="0 0 804.42 518.04"><defs><style>.cls-1{fill:none;stroke:#377e81;stroke-miterlimit:10;stroke-width:0.75px;}</style></defs><title>Artboard 1</title><path class="cls-1" d="M191.17,213.27a14.08,14.08,0,0,0,3,8.07c1.33,1.73.78,2.12-1.38,2.13-16.45.05-28.22-7.8-25-23.49l.56-2.74c-2,.74-3.76,2-5.8.9a5.27,5.27,0,0,1-2.68-2.9c-.95-2.78,1.31-5.33,5.53-6.27-2.89-1.15-4.43-.79-7,1.64s-4.58,2.2-6.2-.66a12.34,12.34,0,0,1-1.48-4.06,4.27,4.27,0,0,1,4.12-4.65c1.89-.13,3.73,0,2.45,2.3-.4.73-.9,1.54.21,2.13a2.47,2.47,0,0,0,2.44-.07c1.08-.65.93-1.56.44-2.4-1.4-2.4-3.8-3.41-6.88-2.86-2.58.46-3.78-.31-4.39-2.33-1.16-3.82.2-6.63,4.07-8,4.45-1.56,9.26-.21,11.61,3.3a7.75,7.75,0,0,1,.75,1.47c.65,1.64,1.71,3.8,3.72,3.32,1.61-.39,1.73-2.86,1.48-4.57-.54-3.85-4.12-6.69-9.47-7.67-.88-.16-2.15.14-2.4-.92-.2-.86.63-1.48,1.3-2a17.92,17.92,0,0,1,8.58-4c8.16-1.39,16.32-2.22,24.09,1.71,0-1.06-1-1.23-1.64-1.57-2.1-1.13-4.52-1.84-4.74-4.51-.1-1.15-1.69-2-3-2.61-3.35-1.41-5.1-3.5-4.38-6.68.66-2.93,3.41-3.58,6.83-3.72-3-1-6.75-.42-7.59,1.88-1.89,5.21-6.85,8.44-10.33,12.6a5.09,5.09,0,0,1-2.11,1.57,39.8,39.8,0,0,0-11.18,6.66c-.57.48-1.21,1.4-2.07.95-1.05-.55-.29-1.52.11-2.15,1.69-2.68,3.51-5.29,5.28-7.93,3-4.45,3.19-8.88.36-13.5-2.1-3.43-1.39-4.76,2.76-6.66a15.55,15.55,0,0,1,9.52-1.47c-3.94-1.41-11-.16-13.64,2.33-1.44,1.35-2,2.68-.91,4.58,3.68,6.46,3,12.65-2.57,18.22a7.79,7.79,0,0,0-2.44,5.33,18.77,18.77,0,0,1-3.09,9.45c-.49.74-.77,2-2,1.78s-1-1.41-1.12-2.26c-1.18-8,.44-15.8,3.27-23.41A63,63,0,0,1,159,130a21.34,21.34,0,0,1,9-5.9,9.2,9.2,0,0,1,8.94,1.39c1.06.75,1.34,1.47-.4,1.82-1.49.31-2.66.89-2.46,2.34.13,1,1.06,1.32,2.13,1.24a3.19,3.19,0,0,0,3.23-2.53c.58-2.68-2-5.36-5.67-5.75-1.8-.19-3.64-.11-5.46-.12-1.63,0-2.56-.59-2.84-2-1-4.92,2.69-9,8.76-9.68,6.23-.69,10.48,2.06,11.15,7.21.11.85.17,1.7.32,3.18,2.67-3.24,2.56-6,.75-8.69-3.32-5-9-4.71-14.94-4.15,5-2,11.39-1,14.79,2.28,3.17,3,3.3,7.79.28,11.42-.47.56-.9,1.47-1.86,1.22s-.56-1.22-.61-1.89c-.07-1.07,0-2.14,0-3.2-.23-4.51-3.08-6.55-8.87-6.37-5.09.15-8.52,3.1-8.45,7.13,0,1.67.79,2.46,2.86,2.44a25.25,25.25,0,0,1,4.48.24c4.55.78,6.48,3.05,6.2,6.89-.13,1.87-1.22,3-3.35,3.43-1.56.31-3.13.2-3.95-1.1-1-1.63-.54-3.1,1.2-4.27a4.62,4.62,0,0,0,.61-.59c-4.65-2.9-12.38.38-15.82,6.87l4.75-1a17.27,17.27,0,0,1,8.86.41c3.72,1.19,5.43,4.57,4.17,8-1,2.74-4.59,4.53-8.1,4.05-4.22-.58-6.3-4.35-3.89-7.06a4.26,4.26,0,0,1,4.22-1.36c1,.18,1.92.51,1.89,1.52a2,2,0,0,1-1.49,1.89c-.65.23-2.35-.68-1.72,1,.43,1.14,1.54,1.43,2.84,1.17,1.55-.31,2.82-1,3.11-2.38a3.17,3.17,0,0,0-1.54-3.57c-3.11-2-11.24-.48-13.07,2.38a1.91,1.91,0,0,0,.25,2.29c4.75,6.58,2.5,12.63-1.93,18.55-.59.79-1.53,1.45-1.64,2.73a59.84,59.84,0,0,1,9.57-5.09c.93-.37,1.3-1.13,1.79-1.82.7-1,1.3-2.38,2.37-2.78,3.82-1.4,4.84-4.19,6.1-7,1.13-2.56,3.4-4.27,6.71-4.92a7.85,7.85,0,0,1,7.49,2c1.91,1.91,1.92,4.11,1,6.31a3.61,3.61,0,0,1-3.58,2.29,3.51,3.51,0,0,1-3.37-1.71,2.75,2.75,0,0,1,1-3.86c.6-.4,1.8-.69,1-1.59-.57-.64-1.56-.49-2.41-.32-3.14.62-4.4,4.48-1.7,6.21a29,29,0,0,1,7.84,7.06c1.62,2.13,5.28,3.45,7.61,5.56a11.12,11.12,0,0,1,3.61,11.65c-.63,2.57-2.55,4.38-5.67,4.91-3.35.57-6.68.45-9.24-1.86-1.38-1.25-2.36-2.67-.94-4.3a4.19,4.19,0,0,1,4.47-1.45,3.78,3.78,0,0,1,3.1,3.93c0,.67-1,1.5-.08,1.94s2-.25,2.87-.8a6.76,6.76,0,0,0,2.17-8.09c-2.56-5.41-10.6-9.46-17.56-8.88-1.15.09-1.77.39-1.77,1.44,0,1.26-.82,2-2.36,2.06-1.34,0-1.65-.82-1.92-1.77-.68-2.35-2.49-.6-4.1-.81a8.4,8.4,0,0,1,1.32,1.92c.37,1.29-.25,2.33-1.82,2.72a2.47,2.47,0,0,1-3-1.46c-.3-.53.49-1.85-1-1.52s-3.12,1.16-3.6,2.43c-.36,1,1.25,1,2.06,1.26,4,1.51,7.51,3.42,8.47,7.4a8.78,8.78,0,0,1-.77,5.49c-.45,1.11-.85,3-2.47,2.73a4.61,4.61,0,0,1-3.77-2.92,12.48,12.48,0,0,0-2.18-4.43c-2.33-2.86-5.79-3.63-9.55-2.16-2.57,1-3.63,2.68-3.35,5,.23,1.9,1,3.06,3.86,2.89,4.34-.25,6.61.94,7.78,3.54.72,1.6.85,3.14-.84,4.43-5,.15-5,.14-5.49-3.47a1.21,1.21,0,0,0-.48-.88c-.67-.32-1.19.09-1.66.46-2,1.6-1,6.48,1.56,7.54a1.54,1.54,0,0,0,2.09-.65c.95-1.37,2.53-2.11,4-3,3.35-.28,6.43.18,8.89,2.27.43.37,1.07.78.65,1.36s-1.13.33-1.75.21a19.9,19.9,0,0,0-3.13-.54c-3.13-.06-5.36,2.78-4,5,1,1.79,2.83,2.15,4.66.83a27.66,27.66,0,0,0,2.55-2.39c.61-.57,1.14-1.6,2.24-1.08s.15,1.28-.08,1.92c-1.28,3.59-2.41,7.17-2.25,11,.44,10.95,10.56,15.85,21.09,16.57,1.86.13,2.61-.5,1.94-2.08-.76-1.81-1.43-3.64-2.21-5.63-1.91,3.85-3,4.15-7.66,2.3-5.48-2.18-7.92-6.5-6.41-11.53.39-1.29,1.18-2.5,1.49-3.8.44-1.8.9-3.65-1.61-4.91a4.75,4.75,0,0,1-1.48-7.06c1.68-2,5.6-2.85,7.6-.86,3.24,3.23,8.39,1.83,11.79,4.21.59.42,1.46-.06,2.1-.36,4-1.88,7.86-1.11,11.57.7,2.75,1.35,5.3,3,8.92,1.81,1.53-.53,1.77.56,1.46,1.57-.76,2.45-2.93,3.87-5.51,4.91s-5.34,1.67-4.82,5c.21,1.32-1.27,2.6-2.55,3.58-1.59,1.23-1.7,2.47-.52,4,1.52,2,1,2.76-2,2.83-2.58.06-5-.74-8.07-1.68,1.16,1.9,1.92,3.34,2.88,4.67,1.51,2.11,3.65,2.73,6.58,2,12.23-3,18.85-10,21.26-20.08a29.83,29.83,0,0,0,.7-9.56c-.08-.89-1.15-2.24.37-2.58s1.11,1.44,2.06,2.19c.63-2.37,0-4.58-.56-6.77-.18-.69-.42-1.33-1.69-1.16-3.94.54-5.51-1.1-4.13-4.25.25-.58.58-1.15.87-1.72h0a4.78,4.78,0,0,0,3.37-.42,4.7,4.7,0,0,1,4.8.42c1.83,1.2,1.83,2.68-.26,3.51-1.56.62-1.37,1.18-.9,2.25,8.14,18.31-6,39.36-29,42.53a46,46,0,0,1-32.8-7.47c-3.5-2.35-7-4.73-10.7-6.82-5.09-2.86-10.42-3.14-15.55,0-1.65,1-2.51,1-3.2-.74-.82-2.1-2.29-3.81-5.39-3.12-2.88.64-4.7,2.14-4.1,4.89.29,1.32-.46,1.71-1.92,1.82-2.89.2-3.53,1.1-2.25,3.43.8,1.46,1.61,2.65-1.18,3.1-.74.12-.88.62-.84,1.24.23,4,6.42,8.17,11.18,7.58,2.71-.33,7.44-3.94,8-6.4-2.42,1.58-5.85.59-7.58,3a1.34,1.34,0,0,1-1.72.27,1.07,1.07,0,0,1-.56-1.41,20.43,20.43,0,0,1,1.21-2.07c-.7-.72-1.47-.21-2.16-.26s-2-.25-1.88-.73a20,20,0,0,1,1.74-5.26c.63-1.15,2.85-.13,4,.89a2.52,2.52,0,0,0,.78.29c.43-.26.32-.51.08-.7-.87-.71-1.63-1.46-1.11-2.57a1.19,1.19,0,0,1,1.27-.65,2.46,2.46,0,0,1,2.36,2.21c.23,1.37,1.52,2,2.78,2.37,9.1,2.92,5.17,12.7-1,15.21-7,2.87-17,.16-21.42-6.08-4-5.64-3.36-11.55,1.75-16.6.88-.87,1.62-1.54,1.45-3-.21-1.76,1.64-3,3.31-4,8.31-5,17-3.75,25.75-1,1.07.34,2,1.09,3.34,1,0-.26.12-.57,0-.72-14.13-15-17.16-31.78-11.58-49.94a152.06,152.06,0,0,1,17.13-36.48,13.3,13.3,0,0,1,2.75-3.16c-2.41,4-4.75,8.09-6.92,12.2C149,138.39,143.61,150.29,141.3,163c-2.94,16.13,3.24,30,15.5,42.24,1.69,1.69,3.9,3,5.57,4.85-2.82-1.31-5.84-2.14-8.49-3.54a36.24,36.24,0,0,0-19.66-3.9,17.59,17.59,0,0,0-10.17,4.15c-.45.36-1.14,1.07-1,1.28,1.76,2.66-1.21,3.53-2.66,4.88-6.54,6.11-3.77,16,5.68,20,6,2.56,11.62,2.13,15.38-1.24.53-.47,2.08-1,.76-1.83-.87-.55-1.78-1.49-3.4-.75-8.73,4-16.22,1.2-18.36-6.9-.24-.91-1.14-2.25,1.29-2.21,1.47,0,1.11-.79.85-1.49a5.81,5.81,0,0,1-.24-3.43c.16-.71.58-1.84,1.18-1.77,3.67.44,2.9-2.1,3.8-3.57,1.24-2,3.49-2.81,6.09-3a5.23,5.23,0,0,1,5.1,2.67c.52.85.64,1.9,2.43,1.06,7.48-3.49,14-1.47,20.12,2.6,3.67,2.46,7.14,5.13,11.16,7.2,14.56,7.5,32.83,7.59,46.58-3.29,7.41-5.86,10.12-13.68,10.91-22a24.79,24.79,0,0,0-.24-5.74c-.35,2.9-.18,5.83-1.24,8.65-1.57-.08-.58-1.42-1.51-1.81-.59,3.37-1,6.75-2.2,10-3.39,9-10.58,14.67-21.62,16.9-3.86.78-5.53.17-7.44-2.71-1.55-2.33-2.89-4.75-4.33-7.13.93-1.42,1.76-.35,2.52.11a14.64,14.64,0,0,0,7,2.47c1.38.07,2.58-.13,1.61-1.61-1.38-2.11-.42-3.71,1.34-5.27,1.11-1,2.59-2.36,1.95-3.48-1.89-3.29,1.09-3.35,3.34-4,2.93-.87,5.35-2.21,7-5a13.68,13.68,0,0,1-9.38-1.83c-2.63-1.41-5.42-2.62-8.74-1.57-1.16.37-2,.74-.8,1.88.52.51.47,1.41,1,1.93,2.27,2.39.91,3.41-2,4-.76.16-1.91.17-2,1.08,0,.7.93.91,1.53,1.24,2,1.1,2.69,2.15.46,3.72-2.52,1.78-4.25.14-5.91-.87-2-1.24-2.8-.78-3.12,1-.25,1.41-.41,2.82-.69,4.22-.12.58-.15,1.35-1.08,1.49a1.7,1.7,0,0,1-1.77-1c-1.25-2.75-4.55-4.14-6.16-6.74-2.33,5.16,1.75,10.94,8,11.6,1.5.16,1.83-.48,2.13-1.44.48-1.49.8-3.07,2.55-4.36ZM146.51,172.5a11.32,11.32,0,0,0,3.1-7.89c.13-3.24,1.71-5.62,3.91-8.14,3.91-4.47,4.58-9.47,1.9-14.63-.31-.6-.41-1.57-1.5-1.49-.84.06-.88.93-1.14,1.48a68,68,0,0,0-6.25,19C145.93,164.57,145,168.42,146.51,172.5Zm28.24,18.11c5.74.61,6.49,1.74,4.26,6a2.79,2.79,0,0,0,.26,3.52c1,1.13,2.42,1.28,4,1a11.58,11.58,0,0,0,7.3-4c2.24-2.77,1.44-4.48-2.52-4.57a9.94,9.94,0,0,1-6.49-2.34C179.16,188.25,177.58,188.41,174.74,190.6Zm20.73,14.31a8.33,8.33,0,0,0-4.08-2.3c-.53-.13-1.07-.36-1.07-.86s.53-.75,1-.89c1.43-.39,2.87-.73,4.29-1.12.71-.2,1.75-.53,1.31-1.21-.67-1.05-.75-2.51-2.24-3.06-1-.38-1.45.44-1.88,1.07-2.65,3.86-6.55,6-12,5.95-1.81,0-2.37,1.1-1.55,1.81,2.14,1.88,3.44,4.25,5.53,6.78.6-2.65.95-4.66,1.52-6.62.39-1.33,1.48-1.89,2.72-.63C190.74,205.53,192.73,205.73,195.47,204.91Z"/><path class="cls-1" d="M394.68,197.28C402,201,409,205,415.12,210.15c19.37,16.43,25.13,35.72,17.73,57.72-2.6,7.72-6,15.22-11.78,21.81-11.84,13.42-27.76,17.46-47,14.73-19.11-2.71-27.67-18.66-25.49-31.46,2.06-12.11,9.72-19.13,22.68-21.45S396.66,255,399.79,265c1.88,6,1.07,11.83-4.69,16.58-5.18,4.27-11.3,5.25-18.09,3.71-5.3-1.2-8.81-4.19-9.85-8.66-1-4.29-.3-8.35,4.28-11.33a14.49,14.49,0,0,1,12.49-.95c3.44,1.57,5.31,4.57,4.89,7.81-.56,4.27-5.28,7-9.78,5.46a4.48,4.48,0,0,1,.89-.27c5.62-.41,8.77-3.08,8-6.75-1-4.37-6.19-7.32-11.18-6.32s-8.45,4.1-8.85,8.49,1.77,8.06,6.34,10.42c8.42,4.34,20.14.75,23.79-6.92,6-12.69-7-24.1-20.11-24.07-16.27,0-28,9.51-28.35,23-.25,9,3,16.58,11,22.73,4.46,3.41,9.86,5,15.66,5.71,16.91,2.21,31.14-1.66,42.06-12.94,7.51-7.75,11.49-16.87,14.3-26.32,4.53-15.23,2.17-29.76-8.32-43-9.77-12.32-23-21.24-39.79-26.36a110.89,110.89,0,0,0-33.65-5.25,100.68,100.68,0,0,0-54.94,16.47c-9.54,6.19-17.49,13.91-27.53,19.65-9.4,5.38-19,10.4-30.1,13-12,2.84-23.82,1.22-35.64-.76-3.23-.54-6.41-1.26-9.7-1.91-.16,1.2.95,1.24,1.56,1.55,13.33,6.73,24.47,15.3,32.29,26.62,5.7,8.26,8.27,17.27,9.61,26.65,1.75,12.27-2.27,24-4.16,36-1.79,11.28-3.53,22.55-4.41,33.92a205.58,205.58,0,0,0-.4,24.81c.71,16.38,3.72,32.43,12.93,47.24,12.09,19.44,31.77,29.53,57.63,31.73a158.55,158.55,0,0,0,56.2-4.92c19.06-5.28,33.58-15.26,43-30,5.62-8.73,8.29-18.3,9.52-28.11a97.5,97.5,0,0,0-2.53-36.06c-2.75-11-9.41-20.43-17.69-29-12.94-13.47-29.94-21.36-50.49-23.79-14.4-1.7-28.55-.67-41.86,4.4-11.46,4.37-19.53,11.76-24.62,21.31-7.37,13.83-9.17,28.07-4,42.7,4,11.28,12.59,19.46,25.53,24,14.93,5.22,30.36,7.49,45.8,1.29,17.24-6.93,27.38-18.11,28.85-34.3.71-7.86-.89-15.23-5.94-22-7.24-9.67-17.54-15.3-31.37-16.4-10-.79-18.74,1.18-26.64,6.49-11,7.42-15.2,22.38-7.79,32.44,9.78,13.27,29.47,13.73,38.79,5.23,7.54-6.89,7.36-17.26-.54-23-8.27-6-20.24-3.66-23.73,4.55a8.4,8.4,0,0,0,3.4,10.38c3.9,2.45,8.41,2.43,12.72-.06.13-.08.37,0,1,0-2.35,2.55-5.35,3.15-8.61,2.75-5.29-.65-9.35-3.91-9.85-7.65-.83-6.12,2.16-10.88,8.14-13,10.72-3.72,23,2.6,24.05,12.32,1.31,12.65-11.53,22.11-26.68,20-21.07-2.88-28.34-20.41-20.84-34.7,7.1-13.54,23.71-19.7,41.62-16.47,19.3,3.48,32.28,16.22,33.69,32.56,1.48,17.15-6.68,30.33-24,39.47-11.26,5.95-23.7,7.19-36.83,5.11-14.33-2.26-26.73-7-35.49-17.09-6-6.85-8.54-14.75-9.32-23a54.38,54.38,0,0,1,6.3-31.54c7.88-14.65,21.27-23.61,40.33-26.51a101.48,101.48,0,0,1,42.27,2c20.58,5.58,35.39,16.83,46.18,32.2,7.83,11.16,10.76,23.23,11.83,35.92a86,86,0,0,1-4.23,36.17c-7.27,20.73-23.45,34.72-47.8,41.9a152.48,152.48,0,0,1-67.55,4.29c-25-4-42.21-16.21-52.27-35.46-6.17-11.81-8.78-24.29-10.06-37.06a170.92,170.92,0,0,1-.47-21.87c.4-14.14,2.31-28.19,4.71-42.19,1.6-9.33,4.35-18.56,4.68-28,.57-16.36-4.58-31.31-17.36-44.15-10.41-10.46-23.32-18-38.37-23.13-.77-.26-1.68-.4-2-1.45,1.49-.77,2.83.06,4.08.43a186.36,186.36,0,0,0,35.89,7.12c12.75,1.25,24.27-1.35,35.21-6.34,12.77-5.83,23.85-13.47,34.4-21.8a100.82,100.82,0,0,1,56.29-21.85c14.9-1.11,29,1.18,42.82,5.48a27.14,27.14,0,0,0,5.77,1.62Z"/><path class="cls-1" d="M182.79,99a2.06,2.06,0,0,1-2.07-1.39c-.45-1.11-1.05-2.12-1.9-.13-.17.4-.95.54-1,.29-.25-2.8-6.37-2.59-5-5.32.71,2.27-3,3.08-4.93,5-5.62,5.63-9.35,12.12-12.7,18.79-2,4-3.74,8.15-5.62,12.22-.32.69-.27,1.63-1.83,2-.38-2.92-.51-5.82-1.15-8.64-4.12-18.21-16-31-37.8-36.65a58.6,58.6,0,0,0-26.38-.51c-2,.41-3.57.59-4.69-1.43s-3.67-2-5.94-1.63a4.94,4.94,0,0,0-4.17,4c-.24.84.78,2.34-.86,2.43-1.48.08-2.09-1.28-2.46-2.46s.7-2.72-1-3-3.12,1-4.22,2.09-2.21,2.41-3.37,3.57a.9.9,0,0,1-1.37,0c-.41-.52,0-.74.62-.9,1.27-.32,1.56-1.4,2.26-2.16a11.34,11.34,0,0,1,5.35-3.69c.9-.25,1.92-.75,2.77-.24,1.08.64,0,1.45-.1,2.18-.2,1.15-.35,2.28,1,3.09.85-.32.57-.94.65-1.42.33-2.28,1.77-3.79,4.45-4.4s5.43-.26,7.22,1.76a3.35,3.35,0,0,0,3.72,1.28c27.16-5.71,57.31,7.75,64.64,33.92.71,2.55,1.3,5.13,2.1,8.35,1.69-3.5,3-6.4,4.48-9.23,1.91-3.58,3.9-7.13,6.06-10.62,4.19-6.78,3.9-13.79,1.45-20.81-1.59-4.56-5.71-7.22-11.16-8.4-4.49-1-8.77.63-10.9,3.92s-1.3,6.87,1.9,9.25a10,10,0,0,0,6.89,1.7c3.37-.26,5.25-3.24,3.71-5.55a2.34,2.34,0,0,0-2-1.11c-.6,0-1.06.27-1.07.79,0,.87,1,.69,1.51,1,1.76,1.13.38,1.92-.73,2.53-2.73,1.52-7,.75-8.53-1.47-1.72-2.47-.49-6.23,2.54-7.74C147.37,78.06,154,79.6,157,83.4c4.12,5.33,3.95,11.12,2.63,17-.26,1.19-1,1.78-2.49,1-.74-.4-1.49-.84-2.28-.13s0,1.31.37,1.9a4.4,4.4,0,0,1,.62,2.59c.11,5.17-3.87,9-5.87,13.59-1.6-.78-1.47-1.79-1.72-2.6A76.24,76.24,0,0,0,123.38,80c-1.57-1.3-1.25-1.83.69-2.24a30.19,30.19,0,0,0,10-3.53C130,75.31,126,76.3,121.65,76c-2.43-.14-4.39-.83-5.68-2.56-1.47-2-2.37-4.15-.65-6.27,2-2.42,5-2.83,8.39-2-2.79-2.66-3.36-2.59-9.53,1.12.37-3.48.93-6.85-1.52-9.89-1.84-2.27-5.78-3.13-9.19-1.9-3.08,1.11-4.78,3.63-4,6a3.83,3.83,0,0,0,3.64,3,4.12,4.12,0,0,0,3.85-2c.92-1.47-.34-2.53-1.38-3.55a24.67,24.67,0,0,0-2.06-1.6,6,6,0,0,1,6.28.63c3.23,2.2,4.12,5.1,3.14,8.42-1.55,5.25-5.47,8.73-11.5,10.69-8,2.61-16.43,2.49-24.78,2a29.84,29.84,0,0,0-16.48,3.38c-.35.19-.71.39-1.07.57-.06,0-.19,0-.82-.13,4.19-3.39,9.1-4.54,14.35-4.75,4.27-.17,8.52.7,12.83.49,5.61-.27,11.14-.88,16.28-2.83,5.35-2,9.16-5.26,10.07-10.32.55-3-.44-4.93-3.69-6.87.32,1.81,1.19,3.43-.19,4.95a5.93,5.93,0,0,1-7.58,1.33,5.16,5.16,0,0,1-1.39-7.69,10.57,10.57,0,0,1,9.84-3.28c4.57.78,6.32,3.62,6.85,6.91.36,2.26.81,2.93,3.79,2.43,3.87-.65,7.47,2.46,7.41,5.84a2.69,2.69,0,0,1-2.12,3,4.31,4.31,0,0,1-4.18-.66c-1.23-1.15-.65-2.31.27-3.41.18-.21.31-.45.65-.93-2.59.22-4.74.78-5.34,2.84s.47,3.85,2.62,5.07a10.87,10.87,0,0,0,6.85.87c7.51-1,13.79-3.8,18.57-8.77.51-.53,1.4-1.1.95-1.84s-1.54-.39-2.36-.44a9.38,9.38,0,0,1-5.33-1.61c-2.6-2-2.71-3.41-.18-5.5,1.27-1,1.92-2.4,3.2-3.51,3.23-2.79,7.16-2.34,11-2.64a4.39,4.39,0,0,1,4.69,5,9.06,9.06,0,0,1-2.84,5c-.7.74-1.64,1.62-.26,2.53,1.13.74,2.17,1.08,3.08-.36a2,2,0,0,1,2.76-.55c1.57.93.82,2-.2,3.11a20.76,20.76,0,0,0,17.1-3.85c2.92-2.2,2.32-5.5-.91-7-.71,1.06.12,1.86.66,2.7.36.56.71,1.17,0,1.72s-1.53.33-2.3-.12a5,5,0,0,0-1.7-.7c-2.92-.45-4.05-2-3.49-4.26s3.08-2.61,5.33-2.61c3.56,0,6.65,2.69,6.86,5.69.28,4-1.44,7.25-5.73,9.16-3,1.33-5.73,2.69-7.27,5.5,2.51.57,3.73,2.12,3.13,4.44-.51,2-2.1,3.08-4.47,3.33-2.77.29-5.15-.27-6.53-2.49a5,5,0,0,1-1-2.23c-.1-3.57-4-5.31-5.61-8.19a2.35,2.35,0,0,0-3.92-.18c-5.21,6.7-13.41,9.73-22,12.26-1.78.53-2.4.84-.8,2.2a74.49,74.49,0,0,1,23,34.69c.11.33.28.65.69,1.56,1.91-3.46,3.77-6.35,4.66-9.67.82-3-2.62-3.89-3.92-5.82a2.55,2.55,0,0,0-1.48.21c-2.81,1.41-3.32.13-3.29-1.87.06-4.33,3.95-6.73,8.72-5.82,1.3.25,1.59,1.21,1,1.84-1.45,1.69.26,2.46,1.15,3.51,1,1.21,1.92.88,2-.35.48-5.17.93-10.38-3.1-14.9a10.59,10.59,0,0,0-9.81-3.48,4.86,4.86,0,0,0-4.52,4.6c-.24,1.89,1.11,3.25,3.25,3.84,1.75.48,3.45.61,2.45-1.78-.55-1.3-.38-2.58,1.54-3s3.41-.07,4.28,1.55c1.88,3.49-.61,6.77-5.23,7-4.18.18-7.73-.76-9.85-3.92-2.27-3.39-1.56-6.75,1-9.84s6.12-3.77,10.21-3.31c8.37.95,14.3,6.7,14.62,14.14.09,2.09,0,4.18,0,6.91,2.56-2.15,2.4-4.45,3.5-6.26,1.21-2,4.15-2.23,6.43-2.87.32-1.06-1.9-1.49-.75-2.42a3.84,3.84,0,0,1,3.94-.22c2.67,1.17,5.05.55,7.27-.66,2-1.11,2.84-2.75,1.29-4.57-.83-1-1.06-1.7.16-2.48a3.07,3.07,0,0,1,3.53.05c4.13,2.51,6,3.75,7.4,7.43.79,2.07,2,4.53.55,6.91-.38.65-.67,1.39,0,2s1.61.23,2.35-.08C210,89,221.11,84.67,229.43,77,243.9,63.77,238,48,221.87,40.64c-11.9-5.4-27.49,2.57-26.78,13.26.57,8.57,10.39,13.86,19,10.26,3.85-1.6,6.42-5.32,5.88-8.51-.58-3.41-3.51-6-7.39-6.55s-7.89,2-8.07,5c-.14,2.34,1.31,3.93,3.73,4.85a4.53,4.53,0,0,0,4.9-1.14c1.79-1.7.89-3.28-1-4.88,2.16.54,2.43.72,2.72,1.9a3.4,3.4,0,0,1-1.31,3.91,6.72,6.72,0,0,1-6,1,5.21,5.21,0,0,1-4.08-4.1c-.59-3.13,1.11-5.69,4.56-6.9,3.89-1.36,8.71-.38,11.09,2.25,4.81,5.32,1.75,13-5.94,14.9-7.23,1.78-14-.41-17.36-5.62A13,13,0,0,1,199,42.59c9.74-7.31,25.91-6.42,35.31,5.52,8.79,11.17,4.19,24.47-6.55,32.22-14.38,10.36-32,15.76-49.29,21.54a19.6,19.6,0,0,0-2.72,1c3.87.33,7.7.76,11.48,1.45,20.35,3.69,34.6,13.53,42.84,29.37a12.13,12.13,0,0,1,1.11,7.6c-.55,3.63-3.63,6-8.48,6.45-4.55.46-8.22-1.29-9.77-4.65-1.1-2.39,0-5.31,2.48-6.93a7,7,0,0,1,7.47-.19,3.82,3.82,0,0,1,2.27,4.38,4.11,4.11,0,0,1-3.41,3.23,3.93,3.93,0,0,1-4.38-1.54,2.3,2.3,0,0,1,.58-3.42c1.3-.94,2.7-.8,4.67.6-2.44-.4-4.59-.94-4.59,1.34,0,1.31,1.31,2.14,2.86,2,2.16-.2,3.09-1.5,3-3.22-.13-2.27-3.23-3.85-5.91-3.08-2.89.83-4.73,3.54-4.05,6,.81,2.89,4.64,5.05,8.34,4.7,5.18-.5,8.64-4.24,7.77-8.53-1.52-7.52-6.64-13.51-12.66-18.86-11.34-10.07-25.67-14.84-42.2-15.19a34.37,34.37,0,0,1-5.82-.38c4.23-2.23,9.25-2.83,13.43-5,2.81-.87,5.63-1.71,8.41-2.61,4.14-1.35,4.35-2.06,1.58-4.86-.34-.34-.65-.71-1-1.06.82.17,1.64.36,2.47.5s1.82-.45,1.51-.93c-1.06-1.62-.4-3.5-1-5a11.81,11.81,0,0,0-7.7-6.79c0,1.7.62,3.33-.11,5.07.86-.27,1.77-.73,1.94-.59,1.43,1.19-1.29,1.88-.64,3,.52.88,3.68,0,2.2,2.23a8,8,0,0,1-2.17,1.94,27.93,27.93,0,0,1-2.84,1.49l.9.71c2-.16,3.14-2.23,5.45-1.66-1.12.68-2.12,1.74-3.37,2C184.13,93.26,183.08,95.84,182.79,99ZM160.47,75.66c2.49-5.29,8.06-7.84,13-11-5,1.86-10,3-15.45,1.69-.93-.22-2.23-1.2-2.87-.27s.38,2.09,1.39,2.73A6.36,6.36,0,0,1,159.78,74,5.36,5.36,0,0,0,160.47,75.66ZM153,55.87c0-.72-.09-1.52-1.13-1.23a4,4,0,0,1-3.25-.62,2.08,2.08,0,0,0-2.38,0c-1.72,1.68-4.81,1.93-6.08,4.1-.26.45-1.67.49-1,1.31a4,4,0,0,0,2.06,1.16c1.1.24.87-.68,1.19-1.19a10.37,10.37,0,0,1,2.42-2.95c1.42-1,3.1-1.3,4.26.45.42.64.26,1.86,1.65,1.57S152.73,57,153,55.87Z"/><path class="cls-1" d="M126.13,137.42l-4.86,2.91c0,.73.52.58.91.58,2.65,0,5.29,0,5.86,2.94s-.81,5.2-4,6.3A8.23,8.23,0,0,1,115.8,149c.87,2.7,2.82,3.71,6,3.1,2.52-.48,5-1.51,6.61,1.27a6.14,6.14,0,0,1-1.44,8.15,9.84,9.84,0,0,1-7.69,2c-2.06-.25-3.21-1.32-3.45-3-.11-.77-.14-1.55-.23-2.59-1.76,3.08-.83,5.21,2.92,7.27,2.59,1.43,2.62,2,.24,3.68-5.1,3.5-10.68,2.23-14.69-.53-2.39-1.65-2.6-4.15-1.64-6.42a8.38,8.38,0,0,0,.52-6.14c-8.75,1.49-11.84,10.07-5.9,16.42.67.72,2.36,1.26,1.69,2.31s-2.27.77-3.55.86A25.91,25.91,0,0,1,79.35,171c-6.62-4.16-13-8.49-14.73-15.87-.54-2.36-.2-4.68-.08-7-1.21,3.93-1.36,7.85.55,11.66.8,1.6,1.2,2.88-.7,4.25-1.58,1.14-1.47,2.89-1.1,4.51.28,1.22.74,2.42.94,3.65.63,3.79-1.88,6.9-5.85,7.4-4.34.54-7.07-1.44-7.81-5.65-1,4.22,4,8.38,9.33,6.94,5.87-1.6,11.31-4.31,17.84-3.16,3.93-2.3,7.85-1.12,11.89-.12,10.08,2.5,19.25,0,28.12-3.85,1.14-.5,2.39-1.9,3.61-1.08,1,.67-.28,2-.58,3-1.39,4.52.49,8.43,5,10.21a7.65,7.65,0,0,0,8.89-2.42c2.38-2.92,2.17-6-.55-8a3.85,3.85,0,0,0-4.91-.06c-1.66,1.2-1.81,2.57-.5,4a2.77,2.77,0,0,0,4.12.32c.53-.39,1.11-1,1.91-.46.64.46.51,1.17.3,1.76a6.25,6.25,0,0,1-5.47,4.36,6.87,6.87,0,0,1-6.92-3c-2.18-3.31-.88-8.41,2.93-12.12,4.44-4.32,8.86-8.61,12.08-13.75,5.8-9.26,6.41-19.1,5.62-29.13-.68-8.56-3.19-16.72-9.72-23.65-7.81-8.29-17.25-14.34-30.58-14.89a26.15,26.15,0,0,1-5-.8c10.72-.1,20.56,1.87,28.85,8,11,8.17,16.29,18.41,17.51,30.5,1.12,11.14.09,21.84-6.34,31.88a54.32,54.32,0,0,1-9.2,10.24c-2.74,2.53-5.31,5.12-6,8.66a6,6,0,0,0,.57,3.92c1.84,3.64,6.22,4.09,9.28,1-.25-.81-1-.4-1.59-.46-2.59-.28-4.06-1.56-4.48-3.61-.39-1.89.65-3.31,2.64-4.18a5.64,5.64,0,0,1,6.18.87c2.69,2.2,3,5.79.78,8.9a9.73,9.73,0,0,1-9.55,3.61c-5.31-1.14-8.24-5.07-7.45-10.4.3-2,0-2.54-2.3-1.48a44.27,44.27,0,0,1-32.58,2.06,5.12,5.12,0,0,0-3.67.45,12.55,12.55,0,0,1-8.72.65c-2-.63-3.25.29-4.71,1-4.14,2.11-8.41,3.67-13.33,1.75-3.87-1.51-5.42-3.85-5-7.57.33-3,2.13-4.78,5.47-5.6,1.93-.48,3.7-.4,4.83,1.13a3.21,3.21,0,0,1,0,4.28c-1.14,1.31-2.93,1.35-4.69,1-.8-.17-1.56-.48-2.39-.74.29,3.19,2.06,4.75,5.17,4.64s5.67-2.18,5.66-4.85a13,13,0,0,0-.66-3.68c-.74-2.44-.73-4.77,1.15-6.88,1.07-1.2.45-2.36,0-3.56a18.61,18.61,0,0,1,.07-13.4A13.46,13.46,0,0,1,76,137.91c5.25,0,9.92,3.69,10.06,8.07.06,1.93-.45,3.85-3.34,4.23-2.31.31-4.46-.11-5.15-2.23s.25-3.83,2.69-4.88c.63-.27,1.77-.12,1.77-.89,0-.92-1.11-1.22-2-1.53-5.33-1.92-12,1.55-13.63,6.86-2.44,7.86,1.31,13.67,8.3,18.58,1,.72,1.54.57,2.25-.3a2.66,2.66,0,0,1,3.86-.5c1.35,1,.56,1.89-.19,3-2,3,2.16,2.2,3.28,3.48.33-1.76.06-3.7,2.94-3.88,1.4-.09,2.64.25,3,1.49.58,1.82-.8,2.79-2.63,3.51A6.7,6.7,0,0,0,90.6,174c1.78.26,4.13.85,5.24-.15s-1-2.22-1.67-3.36C90.55,164,93,158,100.72,154.89c1.35-.54,2.68-1.16,4.28-.79-.62,1.6,1.49,3,.58,4.58-.45.81-1,1.59-1.38,2.41-1.66,3.34-.78,5.64,2.84,7.55,3.35,1.77,8.28,1.36,10.71-.81,1.33-1.18,0-1.55-.82-2a6.16,6.16,0,0,1-3.62-7.15,3.85,3.85,0,0,1,3-3.17c1.3-.36,3-1.07,3.89,0s-1.19,1.33-1.88,2c-1.09,1-1.77,2-1.06,3.36s1.89,1.59,3.39,1.61c4,0,7.42-2.87,7.31-6.15-.09-2.67-1.8-3.79-4.9-3.19-6,1.14-10.5-2-9.87-6.85.07-.52-.05-1.17.71-1.36s1.1.38,1.44.82a21.56,21.56,0,0,0,1.56,2,6,6,0,0,0,9.12-.75c1.67-2.59.3-4.64-3.22-4.74-1.28,0-2.57.12-3.85.16-1.08,0-2.66,1-3.09-.29-.37-1.09,1.48-1.27,2.43-1.75,5.29-2.73,9.71-6.17,12.51-10.84,4.05-6.77,2.22-17.44-3.8-23.13-1.61-1.52-2.89-2.17-4,.34a36.44,36.44,0,0,1-2,3.43c2.81-1.51,3.87,0,5.06,1.23,6.57,7.06,4.06,15.21-5.94,18.42-2.6.83-3.74,2.51-5.34,4-.48.45-.38.9-.11,1.46,1.57,3.25-.41,6.62-4.44,7.67-3.77,1-7.25-.67-8-4.27-.65-2.91-2.37-5.22-3.91-7.79-2-3.28-4-5.36-8.11-6.77-3.45-1.17-4.81-4.39-5.62-7.44s-1.74-5.7-5.67-6.9c-1.63-.5-1.34-1.44-.12-2.2A8.56,8.56,0,0,1,83,106.44a19.31,19.31,0,0,1,7.25,1c2.8,1,5.11,1.8,7.18-1.14.94-1.33,3.31-1.5,5.3-1.47,3.17.05,5-1.06,5.36-3.85.27-2.11,1.33-2.36,3.38-1,2.38,1.54,3.75,3.31,6,7.72,3.58-4.49,2.81-7.09-2.85-9.62-9.2-4.12-26.64-2.08-34.28,3.92a9.45,9.45,0,0,0-3.72,6.87c-.32,3.14-2.37,4-5.44,2.19-.78-.46-1.16-.88-2.09-.2a6.39,6.39,0,0,0-.24,10.3,5.65,5.65,0,0,0,6.73.18,3.05,3.05,0,0,0,1.35-3.85c-.51-1.46-2-1.37-3.41-1.29-.71.43-.13.79,0,1.15.59,1.26.11,2.14-1.46,2.42s-2.83-.4-2.95-1.77c-.18-2.16,1-3.78,3.47-4.63,3-1,6.8,0,8.21,2.1,1.66,2.51.52,6.62-2.36,8.46C72.13,128,64.12,125.64,62,119.14a16.12,16.12,0,0,1,1.39-13.53c4.76-8.23,11.86-14.24,23-16.3a34,34,0,0,0-10.78,5c-4.56,3.31-8.79,6.85-11.2,11.54-2.73,5.32-3.25,10.69.49,15.89a7.32,7.32,0,0,0,7.22,3.16c3.51-.44,6.68-1.45,7.9-4.67,1.55-4.11-1.5-6.78-6.7-5.83.05.14.09.4.17.41,2,.25,4.31,0,4.86,2.23.49,2,.27,4-2,5.26a7.39,7.39,0,0,1-7,.62c-3.9-1.71-5.62-5.62-3.93-9.19a19.9,19.9,0,0,1,2.64-4c2-2.4,2.36-2.38,4.29,0a2,2,0,0,0,1.87.83c1-.09,1-.76,1-1.4.06-5.46,3.6-8.92,9.29-11.16a45.84,45.84,0,0,1,27.87-2c.52.12,1,.26,1.53.42,7.73,2.46,9.51,8.4,4.09,13.64-.41.4-.8.93-1.56.64s-.68-.89-.65-1.41c.15-2.9-1.6-5.11-3.73-7.17-1.11-1.08-2.17-1.59-2.79.4-.75,2.43-2.84,3.41-5.75,3.44-3.19,0-5.95.62-7.06,3.59-.62,1.65-2,.84-3.14.41-2.82-1.1-5.63-2.23-8.82-2.36-1.16,0-2.63-.24-3.25.71s.89,1.44,1.57,2c2.1,1.75,2.67,4,3.35,6.26.91,3,2.41,5.74,5.94,7.27,1.28.55,2.57,1.23,2.63-1,0-1.62,1.76-2.92,2-4.67.15-1.14,1.62-.92,2.66-.63s2,.63,3,1c1.7.64,2.49.33,2.11-1.31a5.15,5.15,0,0,1-.23-1c0-1.2-.69-2.61,1-3.38,1.23-.57,5.3,1,5.74,2.11a12.06,12.06,0,0,1,.92,3.64c.11,2.09,1.13,2,2.73,1,2-1.32,4-2.68,6-4,.58-.39,1.15-.88,2-.52.65.28,1,.91.74,1.36-1.84,3.56.1,7.45-1.5,11.06,8.76-3.68,7.47-10.68,2.69-15.46-1.06-1.06-1.94-.57-3,.09-1.3.81-3.06,2.41-4.35,1.32s1.1-2.2,1.88-3.27a25.17,25.17,0,0,0,3.61-5.94c.72-2,1.72-1.94,3.35-.65,10.61,8.4,11.31,23.53,1.47,32.5-.5.46-1,1-1.43,1.44Zm-14.27,3.41c-3.09-.09-4.4-.86-4.5-2.92-.11-2.32.66-3.68,3.72-4,2.41-.26,4.11-1.58,4.53-3.64s-1.45-3.22-3.32-4.13a15.31,15.31,0,0,0-10.54-1.06c-4.16,1-5,3.16-1.92,5.61,2.29,1.8,3.46,3.64,3.33,6.24a5.67,5.67,0,0,0,1.12,3C105.71,142.2,108,142.6,111.85,140.83Zm-6.1-26.33a8.58,8.58,0,0,0,1.05,4.62c.32.77,1.69,1.53.59,2.34s-2-.18-2.92-.52a12,12,0,0,1-1.1-.54c-1.47-.7-2.93-1.85-4.64-1.56s-.48,2.13-1.53,2.95c-.86.67-.77,1.36-.12,2.13s1.54.74,2.54.48c7.2-1.92,13.42-.88,18.24,4.5.88-1,2.36-1.95,2.23-2.7-.58-3.3.89-6.29,1.87-9.83-3.23,2-5.56,4.14-8.71,5.31-1.21.45-2.76.65-2.46-.82C111.45,117.53,108.72,116.24,105.76,114.5Z"/><path class="cls-1" d="M71.31,189.56c2.92-3.22,8.49-4,14-2.44,2.32.67,4.56,1.51,7,2.34-.09-1.8-.88-3.38.78-5.06,2.71-2.74,6.07-3.58,10-3.52.64,0,1.27.2,1.9.24,1.59.1,3.43-.13,4,1.56a5.21,5.21,0,0,1-.75,5.37c-.7.84-3.12,1.2-1.85,2.57s3.15.74,4.8.19a14.5,14.5,0,0,0,1.56-.72c.36-.88-.51-1-.92-1.29a3,3,0,0,1-.81-4.17,3.72,3.72,0,0,1,3.65-1.79c2,.07,3.46.88,4.11,2.5a4,4,0,0,1-.06,3.65c-1.22,2.07-.05,2.73,2.25,2.89a21,21,0,0,1,3.16.48c2.83.64,5.38,1.25,5.57-2.49.07-1.51,1.9-2.3,3.73-2.53a5.21,5.21,0,0,1,4.35,1.29c.43.39.91.89.62,1.43-.37.69-1.11.35-1.65.14-1.75-.69-3.09-.08-4.5,1.05-.35-1.69,1.44-2,2.71-3.06-3,.19-4.56,1.35-4.27,3.24.49,3.11-1,3.3-3.88,2.39a13.21,13.21,0,0,0-1.6-.26c.18.95.68,1.89-.28,2.72,3.06-.9,6.16.33,9.1-.38.41-1.06-1.21-1.3-.92-2.59,4,3.43,9.72,3.94,14.83,6.53-2.14.42-3.35-.26-4.6-.57-4.52-1.11-9-2.33-13.79-2.47-1.77,0-3.69.06-2.55,2.4.68,1.39-.42,2.18-1.89,2.6-1.63.47-3,.16-3.74-1.22a2.45,2.45,0,0,1,0-2.83c2.37-2.84.33-3.15-2.51-3.48-7.17-.83-14.27-1.32-21.56,1.4,1.43.69,2.68.4,3.82.46,7,.38,12.33,4,13.79,9.5,1.42,5.31-2.84,9.58-9.23,9.27-5.54-.27-9-4.7-7.07-9,1-2.14,5-3.06,7-1.61a2.1,2.1,0,0,1,.93,2.65c-.43,1.06-1.56,1.2-2.66.91-2.93-.75-2.31.73-1.73,1.94.8,1.67,2.51,2.15,4.5,1.71,2.25-.5,3.79-1.6,3.87-3.73.15-4-4.09-8.05-10-8.08-8.79,0-17.27,1.7-24.19,6.62-3.25,2.31-3.74,5.2-2.08,8.24,1.16,2.11,3.25,3,6,3S84,216,84.74,214.35c-.74-.64-1.12-.16-1.53,0-3.27,1.53-6.64,1-8-1.35s.28-5.88,3.43-6.92c2.41-.8,5-1.47,7.27.27a8.38,8.38,0,0,1,3.38,8.27c-.56,3.78-4,6.36-8.34,6.64-5.3.34-9-1.52-10.63-5.3-2.62-6.21-.25-11.44,6.82-14.69,2.43-1.12,5.09-1.89,7.55-3s5.48-2.09,5.66-4.93c.1-1.59-3.6-2.94-7.55-3.1A12.4,12.4,0,0,0,75.5,192c-1.07.67-3.18,1.05-1.1,2.64a.56.56,0,0,1,.14.49c-.23,1.55-3.43-.94-3.42,1.94,0,1.49-2.48.55-3.67-.37a5.46,5.46,0,0,0-5.67-.5c-1.6.64-2.81,1.69-1.74,3.44.41.67-.08,1.19-.83,1.52a2.37,2.37,0,0,1-2.13-.12c-4.78-2.45-6.05-10.55-2.27-14.22,1.11-1.08,1.85-1.65,2.3.32.35,1.53,1.47,2,3.32,1.57,2.38-.56,5.39,0,6.26-3,.22-.74,1.4-1.38,2.23.15C69.54,187,72.47,186.87,71.31,189.56Zm28.23,3.51c-5.35-1.73-10.47-3.5-15.69-5a12.44,12.44,0,0,0-6.61-.61c-1,.25-2.78.14-2.33,1.59.4,1.3,1.8.88,3,.63a18.51,18.51,0,0,1,11,.68c3.21,1.28,3.87,3.13,2,5.64-1.71,2.23-4.47,3.28-7.34,4.07a27.9,27.9,0,0,0-8.11,3.71c-4.11,2.72-5.6,6.47-4.19,10.71,1.49,4.48,6.82,6.92,11.74,5.4A6.93,6.93,0,0,0,87,209.69c-.89-1.55-2-3.08-4.41-3.1a6.75,6.75,0,0,0-5.85,2.78c-.84,1.17-1.08,2.39.12,3.45a4.22,4.22,0,0,0,4.32,1.08c1.68-.56,2.49-1.59,2.27-3.15-.07-.52-.77-1.18.44-1.7a5.18,5.18,0,0,1,1.8,6.52c-.87,2.13-2.94,3-5.49,3.06-3.1.09-5.71-.65-7.16-3.18-2.84-4.93-.14-10.2,6.71-12.85A73,73,0,0,1,97,198.4c5.86-.74,11.71,1.56,14,5.3,3,4.87.49,8.69-6,9.11-.35,0-.92-.08-.77.62a8.29,8.29,0,0,0,7.81-1.92,5.31,5.31,0,0,0,1.25-6.51c-2-4.66-6.86-7.54-13-7.72-2.7-.08-5.4,0-8.29,0C93.77,194.94,97.15,194.77,99.54,193.08Zm22.57.35,0-.47c-1.59-.16-3.17-.31-4.76-.49-.7-.08-1.65.18-2-.57s.57-.86.92-1.28c1.31-1.56,2.59-3.15,1.36-5.14a3.25,3.25,0,0,0-3.78-1.36c-1.36.31-2.34,1.06-2.19,2.3.18,1.5,1.36,2.13,3.16,1.95.43,0,.85,0,1,.43-.4,1.67-2.54,2.19-3.67,3.59,2.56.92,5.12.31,7.48.9A13.22,13.22,0,0,0,122.11,193.42Zm-60.2-3.62c-2-.07-3.76.25-5.39-.82a1,1,0,0,0-1.56.28c-1.53,2.55-.18,7.52,2.65,9.67a11,11,0,0,0,.11-6.39c-.17-.75.45-1.17,1.1-1.47C59.81,190.61,60.87,190.22,61.91,189.8Z"/><path class="cls-1" d="M394.68,197.28l-2.61-1.1c-1.5-1.53-3-3.06-2.57-5.25.56-3.14,4.69-4.87,7.74-3.2,1.9,1,2.42,3.29,1.08,4.68s-3.13,1.31-5.11-.38c1.64.77,3.21,1.23,4.37-.4.8-1.14.27-2-.74-2.85a3.76,3.76,0,0,0-4.66,0c-1.64,1-2.22,2.38-1.43,4,1.27,2.61,5.66,4.35,9.5,3.69,13-2.2,24.72-6.63,34.73-13.83,16.79-12.08,25.37-27.7,25-45.91-.29-16.08-6.3-31-21.13-42.25-14.05-10.62-30.67-15.59-49.57-10.79-16,4.06-27.49,12.59-30.83,26.76-3.86,16.4,8.74,33.37,28.46,35.8,13.84,1.71,33.35-6.55,32.74-22.53-.35-9-8.95-16.9-19.67-18-6.53-.66-15,3.25-17.84,8.21s-1.55,10.75,3.44,14.66a13.22,13.22,0,0,0,15.26.67c.58-.36,1-1,1.9-1,.5.92-.44,1.28-1.05,1.65A15.22,15.22,0,0,1,388,131.16a11.79,11.79,0,0,1-8.22-10.11c-1-6.65,2.56-11.52,9.52-14.42s14.46-2.86,21.1,1c13.84,8,14.14,25,.78,33.82-17,11.2-41.47,6.1-50.47-10.36-6.59-12.05-6.17-23.72,3.42-34.31,10.51-11.61,25-17.18,42.65-15.69,28.38,2.38,47.26,19.74,52.87,43.12A78.09,78.09,0,0,1,461.91,139c2.92-7.33,8.42-13.13,15-18.3,7-5.48,16.26-7.12,23.32-4.1a13.52,13.52,0,0,1,8.15,15.07c-1.3,5.91-6.93,10.49-13.86,11a11.74,11.74,0,0,1-9.88-3.6c-2.54-2.73-2.47-5.86-1.08-8.89,1.47-3.21,6.47-4.84,10.56-3.72,3.56,1,5.52,3.92,4.66,7-.71,2.54-3.72,4-7,3.35-2.74-.53-3.71-2.26-2.79-5,.51-.15.48.15.49.41.1,2.64,1.51,4,3.9,3.91a4.23,4.23,0,0,0,4.12-4.38c-.24-2.31-1.87-3.79-4.52-4.32-3.13-.62-5.79.23-7.51,2.51a6.09,6.09,0,0,0,0,7.84c2,2.69,5.19,3.81,8.8,3.53,8.32-.65,14.29-7.53,12.76-14.41-1.74-7.83-9.13-12.12-17.87-10.46-5.94,1.12-10.42,4.12-14.39,7.68-6.36,5.7-11.73,11.85-12,20.1a13.27,13.27,0,0,0,2.7,9.17c.64.8,1.12,1.76,2.73,1.29.8-.23,1.56.11,1.46.95s-.87.93-1.68.94a3.83,3.83,0,0,1-3-1.75c-2.84-3.24-3.47-7-3.63-10.9A78,78,0,0,1,455.6,161c-6.07,12.7-16.49,22.08-30.52,29a91.22,91.22,0,0,1-24,7.43C398.91,197.8,396.82,197.08,394.68,197.28Z"/><path class="cls-1" d="M167.34,229.37c1.69,2.83,3.25,4.89,4.17,7.12a25.56,25.56,0,0,1,.3,18.66c-3.26,9.33-12,13.28-22.78,14.56-8.11,1-16,.08-23.23-3.63-8.48-4.35-13.32-14.48-10.46-22.35,1.15-3.18,4.2-5.17,8-5.24a7.14,7.14,0,0,1,7,4.31,4.6,4.6,0,0,1-1.44,5.21c-1.48,1.38-3.52,1.2-5.42.93a3.19,3.19,0,0,1-3.1-3c-.11-1.52.22-2.86,3.25-3.35-2.8,1.71-3.2,3.39-1.16,5a4,4,0,0,0,4.72.15c2.3-1.28,2.9-3.3,1.65-5.38-2.14-3.58-7.75-4-10.61-.79a9.21,9.21,0,0,0-2.23,4.67c-1.21,7.27,4.08,15.92,12,19.22,12.16,5.09,24,4.7,35.2-2,5.92-3.52,7.88-8.9,8.62-14.65,1.19-9.28-3.16-16.85-10.66-23.42a10.9,10.9,0,0,1-2-2.1,26.57,26.57,0,0,1,8.57,4.11c13.25,8.93,23.44,19.72,29,33.27,6.54,16.07,2.09,30.27-10.69,43.08-7.52,7.53-16.43,13.31-28.13,15.49-13.72,2.55-26.27.77-36.51-7.83-7.28-6.12-9.55-15.91-5.54-22.42,5.46-8.86,20-12,29.23-6.29,4.87,3,7.27,8.76,5.73,13.84-1.38,4.58-5.5,7.54-11.74,8.19A11.6,11.6,0,0,1,128.69,301a7,7,0,0,1-.94-8.61c1.48-2.74,5.22-4.26,9.12-3.79,3.11.38,5.59,2.57,5.93,5.25s-1.67,4.92-4.56,5.36c-3.2.48-5.12-.63-5.87-3.4.18,0,.47,0,.53.11,1.15,1.79,2.6,3.11,5.36,2.34,2.54-.71,3.43-2.34,3.23-4.39-.21-2.21-1.81-3.64-4.36-4.07s-5.18-.16-7,1.74c-2,2.11-2.65,4.48-1.42,7a9.31,9.31,0,0,0,8.42,5.4c4.91.21,8.76-1.65,11.16-5.21,4.85-7.21-1.82-16.95-12-17.59-15.48-1-25.48,10.83-19.23,22.74,4.74,9,13.68,13.55,24.88,15,17,2.18,30.08-4.19,41.18-14.16a53.23,53.23,0,0,0,11.07-14c5.9-10.69,5-21.45,0-32.16-5.31-11.29-14.3-20.37-25-28.43A12.32,12.32,0,0,0,167.34,229.37Z"/><path class="cls-1" d="M216.81,244.51c1.45.29,2.92.5,4.34.87a281.93,281.93,0,0,0,43.66,7.22c13.33,1.29,26.55,1.06,39.26-3.2,5.53-1.85,9.85-4.67,11.52-9.68,1.82-5.48-4.07-10.83-10.76-9.76-3.44.55-6.22,3.42-5.93,6.12.27,2.53,2.8,4.41,5.87,4.39a3.83,3.83,0,0,0,3.47-1.58c1-1.51.92-2.92-.78-4.06a3,3,0,0,0-3.77.14c-1.83,1.55,0,2.5,1.6,4-2.74-.65-3.74-1.68-3.23-3.41.58-1.94,2.29-2.82,4.63-2.37,2.53.49,3.78,2,3.58,4.14s-1.49,3.89-4.4,4.26c-3.54.45-6.58-.9-7.92-3.45s-.17-5.94,2.42-7.78c2.77-2,7.72-2.31,11.23-.79,3.79,1.64,6.19,5.39,5.68,8.9-.68,4.69-3.66,8.18-8.54,10.39-6.78,3.07-14.19,4.46-21.85,5.06-16.13,1.26-31.83-.91-47.45-3.89a3.68,3.68,0,0,0-2,0c3.12,1.2,6.21,2.42,9.35,3.59a140.45,140.45,0,0,1,32.93,17c12.81,9.13,13.51,24,3.27,33.68-4.86,4.61-11.71,4.78-18.53,3.41-12.76-2.57-18.13-14.06-10.48-22.29,4-4.29,11.6-5.6,17.07-2.92,5.26,2.57,7.23,7.32,5,12a9,9,0,0,1-8.31,4.62c-3.75,0-6.74-1.76-7.87-4.61-.94-2.36-.16-4.4,2-6.07a6.21,6.21,0,0,1,6.55-.67c2.56,1.06,3.15,2.92,2.37,5s-2.73,2.54-5.17,2c.1-.25.16-.5.2-.49,2.35.16,3.68-.88,4.12-2.65.35-1.42-.79-2.34-2.16-3a4.57,4.57,0,0,0-5,.71c-2.55,1.9-2.61,4.85-.16,6.85a8.25,8.25,0,0,0,10.59-.27,7.07,7.07,0,0,0,1-9.45c-2.23-3-7.41-4.85-11.76-4.1-6.91,1.2-12,8-10.33,13.73,1.83,6.09,8.41,10.56,16.29,11.08s13.55-2.46,17.22-8.49c6.55-10.76,1.42-21.28-8.22-27.91-13.19-9.08-28.31-15.34-44.05-20.69a160.17,160.17,0,0,0-16.86-5Z"/><path class="cls-1" d="M276,166c2.36-.33,3.61.65,3.8,2.33s-.83,2.83-2.75,3.18c-2.39.43-4.55,0-5.66-2-1.72-3.23.93-6.65,5.28-6.89,3.57-.2,7.45,1.81,8.32,4.85,5.15,18,2.13,42.88-20.79,56.63-17.6,10.56-37.3,14.47-58.81,11.45-16.24-2.28-30.78-8.11-44.71-15.15a27.88,27.88,0,0,0-6.67-2.93,36,36,0,0,1,6,16c.73,6.67.08,13.17-3.81,19.19a16.38,16.38,0,0,1-15.62,7.17c-2.84-.34-4.86-2.21-4.81-4.58s1.4-3.91,4.22-4.38,4.9,1.17,4.81,3.47c-.06,1.58-1.05,2.51-2.9,2.7-1.43.15-2.59-.35-3-1.56-.47-1.54.52-2.33,2.27-2.64.25,0,.45-.26,1-.59-2.58-.65-4.17.1-4.8,1.79-.75,2,.05,3.81,2.51,4.63,4.32,1.45,7.81-.44,10.86-2.54,6.22-4.26,7.71-10.31,8.11-16.56a30.84,30.84,0,0,0-8.55-24c-.39-.42-1-.91-.46-1.39.75-.68,1.33.1,1.92.39,8.24,4,16.22,8.34,24.83,11.81,14.91,6,30.43,10.16,47.13,8.81,24-1.94,44.29-9.6,55.65-28.47,7.2-12,7.89-24.8,4.54-37.79a6.75,6.75,0,0,0-6.47-5.12,5.41,5.41,0,0,0-4.9,2.06c-1.3,1.85-.65,3.45,1.44,4.61,1.58.88,3.27.77,4.19-.61C279.41,167.91,278.06,166.75,276,166Z"/><path class="cls-1" d="M102.53,67.67C90.66,66.51,84.89,62.15,82.93,52.4c-1.57-7.83-1-15.52,5.09-22.15,3-3.29,7.25-4.66,12.28-3.67,4.16.82,6.57,3.47,6.51,7s-4.08,6.31-8.37,5.5A4.26,4.26,0,0,1,94.84,36c-.39-1.35.28-2.48,1.68-3.2s3.17-1,4.36.31,1.24,2.58-.46,3.69c-.25-.19-.52-.34-.5-.39.53-1.08,1.33-2.21-.66-2.84a2.32,2.32,0,0,0-2.94,1c-.68,1.25-.07,2.26,1.2,3,2.77,1.63,7.3-.19,7.85-3.21A4.86,4.86,0,0,0,103,28.91a10.48,10.48,0,0,0-8.85-1,11.9,11.9,0,0,0-7.06,5.57c-4.62,8-5,16.17-.81,24.29,3.36,6.56,10.09,9.39,18.51,8.34.8-.1,1.64-.52,2.6.25-1,1.56-2.89,2.25-4.62,3-11.26,5-23.1,5.09-35,2.29-8.63-2-17.27-3.72-26.28-3.07-5.59.41-11.1,1.27-15.14,5C21.62,78,22.51,84.54,28.28,87.87a10.45,10.45,0,0,0,10.77-.45,5.48,5.48,0,0,0,2.09-7.25,5.26,5.26,0,0,0-4.55-3,5.85,5.85,0,0,0-5.31,1.95c-1.47,1.8-1,3.49,1,4.71A3.5,3.5,0,0,0,37.21,83a1.51,1.51,0,0,1,1-.62c-.26,1.74-1.53,2.88-3.66,3a4.41,4.41,0,0,1-4.81-2.86c-1-2.82,1-5.68,4.43-6.37,4-.81,8.25,1.52,8.87,4.88.72,3.92-1.27,7.2-5.21,8.58-4.52,1.58-10.06.58-12.94-2.34C19.69,82,21.23,74,28.23,70.49a32.4,32.4,0,0,1,13.18-3.1c9.24-.47,18.11,1,26.93,3.15,10.83,2.61,21.6,2.59,32-1.52C101.11,68.73,102,68.59,102.53,67.67Z"/><path class="cls-1" d="M434.68,227c-.82,8.94,3.65,15.84,11.41,21,14.82,9.89,32.05,13.38,50.72,10.94,10.34-1.35,17.91-7.87,19.1-15.91,1.1-7.43-2.46-13.62-9.62-18.18-7.33-4.67-15.3-5.25-23.55-1.74-4.7,2-8.36,7.68-7.42,11.9,1.05,4.73,4.45,8.05,10.17,9.39a10.69,10.69,0,0,0,8.44-1.63c1.16-.75,2.18-1.64,3.51-2.66-1.24,3.07-4.33,5-8.25,5.2-5.6.34-10.17-1.19-13.08-5.32-3.21-4.56-3.2-9.23.36-13.62,6.13-7.55,20-9.06,29.89-3.1,8.51,5.11,12.46,12.23,10.74,20.91s-8.91,13.54-18.79,15.65c-10.73,2.29-21.3.9-31.71-1.65-9.5-2.33-18.22-5.81-25-12.06-5.44-5-8.49-10.85-8.37-17.69a5.94,5.94,0,0,1,.46-2.35,2.93,2.93,0,0,1,3.66-1.88c1.34.32,1.85,1.19,1.55,2.29S437.72,227.84,434.68,227Z"/><path class="cls-1" d="M86.69,129.34c-5,3-11,3-17.47,3.95l3.87,1.48c-2,.49-3.22-.1-4.45-.3-9.65-1.58-18.36-.31-25.41,5.82-2.47,2.15-2.74,5.57-.79,7.61A5,5,0,0,0,47,149.47a3.78,3.78,0,0,0,3.36-2.56c.32-1.15-.35-2.09-1.47-2.75a2.64,2.64,0,0,0-1.34-.16c1.35.82,2.22,1.74,1.23,3.07a2.4,2.4,0,0,1-2.79.77,2.45,2.45,0,0,1-2.07-2.44,2.62,2.62,0,0,1,2.32-2.57c2.58-.61,4.93.39,5.62,2.42.77,2.29-1.27,5-4.22,5.43-2.48.37-4.85,0-6.32-1.83a6.23,6.23,0,0,1-.6-7.61c2.38-4,6.85-5.74,11.55-7.17a36.61,36.61,0,0,1,6.29-1.25,108,108,0,0,1-16.89-4.08c-7.53-2.72-10.28-10.18-5.71-15.59,3.75-4.44,11.87-4.84,15.91-.79,2,2,2.17,6.5.3,8.55-1.72,1.88-5.6,2.6-8.53,1.59a4.2,4.2,0,0,1-3.11-4.79c.14-2.09,1.69-3.28,4-3.64s4,.68,4.31,2.65c.28,1.79-.52,3.1-3.6,3,1.71-1,3.64-1.65,2.35-3.44a2.86,2.86,0,0,0-3.63-.89c-1.88.81-2.43,2.22-1.83,3.86.94,2.57,5,3.36,7.7,1.54a4.87,4.87,0,0,0,1.79-6.31c-1.35-2.56-5-4.12-8.54-3.6-4,.59-6.91,3.06-7.64,6.41a8.45,8.45,0,0,0,5.07,9.62c5.86,2.55,12.25,3.74,18.74,4.58a62.65,62.65,0,0,0,26.59-2.16A3.3,3.3,0,0,1,86.69,129.34Z"/><path class="cls-1" d="M454.31,335.05c.17-1.23,1.05-2.6-1-2.78a1.54,1.54,0,0,0-1.75,1.58c0,1.41,1,2.09,2.65,2.14a3.11,3.11,0,0,0,2.82-1.5,2.36,2.36,0,0,0-.07-3,5.54,5.54,0,0,0-6.11-1.74c-2.89,1.14-4.45,3.94-3.44,6.2,1.81,4.05,7.12,5.52,11.94,3.19,6.77-3.27,8.88-8.67,9.28-14.68.61-9.21-2.11-18-5.38-26.69-5.52-14.64-13.13-28.57-20.75-42.51-2.16-3.95-4.11-8-6.2-12,1.38-.33,1.44.39,1.64.78,6.39,12.63,14,24.81,19.85,37.63,5.08,11.16,10.24,22.31,11.88,34.26,1,7.24,1.06,14.43-4.36,20.79-2.38,2.79-5.74,4.25-9.68,4.75a9.39,9.39,0,0,1-9-3.65,5.71,5.71,0,0,1,.81-7.5c3.1-3.21,9.25-2.58,11.13,1.16.89,1.76.41,3.36-1.22,4.63a4.88,4.88,0,0,1-5.33.57,2.79,2.79,0,0,1-1.85-2.9,2.46,2.46,0,0,1,2-2.23,2.84,2.84,0,0,1,3.1.89C456,333.36,455.78,334.2,454.31,335.05Z"/><path class="cls-1" d="M120.8,47.84c.15.07.3.11.31.15.11,1.3-.2,2.94,2.31,2.7a1.92,1.92,0,0,0,1.85-2.64c-.42-1.69-2-2.35-3.89-2-2.62.5-3.59,2.14-3.36,4.24.27,2.5,3.05,5.11,6.05,5.66A8,8,0,0,0,132,53.46,22.94,22.94,0,0,0,136.14,46c1.45-3.87,3.64-7.12,9.26-7.35,5.21-.22,10.45,2.68,12.61,7a28.53,28.53,0,0,1,2.53,8.15c2.69-2.12,5.24-4.23,7.93-6.21a22.45,22.45,0,0,1,15.89-4.63c2.37.22,4.52,1,4.66,3.32a2.76,2.76,0,0,1-2.74,2.87,2.11,2.11,0,0,1-2.64-1.82c-.17-1.76,1.35-2.09,3.15-2.16-3.36-1.76-6.74-1.35-10.09-.21-6.37,2.18-11,6.05-15,10.61-.62.71-1.24,1.41-2,2.26-1.25-1-.75-2.1-.78-3.07a18.18,18.18,0,0,0-3.56-10.4c-2.14-2.93-5.45-4.21-9.37-4.52-3.61-.29-6.41,1.55-7.93,5.17-1.31,3.11-2.37,6.29-4.77,9A10.15,10.15,0,0,1,120,55.53c-3.39-2.2-4.47-6.25-2.31-8.8,1.62-1.91,3.91-2.11,6.31-1.4s3,2.23,2.61,4.09a3.2,3.2,0,0,1-3,2.43,3.31,3.31,0,0,1-3.31-1.24C119.63,49.63,119.45,48.61,120.8,47.84Z"/><path class="cls-1" d="M202.18,101c4.74-1.65,9.65-2.08,14.53-2.5,15.58-1.36,31-.9,46.23,2.6,7.66,1.77,14.66,4.55,20,9.61,3.75,3.53,6,7.6,6,12.34s-4.16,7.52-9.5,6.84c-4.44-.57-6.86-4.82-4.56-8a5.76,5.76,0,0,1,6.45-1.73c2.46.87,2.81,2.56,2.39,4.44s-2.83,2.7-4.77,1.93a2.16,2.16,0,0,1-1.51-2.43,2.07,2.07,0,0,1,1.91-1.9c2-.33,2.25,1.22,3.26,2.05.32-1.67-.6-2.77-2.55-3.13a3.53,3.53,0,0,0-4.26,2.1c-.81,2-.07,3.73,1.91,5a6,6,0,0,0,6.57-.1c3.23-1.87,4.16-5.36,2.68-9.17-2.71-7-8.94-11.22-16.51-14.17-8.64-3.36-18-4.54-27.42-5.29-13.35-1.06-26.53,0-39.71,1.56A10.55,10.55,0,0,1,202.18,101Z"/><path class="cls-1" d="M126.13,137.42c9.23-1.88,11.51-7.67,11.69-15.24a14,14,0,0,1,2.79,7.86c.89,8.29,1,16.54-3,24.44-2.48,4.94-6.44,9-11,12.69-.64.52-1.42,1.43-2.4.57-.78-.67.14-1.31.64-1.84a28.92,28.92,0,0,0,5.58-8.07c1.19-2.72,1.14-5.25-1.51-7.39-.67-.54-1.27-1-.54-1.8,3.73-3.93,3.1-7.32-1.75-10.25-.3-.18-.36-.63-.53-1Zm4.47,23.8c9.08-7.26,11-23.82,7.9-32.44a13.1,13.1,0,0,1-8,8.72c-1.52.63-1,1.28-.18,2.07,1.41,1.41,2.79,3.23,1.9,4.87-1.72,3.16-2,6-.44,9.3C132.9,156.1,131.61,158.77,130.6,161.22Z"/><path class="cls-1" d="M53.06,89.58c1.31-.11,2.27-.25,3.22-.25s2.2.15,2.62,1.17-.17,1.6-1.07,2A1.74,1.74,0,0,0,56.77,95a1.47,1.47,0,0,1-1,2,2.36,2.36,0,0,1-2.62-.5c-1-1.15-1.6-1-2.4.19a2.7,2.7,0,0,1-3,1,1.8,1.8,0,0,1-1.35-2.41c.31-1.3-.21-2.08-1.4-2.95-2.34-1.71-1.93-2.76,1.23-3.52a2.69,2.69,0,0,0,2.13-1.39c.44-.95.67-2.32,2.47-1.88a2.85,2.85,0,0,1,2.3,2.64C53.09,88.61,53.06,89,53.06,89.58Z"/><path class="cls-1" d="M301.28,185a5.6,5.6,0,0,1-1.07,3c-1,1.29-2.39,2.2-4.29,1.47s-2.13-2.28-1.21-3.63c1.11-1.62,1.29-2.53-1.26-3.18-1.39-.35-2.66-1.42-2.25-2.87s2-1.82,3.56-1.62c1.83.23,2.54-.29,2.65-1.78.09-1.25.37-2.76,2.31-2.72,2.12,0,3,1.52,3.35,3.09a2.92,2.92,0,0,1-1.45,3.35c-3.31,1.57-3.06,3.07-.37,4.82Z"/><path class="cls-1" d="M67.13,66c-2-.91-3.86-1.91-5.87-2.7a18.35,18.35,0,0,0-13.36-.57,22.54,22.54,0,0,1-10.12,1C32.22,63.1,29.11,59,30.25,54c.93-4.09,5.92-6.68,11-5.7,3.62.7,6.15,4,5.33,6.93s-3.6,4.72-7,4.13C37.36,59,35.88,57.88,35.5,56c-.33-1.6.39-2.88,2.4-3.86,0,.54.12.85,0,1-1.28,1.45-1.74,2.91,0,4.29a4.44,4.44,0,0,0,5,.28c1.92-1.05,2.89-2.65,2.27-4.61-1.16-3.66-7-5.14-10.71-2.73a6.74,6.74,0,0,0-2.72,7.76c1,2.51,3.94,4.29,7.3,4.48a25.86,25.86,0,0,0,8.81-1.23C55.6,59.16,61.86,61.41,67.13,66Z"/><path class="cls-1" d="M207.71,98.68c1.14-1.06,2.75-1.15,4.22-1.5,10.94-2.62,21.66-5.7,31.36-10.79,4.64-2.43,9.08-5.06,11.89-9.15,1.88-2.74,2.86-5.55,1.49-8.66a3.67,3.67,0,0,0-3.16-2.64c.74,1.09,1.91,2.25-.15,2.91a2,2,0,0,1-2.68-1.27c-.44-1.43.21-2.49,2.05-2.76,2.57-.37,4.41.43,5.21,2.58,1.92,5.19.21,9.66-4.11,13.51-7.37,6.57-16.91,10.24-26.76,13.34C220.82,96.21,214.47,98.07,207.71,98.68Z"/><path class="cls-1" d="M243.59,142.25c2,.54,2.77,0,2.55-2.24-.15-1.48.25-3.61,2.69-3.69,2.26-.07,3.45,1.62,4,3.34.79,2.46-.43,4.3-3.34,5.06-.55.15-.83.23-1.09.72-1.65,3.1-6.19,3.65-9.12,1.12-.91-.78-1.77-1.65-1.2-2.83a3.18,3.18,0,0,1,2.85-1.47C241.67,142.2,242.42,142.25,243.59,142.25Z"/><path class="cls-1" d="M90.92,79.44c2.87-.58,5.78-1.06,8.6-1.76a29.89,29.89,0,0,0,8-3.36,4.33,4.33,0,0,1,4.47-.19c7.71,3.81,13.55,9.19,18.6,15.23.21.25.19.64.46,1.66-6.16-4-12.61-6.16-19.25-8A79.3,79.3,0,0,0,91,80.17Zm33.83,6.18A37.54,37.54,0,0,0,110.55,75a2.19,2.19,0,0,0-1.52.08,75.4,75.4,0,0,1-10.7,4.3C107.68,80,116.23,82.62,124.75,85.61Z"/><path class="cls-1" d="M258,142.73a12.19,12.19,0,0,1,1.28,0c1.73.18,3.65.37,3.76,2.22.1,1.62-1.21,2.78-3,3-2.7.25-2.45,1.1-1.42,2.69.9,1.4,1.76,3.26-.56,4.19a4.44,4.44,0,0,1-5.63-1.86c-1-1.61-1.57-3.33,0-5a2,2,0,0,0,.51-1.2C253.26,143.52,254.34,142.71,258,142.73Z"/><path class="cls-1" d="M222.07,178c-1.62.6-3.08,1.7-5.08,1.18-1-.27-2.14-.53-2.41-1.53-.31-1.15.62-1.92,1.73-2.26,1.82-.56,2.92-1.2,2.1-3a1.6,1.6,0,0,1,1.06-2,2.92,2.92,0,0,1,3.19.64c1.34,1.3,2.43,1.9,4.35.58a2.75,2.75,0,0,1,3.42.6c.84.84.32,1.69-.27,2.45a4.4,4.4,0,0,1-5.22,1.54c-2.39-.79-3.19-.08-2.87,1.88Z"/><path class="cls-1" d="M131.17,339a20.44,20.44,0,0,1,.15-2.25c.88-4.88,5-6.68,10.12-4.18,8.63,4.24,10,11.74,5.76,17.89-1.45,2.13-3.57,2.61-6.25,1.42C134.68,349.13,131.15,345,131.17,339Zm1.24-.18c0,4.69,3.12,8.94,8.1,11.43,3.06,1.53,4.06,1.31,5.92-1.28,4-5.5,1.37-12.06-5.76-15.43-4.53-2.14-6.51-.42-8,3.17A7.58,7.58,0,0,0,132.41,338.86Z"/><path class="cls-1" d="M125.81,351a15.22,15.22,0,0,1,8.6,2c4.85,2.83,4.49,7.8-.68,10.17-6.8,3.11-15.32,1.93-19.79-2.76-2.46-2.58-2.32-4.26.65-6.41C117.74,351.74,121.48,350.9,125.81,351Zm-.35,1.16a16.57,16.57,0,0,0-8.42,1.9c-3.77,1.8-4.11,3.83-1.12,6.37,4.6,3.91,12.3,4.52,17.73,1.4,3.58-2.05,3.68-5.58.13-7.71A14.56,14.56,0,0,0,125.46,352.19Z"/><path class="cls-1" d="M160.74,356.61c4.2-1.21,7.93-3,10.65-6,1.53-1.69,3.79-3.48,2.45-5.67s-4.4-2.72-7.23-2.84c-5.51-.23-12,3.5-13.83,7.75-.87,2-.83,3.6,1.7,4.74a21.83,21.83,0,0,1,2.71,1.73c-5.47-.45-7.32-2.75-5.73-6.72,2.82-7,13.3-10.73,20.91-7.39,3.37,1.48,4.11,3.07,2.56,5.88C172.17,353.12,167.65,356.25,160.74,356.61Z"/><path class="cls-1" d="M150,372.75c.19,5.6-3.24,8.86-8.42,11.14-1.72.76-3.57.94-5-.39-3.85-3.51-3.9-7.76-3-12.06.77-3.8,3.4-6.4,7.94-7.65,2.52-.69,4.36-.25,5.81,1.59C149.17,367.74,150.32,370.27,150,372.75Zm-15.5,2.31a9.58,9.58,0,0,0,2.39,7c1.13,1.36,2.48,1.72,4.39.87,7.71-3.44,9.76-11.23,4.47-17a3.46,3.46,0,0,0-4.15-.93C136.89,366.54,134.55,369.7,134.53,375.06Z"/><path class="cls-1" d="M167.69,376.24c-8.4,0-14.77-4.21-16.2-10.45-1-4.26.73-6,5.89-6.22,6.06-.27,10.8,1.7,14.39,5.67,2.69,3,1.95,6.3,1,9.45C172.08,376.74,169.39,376.09,167.69,376.24Zm-9.1-15.53c-5.61,0-6.9,1.37-5.38,5.89,1.84,5.48,10.46,9.73,17,8.41a2.51,2.51,0,0,0,2.23-2.56C173.29,365.92,167.23,360.77,158.6,360.71Z"/><path class="cls-1" d="M301.26,184.95c.46-1.52,1.57-2.83,1.75-4.49.13-1.21,1.52-1.86,3.1-1.89s3.37,0,4.34,1.27.14,2.39-1.42,3c-1.3.49-2.25.89-1.41,2.34.71,1.23,1.14,2.75-1,3.37a3.74,3.74,0,0,1-4.46-1.82c-.35-.55-.6-1.14-.9-1.71Z"/><path class="cls-1" d="M183.22,294.94c-1.82-1.89-3.79,1.8-5.1-.11a16.75,16.75,0,0,1-2.21-4.31c-.19-.62,4.18-4,4.84-3.9,1,.14,6,3.57,5.7,3.78C184.75,291.55,186.55,294.48,183.22,294.94Z"/><path class="cls-1" d="M427.7,168.58a2,2,0,0,1,1.49.91c.27.38.53,1,.86,1.07,5.77.6,2,3.42,1.76,5.34-.11.85-6.62,1.72-6.89.95a13.72,13.72,0,0,0-2.32-4.71.22.22,0,0,1,0-.25Z"/><path class="cls-1" d="M69.43,61.9c-1.21-3.13,1-5.3,3.1-7.34A7.72,7.72,0,0,0,75,46.64c-.7-2.83-2.61-4-6.17-3.77,1.72.94,3,1.94,1.62,3.44a2.77,2.77,0,0,1-3.18.53,2.2,2.2,0,0,1-1.6-2.13A2.94,2.94,0,0,1,67.41,42,6.12,6.12,0,0,1,75,43.59a8.4,8.4,0,0,1-.3,10.55C72.44,56.52,70.29,58.87,69.43,61.9Z"/><path class="cls-1" d="M211.13,342.53c1.92,0,3.86-.11,5.76.07,2.5.23,4.15,1.56,4.59,3.56s-1.68,2.53-3.22,3.21a11.38,11.38,0,0,1-7.5.36c-3.66-.94-4-3.56-1-6.63Zm3.69,1.1a6.92,6.92,0,0,0-3.41.59c-1.06.57-2.46,1-2.41,2.27s1.24,1.81,2.37,2.34c2.42,1.15,4.61.27,6.63-.75,2.38-1.2,2.26-2.68-.1-3.86A6.76,6.76,0,0,0,214.82,343.63Z"/><path class="cls-1" d="M200.18,350c1.72-.88,3.13-2.8,5.58-1.33a6.21,6.21,0,0,1,3.27,6.53c-.3,2.24-2,3.73-4.44,4.49-1.59.49-2.55-.64-3.39-1.54-2.35-2.53-1.77-5.34-1-8.15Zm7.61,3.87c-.47-1.58-.79-3.67-3.58-4.19-1.64-.31-3.44,2-3.26,4.22.17,2,.83,4,3.48,4.58C205.94,358.83,207.84,356.24,207.79,353.89Z"/><path class="cls-1" d="M165,33.62c4.23-.7,3.28,2.51,4,3.83s-2.29,2.15-3.54,2.09c-1.43-.07-4-.52-3.69-2.52C162.05,35.5,161.25,32.68,165,33.62Z"/><path class="cls-1" d="M202.13,340a3.47,3.47,0,0,1-3.8,3.52c-3.49-.06-7.14-3.39-7.05-6.57,0-1.68.56-3.28,3.14-3.35C198.12,333.5,202.09,336.83,202.13,340Zm-1.45.15c-.11-2.22-3.67-5.26-5.94-5.26-1.7,0-2.12,1-2.07,2.16.11,2.46,3.39,5.51,5.73,5.29C200.11,342.18,200.68,341.19,200.69,340.15Z"/><path class="cls-1" d="M211.13,342.53l-1.32.57c-4.83.88-6.25-.18-5.77-4.31a6.83,6.83,0,0,1,5.3-5.77c3-.61,4.81.48,5,3S213,340.67,211.13,342.53Zm1.84-5.76c-.11-.71.2-2.22-1.53-2.71a4.21,4.21,0,0,0-4,1.29c-1.8,1.7-2.61,3.68-1.71,5.93.39,1,1.38,1,2.4.71C210.92,341.24,212.91,339.94,213,336.77Z"/><path class="cls-1" d="M200.18,350c-2.47,2.53-5.36,4.06-9.48,2.82-2.64-.8-3.37-2.19-1.87-4.1a9.76,9.76,0,0,1,6.58-3.93c3.76-.48,5.55,1.54,4.77,5.21Zm-7,2.39a7.35,7.35,0,0,0,5.43-3.36c1-1.37.38-2.35-1.39-2.86-2.91-.85-4.56.85-6.28,2.24-.89.72-1.92,1.63-1.12,2.77S191.94,352.24,193.19,352.4Z"/></svg>