<svg id="Layer_1" data-name="Layer 1" xmlns="http://www.w3.org/2000/svg" viewBox="0 0 175 226"><defs><style>.cls-1{fill:#fff;}</style></defs><title>Artboard 1</title><path class="cls-1" d="M24.4,188.7s-3.4-.5-3.1,2.9C21.4,192.1,25.4,191.7,24.4,188.7Zm-1.2-6.3s-1-3.6-4.3-1.8C18.4,180.9,20.5,184.7,23.2,182.4Zm13.7-3.1c0-.7-3.9.6-3.9,1.2.5,5-2.3,5.3-2.3,5.3l-.2.3a2.35,2.35,0,0,0,.2-.8v-.4a3.66,3.66,0,1,0-7.3-.3,3.79,3.79,0,0,0,3.5,4,3.6,3.6,0,0,0,2.2-.7l-.1.1C38.4,188.4,36.9,180.3,36.9,179.3Zm-14.1,6.2s-2.8-2.5-4.5.8C18,186.8,21.9,188.9,22.8,185.5Zm1.2-8.9s-1.7,2.7,1.4,3.7C25.9,180.4,27,176.9,24,176.6Zm66,8.9h0Zm75.1-18.4c-.2-3.3-2.2-4.2-2.2-4.8.5-11,.4-14.7-3.3-24.2a42,42,0,0,0-6-10.7c-1-1.6-7.9-12.1-31.2-31.5a150.67,150.67,0,0,0-15.6-11.6c-.6-.4-4.2-2.9-8.8-5.4,19.1-2.8,21.9-20.6,21.2-20.8s-6.6-7.5-6.6-7.5c-3.9-1.5-4.3,2.6-4.8,2.6-6.4,0-2.9,5.4-3.2,5.4-3.7-.7-4.9,1.5-5.4,2.7-1.4,3.3,1.6,5.8,1.4,6-3.6,3.6.4,5.4.9,5.8-5.3,1.2-7-2.1-7.2-2-1.2.8.3,1.8,0,1.9s-7.1-1.8-7.2-6c-.1-6,3.8-5.5,5.1-5.2,1.9.4,3.2,3.8,2.3,4.6-2.5,2.2-3.6.9-4,.2.3.4.8.1,1.1.1.6-.1.4-1.4-.5-1.6-1.1-.2-2,1-1.1,2.3.1.2,2.2,2.6,5.1-.4,2.5-2.6-1.1-6-2.2-6.2s-7.7-1.5-7.2,6.5c.4,6.4,7.8,7.4,12.3,7.5a54.06,54.06,0,0,1-6.1,1.1c-.6-.3-1.2-.5-1.8-.8,0,0-15.3-5.9-23.1,1.1s-3.8,19,6.8,14.6c.4-.2-10.5-1.3-6.8-9.1,0,0,6-11.2,16.8-.1.3.3-6.8,2-6,8.5.5,4.2,4.2,7.5,7.8,5.1,3.1-2.1.5-4.9.5-4.9-4.1-2.6-5,1.4-5.6,1-1.7-1.1,0-7.7,9.7-6.6,5.2.6,9.8,3.2,13.1,5.5-4.1-1.7-8.7-2.2-12.2,1.4-6.6,6.8.1,12.1,1.7,12.8,2.2,1,8,.6,7.9-4a4.76,4.76,0,0,0-5.1-5c-2,.6-2.2,2.4-1,3.1,1,.6,2.2-.5,1.7-1.1-.2-.3-.5-.9-1.1-.8,1-.4,3.1-.7,3.6,3.4.2,1.6-3.3,3.4-5.4,2.3-1.4-.8-5.2-3.9-.9-8.8,3.5-4,11.5-.2,11.6.1s-4.6.5-1.4,4.8c.2.2.4-7,8.5,1.5a1.09,1.09,0,0,0,.2-.4c-.9,15,14.8,11.3,14.8,11.3-10.4-.4-5.9-7.6-4.4-7.5-3.4,4.4,2.8,6.2,2.4,5.7-2.9-3.7.7-2,3.5-.5l.4.4a28.38,28.38,0,0,1,4.1,5.4c-6.7-1-13.7-.4-16.4.4-.5.1-.9.3-1.3.4a10,10,0,0,0-10.4-1.6c-1.4.6-7.1-8.6-15.3-4.3-5.1,2.7-3.6,8.6-2.7,9.9,1.9,2.9,7.2,5,7.9-.4.6-4.2-6.2-3.6-6.6-1.5s-1.5-4.5,3-6.1,8.1,3.2,7.1,6.8c-.9,3.1-4,7.2.1,10.4-5.1,8.4-3.3,15.5-2.8,16.9.7,2.5,3.6,8.1,8.4,9.1,6.8,1.3,8.6-4,9.5-5s2-7-2.4-6.8-3.5,4.5-3.5,4.5c1.1,4.2,5.1,2.2,4.9,2.6s-2.5,4.7-8.4,2.9a11.14,11.14,0,0,1-6.8-9.5c-.6-9.7,2.8-14.2,13.4-21.2s17.8-3.1,17.8-3.1c-5.8,3.7-5.7,10.8-5.7,10.8,0,8.2,10.1,11.2,9.3,10.7s-1.5-4.3-.5-3.6c.4.3,1.6.9,1.4.6a12.49,12.49,0,0,1-1-2.2c-4.6-11.7,8.2-11,8.2-11,3.1.3,6.9,4.7,6,4.8-4.7.8-7.2,5.2-6,8.4s5.8,2.9,5.3,2.7-4.5-1.4-3.1-5.5,7-2.6,8.4.2c3.2,6.5.7,9.4,0,9.1-10.7-5.4-12.3,6.2-12.5,7s.9-.7,1.3-1.4c2.7-5,6.5-3.3,7.8-2.7a5.2,5.2,0,0,1,2.2,7.5c-1.7,2.8-8.4-.4-9.7-.7-.5-.1-.3.3-.3.3,22.1,13.9,10.9,33.2,8.9,36a25.43,25.43,0,0,1-6,5.7c-.2-2.5-1.3-6.2-4.7-11.4-.4-.7,4.7,3,4.6,4.2s16.1-12.2-2.3-21.7c-.6-.3,4.4,5.9,3,5.6s-1.7.2-1.6.8c0,.1,1.3-.5,1.5,1.8,0,.4-1.3-.3-1.3.2.1,1.6,1.8,4.8.9,7.4-.2.6-5.7-6.5-8.9-7.6,0,0-.6,6.4-2.7,8.1s.7-1.4,0-2.3-2,2.5-3.4,2.7.3-6.3,2.3-8.2-7.2,3.2-8.8,2.5c-.4-.2-.2-3.1.1-3.8s-.6.3-1.5-1.3c-.2-.4,2.3-2.8,2-2.9-6.2-.9-9.5,3.8-11,7.9s-1.9,6.2-7,7.6c0,0,2.6,5.6,15.3.1.4-.2.2,0,.2,0s-1.7,5.1,6.5,5.9c4.7.4,3.7,6,3.6,6.5s7.8-3.1,7.7-11.1c0,0,.1-.3.8,1.5,1.9,4.8,1.9,7.7,1,9.6a27.75,27.75,0,0,1-15.4,2.5,53.37,53.37,0,0,1-15.7-4.5c-9.1-6.1-5.2-13-5.5-13.1-5.4-2.3-4.4,2.8-4.7,2.7s-6.5-7.5-3.2-12.3c4.1-5.9,8.4-2.7,9.6-1.4,1.8,1.9.7,6-1,6.3-4.4.6-4.7-1.7-4.6-2.8.1.7.8.8,1.1.9.8.3,1.6-1.3.7-2.1-1.1-1.1-2.9-.4-3,1.8,0,.3,1,5.3,6.6,4,4.9-1.1,3.8-7.3,2.1-9.4-1.2-1.4-8.6-7.1-14,1.7-3.9,6.3.2,13,4.1,17.3-2.3-1.5-4.3-2.9-5.8-4h.2a1.69,1.69,0,0,1-.5-.2,42.57,42.57,0,0,1-3.4-2.7c-8-5.1-6.6-9.4-5.2-10.6,1.9-1.7,6.4-.4,6.4-.4s1.2.4.8-.1c-2.8-3-4.2-2.7-6.1-2.6s-5.1.9-6.1,6.2c-.5,2.6,2.3,5.7,5.2,8.1-7.3-.1-9.7-1.7-11.4-3.3s-.4-4.6,2.3-5.2c2.2-.5,4-.1,3.7-.3a5.82,5.82,0,0,0-6.1-1.3s-4.9,2-3.4,6.8c1.6,5,10.1,4.8,10.3,4.8s0,.2,0,.2-4.4-.8-9.5,5l-.6.6c-13.7-.1-11-12.1-11.3-12a4.2,4.2,0,0,1-2.3.1c.9,10.6,7.9,12.7,12.7,12.8a24.61,24.61,0,0,1-9.5,5.8c-3.3.9-7.3-.9-7.4-1s-.2.1-.2.1c-.6,1.9,1,2.7.8,2.8-5.2,2.3-7.1-4.6-7.7-4.9s-1,1.6-1,1.6-3.2-.8-.5-5.7,8.3-3.5,8.3-3.5c4.6,1.5,1.6,6,1.6,6a4.29,4.29,0,0,0-.2-2.9c-.5-.8-1.7-.9-2.6-.8-2.2.2-1.7,3-1.6,3.4.2,1,3.1,2.6,5.2.3,3.1-3.4,0-6.8-2.5-7.5s-10.5-.4-11.2,7.8,7.9,10,7.9,10v.2a15.65,15.65,0,0,1-18.6-5.3c-.3-.4-.4,0-.4,0s-5,8.1-9.5,2.3-.4-8-.7-8.5c-.9-1.5-4.1.4-4.1.4-2.1-1.9.7-7.5,1.7-8.1,1.3-.9-2.9-1.5-2.9-1.5s3-9,11.7-9.9,10.1,7.4,10.1,7.4c.8-1.2,5.5-1.8,5.5-1.8s-.8-3.1-1.6-3.9c-8.3-9-18.8-4.5-19.3-4.3s-6.7,2-9.3,11,2.5,13.9,2.6,14.7c.1.5-1.3.4-1.2,1,.4,1.4,6.3,8.2,13.3,10.1,11.1,3.2,25.1,1,27.2.4s11.7-4.3,21.9-13.6a33.83,33.83,0,0,1,13.6-7.7c1,.7,1.8,1.1,2.1,1.4-3.3,1.7-4.6,5.2-6.1,9.9-1.8,5.5-4.6,6-6.4,6.2-2.6.3-4.5-1.6-4.2-2.7.9-3.1,4.6,0,4.6,0-.2-5-8.1-4.3-8.5.7-.1,1.5-.2,5.4,6,6.7a9.67,9.67,0,0,0,10.7-4.4c.9,5.2,11.8,9.4,16.3,3.7a5,5,0,0,0,.2-6.1c3,2.5,6.7,4.6,13,6.2,7.9,2.1,20.8,2,30.4-4.7,15.5-10.7,19-30.7,19-30.7C164,172.1,165.3,170.4,165.1,167.1ZM105.7,59.6c-.2-4.9,4-4.8,4.4-4.7,3.6.3,5.1,2.2,5.8,4.4.2.8-.1,1.3-.2,1.2-2.8-2.2-4.6-2.5-6-2.3-2.1.3-6.2,4.3-2.5,7.3,2.3,1.9,4.4-.3,4.2-.4s-2.2-.2-2.7-1.1c-.9-1.5,1.2-2.5,2-2.4,2.5.2,3.1,2.1,2.5,4.2-.1.4-2.1,2.8-2.3,2.5-.5-.7-1.8-.9-2.2-1a2.43,2.43,0,0,0-2.6,1.5c-1.2,2.1,1.7,2.6,1.4,2.4s-.6-.4,0-1.4a1,1,0,1,1,1.7.9c-.6,1.4-5.4,2.1-5.5,2-2.8-2,.2-5.4.1-5.6C100.6,60.7,105.7,59.9,105.7,59.6Zm-10,141.6c1.6.4,2.1,2.2.4,3.5s-6.1.5-7.1-1.4c-2.6-5,.7-7.5,3.8-8.7,1.8,1.8,3.4,3.5,5,5.1a5,5,0,0,0-1.3-.5c-3-.7-4.3,3.3-4.3,3.3A3.84,3.84,0,0,1,95.7,201.2ZM83.1,213.8s-1.1,3.2,2.3,3.5C85.9,217.4,86.3,213.4,83.1,213.8Zm2.5-2.1s0,3.4,3.3,2.6C89.4,214.1,88.5,210.2,85.6,211.7Zm-2.4-3.6c-3.8-2.2-5.1,1.9-5.1,1.9-.2,3.6,4.3,3.3,5.4,2.5A2.5,2.5,0,0,0,83.2,208.1Zm-3.1,6.3s-3,1.6-.8,4.2C79.6,218.9,82.7,216.3,80.1,214.4Zm-4-4.2s-2.5-2.3-4.2.6C71.7,211.2,75.2,213.3,76.1,210.2Zm-1.9,5.3c0,.5,4,.2,3.1-2.8A2.44,2.44,0,0,0,74.2,215.5Zm60.1-55.8c.4,1.6,4.1,2.2,4.4-.6.1-2.5-2.5-6.6-5.9-6.5-6.3.2-5.9,8.6-6,9.3,0,0-4.6,1.4-5,5.9-.1.7.1,3.6,8.3,4.4,1.3.1,10.4-1.2,8.6-6.9-1.3-4.1-5.9-4-6.2-4.2s-1.1-4.9,1.3-5.5a3.49,3.49,0,0,1,3.7,1.7S133.5,156.5,134.3,159.7Zm-14.1-37.8a2.31,2.31,0,1,0-2.3,2.1A2.3,2.3,0,0,0,120.2,121.9Zm-13.4,8.9a1.7,1.7,0,1,0-1.7,1.6A1.67,1.67,0,0,0,106.8,130.8ZM103,147.1a1.51,1.51,0,1,0-1.7-1.5A1.66,1.66,0,0,0,103,147.1Zm5.6-22a1.8,1.8,0,0,0,1.9,1.7,1.87,1.87,0,0,0,1.9-1.7,1.8,1.8,0,0,0-1.9-1.7A1.87,1.87,0,0,0,108.6,125.1Zm-5.1,12.4a1.6,1.6,0,1,0-1.6,1.6A1.72,1.72,0,0,0,103.5,137.5ZM85.9,57.4c.2.2,1.7-1.6,0-2.4C86,55,84.4,56.2,85.9,57.4Zm5.3-4.7a1.35,1.35,0,0,0-2.4-.4A1.49,1.49,0,0,0,91.2,52.7Zm-.3-3.2c.1-.2-1.9-1.4-2.4.4A1.47,1.47,0,0,0,90.9,49.5Zm-3.4,4.4A1.43,1.43,0,0,0,89,55.8C89.3,55.8,89.3,53.5,87.5,53.9ZM51,173.9c2.4,0-.6,2.2-1.6,2s.6,2.3,5.3,1.4c0,0,2.2-.6,2.9,5,.1,1.1,2.2-2.1,1.7-4.7-.2-.9,3.9-.8,4,2.2,0,.2,2.1-3.1-1.5-5.9-1.5-1.2-3.3,1.1-5.7-1.2s-1.6-2.1-2.2-4-6.2-2.5-7.7-1.2c-.6.5,1.1-.8,4.9,1.9s-4.1,2.3-5,2S48.6,173.9,51,173.9Zm18.2-18.1c-1.6-5.5-5.9-1.7-6.1-2-2.9-4.7-6.1-.9-6.1-.9s-3.9-1-3-.2c0,0,6.4,4.4,4,10.8-.3.3-.7.6-1,.9,1.5-2.7,2.3-6-1.4-7.5-1-.4-2.5.8-2.2,1.6,0,.1,2.5-1.1,3.8,1,.2.3-1.3-.4-2.4,1.3-.2.3,4-1.2,2.5,2.6a6.11,6.11,0,0,1-.7,1.4,3.67,3.67,0,0,0-1,1.4c0,.1-.1.3-.1.4-.4.6-.8,1.1-1.3,1.8a16.43,16.43,0,0,0,1.2-1.4c-.1.3-.1.6-.2.8l-.4.4.3-.3c-1.1,6.2,6,6,6.7,4.5,0,0,0-6.1,7.7-11,1.5-1-6.7,3.2-7.8,4.5a23.9,23.9,0,0,0,2.2-5c.1-.3-3,6-5.1,6s2.4-5.6,5.2-7.8a50.39,50.39,0,0,0-5.9,4.5,9.57,9.57,0,0,0-.7-8.6c-.1-.2,1.8-1.9,2.8-1.6a4.9,4.9,0,0,1,2.6,1.3c.2.2,2.7-.1,3.7.2a12.08,12.08,0,0,1,2.3,1.4c.3.2,2.8,1,3.8,2a25.6,25.6,0,0,1,1.6,2.5,5.34,5.34,0,0,1,1.4,3.6.1.1,0,0,1-.1.1c-1.7-.9-10.4,4-13.8,8.3,0,0,1-.9,2.5-2a25.51,25.51,0,0,0-2.4,2.3c1.2-1.1,2.3-2.1,3.3-2.9,3.5-2.4,8.3-5,8.5-.4,0,.2,1.1-2.8-.1-3.9-.2-.2,1.8-.1,2,1.6,0,.3,1-.6.6-2,1.2.2,1.7.7,1.8.5.7-3.7-3.3-4.8-3.3-5.3C75.7,154.8,69.2,155.8,69.2,155.8ZM58.3,41.2c-.3.6,4.4,2.9,5.4-1.2C63.7,40,60.3,37.1,58.3,41.2Zm-3.2-2.5s.3,0,.3-.2c0,0-5.4-5.1-3.2-10.5.4-1,.8,4.3,5.6,1.9.6-.3-5.2-.2-1.9-7.1.8-1.6-.9,3.3,4.8,4.1.3,0-3.4-3.4-1.1-6.3.7-.9,1.5,5.7,6.3,5.3.8-.1-6.6-4.8-.4-10.4.6-.5-3,3.4.7,6.6.5.4.1-6.7,8-5.8.6.1,4.5,1.4,2.3,3.8,0,0-1.1,1.4-2.9-.4-1-1-.4,4.1,3.8,5.7.4.1-2.4,2.6-3.7-1.2-.2-.5-4.3,5.7,5.9,6.8.5.1-.2,7.3-5,2.1-.6-.7.7,8.8,12.5-.6,0,0,2.3,2.2,5.5,5.1a5.6,5.6,0,0,0-1.6-.3c-7.3.1-10.8,4.1-11.5,5-1.1,1.4-3,5.2-1.5,8.3,2.1,4.4,5.7,3.3,6.6,3.4s4.6-1.6,2.7-4a2.43,2.43,0,0,0-3.9-.2c-1.9,2.3.9,3.7.6,3.8a5,5,0,0,1-4-4.1,6.4,6.4,0,0,1,4.5-6c4.6-1.5,8-1.4,10.8-.2-3.8,3.7,1.9,6.4,1.6,5.9-1-2.1-.3-3.4,1.3-2.4s3.9,4.7,4.7,6c.3.9.4,1.4.5,1.3,1.1-2.4,3.5-1.7,3.6-2.1a3.35,3.35,0,0,1,2-2.5c.5-.1,1-.1,1.3-.2h.3c.1,0,.2,0,.2-.1-3-2-25.8-24.5-28.2-28.3-3-4.8-4.6-7.5-9.7-9.8-1.2-.5-14.5-5.3-22.1,11.3a16,16,0,0,0-1.1,6.4C49.9,29.6,50.2,35.4,55.1,38.7Zm3.5-3.9s-4.2,1.6-1.7,5.3C57.3,40.6,61.7,37.7,58.6,34.8Zm-3,6.4c.5-.4-2.4-4.7-5.3-1.6C50.4,39.6,52,43.8,55.6,41.2Zm5.3,6.5c.7,0,.8-5.2-3.3-4.4C57.5,43.3,56.4,47.6,60.9,47.7Zm-4.9-5s-4.5-.5-3.8,4C52.2,47.3,57.4,46.7,56,42.7Z"/><path class="cls-1" d="M125,128.5c-1.3,6.6,5.6,10,4.9,9.6s-1-3.7-.2-3.1c.3.2,1.7.8,1.5.6a9.66,9.66,0,0,1-1.6-2.5c-3.8-9.6,10.9-10.8,10.9-10.8C140.4,121.2,127.5,115.8,125,128.5Z"/><path class="cls-1" d="M36.2,205.1c.4-.2-4.3,2.2-9.9-5.4,0,0,0,2.8-4.9,3.4C21.4,203.1,33.1,206.7,36.2,205.1Z"/><path class="cls-1" d="M132,191.8c.1-.5-1-2.3-5.5-2.8-7.7-.7-4.5-7.6-4.5-7.6a14.42,14.42,0,0,1-3.1,2.1,15.33,15.33,0,0,1-7.9.5c2.2-2.5-.4-3.6.4-6.2,1.2-3.9,3.9-6.6,9-7.2.3,0-2,2.1-1.7,2.5.5.7,1.8.7,1.5,1.4a7.77,7.77,0,0,0,.2,3.8c1.5.7,9.7-3.5,7.8-1.8s-2.7,6.7-1.6,7.4c1.8,1.2,3.2-3.4,3.8-2.6s-2.4,3.6.3,2.5c2.3-.9,3.1-7.9,3.1-7.9,3,1,7.6,7.8,8.1,7.5,2.5-1.2.2-5.9.1-7.4,0-.5.9.3,1-.1a2.44,2.44,0,0,0-1-2.8c-.1-.5-.1-.5,1.1-.2s-1.3-3.3-.7-2.9c9.8,5.7-.6,16.9-.5,15.8s-6.2-4.9-6.1-4.2a8,8,0,0,1-.5,5.7C134.6,189.8,132,192.2,132,191.8Z"/><path class="cls-1" d="M104.1,114.5s6.2-1.9,8.9.9c.4.4-1.6.1-8,5-5.4,4.1-6.1,5.5-6.4,5.2-.6-.8-2.3-2.1.9-8a2.79,2.79,0,0,0-.7-3.9c-.5-.1.7-1.7,2.3-.9A16.06,16.06,0,0,1,104.1,114.5Z"/><path class="cls-1" d="M119.5,121.7a1.61,1.61,0,1,1-1.6-1.4A1.48,1.48,0,0,1,119.5,121.7Z"/><path class="cls-1" d="M86.9,51.6a1.8,1.8,0,0,1-1.7,1.9,1.87,1.87,0,0,1-1.7-1.9,1.8,1.8,0,0,1,1.7-1.9A1.87,1.87,0,0,1,86.9,51.6Z"/><path class="cls-1" d="M93.8,119a2.4,2.4,0,1,1-2.4-2.4A2.31,2.31,0,0,1,93.8,119Z"/><path class="cls-1" d="M86.3,93.1a2.46,2.46,0,0,1-2.6,2.2,2.4,2.4,0,0,1-2.6-2.2,2.46,2.46,0,0,1,2.6-2.2A2.39,2.39,0,0,1,86.3,93.1Z"/><path class="cls-1" d="M29.1,184.9a2.57,2.57,0,0,1-2.4,2.7,2.72,2.72,0,0,1,0-5.4A2.57,2.57,0,0,1,29.1,184.9Z"/><path class="cls-1" d="M49.2,191.4a1.7,1.7,0,1,1-3.4,0,1.69,1.69,0,0,1,1.7-1.7A1.63,1.63,0,0,1,49.2,191.4Z"/><path class="cls-1" d="M113.5,146.1a2.6,2.6,0,1,1-2.6-2.5A2.56,2.56,0,0,1,113.5,146.1Z"/><ellipse class="cls-1" cx="110.3" cy="125.2" rx="1.3" ry="1.2"/><ellipse class="cls-1" cx="105" cy="130.9" rx="1.1" ry="1"/><circle class="cls-1" cx="101.6" cy="137.7" r="1.1"/><circle class="cls-1" cx="102.7" cy="145.7" r="1"/><path class="cls-1" d="M60.9,171.4s-1.4-1.6,3.5-6.5c1-1-3.5,1.6-4,2.4s1.1-1.2,1.5-2.9c0-.2-2.1,2.8-3.6,2.7s.5-3.5,2.2-5.3c.3-.3-3.6,3.7-4.1,5.1C54.4,172.7,60.4,172.5,60.9,171.4Z"/><path class="cls-1" d="M85.5,29.7c-2.5-4-3.3-4.6-5.1-8.1-1.4-2.7-3.2-1.6-3-1.5.4.2,1.9,1.3.9,2a2.09,2.09,0,0,1-2.8-.5c-.8-.8-.4,2.4,3,3.8.3.1-.8,2.5-3.6,2-.5-.1.6,1.9,5.7,3.1.4.1.5,2.5-.8,4.5-.4.7,4,.4,6.4-3.8"/><path class="cls-1" d="M55.7,43.1s-2.9-.3-2.5,2.6C53.2,46.1,56.6,45.7,55.7,43.1Z"/><path class="cls-1" d="M58.2,36.4s-2.7,1-1.1,3.4C57.3,40.2,60.1,38.3,58.2,36.4Z"/><path class="cls-1" d="M57.8,43.5a2.12,2.12,0,0,0,2.1,2.8C60.3,46.2,60.4,42.9,57.8,43.5Z"/><path class="cls-1" d="M52,40.1s1,2.6,3.2,1C55.6,40.9,53.8,38.2,52,40.1Z"/><path class="cls-1" d="M62.2,40.4s-2.2-1.8-3.4.7C58.6,41.5,61.6,43,62.2,40.4Z"/><path class="cls-1" d="M69.9,14.6c.5-.2-7.2-6.1-15.3,3.6a20.53,20.53,0,0,0-3.5,6.9,6.44,6.44,0,0,0,0,4s.1-2.5,1.3-2.8c.8-.2.6,3.2,3.4,3.5.5.1-4.6-3,.3-8.5.8-1-.2,2.3,2.9,4.4a5.13,5.13,0,0,1,.5-6.4c.5-.6,1.5,3.8,4,4.6.5.2-4.7-6.2,2.5-9.2.5-.2-1.9,3.7.1,5.7C66.6,20.9,65.7,16.7,69.9,14.6Z"/><path class="cls-1" d="M115.4,61c-2.7-2.1-4.2-2.2-5.5-2.1-1.8,0-5.4,3.2-2.6,6.2a2.53,2.53,0,0,0,2.3.3,4,4,0,0,1-1.5-1.5c-.8-1.5,1.1-3.1,2.8-2.9,1.5.2,3.3,1.4,2.8,3.4Z"/><path class="cls-1" d="M110.7,68.7a3.23,3.23,0,0,0-2.5-1c-.8,0-2.4.8-2.1,2.3.1.5.7.7.6.6a1.75,1.75,0,0,1,.1-1.2,1.62,1.62,0,0,1,1.9-.9,1.07,1.07,0,0,1,.7,1.7C109.3,70.7,110.7,68.7,110.7,68.7Z"/><path class="cls-1" d="M126.7,162.7s-4.4,1.6-4.1,5.5c.1,1.2,9.8,6.6,15.5-.4.3-.3-7,2.6-11.3.3C125.9,167.5,122.7,165.7,126.7,162.7Z"/><path class="cls-1" d="M129.5,124.9c-1.9,1.9-3.9,6.8-1.8,10.3a8,8,0,0,1-2.2-7.1c.9-5,3.9-7,7.9-7.3,3.4-.3,6.1,1.2,3.5.9C137,121.7,131.8,122.6,129.5,124.9Z"/><path class="cls-1" d="M132.6,189.1c.1-.4-1.9-.7-5.8-2.3-5.8-2.4-3.7-6.7-3.7-6.7s-.7-.3-3.1.7a7.26,7.26,0,0,1-6-.4c.8-2.3-.2-3.7-.3-5.1s3-4.6,5.2-3.8c.3.1-.9,1.3-.7,1.7.4.7,1.7.9,1.3,1.5s-.1,3.9.8,4.1c1.5.4,8.2-2.9,6.4-1.2s-1.3,6-.2,6.6c2,1.1,3.2-2.9,3.7-2.5.8.7-2.8,3.1-.1,2.5,4-.9,4.2-7.4,4.2-7.4,2.9,1,7.3,7,7.8,6.7,3.3-1.4.7-5.9.6-7.3,0-.5.7.4,1-.4a2.08,2.08,0,0,0-.8-2.6c-.1-.5,0-.3,1.2,0s-.7-2.7-.3-2.2c4.9,5.8-1.1,14.4-1.7,13.5-1.6-2.2-6.4-4.1-6.2-3.4.5,2.3.1,3.1-.7,5.2C134.2,188.9,132.5,189.6,132.6,189.1Z"/><path class="cls-1" d="M105.4,115s3.6-1.3,5.5.7c.3.3-1.1.3-5.6,3.7-3.9,2.9-4.3,3.9-4.5,3.7-.4-.6-2.3-.9,0-5.1A7.22,7.22,0,0,1,105.4,115Z"/><ellipse class="cls-1" cx="136.4" cy="158.9" rx="1.5" ry="1.4"/><path class="cls-1" d="M85,30c-2.1-3.3-2.9-3.8-4.3-6.8-.9-1.9-1.7-1.7-1.5-1.6.4.2.2,1-.5,1.4a1.68,1.68,0,0,1-1.7-.1c-.7-.6-.4.8,2.5,2,.3.1-.3,3.3-2.7,2.9-.4-.1,0,.6,4.2,1.6.4.1,1.2,2.8.1,4.5-.4.6,2.5.8,4.5-2.7"/><path class="cls-1" d="M68.3,14.1c.4-.2-7-3.3-13.2,3.8a12.92,12.92,0,0,0-3.5,7.9,2.1,2.1,0,0,1,1.1-1.4c.4-.1-.3.8,1.2,1.7.3.2-1.7-2.3,2.3-5.9.8-.7-.3-.1,1.4,1.8.1.1-.3-2.8,1.8-4,.6-.3.4,1,2.1,2.4.4.3-1.3-4.1,4.7-6.1.8-.3-.9,2.9-.3,4C66.1,18.8,66.6,14.8,68.3,14.1Z"/><path class="cls-1" d="M115,61c-2.7-1.8-3.6-1.8-5.1-1.8a3.49,3.49,0,0,0-3.1,3.8c0,.9.8,1.5.7,1.2-.1-.9-.3-1.1,0-1.9.7-1.5,1.9-1.9,3.6-1.7,1.4.2,3.1,1.5,2.6,3.2C113.6,64.4,115,61,115,61Z"/><path class="cls-1" d="M127.2,170.1s-3.7-1.7-3.9-3.2c-.1-.5.2,1.3,6.1,2.3,4.2.7,7.1-.8,7-.5-.1.7-1.9,1.5-3.7,1.8A10.89,10.89,0,0,1,127.2,170.1Z"/></svg>