<svg id="Layer_1" data-name="Layer 1" xmlns="http://www.w3.org/2000/svg" viewBox="0 0 282.88 240.54"><defs><style>.cls-1{fill:none;stroke:#377e81;stroke-miterlimit:10;stroke-width:0.75px;}.cls-2{fill:#df1174;}.cls-3{fill:#f17622;}</style></defs><title>Artboard 1</title><path class="cls-1" d="M26.39,177.09s-1-3.6-4.3-1.8C21.59,175.49,23.69,179.39,26.39,177.09Zm1.2,6.2s-3.4-.5-3.1,2.9C24.59,186.79,28.59,186.39,27.59,183.29Zm-1.6-3.1s-2.8-2.5-4.5.8C21.19,181.49,25.09,183.59,26,180.19Zm14.1-6.3c0-.7-3.9.6-3.9,1.2.5,5-2.3,5.3-2.3,5.3l-.2.3a2.35,2.35,0,0,0,.2-.8v-.4a3.66,3.66,0,1,0-3.8,3.7,4.28,4.28,0,0,0,2.2-.6l-.1.1C41.59,183.09,40.09,174.89,40.09,173.89Zm53.1,6.2h.1C93.39,180.19,93.39,180.09,93.19,180.09Zm-66-8.8s-1.7,2.7,1.4,3.7C29.09,175.09,30.19,171.49,27.19,171.29Zm141.1-9.5c-.2-3.3-2.2-4.2-2.2-4.8.5-11,.4-14.7-3.3-24.2a42,42,0,0,0-6-10.7c-1-1.6-7.9-12.1-31.2-31.5A150.67,150.67,0,0,0,110,79c-.6-.4-4.2-2.9-8.8-5.4,19.1-2.8,21.9-20.6,21.2-20.8s-6.6-7.5-6.6-7.5c-3.9-1.5-4.3,2.6-4.8,2.6-6.4,0-2.9,5.4-3.2,5.4-3.7-.7-4.9,1.5-5.4,2.7-1.4,3.3,1.6,5.8,1.4,6-3.6,3.6.4,5.4.9,5.8-5.3,1.2-7-2.1-7.2-2-1.2.8.3,1.8,0,1.9s-7.1-1.8-7.2-6c-.1-6,3.8-5.5,5.1-5.2,1.9.4,3.2,3.8,2.3,4.6-2.5,2.2-3.6.9-4,.2.3.4.8.1,1.1.1.6-.1.4-1.4-.5-1.6-1.1-.2-2,1-1.1,2.3.1.2,2.2,2.6,5.1-.4,2.5-2.6-1.1-6-2.2-6.2s-7.7-1.5-7.2,6.5c.4,6.4,7.8,7.4,12.3,7.5a54.06,54.06,0,0,1-6.1,1.1c-.6-.3-1.2-.5-1.8-.8,0,0-15.3-5.9-23.1,1.1s-3.8,19,6.8,14.6c.4-.2-10.5-1.3-6.8-9.1,0,0,6-11.2,16.8-.1.3.3-6.8,2-6,8.5.5,4.2,4.2,7.5,7.8,5.1,3.1-2.1.5-4.9.5-4.9-4.1-2.6-5,1.4-5.6,1-1.7-1.1,0-7.7,9.7-6.6,5.2.6,9.8,3.2,13.1,5.5-4.1-1.7-8.7-2.2-12.2,1.4-6.6,6.8.1,12.1,1.7,12.8,2.2,1,8,.6,7.9-4a4.76,4.76,0,0,0-5.1-5c-2,.6-2.2,2.4-1,3.1,1,.6,2.2-.5,1.7-1.1-.2-.3-.5-.9-1.1-.8,1-.4,3.1-.7,3.6,3.4.2,1.6-3.3,3.4-5.4,2.3-1.4-.8-5.2-3.9-.9-8.8,3.5-4,11.5-.2,11.6.1s-4.6.5-1.4,4.8c.2.2.4-7,8.5,1.5a1.09,1.09,0,0,0,.2-.4c-.9,15,14.8,11.3,14.8,11.3-10.4-.4-5.9-7.6-4.4-7.5-3.4,4.4,2.8,6.2,2.4,5.7-2.9-3.7.7-2,3.5-.5l.4.4a28.38,28.38,0,0,1,4.1,5.4c-6.7-1-13.7-.4-16.4.4-.5.1-.9.3-1.3.4a10,10,0,0,0-10.4-1.6c-1.4.6-7.1-8.6-15.3-4.3-5.1,2.7-3.6,8.6-2.7,9.9,1.9,2.9,7.2,5,7.9-.4.6-4.2-6.2-3.6-6.6-1.5s-1.5-4.5,3-6.1,8.1,3.2,7.1,6.8c-.9,3.1-4,7.2.1,10.4-5.1,8.4-3.3,15.5-2.8,16.9.7,2.5,3.6,8.1,8.4,9.1,6.8,1.3,8.6-4,9.5-5s2-7-2.4-6.8-3.5,4.5-3.5,4.5c1.1,4.2,5.1,2.2,4.9,2.6s-2.5,4.7-8.4,2.9a11.14,11.14,0,0,1-6.8-9.5c-.6-9.7,2.8-14.2,13.4-21.2s17.8-3.1,17.8-3.1c-5.8,3.7-5.7,10.8-5.7,10.8,0,8.2,10.1,11.2,9.3,10.7s-1.5-4.3-.5-3.6c.4.3,1.6.9,1.4.6a12.49,12.49,0,0,1-1-2.2c-4.6-11.7,8.2-11,8.2-11,3.1.3,6.9,4.7,6,4.8-4.7.8-7.2,5.2-6,8.4s5.8,2.9,5.3,2.7-4.5-1.4-3.1-5.5,7-2.6,8.4.2c3.2,6.5.7,9.4,0,9.1-10.7-5.4-12.3,6.2-12.5,7s.9-.7,1.3-1.4c2.7-5,6.5-3.3,7.8-2.7a5.2,5.2,0,0,1,2.2,7.5c-1.7,2.8-8.4-.4-9.7-.7-.5-.1-.3.3-.3.3,22.1,13.9,10.9,33.2,8.9,36a25.43,25.43,0,0,1-6,5.7c-.2-2.5-1.3-6.2-4.7-11.4-.4-.7,4.7,3,4.6,4.2s16.1-12.2-2.3-21.7c-.6-.3,4.4,5.9,3,5.6s-1.7.2-1.6.8c0,.1,1.3-.5,1.5,1.8,0,.4-1.3-.3-1.3.2.1,1.6,1.8,4.8.9,7.4-.2.6-5.7-6.5-8.9-7.6,0,0-.6,6.4-2.7,8.1s.7-1.4,0-2.3-2,2.5-3.4,2.7.3-6.3,2.3-8.2-7.2,3.2-8.8,2.5c-.4-.2-.2-3.1.1-3.8s-.6.3-1.5-1.3c-.2-.4,2.3-2.8,2-2.9-6.2-.9-9.5,3.8-11,7.9s-1.9,6.2-7,7.6c0,0,2.6,5.6,15.3.1.4-.2.2,0,.2,0s-1.7,5.1,6.5,5.9c4.7.4,3.7,6,3.6,6.5s7.8-3.1,7.7-11.1c0,0,.1-.3.8,1.5,1.9,4.8,1.9,7.7,1,9.6a27.75,27.75,0,0,1-15.4,2.5,53.37,53.37,0,0,1-15.7-4.5c-9.1-6.1-5.2-13-5.5-13.1-5.4-2.3-4.4,2.8-4.7,2.7s-6.5-7.5-3.2-12.3c4.1-5.9,8.4-2.7,9.6-1.4,1.8,1.9.7,6-1,6.3-4.4.6-4.7-1.7-4.6-2.8.1.7.8.8,1.1.9.8.3,1.6-1.3.7-2.1-1.1-1.1-2.9-.4-3,1.8,0,.3,1,5.3,6.6,4,4.9-1.1,3.8-7.3,2.1-9.4-1.2-1.4-8.6-7.1-14,1.7-3.9,6.3.2,13,4.1,17.3-2.3-1.5-4.3-2.9-5.8-4h.2a1.69,1.69,0,0,1-.5-.2,42.57,42.57,0,0,1-3.4-2.7c-8-5.1-6.6-9.4-5.2-10.6,1.9-1.7,6.4-.4,6.4-.4s1.2.4.8-.1c-2.8-3-4.2-2.7-6.1-2.6s-5.1.9-6.1,6.2c-.5,2.6,2.3,5.7,5.2,8.1-7.3-.1-9.7-1.7-11.4-3.3s-.4-4.6,2.3-5.2c2.2-.5,4-.1,3.7-.3a5.82,5.82,0,0,0-6.1-1.3s-4.9,2-3.4,6.8c1.6,5,10.1,4.8,10.3,4.8s0,.2,0,.2-4.4-.8-9.5,5l-.6.6c-13.7-.1-11-12.1-11.3-12a4.2,4.2,0,0,1-2.3.1c.9,10.6,7.9,12.7,12.7,12.8a24.61,24.61,0,0,1-9.5,5.8c-3.3.9-7.3-.9-7.4-1s-.2.1-.2.1c-.6,1.9,1,2.7.8,2.8-5.2,2.3-7.1-4.6-7.7-4.9s-1,1.6-1,1.6-3.2-.8-.5-5.7,8.3-3.5,8.3-3.5c4.6,1.5,1.6,6,1.6,6a4.29,4.29,0,0,0-.2-2.9c-.5-.8-1.7-.9-2.6-.8-2.2.2-1.7,3-1.6,3.4.2,1,3.1,2.6,5.2.3,3.1-3.4,0-6.8-2.5-7.5s-10.5-.4-11.2,7.8,7.9,10,7.9,10v.2a15.65,15.65,0,0,1-18.6-5.3c-.3-.4-.4,0-.4,0s-5,8.1-9.5,2.3-.4-8-.7-8.5c-.9-1.5-4.1.4-4.1.4-2.1-1.9.7-7.5,1.7-8.1,1.3-.9-2.9-1.5-2.9-1.5s3-9,11.7-9.9,10.1,7.4,10.1,7.4c.8-1.2,5.5-1.8,5.5-1.8s-.8-3.1-1.6-3.9c-8.3-9-18.8-4.5-19.3-4.3s-6.7,2-9.3,11,2.5,13.9,2.6,14.7c.1.5-1.3.4-1.2,1,.4,1.4,6.3,8.2,13.3,10.1,11.1,3.2,25.1,1,27.2.4s11.7-4.3,21.9-13.6a33.83,33.83,0,0,1,13.6-7.7c1,.7,1.8,1.1,2.1,1.4-3.3,1.7-4.6,5.2-6.1,9.9-1.8,5.5-4.6,6-6.4,6.2-2.6.3-4.5-1.6-4.2-2.7.9-3.1,4.6,0,4.6,0-.2-5-8.1-4.3-8.5.7-.1,1.5-.2,5.4,6,6.7a9.67,9.67,0,0,0,10.7-4.4c.9,5.2,11.8,9.4,16.3,3.7a5,5,0,0,0,.2-6.1c3,2.5,6.7,4.6,13,6.2,7.9,2.1,20.8,2,30.4-4.7,15.5-10.7,19-30.7,19-30.7C167.19,166.79,168.49,165.09,168.29,161.79Zm-59.4-107.5c-.2-4.9,4-4.8,4.4-4.7,3.6.3,5.1,2.2,5.8,4.4.2.8-.1,1.3-.2,1.2-2.8-2.2-4.6-2.5-6-2.3-2.1.3-6.2,4.3-2.5,7.3,2.3,1.9,4.4-.3,4.2-.4s-2.2-.2-2.7-1.1c-.9-1.5,1.2-2.5,2-2.4,2.5.2,3.1,2.1,2.5,4.2-.1.4-2.1,2.8-2.3,2.5-.5-.7-1.8-.9-2.2-1a2.43,2.43,0,0,0-2.6,1.5c-1.2,2.1,1.7,2.6,1.4,2.4s-.6-.4,0-1.4a1,1,0,1,1,1.7.9c-.6,1.4-5.4,2.1-5.5,2-2.8-2,.2-5.4.1-5.6C103.79,55.29,108.89,54.59,108.89,54.29Zm-10,141.6c1.6.4,2.1,2.2.4,3.5s-6.1.5-7.1-1.4c-2.6-5,.7-7.5,3.8-8.7,1.8,1.8,3.4,3.5,5,5.1a5,5,0,0,0-1.3-.5c-3-.7-4.3,3.3-4.3,3.3A3.84,3.84,0,0,1,98.89,195.89ZM83.29,209s-3,1.6-.8,4.2C82.79,213.59,85.89,210.89,83.29,209Zm-5.9,1.2c0,.5,4,.2,3.1-2.8A2.44,2.44,0,0,0,77.39,210.19Zm8.9-1.7s-1.1,3.2,2.3,3.5C89.09,212.09,89.49,208.09,86.29,208.49Zm.1-5.7c-3.8-2.2-5.1,1.9-5.1,1.9-.2,3.6,4.3,3.3,5.4,2.5A2.5,2.5,0,0,0,86.39,202.79Zm2.4,3.6s0,3.4,3.3,2.6C92.59,208.79,91.69,204.89,88.79,206.39Zm-9.5-1.5s-2.5-2.3-4.2.6C74.89,205.89,78.39,207.89,79.29,204.89Zm58.2-50.6c.4,1.6,4.1,2.2,4.4-.6.1-2.5-2.5-6.6-5.9-6.5-6.3.2-5.9,8.6-6,9.3,0,0-4.6,1.4-5,5.9-.1.7.1,3.6,8.3,4.4,1.3.1,10.4-1.2,8.6-6.9-1.3-4.1-5.9-4-6.2-4.2s-1.1-4.9,1.3-5.5a3.49,3.49,0,0,1,3.7,1.7S136.69,151.09,137.49,154.29Zm-30.8-22.2a1.6,1.6,0,1,0-1.6,1.6A1.58,1.58,0,0,0,106.69,132.09Zm3.3-6.6a1.7,1.7,0,1,0-1.7,1.6A1.67,1.67,0,0,0,110,125.49Zm13.4-8.9a2.31,2.31,0,1,0-2.3,2.1A2.38,2.38,0,0,0,123.39,116.59Zm-11.6,3.2a1.8,1.8,0,0,0,1.9,1.7,1.87,1.87,0,0,0,1.9-1.7,1.8,1.8,0,0,0-1.9-1.7A1.87,1.87,0,0,0,111.79,119.79Zm-5.6,21.9a1.51,1.51,0,1,0-1.7-1.5A1.59,1.59,0,0,0,106.19,141.69Zm-12.1-97.5c.1-.2-1.9-1.4-2.4.4A1.47,1.47,0,0,0,94.09,44.19Zm-3.4,4.3a1.43,1.43,0,0,0,1.5,1.9C92.49,50.49,92.49,48.19,90.69,48.49Zm-1.6,3.6c.2.2,1.7-1.6,0-2.4C89.19,49.69,87.59,50.89,89.09,52.09Zm5.3-4.7A1.35,1.35,0,0,0,92,47,1.49,1.49,0,0,0,94.39,47.39Zm-40.2,121.2c2.4,0-.6,2.2-1.6,2s.6,2.3,5.3,1.4c0,0,2.2-.6,2.9,5,.1,1.1,2.2-2.1,1.7-4.7-.2-.9,3.9-.8,4,2.2,0,.2,2.1-3.1-1.5-5.9-1.5-1.2-3.3,1.1-5.7-1.2s-1.6-2.1-2.2-4-6.2-2.5-7.7-1.2c-.6.5,1.1-.8,4.9,1.9s-4.1,2.3-5,2C48.39,165.59,51.79,168.59,54.19,168.59Zm18.2-18.1c-1.6-5.5-5.9-1.7-6.1-2-2.9-4.7-6.1-.9-6.1-.9s-3.9-1-3-.2c0,0,6.4,4.4,4,10.8-.3.3-.7.6-1,.9,1.5-2.7,2.3-6-1.4-7.5-1-.4-2.5.8-2.2,1.6,0,.1,2.5-1.1,3.8,1,.2.3-1.3-.4-2.4,1.3-.2.3,4-1.2,2.5,2.6a6.11,6.11,0,0,1-.7,1.4,3.67,3.67,0,0,0-1,1.4c0,.1-.1.3-.1.4-.4.6-.8,1.1-1.3,1.8a16.43,16.43,0,0,0,1.2-1.4c-.1.3-.1.6-.2.8l-.4.4.3-.3c-1.1,6.2,6,6,6.7,4.5,0,0,0-6.1,7.7-11,1.5-1-6.7,3.2-7.8,4.5a23.9,23.9,0,0,0,2.2-5c.1-.3-3,6-5.1,6s2.4-5.6,5.2-7.8a50.39,50.39,0,0,0-5.9,4.5,9.57,9.57,0,0,0-.7-8.6c-.1-.2,1.8-1.9,2.8-1.6a4.9,4.9,0,0,1,2.6,1.3c.2.2,2.7-.1,3.7.2A12.08,12.08,0,0,1,72,151c.3.2,2.8,1,3.8,2a25.6,25.6,0,0,1,1.6,2.5,5.34,5.34,0,0,1,1.4,3.6.1.1,0,0,1-.1.1c-1.7-.9-10.4,4-13.8,8.3,0,0,1-.9,2.5-2a25.51,25.51,0,0,0-2.4,2.3c1.2-1.1,2.3-2.1,3.3-2.9,3.5-2.4,8.3-5,8.5-.4,0,.2,1.1-2.8-.1-3.9-.2-.2,1.8-.1,2,1.6,0,.3,1-.6.6-2,1.2.2,1.7.7,1.8.5.7-3.7-3.3-4.8-3.3-5.3C78.89,149.49,72.39,150.49,72.39,150.49ZM58.29,33.39s.3,0,.3-.2c0,0-5.4-5.1-3.2-10.5.4-1,.8,4.3,5.6,1.9.6-.3-5.2-.2-1.9-7.1.8-1.6-.9,3.3,4.8,4.1.3,0-3.4-3.4-1.1-6.3.7-.9,1.5,5.7,6.3,5.3.8-.1-6.6-4.8-.4-10.4.6-.5-3,3.4.7,6.6.5.4.1-6.7,8-5.8.6.1,4.5,1.4,2.3,3.8,0,0-1.1,1.4-2.9-.4-1-1-.4,4.1,3.8,5.7.4.1-2.4,2.6-3.7-1.2-.2-.5-4.3,5.7,5.9,6.8.5.1-.2,7.3-5,2.1-.6-.7.7,8.8,12.5-.6,0,0,2.3,2.2,5.5,5.1a5.6,5.6,0,0,0-1.6-.3c-7.3.1-10.8,4.1-11.5,5-1.1,1.4-3,5.2-1.5,8.3,2.1,4.4,5.7,3.3,6.6,3.4s4.6-1.6,2.7-4a2.43,2.43,0,0,0-3.9-.2c-1.9,2.3.9,3.7.6,3.8a5,5,0,0,1-4-4.1,6.4,6.4,0,0,1,4.5-6c4.6-1.5,8-1.4,10.8-.2-3.8,3.7,1.9,6.4,1.6,5.9-1-2.1-.3-3.4,1.3-2.4s3.9,4.7,4.7,6c.3.9.4,1.4.5,1.3,1.1-2.4,3.5-1.7,3.6-2.1a3.35,3.35,0,0,1,2-2.5c.5-.1,1-.1,1.3-.2h.3c.1,0,.2,0,.2-.1-3-2-25.8-24.5-28.2-28.3-3-4.8-4.6-7.5-9.7-9.8-1.2-.5-14.5-5.3-22.1,11.3a16,16,0,0,0-1.1,6.4C53.09,24.29,53.39,30.09,58.29,33.39Zm3.5-3.9s-4.2,1.6-1.7,5.3C60.49,35.29,64.89,32.39,61.79,29.49Zm-2.6,7.9s-4.5-.5-3.8,4C55.39,42,60.59,41.29,59.19,37.39Zm4.9,5c.7,0,.8-5.2-3.3-4.4C60.69,38,59.59,42.29,64.09,42.39Zm-2.6-6.6c-.3.6,4.4,2.9,5.4-1.2C66.89,34.59,63.49,31.79,61.49,35.79Zm-2.7.1c.5-.4-2.4-4.7-5.3-1.6C53.59,34.29,55.19,38.39,58.79,35.89Z"/><path class="cls-2" d="M128.19,123.09c-1.3,6.6,5.6,10,4.9,9.6s-1-3.7-.2-3.1c.3.2,1.7.8,1.5.6a9.66,9.66,0,0,1-1.6-2.5c-3.8-9.6,10.9-10.8,10.9-10.8C143.59,115.89,130.69,110.49,128.19,123.09Z"/><path class="cls-2" d="M39.39,199.69c.4-.2-4.3,2.2-9.9-5.4,0,0,0,2.8-4.9,3.4C24.59,197.69,36.29,201.39,39.39,199.69Z"/><path class="cls-2" d="M135.19,186.39c.1-.5-1-2.3-5.5-2.8-7.7-.7-4.5-7.6-4.5-7.6a14.42,14.42,0,0,1-3.1,2.1,15.33,15.33,0,0,1-7.9.5c2.2-2.5-.4-3.6.4-6.2,1.2-3.9,3.9-6.6,9-7.2.3,0-2,2.1-1.7,2.5.5.7,1.8.7,1.5,1.4a7.77,7.77,0,0,0,.2,3.8c1.5.7,9.7-3.5,7.8-1.8s-2.7,6.7-1.6,7.4c1.8,1.2,3.2-3.4,3.8-2.6s-2.4,3.6.3,2.5c2.3-.9,3.1-7.9,3.1-7.9,3,1,7.6,7.8,8.1,7.5,2.5-1.2.2-5.9.1-7.4,0-.5.9.3,1-.1a2.44,2.44,0,0,0-1-2.8c-.1-.5-.1-.5,1.1-.2s-1.3-3.3-.7-2.9c9.8,5.7-.6,16.9-.5,15.8s-6.2-4.9-6.1-4.2a8,8,0,0,1-.5,5.7C137.79,184.49,135.19,186.89,135.19,186.39Z"/><path class="cls-2" d="M107.29,109.19s6.2-1.9,8.9.9c.4.4-1.6.1-8,5-5.4,4.1-6.1,5.5-6.4,5.2-.6-.8-2.3-2.1.9-8a2.79,2.79,0,0,0-.7-3.9c-.5-.1.7-1.7,2.3-.9A16.06,16.06,0,0,1,107.29,109.19Z"/><path class="cls-2" d="M122.69,116.29a1.61,1.61,0,1,1-1.6-1.4A1.63,1.63,0,0,1,122.69,116.29Z"/><path class="cls-2" d="M90.09,46.29a1.8,1.8,0,0,1-1.7,1.9,1.87,1.87,0,0,1-1.7-1.9,1.71,1.71,0,1,1,3.4,0Z"/><path class="cls-2" d="M97,113.59a2.4,2.4,0,1,1-2.4-2.4A2.43,2.43,0,0,1,97,113.59Z"/><path class="cls-2" d="M89.49,87.69a2.46,2.46,0,0,1-2.6,2.2,2.4,2.4,0,0,1-2.6-2.2,2.64,2.64,0,0,1,5.2,0Z"/><path class="cls-2" d="M32.29,179.59a2.57,2.57,0,0,1-2.4,2.7,2.72,2.72,0,0,1,0-5.4A2.51,2.51,0,0,1,32.29,179.59Z"/><path class="cls-2" d="M52.39,186a1.7,1.7,0,1,1-3.4,0,1.69,1.69,0,0,1,1.7-1.7A1.75,1.75,0,0,1,52.39,186Z"/><path class="cls-2" d="M116.69,140.79a2.6,2.6,0,1,1-2.6-2.5A2.56,2.56,0,0,1,116.69,140.79Z"/><ellipse class="cls-2" cx="113.49" cy="119.89" rx="1.3" ry="1.2"/><ellipse class="cls-2" cx="108.19" cy="125.59" rx="1.1" ry="1"/><circle class="cls-2" cx="104.79" cy="132.39" r="1.1"/><circle class="cls-2" cx="105.89" cy="140.39" r="1"/><path class="cls-2" d="M64.09,166.09s-1.4-1.6,3.5-6.5c1-1-3.5,1.6-4,2.4s1.1-1.2,1.5-2.9c0-.2-2.1,2.8-3.6,2.7s.5-3.5,2.2-5.3c.3-.3-3.6,3.7-4.1,5.1C57.59,167.29,63.59,167.19,64.09,166.09Z"/><path class="cls-2" d="M88.69,24.39c-2.5-4-3.3-4.6-5.1-8.1-1.4-2.7-3.2-1.6-3-1.5.4.2,1.9,1.3.9,2a2.09,2.09,0,0,1-2.8-.5c-.8-.8-.4,2.4,3,3.8.3.1-.8,2.5-3.6,2-.5-.1.6,1.9,5.7,3.1.4.1.5,2.5-.8,4.5-.4.7,4,.4,6.4-3.8"/><path class="cls-2" d="M58.89,37.79s-2.9-.3-2.5,2.6C56.39,40.79,59.79,40.39,58.89,37.79Z"/><path class="cls-2" d="M61.39,31.09s-2.7,1-1.1,3.4C60.49,34.79,63.29,33,61.39,31.09Z"/><path class="cls-2" d="M61,38.09a2.12,2.12,0,0,0,2.1,2.8C63.49,40.89,63.59,37.59,61,38.09Z"/><path class="cls-2" d="M55.19,34.79s1,2.6,3.2,1C58.79,35.59,57,32.89,55.19,34.79Z"/><path class="cls-2" d="M65.39,35.09s-2.2-1.8-3.4.7C61.79,36.19,64.79,37.69,65.39,35.09Z"/><path class="cls-2" d="M73.09,9.29c.5-.2-7.2-6.1-15.3,3.6a20.53,20.53,0,0,0-3.5,6.9,6.44,6.44,0,0,0,0,4s.1-2.5,1.3-2.8c.8-.2.6,3.2,3.4,3.5.5.1-4.6-3,.3-8.5.8-1-.2,2.3,2.9,4.4a5.13,5.13,0,0,1,.5-6.4c.5-.6,1.5,3.8,4,4.6.5.2-4.7-6.2,2.5-9.2.5-.2-1.9,3.7.1,5.7C69.79,15.49,68.89,11.39,73.09,9.29Z"/><path class="cls-2" d="M118.59,55.69c-2.7-2.1-4.2-2.2-5.5-2.1-1.8,0-5.4,3.2-2.6,6.2a2.53,2.53,0,0,0,2.3.3,4,4,0,0,1-1.5-1.5c-.8-1.5,1.1-3.1,2.8-2.9,1.5.2,3.3,1.4,2.8,3.4Z"/><path class="cls-2" d="M113.89,63.39a3.23,3.23,0,0,0-2.5-1c-.8,0-2.4.8-2.1,2.3.1.5.7.7.6.6a1.75,1.75,0,0,1,.1-1.2,1.62,1.62,0,0,1,1.9-.9,1.07,1.07,0,0,1,.7,1.7C112.49,65.29,113.89,63.39,113.89,63.39Z"/><path class="cls-2" d="M129.89,157.29s-4.4,1.6-4.1,5.5c.1,1.2,9.8,6.6,15.5-.4.3-.3-7,2.6-11.3.3C129.09,162.19,125.89,160.39,129.89,157.29Z"/><path class="cls-3" d="M132.69,119.59c-1.9,1.9-3.9,6.8-1.8,10.3a8,8,0,0,1-2.2-7.1c.9-5,3.9-7,7.9-7.3,3.4-.3,6.1,1.2,3.5.9C140.19,116.39,135,117.19,132.69,119.59Z"/><path class="cls-3" d="M135.79,183.79c.1-.4-1.9-.7-5.8-2.3-5.8-2.4-3.7-6.7-3.7-6.7s-.7-.3-3.1.7a7.26,7.26,0,0,1-6-.4c.8-2.3-.2-3.7-.3-5.1s3-4.6,5.2-3.8c.3.1-.9,1.3-.7,1.7.4.7,1.7.9,1.3,1.5s-.1,3.9.8,4.1c1.5.4,8.2-2.9,6.4-1.2s-1.3,6-.2,6.6c2,1.1,3.2-2.9,3.7-2.5.8.7-2.8,3.1-.1,2.5,4-.9,4.2-7.4,4.2-7.4,2.9,1,7.3,7,7.8,6.7,3.3-1.4.7-5.9.6-7.3,0-.5.7.4,1-.4a2.08,2.08,0,0,0-.8-2.6c-.1-.5,0-.3,1.2,0s-.7-2.7-.3-2.2c4.9,5.8-1.1,14.4-1.7,13.5-1.6-2.2-6.4-4.1-6.2-3.4.5,2.3.1,3.1-.7,5.2C137.39,183.59,135.69,184.29,135.79,183.79Z"/><path class="cls-3" d="M108.59,109.59s3.6-1.3,5.5.7c.3.3-1.1.3-5.6,3.7-3.9,2.9-4.3,3.9-4.5,3.7-.4-.6-2.3-.9,0-5.1C105,110.89,107.59,109.79,108.59,109.59Z"/><ellipse class="cls-3" cx="139.59" cy="153.59" rx="1.5" ry="1.4"/><path class="cls-3" d="M88.19,24.69c-2.1-3.3-2.9-3.8-4.3-6.8-.9-1.9-1.7-1.7-1.5-1.6.4.2.2,1-.5,1.4a1.68,1.68,0,0,1-1.7-.1c-.7-.6-.4.8,2.5,2,.3.1-.3,3.3-2.7,2.9-.4-.1,0,.6,4.2,1.6.4.1,1.2,2.8.1,4.5-.4.6,2.5.8,4.5-2.7"/><path class="cls-3" d="M71.49,8.79c.4-.2-7-3.3-13.2,3.8a12.92,12.92,0,0,0-3.5,7.9,2.1,2.1,0,0,1,1.1-1.4c.4-.1-.3.8,1.2,1.7.3.2-1.7-2.3,2.3-5.9.8-.7-.3-.1,1.4,1.8.1.1-.3-2.8,1.8-4,.6-.3.4,1,2.1,2.4.4.3-1.3-4.1,4.7-6.1.8-.3-.9,2.9-.3,4C69.29,13.49,69.79,9.49,71.49,8.79Z"/><path class="cls-3" d="M118.19,55.69c-2.7-1.8-3.6-1.8-5.1-1.8a3.49,3.49,0,0,0-3.1,3.8c0,.9.8,1.5.7,1.2-.1-.9-.3-1.1,0-1.9.7-1.5,1.9-1.9,3.6-1.7,1.4.2,3.1,1.5,2.6,3.2C116.79,59.09,118.19,55.69,118.19,55.69Z"/><path class="cls-3" d="M130.39,164.79s-3.7-1.7-3.9-3.2c-.1-.5.2,1.3,6.1,2.3,4.2.7,7.1-.8,7-.5-.1.7-1.9,1.5-3.7,1.8A12.14,12.14,0,0,1,130.39,164.79Z"/><path class="cls-2" d="M132.44,72.22h1.8l-3.7,8.6h-.6l-2.5-5.9-2.5,5.9h-.5l-3.8-8.6h1.8l2.2,5.1,2.2-5.1H128l2.1,5.1Z"/><path class="cls-2" d="M142.54,76.52h-5.9a2.56,2.56,0,0,0,.8,1.9,2.49,2.49,0,0,0,1.9.7,4.72,4.72,0,0,0,3-1v1.6a5.07,5.07,0,0,1-1.5.7,9,9,0,0,1-1.8.2,4.14,4.14,0,0,1-2.3-.6,4.39,4.39,0,0,1-1.4-1.6,4.34,4.34,0,0,1-.5-2.3,4.5,4.5,0,0,1,1.1-3.1,3.63,3.63,0,0,1,2.8-1.2,3.42,3.42,0,0,1,2.7,1.2,4.45,4.45,0,0,1,1,3.1v.4Zm-5.9-1h4.2a1.89,1.89,0,0,0-2-2,2.46,2.46,0,0,0-1.5.5A3.48,3.48,0,0,0,136.64,75.52Z"/><path class="cls-2" d="M154.84,75.52v3.6c0,.3.1.4.3.4a1.63,1.63,0,0,0,.9-.4v1c-.4.2-.7.4-.9.5a1.7,1.7,0,0,1-.7.1,1.25,1.25,0,0,1-1.3-.8,3.41,3.41,0,0,1-2.3.8,2.05,2.05,0,0,1-2.1-2.1,2,2,0,0,1,.6-1.4,3.66,3.66,0,0,1,1.6-1l2.1-.7v-.4a1.33,1.33,0,0,0-1.5-1.5,4,4,0,0,0-2.7,1.4v-1.8a3.3,3.3,0,0,1,2.8-1.1,3.23,3.23,0,0,1,2.2.7c.2.2.3.4.5.6s.2.5.3.8A3.48,3.48,0,0,1,154.84,75.52Zm-1.6,3.4v-2.5l-1.1.4a3.12,3.12,0,0,0-1.2.7,1.27,1.27,0,0,0-.4.9,1.61,1.61,0,0,0,.3.9,1.22,1.22,0,0,0,.9.3A1.93,1.93,0,0,0,153.24,78.92Z"/><path class="cls-2" d="M159.34,72.22v1.9l.1-.1c.8-1.3,1.6-2,2.4-2a2.93,2.93,0,0,1,2,1l-.9,1.5a2.22,2.22,0,0,0-1.6-.8,1.87,1.87,0,0,0-1.4.8,2.79,2.79,0,0,0-.6,1.8v4.4h-1.7v-8.4h1.7Z"/><path class="cls-2" d="M172.24,76.52h-5.9a2.56,2.56,0,0,0,.8,1.9,2.49,2.49,0,0,0,1.9.7,4.72,4.72,0,0,0,3-1v1.6a5.07,5.07,0,0,1-1.5.7,9,9,0,0,1-1.8.2,4.14,4.14,0,0,1-2.3-.6,4.39,4.39,0,0,1-1.4-1.6,5.56,5.56,0,0,1-.5-2.3,4.5,4.5,0,0,1,1.1-3.1,3.63,3.63,0,0,1,2.8-1.2,3.42,3.42,0,0,1,2.7,1.2,4.45,4.45,0,0,1,1,3.1v.4Zm-5.9-1h4.2a1.89,1.89,0,0,0-2-2,2.46,2.46,0,0,0-1.5.5A2.63,2.63,0,0,0,166.34,75.52Z"/><path class="cls-2" d="M184.44,72.22h1.9l-6,12.7h-1.9l2.9-6.1-3.3-6.6h1.9l2.3,4.8Z"/><path class="cls-2" d="M191.54,72.22a4.38,4.38,0,0,1,3.2,1.2,4,4,0,0,1,1.3,3.1,3.8,3.8,0,0,1-1.3,3,4.62,4.62,0,0,1-3.3,1.2,4.54,4.54,0,0,1-3.2-1.2,3.87,3.87,0,0,1-1.3-3.1,4,4,0,0,1,1.3-3.1A5.24,5.24,0,0,1,191.54,72.22Zm-.1,1.5a2.73,2.73,0,1,0,2,.8A2.79,2.79,0,0,0,191.44,73.72Z"/><path class="cls-2" d="M203.24,80.62v-1.1a4.7,4.7,0,0,1-1.2.9,3.19,3.19,0,0,1-1.4.3,2.82,2.82,0,0,1-1.5-.4,2.66,2.66,0,0,1-1-1.1,6.33,6.33,0,0,1-.3-2.3v-4.8h1.7v4.8a3.16,3.16,0,0,0,.4,1.9,1.43,1.43,0,0,0,1.3.5,2.31,2.31,0,0,0,2-1.2v-6h1.7v8.4h-1.7Z"/><path class="cls-2" d="M209,72.22v1.9l.1-.1c.8-1.3,1.6-2,2.4-2a2.93,2.93,0,0,1,2,1l-.9,1.5a2.22,2.22,0,0,0-1.6-.8,1.87,1.87,0,0,0-1.4.8,2.79,2.79,0,0,0-.6,1.8v4.4h-1.7v-8.4H209Z"/><path class="cls-2" d="M225,72.22h1.8l-3.7,8.6h-.6l-3.8-8.6h1.8l2.3,5.2Z"/><path class="cls-2" d="M228.94,68.62a1,1,0,1,1-.7.3A1.08,1.08,0,0,1,228.94,68.62Zm-.8,3.6h1.7v8.4h-1.7Z"/><path class="cls-2" d="M232.24,67.82h1.7v12.8h-1.7Z"/><path class="cls-2" d="M236.34,67.82H238v12.8h-1.7Z"/><path class="cls-2" d="M245.74,75.52v3.6c0,.3.1.4.3.4a1.63,1.63,0,0,0,.9-.4v1c-.4.2-.7.4-.9.5a1.7,1.7,0,0,1-.7.1,1.25,1.25,0,0,1-1.3-.8,3.41,3.41,0,0,1-2.3.8,2.05,2.05,0,0,1-2.1-2.1,2,2,0,0,1,.6-1.4,3.66,3.66,0,0,1,1.6-1l2.1-.7v-.4a1.33,1.33,0,0,0-1.5-1.5,4,4,0,0,0-2.7,1.4v-1.8a3.3,3.3,0,0,1,2.8-1.1,3.23,3.23,0,0,1,2.2.7c.2.2.3.4.5.6s.2.5.3.8S245.74,74.82,245.74,75.52Zm-1.6,3.4v-2.5l-1.1.4a3.12,3.12,0,0,0-1.2.7,1.27,1.27,0,0,0-.4.9,1.61,1.61,0,0,0,.3.9,1.22,1.22,0,0,0,.9.3A2.08,2.08,0,0,0,244.14,78.92Z"/><path class="cls-2" d="M248,75.12a2.39,2.39,0,0,1,1-2.1,4.55,4.55,0,0,1,2.7-.8h3.5v1.3h-1.7a2.76,2.76,0,0,1,.7.9,2.92,2.92,0,0,1,.2.9,2.2,2.2,0,0,1-.4,1.3,3.18,3.18,0,0,1-1,1,5.61,5.61,0,0,1-1.9.5c-.6.1-.9.3-.9.7a.51.51,0,0,0,.4.5,5,5,0,0,0,1.3.4,18.21,18.21,0,0,1,2,.5,1.56,1.56,0,0,1,.8.6,2,2,0,0,1,.6,1.5,2.26,2.26,0,0,1-1.1,1.9,6.36,6.36,0,0,1-5.8,0,2.26,2.26,0,0,1-1.1-1.9c0-1.1.7-1.9,2.1-2.2-.6-.4-.8-.7-.8-1.1a.75.75,0,0,1,.4-.7,2.34,2.34,0,0,1,1-.5A2.8,2.8,0,0,1,248,75.12Zm2.8,5.9a2.12,2.12,0,0,0-1.4.4.87.87,0,0,0-.5.9c0,.9.8,1.3,2.3,1.3a4,4,0,0,0,1.7-.3,1,1,0,0,0,.6-.9c0-.4-.3-.7-.8-1A3.58,3.58,0,0,0,250.84,81Zm.3-7.4a1.85,1.85,0,0,0-1.2.5,1.27,1.27,0,0,0-.5,1.1,1.7,1.7,0,1,0,2.9-1.1A1.66,1.66,0,0,0,251.14,73.62Z"/><path class="cls-2" d="M263.64,76.52h-5.9a2.56,2.56,0,0,0,.8,1.9,2.49,2.49,0,0,0,1.9.7,4.72,4.72,0,0,0,3-1v1.6a5.07,5.07,0,0,1-1.5.7,9,9,0,0,1-1.8.2,4.14,4.14,0,0,1-2.3-.6,4.39,4.39,0,0,1-1.4-1.6,5.56,5.56,0,0,1-.5-2.3A4.5,4.5,0,0,1,257,73a3.63,3.63,0,0,1,2.8-1.2,3.42,3.42,0,0,1,2.7,1.2,4.45,4.45,0,0,1,1,3.1v.4Zm-5.9-1h4.2a1.89,1.89,0,0,0-2-2,2.46,2.46,0,0,0-1.5.5A5.23,5.23,0,0,0,257.74,75.52Z"/></svg>