<svg id="Layer_1" data-name="Layer 1" xmlns="http://www.w3.org/2000/svg" viewBox="0 0 282.88 240.54"><defs><style>.cls-1{fill:#377e81;}.cls-2{fill:#df1174;}.cls-3{fill:#f17622;}</style></defs><title>Artboard 1</title><path class="cls-1" d="M26.34,177.08a4.7,4.7,0,0,0-.69-1.12,2.47,2.47,0,0,0-1-.74,2,2,0,0,0-1.2-.07,4,4,0,0,0-1.15.49l0,0h0c.21-.12.17-.21.18-.2l0,.08a1.86,1.86,0,0,0,.12.26,2.92,2.92,0,0,0,.38.52,4.23,4.23,0,0,0,1,.8,2,2,0,0,0,1.13.31A4.36,4.36,0,0,0,26.34,177.08Zm.1,0a2.46,2.46,0,0,1-1.27,1,2.34,2.34,0,0,1-1.73-.11,3.08,3.08,0,0,1-1.26-1.11,4.38,4.38,0,0,1-.39-.74,2.57,2.57,0,0,1-.13-.43,1.29,1.29,0,0,1,0-.29.55.55,0,0,1,.33-.51l0,0a4.65,4.65,0,0,1,1.43-.43,2.5,2.5,0,0,1,1.5.25,2.87,2.87,0,0,1,1.06,1A4,4,0,0,1,26.43,177.11Z"/><path class="cls-1" d="M27.55,183.33a4.42,4.42,0,0,0-1.19.16,2.27,2.27,0,0,0-1,.57,1.75,1.75,0,0,0-.49,1,3.51,3.51,0,0,0,0,1.13v0c-.07-.22-.09-.13,0-.14h.25a2.3,2.3,0,0,0,.57-.11,3.8,3.8,0,0,0,1-.49,1.76,1.76,0,0,0,.67-.82A4.11,4.11,0,0,0,27.55,183.33Zm.06-.08a2.25,2.25,0,0,1,.44,1.46,2.14,2.14,0,0,1-.74,1.47,2.79,2.79,0,0,1-1.45.65,3.66,3.66,0,0,1-.79,0,1.94,1.94,0,0,1-.43-.08,1,1,0,0,1-.26-.12.61.61,0,0,1-.28-.4h0v0a4.18,4.18,0,0,1,.17-1.36,2.26,2.26,0,0,1,.78-1.16,2.66,2.66,0,0,1,1.25-.5A3.73,3.73,0,0,1,27.62,183.26Z"/><path class="cls-1" d="M25.94,180.21a3.22,3.22,0,0,0-2.51-.63,2.14,2.14,0,0,0-1,.66,4.53,4.53,0,0,0-.36.53l-.15.3,0,.07,0,0a.17.17,0,0,0,0-.07c0-.12,0-.15,0-.13a2.38,2.38,0,0,0,1,.47,4,4,0,0,0,1.17.13,1.86,1.86,0,0,0,1-.37A4.37,4.37,0,0,0,25.94,180.21Zm.1,0a2.43,2.43,0,0,1-.43,1.5,2.26,2.26,0,0,1-1.42.89,3,3,0,0,1-1.62-.18,4.26,4.26,0,0,1-.71-.37,2.12,2.12,0,0,1-.66-.61.62.62,0,0,1-.09-.46.63.63,0,0,1,.06-.15l0,0,.05-.08.21-.31a5.17,5.17,0,0,1,.5-.59,2.47,2.47,0,0,1,2.89-.44A4.11,4.11,0,0,1,26,180.18Z"/><path class="cls-1" d="M33.91,180.44l-.18.28a0,0,0,0,1-.07,0,.05.05,0,0,1,0-.06,3.5,3.5,0,0,0,.19-.62c0-.21,0-.44,0-.66a3.66,3.66,0,0,0-.19-1.29,3.79,3.79,0,0,0-1.6-2,3.31,3.31,0,0,0-4.47,1,3.71,3.71,0,0,0,.16,4.57,3.36,3.36,0,0,0,2.06,1.14,3.72,3.72,0,0,0,2.3-.55.38.38,0,0,1,.46.59h0l-.1.1-.25-.65a10.09,10.09,0,0,0,4.3-.75,5.13,5.13,0,0,0,2.72-3.06,9.29,9.29,0,0,0,.42-2.11,19.31,19.31,0,0,0,0-2.23v-.24c0-.06,0,.07,0,.09.13.23.2.16.14.16a1.67,1.67,0,0,0-.44,0,7.08,7.08,0,0,0-1.06.23,10.26,10.26,0,0,0-1,.34,4.4,4.4,0,0,0-.48.22l-.2.13c-.06,0-.07.1-.06,0v0a13.34,13.34,0,0,1,0,1.62,6.48,6.48,0,0,1-.34,1.59,3.66,3.66,0,0,1-.8,1.4A2.5,2.5,0,0,1,33.91,180.44Zm-.05-.09a2.8,2.8,0,0,0,2-2.16,6.14,6.14,0,0,0,.17-1.53,12.48,12.48,0,0,0-.13-1.54h0v0a.67.67,0,0,1,.24-.47,2.14,2.14,0,0,1,.27-.21,5,5,0,0,1,.53-.32,9,9,0,0,1,1.1-.48,7.91,7.91,0,0,1,1.18-.32,2.47,2.47,0,0,1,.71,0,.71.71,0,0,1,.61.43,1,1,0,0,1,0,.23v.19a10.58,10.58,0,0,1-.39,4.75,6,6,0,0,1-3.31,3.54,11.11,11.11,0,0,1-4.71.69.38.38,0,0,1-.37-.39.38.38,0,0,1,.12-.26l.1-.1.46.6a4.43,4.43,0,0,1-2.78.58,4,4,0,0,1-2.44-1.42,4.22,4.22,0,0,1-.06-5.25,3.8,3.8,0,0,1,2.33-1.43,3.65,3.65,0,0,1,2.63.56,4.19,4.19,0,0,1,1.58,4.75l-.09,0Z"/><path class="cls-1" d="M93.19,180s.07,0,.1-.2l.18.07h0s.07,0,0-.11,0,0,0,0l-.05,0a.37.37,0,0,0-.33.11.4.4,0,0,0-.09.4l0,.07a.46.46,0,0,0,.06.09l0,.05a.25.25,0,0,1,0,.1s0,.05.05-.07a.92.92,0,0,0,0-.36Zm0,0s.06-.22.12-.36.12-.1.18,0l.1.13.05.06a.53.53,0,0,1,.07.1l0,.07a.41.41,0,0,1-.09.41.38.38,0,0,1-.34.11l-.06,0-.06,0a.23.23,0,0,1-.06-.19h0l.17.07c0-.19-.07-.21-.1-.2Z"/><path class="cls-1" d="M27.21,171.34a4,4,0,0,0-.29,1.08,2,2,0,0,0,.15,1.05,1.66,1.66,0,0,0,.66.75,3.47,3.47,0,0,0,1,.41h0c-.27,0-.17.05-.17,0a1.26,1.26,0,0,0,.08-.21,2.48,2.48,0,0,0,.1-.52,3.82,3.82,0,0,0-.06-1,1.65,1.65,0,0,0-.43-.85,1.91,1.91,0,0,0-.44-.33A3.72,3.72,0,0,0,27.21,171.34Zm0-.09a2.39,2.39,0,0,1,.71-.07l.36.05c.12,0,.23.09.35.13a2,2,0,0,1,1,1.17,2.61,2.61,0,0,1,0,1.48,4,4,0,0,1-.25.69,2,2,0,0,1-.21.35.85.85,0,0,1-.19.19.62.62,0,0,1-.47.13h0a4.15,4.15,0,0,1-1.12-.64,2.18,2.18,0,0,1-.74-1.09,2.38,2.38,0,0,1,0-1.27A3.37,3.37,0,0,1,27.16,171.25Z"/><path class="cls-1" d="M101.14,73.59c.92-.2,1.77-.32,2.63-.53s1.7-.44,2.53-.72a25.08,25.08,0,0,0,4.78-2.18A23.69,23.69,0,0,0,118.64,63a25.14,25.14,0,0,0,2.47-4.63,17.28,17.28,0,0,0,1.31-5.06c0-.21,0-.47-.17-.52a3.48,3.48,0,0,1-.51-.44c-.31-.31-.61-.63-.91-1-.59-.65-1.16-1.32-1.73-2q-1.71-2-3.36-4.06l0,0A4.21,4.21,0,0,0,114,45a2.42,2.42,0,0,0-1.58.71,5,5,0,0,0-1,1.49l-.2.41a1.25,1.25,0,0,1-.13.2.27.27,0,0,1-.24.11c-.3,0-.6,0-.9,0a4.6,4.6,0,0,0-1.71.47,2.09,2.09,0,0,0-1.07,1.33,3.68,3.68,0,0,0,.06,1.76,8.32,8.32,0,0,0,.27.86l.16.42.08.21s0,.07,0,.11a.32.32,0,0,1,0,.07s0,.07-.08.12h0a5.85,5.85,0,0,0-2.51,0,3.7,3.7,0,0,0-2.07,1.33,5.66,5.66,0,0,0-1,2.27,4.57,4.57,0,0,0,.23,2.47,8.59,8.59,0,0,0,1.28,2.18,1.67,1.67,0,0,1,.18.28.14.14,0,0,1,0,.14l-.05.06-.11.12-.42.47a5.54,5.54,0,0,0-.65,1.07,2.36,2.36,0,0,0,.21,2.36,6.29,6.29,0,0,0,1.92,1.62.06.06,0,0,1,0,.09l0,0h0a8.63,8.63,0,0,1-3.94.06,5.9,5.9,0,0,1-1.82-.79,6.07,6.07,0,0,1-.78-.62l-.35-.35L97.63,66c0-.05-.17-.13-.11-.13h0a.82.82,0,0,0-.44.75,2,2,0,0,0,.42.84.7.7,0,0,1,.07.12.14.14,0,0,1-.05.19.71.71,0,0,1-.28,0c-.17,0-.32-.08-.49-.12q-.48-.14-.94-.31a12.68,12.68,0,0,1-3.46-1.9,5.16,5.16,0,0,1-2.08-3.29,7.89,7.89,0,0,1,.56-3.9,3.4,3.4,0,0,1,1.33-1.47,3.75,3.75,0,0,1,1.92-.48,4.36,4.36,0,0,1,1.95.4,3.88,3.88,0,0,1,1.37,1.44A4.69,4.69,0,0,1,98,60a1.62,1.62,0,0,1-.17,1,3.85,3.85,0,0,1-.76.66,3.36,3.36,0,0,1-1.84.74,1.87,1.87,0,0,1-1.63-1.06.07.07,0,0,1,0-.1.08.08,0,0,1,.1,0,.46.46,0,0,0,.45.17c.19,0,.36-.09.59-.1h0a.41.41,0,0,0,.28-.45,1.11,1.11,0,0,0-.2-.6,1,1,0,0,0-1.14-.37,1.15,1.15,0,0,0-.8.92,1.72,1.72,0,0,0,.33,1.24h0a2.83,2.83,0,0,0,2.17,1.05,3.75,3.75,0,0,0,2.28-1A3.35,3.35,0,0,0,99,60.05a3.63,3.63,0,0,0-.62-2.4,6.09,6.09,0,0,0-1.76-1.81,2,2,0,0,0-.56-.26c-.21,0-.42-.08-.63-.11a9.44,9.44,0,0,0-1.28-.09,4.83,4.83,0,0,0-4.37,2.09,8.16,8.16,0,0,0-.79,5,6.29,6.29,0,0,0,2.4,4.34,11.32,11.32,0,0,0,4.65,2.06,25.85,25.85,0,0,0,5.11.58.08.08,0,0,1,.08.09.09.09,0,0,1-.06.08,51.85,51.85,0,0,1-6.11,1.1H95l-1.8-.8h0a38.82,38.82,0,0,0-12-2.3,22.38,22.38,0,0,0-6,.71A13.7,13.7,0,0,0,70,71.23a11.91,11.91,0,0,0-3.27,5.06,9.13,9.13,0,0,0,0,6,6.13,6.13,0,0,0,4.3,3.9,9.8,9.8,0,0,0,5.93-.73h0s-.05.12,0,.13h0l0,0-.11,0-.23-.06-.47-.12-.94-.26a15.24,15.24,0,0,1-1.83-.68A7.6,7.6,0,0,1,70.17,82a4.67,4.67,0,0,1-.74-3.78,8.3,8.3,0,0,1,.63-1.86,10.83,10.83,0,0,1,1.11-1.62,8.77,8.77,0,0,1,6.74-3.48,3.65,3.65,0,0,1,1,.08c.32.05.65.09,1,.16a18.36,18.36,0,0,1,1.84.68c.57.32,1.17.59,1.71,1L85,74.32c.49.42,1,.88,1.44,1.32l.36.33.18.17.09.08c.1.19-.05.22-.06.25-.3.19-.59.3-.88.46A11.38,11.38,0,0,0,83,79.1a6.62,6.62,0,0,0-1.8,3.31,7.9,7.9,0,0,0,.23,3.79,7.13,7.13,0,0,0,2,3.21,4.27,4.27,0,0,0,3.48,1.14,4.39,4.39,0,0,0,3-2,3.17,3.17,0,0,0-.72-3.45l0,0a5.55,5.55,0,0,0-2-.83,2.51,2.51,0,0,0-2,.49,4.78,4.78,0,0,0-.76.76c-.12.14-.23.28-.37.42a.69.69,0,0,1-.27.19.28.28,0,0,1-.22,0,.83.83,0,0,1-.12-.1,2.2,2.2,0,0,1-.43-2.18,5.62,5.62,0,0,1,2.77-3.39,10.45,10.45,0,0,1,4.25-1.23,20,20,0,0,1,4.42.24A24.13,24.13,0,0,1,98.8,80.6a35.36,35.36,0,0,1,7.77,4.18.13.13,0,0,1-.13.23,15.45,15.45,0,0,0-5.64-1.28A8.44,8.44,0,0,0,95.4,85.5,10.85,10.85,0,0,0,92,90.07a6.52,6.52,0,0,0-.34,2.83,6.82,6.82,0,0,0,.93,2.7,9.74,9.74,0,0,0,1.84,2.21,5.48,5.48,0,0,0,2.45,1.41,6.92,6.92,0,0,0,5.48-1,3.53,3.53,0,0,0,1.35-2.39,6.12,6.12,0,0,0-.37-2.81,4,4,0,0,0-1.79-2.11,5.38,5.38,0,0,0-2.74-.66h0a2.55,2.55,0,0,0-1.34.87,1.3,1.3,0,0,0-.12,1.45,1.21,1.21,0,0,0,1.28.61c.47-.09,1-.64.71-1h0c-.25-.42-.54-.81-.94-.73a.16.16,0,0,1-.09-.31h0a2.43,2.43,0,0,1,2.28.12,3.43,3.43,0,0,1,1.24,1.92,7.76,7.76,0,0,1,.25,1.1,1.78,1.78,0,0,1-.09,1.18A3.62,3.62,0,0,1,100.28,97a5.18,5.18,0,0,1-2.22.52,3.73,3.73,0,0,1-1.15-.17,4,4,0,0,1-1-.56A5.5,5.5,0,0,1,93.55,93a5.37,5.37,0,0,1,.33-2.26,8.63,8.63,0,0,1,1.12-2,6.22,6.22,0,0,1,1.61-1.59l.49-.3.53-.21a5.56,5.56,0,0,1,1.09-.32,10.93,10.93,0,0,1,4.47.2,17.78,17.78,0,0,1,2.15.63c.35.13.7.26,1,.42.17.07.34.16.51.24l.25.14.13.08a.88.88,0,0,1,.17.18l0,0c.1.28-.1.31-.11.33l-.12.06-.2.07-.38.13a4.56,4.56,0,0,0-.71.32,1.76,1.76,0,0,0-.92,1.08,2.37,2.37,0,0,0,.22,1.45A7.22,7.22,0,0,0,106,93l0,0a.18.18,0,0,0-.25,0l0,0v0l0-.08,0-.17.1-.35a4.87,4.87,0,0,1,.26-.7,2.54,2.54,0,0,1,1-1.16,2.24,2.24,0,0,1,1.51-.23,4.84,4.84,0,0,1,1.4.5,12.87,12.87,0,0,1,2.37,1.67c.73.63,1.42,1.3,2.08,2h-.28a.83.83,0,0,0,.08-.14,1.69,1.69,0,0,0,.07-.19.19.19,0,0,1,.38.07,14.72,14.72,0,0,0,.6,5.47,8,8,0,0,0,3.24,4.28,11.28,11.28,0,0,0,5.2,1.66,19.33,19.33,0,0,0,5.52-.33l0,.41a15.58,15.58,0,0,1-3.28-.45,5.5,5.5,0,0,1-2.89-1.68,3.43,3.43,0,0,1-.47-3.29,5,5,0,0,1,.79-1.5,3.64,3.64,0,0,1,.6-.63,1.41,1.41,0,0,1,.88-.38.2.2,0,0,1,.16.33h0a3.3,3.3,0,0,0-.77,3.33,4.23,4.23,0,0,0,2.8,2.1s.18,0,.09,0c-.21.25,0,.28-.09.22l-.07-.1-.29-.39a6.44,6.44,0,0,1-.53-.84,1.94,1.94,0,0,1-.19-.51.69.69,0,0,1,0-.34.5.5,0,0,1,.27-.31,1.76,1.76,0,0,1,1.09.07A22.7,22.7,0,0,1,131,103l.05,0a32.81,32.81,0,0,1,2.45,2.78,26.75,26.75,0,0,1,2.08,3.06.23.23,0,0,1-.07.31.24.24,0,0,1-.15,0,51.4,51.4,0,0,0-8.19-.51c-1.37,0-2.74.09-4.1.23a24,24,0,0,0-4,.68h0c-.42.08-.81.27-1.29.4a.23.23,0,0,1-.2,0h0a11.12,11.12,0,0,0-5-2.27,8.84,8.84,0,0,0-2.77,0,10.08,10.08,0,0,0-1.35.33,6.45,6.45,0,0,0-.66.24l-.33.13a.8.8,0,0,1-.52,0,4.77,4.77,0,0,1-1.27-.82l-1.1-.91a25.79,25.79,0,0,0-2.26-1.7,11.08,11.08,0,0,0-5.17-2,8.91,8.91,0,0,0-5.31,1.31,6.18,6.18,0,0,0-3,4.37,8.14,8.14,0,0,0,0,2.76,5.5,5.5,0,0,0,1,2.52,7,7,0,0,0,2.07,1.79,4.64,4.64,0,0,0,2.58.7,2.45,2.45,0,0,0,2-1.39,4.63,4.63,0,0,0,.42-1.28,3.08,3.08,0,0,0,.09-.67,2,2,0,0,0,0-.65,2.19,2.19,0,0,0-1.68-1.75,5.19,5.19,0,0,0-2.68,0,3.41,3.41,0,0,0-1.2.55,1.52,1.52,0,0,0-.41.44c0,.09-.06.17-.1.26a1.41,1.41,0,0,1-.14.43l0,.07a.48.48,0,0,1-.14.1.34.34,0,0,1-.24,0,.31.31,0,0,1-.12-.09.65.65,0,0,1-.13-.26,2.29,2.29,0,0,1-.08-.4,5.49,5.49,0,0,1,0-.75,7.54,7.54,0,0,1,.2-1.47,6.09,6.09,0,0,1,1.33-2.64A4.9,4.9,0,0,1,94,105.41a5.22,5.22,0,0,1,3,.06,5.78,5.78,0,0,1,2.47,1.63,6.12,6.12,0,0,1,1.52,5.54c-.57,1.87-1.53,3.54-1.86,5.37a4.8,4.8,0,0,0,.2,2.66,5.32,5.32,0,0,0,1.66,2.11.28.28,0,0,1,.06.35A26.6,26.6,0,0,0,99.09,127a21.12,21.12,0,0,0-1.2,4.18,20.43,20.43,0,0,0-.33,4.33,15.41,15.41,0,0,0,.69,4.25v0a16.38,16.38,0,0,0,2.62,5,10.64,10.64,0,0,0,4.36,3.5,8.2,8.2,0,0,0,2.74.55,7.57,7.57,0,0,0,2.76-.33A7.67,7.67,0,0,0,114.9,145a13.61,13.61,0,0,1,.82-1.23,3.81,3.81,0,0,0,.49-1.23,6.81,6.81,0,0,0,.12-2.76,2.61,2.61,0,0,0-1.44-2.06,4.08,4.08,0,0,0-2.65,0,2.72,2.72,0,0,0-1.83,1.76,4.09,4.09,0,0,0,0,2.66,2.85,2.85,0,0,0,1.74,1.87,3.53,3.53,0,0,0,1.33.15,6.43,6.43,0,0,0,.69-.08l.35-.06.2,0h.15l.08,0h0a.34.34,0,0,1,.1.08.31.31,0,0,1,0,.36l0-.07a4.83,4.83,0,0,1-1.32,1.84,6.2,6.2,0,0,1-1.85,1.19,7.6,7.6,0,0,1-4.31.39c-.36,0-.71-.17-1.06-.25a4.44,4.44,0,0,1-1-.42,11.62,11.62,0,0,1-1.82-1.17,11.14,11.14,0,0,1-4.28-7.28,25.45,25.45,0,0,1-.15-4.27,16.57,16.57,0,0,1,2.39-8.15,25.44,25.44,0,0,1,5.84-6.18c1.11-.88,2.26-1.71,3.41-2.52l1.76-1.19c.6-.38,1.21-.74,1.82-1.11a23.77,23.77,0,0,1,8-3,16.43,16.43,0,0,1,4.28-.2,12,12,0,0,1,4.19,1.06.3.3,0,0,1,0,.52h0a12.27,12.27,0,0,0-5.24,7.95,10.25,10.25,0,0,0,0,4.82,9.73,9.73,0,0,0,2.33,4.2,14.83,14.83,0,0,0,3.88,3,13.54,13.54,0,0,0,2.24,1l.26.07s0,0,0,0a.3.3,0,0,0-.16.08c-.19.18,0,.48,0,.4l0,.05a1.14,1.14,0,0,1-.17-.14,2.18,2.18,0,0,1-.4-.61,6.36,6.36,0,0,1-.41-1.25,5.84,5.84,0,0,1-.16-1.31,1.13,1.13,0,0,1,.26-.82.5.5,0,0,1,.38-.12.64.64,0,0,1,.27.09l.27.18a5.05,5.05,0,0,0,1,.49h0a.25.25,0,0,0-.19.09.27.27,0,0,0-.07.21V132a.14.14,0,0,0,0,0l-.09-.15-.16-.3c-.1-.2-.18-.39-.27-.58a17,17,0,0,1-1.46-4.87,6.36,6.36,0,0,1,1.27-5,8.11,8.11,0,0,1,4.49-2.48,14.87,14.87,0,0,1,2.53-.35,9.32,9.32,0,0,1,1.3,0,5.27,5.27,0,0,1,1.29.35,11.7,11.7,0,0,1,4.11,3,5.67,5.67,0,0,1,.78,1.08,1.19,1.19,0,0,1,.13.41.48.48,0,0,1-.13.4.59.59,0,0,1-.33.15L148,124a7.64,7.64,0,0,0-2.2.94,6.85,6.85,0,0,0-2.92,3.67,4.44,4.44,0,0,0,.73,4.38,4.54,4.54,0,0,0,2,1.17,6.45,6.45,0,0,0,1.17.24,5.74,5.74,0,0,0,.59,0h.28l.11,0s0,0,0,0a.25.25,0,0,0-.08.09.32.32,0,0,0,0,.35.21.21,0,0,0,.11.08h0l-.08,0c-.23-.12-.69-.31-1-.5a6,6,0,0,1-1-.7,3.78,3.78,0,0,1-1.35-2.18,4.89,4.89,0,0,1,.24-2.54,4.2,4.2,0,0,1,1.57-2c3.12-1.85,7.29.44,8.06,3.68a12,12,0,0,1,1,4.8,5.3,5.3,0,0,1-.64,2.46,2.6,2.6,0,0,1-.43.54,1.06,1.06,0,0,1-.78.35,1.15,1.15,0,0,1-.39-.12l-.27-.12-.54-.23a9.32,9.32,0,0,0-4.49-.91,5.68,5.68,0,0,0-3.92,2,10.93,10.93,0,0,0-2.13,4.09c-.11.38-.21.75-.3,1.14l-.12.58-.06.31s0,.09,0,0,.06,0-.12-.19a.39.39,0,0,0-.18-.06.25.25,0,0,0-.1,0,2.88,2.88,0,0,0,.3-.33c.12-.15.23-.3.34-.46.23-.33.41-.63.63-1a8.39,8.39,0,0,1,1.53-2,5.2,5.2,0,0,1,2.23-1.22,5.28,5.28,0,0,1,2.53,0,8.71,8.71,0,0,1,2.32.93,5.57,5.57,0,0,1,2.29,6.69,5,5,0,0,1-.6,1.13,2.51,2.51,0,0,1-1.06.85,5.09,5.09,0,0,1-2.53.28,15.34,15.34,0,0,1-2.41-.48c-.78-.22-1.55-.48-2.3-.75l-1.12-.4-.53-.17s-.14,0,0,0a.21.21,0,0,0,.08-.16h0l-.13-.14a34,34,0,0,1,9.39,8.47,21.81,21.81,0,0,1,4.25,11.87,26.78,26.78,0,0,1-2.52,12.38,19.89,19.89,0,0,1-3.41,5.39,27.29,27.29,0,0,1-4.79,4.19.36.36,0,0,1-.51-.09.38.38,0,0,1-.06-.18,19.38,19.38,0,0,0-2-6.54c-.5-1-1.05-2.05-1.64-3-.29-.5-.6-1-.92-1.48,0-.08-.06-.09-.13-.22l0-.09v0a.42.42,0,0,1,0-.18.37.37,0,0,1,.21-.24.48.48,0,0,1,.22,0,.83.83,0,0,1,.2.06,3.36,3.36,0,0,1,.44.24c.26.16.5.33.74.51a19,19,0,0,1,2.69,2.34,5.3,5.3,0,0,1,.58.75,1.76,1.76,0,0,1,.22.51.64.64,0,0,1,0,.17v.1a.24.24,0,0,0,0-.15c-.17-.23-.29-.14-.28-.16h0a6.25,6.25,0,0,0,1.29-1,16.21,16.21,0,0,0,3.93-5.53,9.29,9.29,0,0,0,.39-6.57,11.8,11.8,0,0,0-4-5.35,23.06,23.06,0,0,0-2.85-1.93c-.25-.14-.5-.29-.75-.42l-.38-.2-.1-.05,0,0h0a.29.29,0,0,0,.18,0l.09,0a.34.34,0,0,0,.22-.37h0a.08.08,0,0,0,0,0l0,.07c.27.45.63.95,1,1.42.66,1,1.34,1.91,1.94,3a3.14,3.14,0,0,1,.38.94.62.62,0,0,1,0,.22.65.65,0,0,1,0,.14.67.67,0,0,1-.13.18.56.56,0,0,1-.33.14l-.21,0-.39-.07a1.12,1.12,0,0,0-.62.07c-.11.07-.15.16-.12.37v.06a.36.36,0,0,0-.11-.27.38.38,0,0,0-.19-.09h0s0,0,0,0h.3a1.34,1.34,0,0,1,1.12.69,3.45,3.45,0,0,1,.41,1.45h0v0a.52.52,0,0,1-.11.31.62.62,0,0,1-.14.12l-.11,0a.78.78,0,0,1-.3,0,3.1,3.1,0,0,1-.37-.06l-.29-.05c-.08,0-.17,0-.08,0s.12-.13.1-.17v.11a2.34,2.34,0,0,0,0,.29c0,.2.09.4.14.61.22.82.49,1.66.69,2.53a8.92,8.92,0,0,1,.25,2.7,5.8,5.8,0,0,1-.1.69c0,.12-.06.23-.09.34l0,.17a.61.61,0,0,1,0,.12.49.49,0,0,1-.27.23.56.56,0,0,1-.19,0,1,1,0,0,1-.47-.25l-.26-.23-.48-.47c-1.23-1.25-2.4-2.53-3.65-3.72a14.2,14.2,0,0,0-4-3l.51-.33a25.39,25.39,0,0,1-1.23,5.74,6.37,6.37,0,0,1-1.6,2.62,6.53,6.53,0,0,1-.62.46.85.85,0,0,1-.32.13.41.41,0,0,1-.31-.07.42.42,0,0,1-.19-.33.64.64,0,0,1,0-.23,2.78,2.78,0,0,1,.17-.39,11,11,0,0,0,.6-1.26,1.5,1.5,0,0,0,.11-.55c0-.13-.09-.13,0-.11a1.19,1.19,0,0,0-.35.3c-.15.16-.29.35-.44.53-.29.38-.59.77-.94,1.15a3.81,3.81,0,0,1-.6.53,1.58,1.58,0,0,1-.91.33.73.73,0,0,1-.6-.42,1.58,1.58,0,0,1-.14-.47,3.89,3.89,0,0,1,0-.8,10.11,10.11,0,0,1,.23-1.49,17.52,17.52,0,0,1,.89-2.82,9.77,9.77,0,0,1,1.5-2.61c.17-.2.4-.4.44-.47s0,0,0,.15a.34.34,0,0,0,.15.25.3.3,0,0,0,.11.05c.06,0,0,0,0,0l-.3.08c-.43.15-.88.33-1.32.51-1.78.73-3.53,1.55-5.43,2.12a5.43,5.43,0,0,1-1.54.26,1.16,1.16,0,0,1-.53-.12.76.76,0,0,1-.21-.2l-.07-.14a1.39,1.39,0,0,1-.07-.24,4.67,4.67,0,0,1-.07-.79,12.22,12.22,0,0,1,.07-1.49,5.24,5.24,0,0,1,.33-1.52s0-.11,0,.07a.31.31,0,0,0,.12.18l.09,0s0,0,0,0a2.35,2.35,0,0,1-.42,0,1.69,1.69,0,0,1-.82-.44,2.89,2.89,0,0,1-.52-.67.59.59,0,0,1-.07-.3.74.74,0,0,1,0-.19,1.58,1.58,0,0,1,.11-.23,3.8,3.8,0,0,1,.22-.34c.3-.41.62-.78.93-1.15l.46-.55.21-.27.07-.11s0,0,0,0,0,0,0,.12a.35.35,0,0,0,.06.15.34.34,0,0,0,.19.15l.07,0a10.31,10.31,0,0,0-3.08,0,8.13,8.13,0,0,0-2.82,1.16,11.53,11.53,0,0,0-3.93,4.73c-.95,1.87-1.36,4-2.5,6a6.62,6.62,0,0,1-2.42,2.37,13.61,13.61,0,0,1-3.09,1.22l.26-.56a3.93,3.93,0,0,0,1.32,1.3,6.27,6.27,0,0,0,1.83.73,12,12,0,0,0,4,.14,24,24,0,0,0,4-.94c.66-.22,1.32-.41,2-.69l1-.39.48-.19.25-.11a.86.86,0,0,1,.24-.07h.12a.42.42,0,0,1,.37.43.47.47,0,0,1,0,.12.48.48,0,0,1,0,.1.68.68,0,0,1-.1.13l.1-.16a3.71,3.71,0,0,0,0,1.82,3.49,3.49,0,0,0,.91,1.59,6.85,6.85,0,0,0,3.47,1.67c.65.17,1.31.2,2,.32a4.59,4.59,0,0,1,2.11.78,5.09,5.09,0,0,1,1.79,4,9.88,9.88,0,0,1-.15,2.16v0a.32.32,0,0,0,0-.09A.4.4,0,0,0,132,192c-.22-.24-.25-.15-.28-.17s0,0,0,0l.2-.06.44-.19a9.71,9.71,0,0,0,.86-.49,13.37,13.37,0,0,0,3-2.63A11,11,0,0,0,139,181.1h0a.36.36,0,0,1,0-.13.44.44,0,0,1,.24-.26.47.47,0,0,1,.18,0h.11a.49.49,0,0,1,.21.11.88.88,0,0,1,.13.14l.13.2c.07.12.13.24.18.35s.2.46.3.69c.18.46.36.91.52,1.38a23.78,23.78,0,0,1,.84,2.84,13.2,13.2,0,0,1,.36,3,7.09,7.09,0,0,1-.62,3,.41.41,0,0,1-.2.2,28.15,28.15,0,0,1-7.78,2.41,29.68,29.68,0,0,1-8.14.1,54,54,0,0,1-15.53-4.5l-.06,0a14.86,14.86,0,0,1-5.33-5.76,9.62,9.62,0,0,1-.93-3.89,10.34,10.34,0,0,1,.15-2c.06-.33.13-.66.22-1l.13-.47.06-.22,0-.09s0,0,0,0v.05a.38.38,0,0,0,.27.29h0a7.81,7.81,0,0,0-1.58-.5,2.42,2.42,0,0,0-1.46.11,1.63,1.63,0,0,0-.81,1.1,4.41,4.41,0,0,0-.14.79l0,.42,0,.23s0,.09,0,.15a.62.62,0,0,1,0,.15.6.6,0,0,1-.1.15.49.49,0,0,1-.46.11h0a1.39,1.39,0,0,1-.29-.17,1.6,1.6,0,0,1-.14-.13c-.07-.08-.16-.16-.23-.24s-.28-.32-.4-.48c-.26-.33-.5-.66-.73-1A19.41,19.41,0,0,1,96.74,176a12.24,12.24,0,0,1-1.43-4.77,6.64,6.64,0,0,1,0-1.28l.09-.64c.05-.21.13-.42.19-.62a6.76,6.76,0,0,1,1.28-2.21,10,10,0,0,1,1.81-1.77,6.24,6.24,0,0,1,2.38-1,6.13,6.13,0,0,1,4.84,1.47,4.2,4.2,0,0,1,1.52,2.15,5.68,5.68,0,0,1,.08,2.6,4.54,4.54,0,0,1-1.19,2.37,2.05,2.05,0,0,1-.63.42,2.81,2.81,0,0,1-.39.11l-.32,0a9.4,9.4,0,0,1-1.27.06,4.12,4.12,0,0,1-2.54-.8,2.91,2.91,0,0,1-.94-2.56.43.43,0,0,1,.86,0h0c0,.2.12.3.36.41s.24.08.46.15a.17.17,0,0,0,.14,0,.94.94,0,0,0,.26-1.18,1.47,1.47,0,0,0-.57-.47,1.08,1.08,0,0,0-.71-.06,1.55,1.55,0,0,0-1,1.13,3.05,3.05,0,0,0-.09.43,1.15,1.15,0,0,0,0,.37,4.67,4.67,0,0,0,.28.88,4.91,4.91,0,0,0,1,1.56,4.21,4.21,0,0,0,3.36,1.23A5.18,5.18,0,0,0,108,172.7a4.1,4.1,0,0,0,.92-1.55,6.34,6.34,0,0,0,.24-1.87,7.94,7.94,0,0,0-1-3.68,4.4,4.4,0,0,0-1.26-1.35,11.9,11.9,0,0,0-1.64-1.06,8.74,8.74,0,0,0-3.69-1,6.17,6.17,0,0,0-3.62,1,3.78,3.78,0,0,0-.78.55,7.14,7.14,0,0,0-.73.63,11.5,11.5,0,0,0-1.26,1.5,11,11,0,0,0-1.77,3.46,11.28,11.28,0,0,0,.74,7.63,25.16,25.16,0,0,0,4.44,6.6h0a.44.44,0,0,1-.58.66l-5.82-4a.44.44,0,0,1,.25-.81h.22v.89a.83.83,0,0,1-.28-.06l-.16-.07L92,180l-.06,0c-1.18-.86-2.33-1.75-3.44-2.73l.06,0a21.69,21.69,0,0,1-4.2-3.42,10,10,0,0,1-1.6-2.26,5.81,5.81,0,0,1-.69-2.76,4,4,0,0,1,1.07-2.72A4.24,4.24,0,0,1,85.81,165a11.37,11.37,0,0,1,2.76.12c.45.07.9.16,1.34.27.24.06.44.13.62.17l.17,0h0l-.1.06a.38.38,0,0,0-.13.35c0,.1,0,.07,0,.06l0,0a10.17,10.17,0,0,0-2.42-2,4.9,4.9,0,0,0-3-.47,6.16,6.16,0,0,0-3,.75,5.45,5.45,0,0,0-2.07,2.2,10.22,10.22,0,0,0-1,3,4.47,4.47,0,0,0,.71,2.85,19.14,19.14,0,0,0,4.34,4.74h0a.46.46,0,0,1-.3.81,32.86,32.86,0,0,1-5.79-.53A11.44,11.44,0,0,1,72.6,175c-.2-.16-.37-.32-.55-.49a3.14,3.14,0,0,1-.53-.65,2.82,2.82,0,0,1-.39-1.64,4,4,0,0,1,1.54-2.76,5.08,5.08,0,0,1,1.39-.76,8.46,8.46,0,0,1,1.49-.32,12.42,12.42,0,0,1,1.49-.1h1.25s0,0,0,0l-.1,0a.41.41,0,0,0-.13.11.45.45,0,0,0-.08.42.45.45,0,0,0,.11.18l0,0,0,0a6.23,6.23,0,0,0-2.8-1.44,4.83,4.83,0,0,0-3,.32,6.42,6.42,0,0,0-2.4,2,4.26,4.26,0,0,0-.75,2.93,4.93,4.93,0,0,0,1.2,2.82,7,7,0,0,0,2.64,1.76,14.75,14.75,0,0,0,3.2.83c.55.09,1.1.14,1.66.18l.83,0h.52a.56.56,0,0,1,.41.13.52.52,0,0,1,.17.5.62.62,0,0,1-.08.19.93.93,0,0,1-.14.17.44.44,0,0,1-.37.13h0a6.87,6.87,0,0,0-2.72.35,10.93,10.93,0,0,0-2.59,1.23A15.23,15.23,0,0,0,71.5,183c-.74.64-1.34,1.42-2.09,2.12h0a.47.47,0,0,1-.32.12,16.81,16.81,0,0,1-5.44-.85,9.21,9.21,0,0,1-4.5-3.28,10.49,10.49,0,0,1-1.8-5.26,18.08,18.08,0,0,1,0-2.75v-.22s0,0,0,0,0,0,0,.12l0,.07a.46.46,0,0,0,.42.18l.08,0h-.06l-.09,0-.18,0a6,6,0,0,1-.72.12,4.19,4.19,0,0,1-1.53-.11l.62-.49a20.17,20.17,0,0,0,1,4.78,11.9,11.9,0,0,0,2.48,4.1,10.65,10.65,0,0,0,4,2.62,15,15,0,0,0,4.77.86.48.48,0,0,1,.47.49.49.49,0,0,1-.15.34,26.87,26.87,0,0,1-7.95,5.28,11.61,11.61,0,0,1-2.33.77,9.41,9.41,0,0,1-2.47.1,13.84,13.84,0,0,1-2.4-.43c-.39-.1-.78-.23-1.16-.36l-.57-.22-.29-.12-.15-.07-.08,0-.18-.12.12.09,0,0a.36.36,0,0,0,.22,0,.39.39,0,0,0,.2-.19.28.28,0,0,0,0-.13l0,.14a1.88,1.88,0,0,0,.1,1.5,3.06,3.06,0,0,0,.52.67,1.21,1.21,0,0,1,.13.17.67.67,0,0,1,.07.18.42.42,0,0,1,0,.11.53.53,0,0,1-.29.46H52l-.25.09-.5.17a5.5,5.5,0,0,1-1,.21,6.13,6.13,0,0,1-1.08,0,4.72,4.72,0,0,1-2-.85,9.3,9.3,0,0,1-2.54-3.16l-.46-.86c-.07-.13-.15-.29-.22-.39s-.08-.09.06-.08.09,0,0,.06a2.23,2.23,0,0,0-.17.34,5.76,5.76,0,0,0-.26.84v0a.46.46,0,0,1-.55.35h0a2.7,2.7,0,0,1-1.76-1.66,4.19,4.19,0,0,1-.05-2.28,10.1,10.1,0,0,1,1.94-3.8,7.06,7.06,0,0,1,3.63-2.29,9.22,9.22,0,0,1,4.28-.11h0a5.14,5.14,0,0,1,1.79,1,3.1,3.1,0,0,1,1,1.86,4.64,4.64,0,0,1-.16,2.05,7.24,7.24,0,0,1-.82,1.82.49.49,0,0,1-.88-.37v0c.23-1,.26-2.28-.36-2.76a2.28,2.28,0,0,0-1.34-.36,2.09,2.09,0,0,0-1.33.31,1.74,1.74,0,0,0-.52,1.21,4.56,4.56,0,0,0,0,.78,2.18,2.18,0,0,0,.13.65,2.24,2.24,0,0,0,1.1.79,2.88,2.88,0,0,0,1.46.16,3.48,3.48,0,0,0,2.34-1.78,3.75,3.75,0,0,0,.55-1.42,3.47,3.47,0,0,0-.15-1.48,5.06,5.06,0,0,0-3.38-3,8,8,0,0,0-1.61-.19,9.31,9.31,0,0,0-6.14,1.94A6.56,6.56,0,0,0,41,184.15a8.56,8.56,0,0,0-.53,1.55c-.12.54-.18,1.09-.25,1.64a8.12,8.12,0,0,0,1.89,6.08,11.2,11.2,0,0,0,5.62,3.29h0a.5.5,0,0,1,.37.48v.22a.47.47,0,0,1-.32.45A19.41,19.41,0,0,1,42.41,199a16.6,16.6,0,0,1-2.76,0,16.91,16.91,0,0,1-2.7-.59,16.1,16.1,0,0,1-4.88-2.52A17.86,17.86,0,0,1,30,194c-.31-.34-.63-.67-.92-1-.15-.18-.29-.36-.43-.54s-.14-.16-.06-.1a.39.39,0,0,0,.4-.06c.08-.08.05-.07.07-.1l-.06.14a14.28,14.28,0,0,1-2.14,2.57A7.71,7.71,0,0,1,24,196.74a4.23,4.23,0,0,1-3.49-.41,6.38,6.38,0,0,1-1.32-1.14,9.29,9.29,0,0,1-1-1.32,9.74,9.74,0,0,1-1.45-3,5,5,0,0,1,.31-3.47,8.87,8.87,0,0,1,.92-1.4l0-.08a.36.36,0,0,0,0,.25h0c-.05-.06-.09-.13-.16-.16a.92.92,0,0,0-.51-.16,6,6,0,0,0-2.77.9h0a.45.45,0,0,1-.53-.07,3.1,3.1,0,0,1-.86-1.68,5.88,5.88,0,0,1,0-1.74,11.3,11.3,0,0,1,1-3.17,10,10,0,0,1,.84-1.46,3.16,3.16,0,0,1,.62-.7l.11-.08,0,0h0s0,.06,0,.12,0,0,0,0a1.76,1.76,0,0,0-.52-.27,7.44,7.44,0,0,0-.72-.22c-.5-.12-1-.23-1.52-.3h0a.44.44,0,0,1-.37-.5.47.47,0,0,1,0-.09,18,18,0,0,1,4.17-6.43,13.16,13.16,0,0,1,6.76-3.58,10.85,10.85,0,0,1,1.93-.22c.32,0,.65,0,1,0l1,.09a8.79,8.79,0,0,1,3.69,1.3,10,10,0,0,1,4.16,6.45l-.78-.17a3.23,3.23,0,0,1,1.41-1,13,13,0,0,1,1.45-.46,26.37,26.37,0,0,1,2.94-.57l-.36.53a17.1,17.1,0,0,0-1.13-3.18,2.25,2.25,0,0,0-.44-.61l-.61-.6A11.7,11.7,0,0,0,36.53,167a15.5,15.5,0,0,0-6-3.11,18,18,0,0,0-13.17,1.79c-3.89,2.38-6.23,6.71-7.18,11.14a15.64,15.64,0,0,0,0,6.75,15.39,15.39,0,0,0,1.16,3.19,17,17,0,0,0,.83,1.49l.46.73c.08.13.16.24.24.38l.12.21a2.43,2.43,0,0,1,.12.33v0a.62.62,0,0,1-.14.52.88.88,0,0,1-.29.21,4,4,0,0,1-.44.17,1.49,1.49,0,0,0-.31.13c-.07.06,0,0,0,0v0a9.15,9.15,0,0,0,1.45,2.06c.57.67,1.2,1.3,1.84,1.92a29.54,29.54,0,0,0,4.17,3.29,21,21,0,0,0,4.74,2.32,39.48,39.48,0,0,0,5.18,1.24,67.75,67.75,0,0,0,21.34-.26,20.87,20.87,0,0,0,5-1.71c1.63-.73,3.22-1.55,4.78-2.42a71.18,71.18,0,0,0,8.91-6c2.85-2.15,5.34-4.78,8.36-6.81a32,32,0,0,1,9.78-4.65.3.3,0,0,1,.25,0c.34.24.69.46,1,.68a7.83,7.83,0,0,1,1.1.75.29.29,0,0,1,0,.41l-.09.07h0c-2.4,1.19-3.79,3.68-4.74,6.18-.5,1.26-.9,2.55-1.34,3.86a12.39,12.39,0,0,1-1.93,3.7,6.09,6.09,0,0,1-3.56,2.22,7.06,7.06,0,0,1-2.12.16,4.73,4.73,0,0,1-2-.7,3,3,0,0,1-1.38-1.73,1.37,1.37,0,0,1,0-.64l.21-.52a4.19,4.19,0,0,1,.33-.48,1.77,1.77,0,0,1,.49-.36,2.63,2.63,0,0,1,2.2.14,8,8,0,0,1,1.8,1.11l-.44.22a3.44,3.44,0,0,0-.64-1.88,3,3,0,0,0-1.64-1.1,4.34,4.34,0,0,0-2-.09,5.64,5.64,0,0,0-1,.27,5.19,5.19,0,0,0-.9.5,4.06,4.06,0,0,0-1.34,1.52,3.89,3.89,0,0,0-.32,1,4.39,4.39,0,0,0-.12,1,5.09,5.09,0,0,0,1.41,3.8,7.94,7.94,0,0,0,3.71,1.94,11.37,11.37,0,0,0,4.24.37,9.34,9.34,0,0,0,6.89-4.47h0a.24.24,0,0,1,.45.08,6,6,0,0,0,1.49,2.74,10.69,10.69,0,0,0,2.55,1.94,12.44,12.44,0,0,0,6.2,1.55,7.43,7.43,0,0,0,5.62-2.6,4.75,4.75,0,0,0,.22-5.85.22.22,0,0,1,.05-.31.22.22,0,0,1,.27,0,28.05,28.05,0,0,0,9,5,41.12,41.12,0,0,0,10.07,2.22,39.06,39.06,0,0,0,20.15-3.38c.77-.38,1.52-.8,2.27-1.22s1.47-.89,2.15-1.43l2.06-1.56c.67-.54,1.28-1.15,1.93-1.72a44,44,0,0,0,6.62-7.92,56.36,56.36,0,0,0,4.81-9.16,54.09,54.09,0,0,0,3.09-9.87h0a.15.15,0,0,1,.18-.12h0a2.59,2.59,0,0,0,2.66-.76,4.73,4.73,0,0,0,.78-2.83,7.16,7.16,0,0,0-.51-3,5.72,5.72,0,0,0-.77-1.29c-.15-.2-.32-.39-.49-.58a1.46,1.46,0,0,1-.44-.74,83.54,83.54,0,0,0,0-12.3,46.41,46.41,0,0,0-3.23-11.83,42.12,42.12,0,0,0-6-10.7h0a66.24,66.24,0,0,0-5.67-7.32c-2-2.33-4.16-4.57-6.33-6.78-4.35-4.39-8.91-8.58-13.57-12.64s-9.4-8.05-14.38-11.72c-2.48-1.86-5-3.57-7.65-5.24S103.9,75.17,101.14,73.59Zm.1,0a86.2,86.2,0,0,1,7.91,4.76c2.6,1.66,5.19,3.38,7.66,5.23,5,3.66,9.73,7.66,14.41,11.7s9.24,8.24,13.6,12.63c2.17,2.2,4.32,4.44,6.35,6.77a66.42,66.42,0,0,1,5.7,7.34h0a42.35,42.35,0,0,1,6,10.75,46.66,46.66,0,0,1,3.27,11.89,83.71,83.71,0,0,1,.05,12.34,1.5,1.5,0,0,0,.37.54c.17.19.34.39.5.59a6,6,0,0,1,.81,1.35,7.45,7.45,0,0,1,.54,3.07,5,5,0,0,1-.84,3,2.47,2.47,0,0,1-1.35.87,3.75,3.75,0,0,1-1.59,0l.18-.12a54.36,54.36,0,0,1-3.09,9.94,56.68,56.68,0,0,1-4.82,9.22,44.36,44.36,0,0,1-6.66,8c-.65.58-1.27,1.2-1.94,1.74l-2.07,1.58c-.68.55-1.45,1-2.17,1.45s-1.52.86-2.3,1.24a39.44,39.44,0,0,1-20.35,3.45,41.54,41.54,0,0,1-10.17-2.23,28.49,28.49,0,0,1-9.11-5l.32-.29a5.2,5.2,0,0,1-.22,6.39,7.89,7.89,0,0,1-6,2.78,12.9,12.9,0,0,1-6.44-1.59,11.16,11.16,0,0,1-2.68-2,6.43,6.43,0,0,1-1.62-3L86,198a9.82,9.82,0,0,1-7.26,4.73,11.87,11.87,0,0,1-4.42-.38,8.43,8.43,0,0,1-3.94-2.07,5.61,5.61,0,0,1-1.57-4.16,4.92,4.92,0,0,1,.12-1.13,4.41,4.41,0,0,1,.36-1.1,4.58,4.58,0,0,1,1.51-1.72,5.71,5.71,0,0,1,1-.56,6.16,6.16,0,0,1,1.1-.31,4.87,4.87,0,0,1,2.28.1,3.57,3.57,0,0,1,1.92,1.29,4,4,0,0,1,.75,2.19.26.26,0,0,1-.42.24l0,0a7.47,7.47,0,0,0-1.67-1,2.12,2.12,0,0,0-1.74-.15c-.14,0-.22.17-.33.24s-.17.24-.24.36l-.17.43a.83.83,0,0,0,0,.37,2.52,2.52,0,0,0,1.14,1.38,4.17,4.17,0,0,0,1.8.62,6.53,6.53,0,0,0,1.95-.16,5.51,5.51,0,0,0,3.24-2c1.68-2.08,2.13-4.86,3.17-7.41a17.46,17.46,0,0,1,1.88-3.7,8.72,8.72,0,0,1,3.13-2.79l-.07.48a8.06,8.06,0,0,0-1-.67c-.36-.22-.72-.45-1.07-.7l.25,0A31.39,31.39,0,0,0,78.08,185c-3,2-5.44,4.62-8.32,6.81a71.83,71.83,0,0,1-9,6c-1.57.89-3.18,1.72-4.83,2.46A21.51,21.51,0,0,1,50.79,202a68.41,68.41,0,0,1-21.58.3,40.12,40.12,0,0,1-5.29-1.26,21.74,21.74,0,0,1-4.91-2.4,30.27,30.27,0,0,1-4.29-3.36c-.66-.63-1.3-1.27-1.89-2a9.09,9.09,0,0,1-1.6-2.35v0a.71.71,0,0,1,.08-.45.84.84,0,0,1,.27-.28A2.11,2.11,0,0,1,12,190l.35-.13.05,0s-.05.09,0,.12h0l0,0a.18.18,0,0,1,0-.08l-.1-.17c-.06-.11-.15-.24-.22-.36l-.47-.74a17.72,17.72,0,0,1-.87-1.55,16.15,16.15,0,0,1-1.23-3.35,16.42,16.42,0,0,1,0-7.08A21.2,21.2,0,0,1,12,170,15.08,15.08,0,0,1,17,165a18.79,18.79,0,0,1,13.8-1.9,16.33,16.33,0,0,1,6.3,3.26,12.36,12.36,0,0,1,1.32,1.19l.64.62a3.14,3.14,0,0,1,.58.8,17.76,17.76,0,0,1,1.21,3.37.42.42,0,0,1-.29.52h-.07a25.57,25.57,0,0,0-2.83.55,12.21,12.21,0,0,0-1.35.43,2.64,2.64,0,0,0-1,.64.44.44,0,0,1-.78-.17,9.15,9.15,0,0,0-3.78-5.84,9.54,9.54,0,0,0-6.92-1,12.26,12.26,0,0,0-6.3,3.35,17.16,17.16,0,0,0-3.94,6.07l-.37-.6c.55.08,1.08.19,1.62.32a8.33,8.33,0,0,1,.81.25,2.34,2.34,0,0,1,.87.5.75.75,0,0,1,.14.88c-.08.18-.15.19-.24.28l-.17.15a2.41,2.41,0,0,0-.43.5,9.1,9.1,0,0,0-.75,1.32,10.4,10.4,0,0,0-.94,2.91,5,5,0,0,0,0,1.45,2.18,2.18,0,0,0,.56,1.14l-.55-.06a6.77,6.77,0,0,1,3.31-1,1.86,1.86,0,0,1,1,.34,1.54,1.54,0,0,1,.4.41l0,.07a.73.73,0,0,1,.07.25.74.74,0,0,1-.05.29,1.3,1.3,0,0,1-.15.27,8.27,8.27,0,0,0-.85,1.29,4,4,0,0,0-.24,2.82,8.81,8.81,0,0,0,1.32,2.74,8.34,8.34,0,0,0,1,1.2,5.45,5.45,0,0,0,1.11,1,3.24,3.24,0,0,0,2.71.31,9.72,9.72,0,0,0,4.48-4l-.06.14a.78.78,0,0,1,.23-.39.61.61,0,0,1,.37-.16.63.63,0,0,1,.34.07,1.19,1.19,0,0,1,.4.38c.13.18.26.34.4.51.27.33.57.65.86,1a16.87,16.87,0,0,0,2,1.71,15.15,15.15,0,0,0,4.58,2.36,15.93,15.93,0,0,0,2.52.55,15.6,15.6,0,0,0,2.58,0,18.42,18.42,0,0,0,5.07-1.09l-.32.47v-.2l.4.49a12.15,12.15,0,0,1-6.16-3.62,9.13,9.13,0,0,1-2.13-6.8c.07-.6.15-1.2.27-1.79a9.54,9.54,0,0,1,.59-1.73,7.55,7.55,0,0,1,2.2-2.92,10.28,10.28,0,0,1,6.8-2.17,8.91,8.91,0,0,1,1.83.23,6,6,0,0,1,4.07,3.66,4.46,4.46,0,0,1,.19,1.94,4.73,4.73,0,0,1-.68,1.8,5.9,5.9,0,0,1-1.24,1.43,3.72,3.72,0,0,1-1.8.8,3.86,3.86,0,0,1-1.95-.21,3.11,3.11,0,0,1-1.62-1.24,2.8,2.8,0,0,1-.25-1,5.52,5.52,0,0,1,0-1,2.69,2.69,0,0,1,.87-1.87,2.19,2.19,0,0,1,1-.45,4.48,4.48,0,0,1,1-.08,3.2,3.2,0,0,1,1.93.57,2.58,2.58,0,0,1,.86,1.89,6.33,6.33,0,0,1-.16,1.88l-.88-.39a6.34,6.34,0,0,0,.7-1.55,3.68,3.68,0,0,0,.14-1.62,2.12,2.12,0,0,0-.74-1.31,4.19,4.19,0,0,0-1.44-.79h0a8.3,8.3,0,0,0-3.79.1,6.08,6.08,0,0,0-3.15,2,9.2,9.2,0,0,0-1.73,3.39,3.26,3.26,0,0,0,0,1.73,2,2,0,0,0,.43.66,1.81,1.81,0,0,0,.65.39l-.59.37a6.66,6.66,0,0,1,.31-1,3.11,3.11,0,0,1,.26-.52,1,1,0,0,1,.78-.49.92.92,0,0,1,.74.53c.11.17.17.3.25.45l.45.85a8.39,8.39,0,0,0,2.25,2.84,3.75,3.75,0,0,0,1.55.68,5.36,5.36,0,0,0,.85,0,4.53,4.53,0,0,0,.85-.17l.41-.14.21-.07h0a.43.43,0,0,0-.26.41v.08a.32.32,0,0,0,0,.13s0,0,0,0a4,4,0,0,1-.66-.86,2.85,2.85,0,0,1-.17-2.25l0,.14a.65.65,0,0,1,.06-.27A.58.58,0,0,1,51,190a.6.6,0,0,1,.36,0,.8.8,0,0,1,.18.07l.12.09a.12.12,0,0,0-.06,0l.06,0,.12.05.26.11.53.2c.36.12.72.24,1.09.33a12.88,12.88,0,0,0,2.23.4,8.47,8.47,0,0,0,2.22-.09,10.76,10.76,0,0,0,2.13-.71,25.92,25.92,0,0,0,7.66-5.08l.32.82a16,16,0,0,1-5.08-.92,11.61,11.61,0,0,1-4.34-2.85A12.85,12.85,0,0,1,56.07,178a21.1,21.1,0,0,1-1.06-5,.46.46,0,0,1,.58-.5h0a3.43,3.43,0,0,0,1.14.06,5.06,5.06,0,0,0,.6-.1l.15,0,.07,0h0l.11,0a.51.51,0,0,1,.44.18l.06.09a.51.51,0,0,1,.05.2v.36a17.15,17.15,0,0,0,0,2.62,9.55,9.55,0,0,0,1.63,4.79A8.27,8.27,0,0,0,64,183.53a15.89,15.89,0,0,0,5.13.8l-.33.14c.71-.66,1.34-1.47,2.11-2.14a16.15,16.15,0,0,1,2.43-1.88,11.86,11.86,0,0,1,2.8-1.33,7.62,7.62,0,0,1,3.17-.38l-.41.13h0a.29.29,0,0,0,0,.1.42.42,0,0,0,.14.4c.22.15.26.07.2.09h-.55l-.87,0c-.58,0-1.16-.1-1.74-.19a15.66,15.66,0,0,1-3.4-.89,7.94,7.94,0,0,1-3-2A5.86,5.86,0,0,1,68.18,173a5.2,5.2,0,0,1,.9-3.54,7.33,7.33,0,0,1,2.75-2.34,5.73,5.73,0,0,1,3.64-.39,7.16,7.16,0,0,1,3.22,1.65l0,0,.07.05a.56.56,0,0,1,.14.21.5.5,0,0,1-.08.45.52.52,0,0,1-.15.12.48.48,0,0,1-.14.05l-.18,0H77a11.5,11.5,0,0,0-1.38.1,4.59,4.59,0,0,0-2.43.89,3.06,3.06,0,0,0-1.2,2.1,1.9,1.9,0,0,0,.26,1.11,2.23,2.23,0,0,0,.37.45c.16.15.34.32.52.46a10.52,10.52,0,0,0,5,2.22,32,32,0,0,0,5.62.52l-.3.81a20,20,0,0,1-4.55-5,5.34,5.34,0,0,1-.82-3.45,11.09,11.09,0,0,1,1.09-3.27,6.36,6.36,0,0,1,2.41-2.55,7.06,7.06,0,0,1,3.37-.86,9.35,9.35,0,0,1,1.74,0,4.94,4.94,0,0,1,1.72.56,11,11,0,0,1,2.66,2.19h0v0a.84.84,0,0,1,.17.35.53.53,0,0,1-.18.5.47.47,0,0,1-.17.09l-.13,0a1.48,1.48,0,0,1-.49,0c-.26,0-.48-.13-.66-.18-.41-.1-.84-.19-1.26-.26a10.5,10.5,0,0,0-2.53-.12,3.36,3.36,0,0,0-2.13.85,3.16,3.16,0,0,0-.81,2.11A6.72,6.72,0,0,0,85,173.25a20.83,20.83,0,0,0,4,3.26l.06,0c1.05.94,2.2,1.82,3.36,2.67l-.06,0,.23.11.09,0s.05,0,0,0v.89h-.2l.26-.81,5.78,4-.57.67a26,26,0,0,1-4.59-6.85,12.16,12.16,0,0,1-.77-8.23,11.84,11.84,0,0,1,1.91-3.74,12.38,12.38,0,0,1,1.35-1.61,8,8,0,0,1,.81-.69,4.43,4.43,0,0,1,.87-.61,7.06,7.06,0,0,1,4.11-1.1,9.62,9.62,0,0,1,4.07,1.15,12.77,12.77,0,0,1,1.77,1.15,5.28,5.28,0,0,1,1.48,1.6,8.79,8.79,0,0,1,1.1,4.1,7.2,7.2,0,0,1-.28,2.15,5,5,0,0,1-1.14,1.91,4.68,4.68,0,0,1-1.9,1.13,5.24,5.24,0,0,1-1.05.26,5.33,5.33,0,0,1-1.07.12,5.72,5.72,0,0,1-2.16-.29,4.83,4.83,0,0,1-1.86-1.2,5.78,5.78,0,0,1-1.19-1.83,5.49,5.49,0,0,1-.33-1.06,1.94,1.94,0,0,1,0-.64,3.9,3.9,0,0,1,.12-.56,2.41,2.41,0,0,1,1.63-1.72,2,2,0,0,1,1.28.11,2.27,2.27,0,0,1,1,.81,1.71,1.71,0,0,1,.19,1.31,1.66,1.66,0,0,1-.78,1.09,1,1,0,0,1-.84.07,4.74,4.74,0,0,1-.51-.17,1.38,1.38,0,0,1-.88-1.08l.86,0a2,2,0,0,0,.63,1.82,3.3,3.3,0,0,0,2,.6,8.55,8.55,0,0,0,1.15-.05l.29,0c.09,0,.13,0,.19-.06a1.2,1.2,0,0,0,.37-.25,3.73,3.73,0,0,0,.93-1.9,4.83,4.83,0,0,0-.06-2.19,3.31,3.31,0,0,0-1.24-1.73,5.28,5.28,0,0,0-4.14-1.29,5.39,5.39,0,0,0-2,.89A9.13,9.13,0,0,0,97.57,167,5.89,5.89,0,0,0,96.44,169c-.05.18-.12.35-.17.53l-.08.56a5.8,5.8,0,0,0,0,1.13,11.41,11.41,0,0,0,1.34,4.44,18.56,18.56,0,0,0,1.2,2c.23.32.45.65.7,1s.25.3.37.45.13.13.19.2l.08.08s0,0,0,0h0a.4.4,0,0,0-.41.1.29.29,0,0,0-.07.1l0,0v-.27l0-.45a5.25,5.25,0,0,1,.17-.94,2.48,2.48,0,0,1,1.25-1.63,3.24,3.24,0,0,1,2-.18,8.63,8.63,0,0,1,1.77.56h0a.49.49,0,0,1,.3.35.41.41,0,0,1,0,.11.74.74,0,0,1,0,.14l0,.15-.07.24-.13.46c-.08.3-.15.6-.2.91a9.49,9.49,0,0,0-.14,1.84,8.77,8.77,0,0,0,.85,3.55,14,14,0,0,0,5,5.42l-.06,0a53.11,53.11,0,0,0,15.29,4.43,28.84,28.84,0,0,0,7.91-.09,27.32,27.32,0,0,0,7.55-2.34l-.2.2a8.63,8.63,0,0,0,.2-5.45,23,23,0,0,0-.81-2.75c-.16-.45-.34-.9-.51-1.35-.09-.22-.18-.44-.28-.65l-.15-.29-.07-.11s0,0,0,0a.31.31,0,0,0,.13.06h.09a.36.36,0,0,0,.15,0,.38.38,0,0,0,.21-.23l0-.14a11.84,11.84,0,0,1-2.88,7.88,14.18,14.18,0,0,1-3.2,2.8,10.52,10.52,0,0,1-.94.53c-.16.08-.33.16-.51.23l-.3.09a.92.92,0,0,1-.23,0c-.07,0-.15.06-.4-.22a.41.41,0,0,1-.06-.2.5.5,0,0,1,0-.13v0a9.09,9.09,0,0,0,.13-2,4.3,4.3,0,0,0-1.45-3.35,3.78,3.78,0,0,0-1.73-.63c-.66-.12-1.4-.16-2.08-.34a7.62,7.62,0,0,1-3.88-1.9,4.33,4.33,0,0,1-1.08-4.24l.1-.16,0,0a.31.31,0,0,0,0,.07.35.35,0,0,0,0,.1.4.4,0,0,0,.07.23.41.41,0,0,0,.27.17h.09c.07,0,0,0,0,0l-.24.1-.5.2-1,.4c-.65.28-1.34.48-2,.71a24.83,24.83,0,0,1-4.17,1,12.75,12.75,0,0,1-4.33-.16,5.59,5.59,0,0,1-3.69-2.47.38.38,0,0,1,.14-.51l.08,0h0a12.84,12.84,0,0,0,2.9-1.14,5.8,5.8,0,0,0,2.13-2.09c1-1.77,1.48-3.93,2.47-5.91a12.32,12.32,0,0,1,4.22-5,8.93,8.93,0,0,1,3.11-1.27,11.09,11.09,0,0,1,3.34-.05h.07a.47.47,0,0,1,.22.17.44.44,0,0,1,.07.2.47.47,0,0,1,0,.21.86.86,0,0,1-.07.16,1.92,1.92,0,0,1-.12.19l-.24.31-.47.56c-.31.37-.63.73-.89,1.1a3.08,3.08,0,0,0-.17.26c-.07.06,0,.21-.07,0a2.12,2.12,0,0,0,.36.47.89.89,0,0,0,.43.24,1.62,1.62,0,0,0,.3,0,.83.83,0,0,1,.18,0,.53.53,0,0,1,.17.08.51.51,0,0,1,.17.26.58.58,0,0,1,0,.28.9.9,0,0,1,0,.14,4.52,4.52,0,0,0-.27,1.3,11.45,11.45,0,0,0-.07,1.39,4,4,0,0,0,.06.65.71.71,0,0,0,0,.11v0a.14.14,0,0,0-.08-.07.67.67,0,0,0,.17,0,4.82,4.82,0,0,0,1.29-.23c1.8-.54,3.56-1.35,5.34-2.09.45-.19.89-.37,1.38-.53a3.62,3.62,0,0,1,.39-.11.88.88,0,0,1,.32,0,.53.53,0,0,1,.2.08.45.45,0,0,1,.19.33.52.52,0,0,1-.08.31,6.14,6.14,0,0,1-.53.59,9.05,9.05,0,0,0-1.36,2.39,16.74,16.74,0,0,0-.85,2.69,9.36,9.36,0,0,0-.21,1.37,3.16,3.16,0,0,0,0,.64.88.88,0,0,0,.06.22s0,0,0,0l.06,0,.11,0a1.79,1.79,0,0,0,.24-.14,3.06,3.06,0,0,0,.48-.43c.31-.33.59-.71.89-1.09.15-.19.3-.39.48-.58a1.53,1.53,0,0,1,.8-.54.81.81,0,0,1,.89.82,2.2,2.2,0,0,1-.15.87,11.48,11.48,0,0,1-.63,1.35,2.43,2.43,0,0,0-.12.27s0,0,0,0a.33.33,0,0,0-.15-.26c-.18-.09-.17-.05-.23-.06s0,0,0,0a6,6,0,0,0,.54-.4,5.72,5.72,0,0,0,1.36-2.28,24.68,24.68,0,0,0,1.19-5.54v0a.38.38,0,0,1,.42-.33l.09,0a8.8,8.8,0,0,1,2.34,1.4c.7.55,1.35,1.14,2,1.75,1.27,1.21,2.46,2.5,3.66,3.73l.45.45.23.2c0,.06.21.12.08.09l-.11,0a.3.3,0,0,0-.22.18c0,.06,0,0,0,0l0-.14c0-.1.06-.19.08-.29a5,5,0,0,0,.08-.6,8.18,8.18,0,0,0-.24-2.47c-.18-.83-.45-1.65-.68-2.51-.05-.22-.11-.43-.15-.66a3,3,0,0,1-.05-.36,1.32,1.32,0,0,1,0-.22.55.55,0,0,1,.26-.44.88.88,0,0,1,.56-.08l.35.06.28,0s.07,0,0,0l0,0a.2.2,0,0,0-.08.07.24.24,0,0,0-.06.16v0a2.76,2.76,0,0,0-.3-1.12.58.58,0,0,0-.51-.33h-.36a.42.42,0,0,1-.21-.1.41.41,0,0,1-.13-.28v.06a1.22,1.22,0,0,1,0-.62,1,1,0,0,1,.44-.52,1.81,1.81,0,0,1,1.08-.17l.47.08h0a.21.21,0,0,0-.13.06.17.17,0,0,0-.06.09v0s0,0,0,0a2.79,2.79,0,0,0-.29-.67c-.55-1-1.23-1.94-1.89-2.89-.33-.49-.67-.94-1-1.49l-.07-.13a.82.82,0,0,1,0-.13v0a.42.42,0,0,1,.24-.42l.12,0a.48.48,0,0,1,.23,0l0,0,0,0,.1.05.39.21c.26.14.52.29.77.43a23.8,23.8,0,0,1,2.94,2,12.53,12.53,0,0,1,4.25,5.7,10,10,0,0,1-.42,7.09,16.93,16.93,0,0,1-4.12,5.79,6.51,6.51,0,0,1-1.52,1.11l-.18.05a.44.44,0,0,1-.48-.21.58.58,0,0,1-.05-.26h0a.07.07,0,0,0,0,0,1.08,1.08,0,0,0-.13-.29,4.62,4.62,0,0,0-.49-.63,18.34,18.34,0,0,0-2.58-2.24c-.23-.17-.47-.33-.7-.48l-.33-.18s0,0,0,0a.28.28,0,0,0,.17,0,.37.37,0,0,0,.18-.21.33.33,0,0,0,0-.15v-.06l.1.15c.31.49.63,1,.93,1.49.6,1,1.17,2,1.67,3.11a20.08,20.08,0,0,1,2,6.79l-.57-.27a26.56,26.56,0,0,0,4.66-4.08,19.14,19.14,0,0,0,3.29-5.2,26.07,26.07,0,0,0,2.47-12A21.1,21.1,0,0,0,151,157a33.32,33.32,0,0,0-9.19-8.29h0a.31.31,0,0,1-.11-.13.74.74,0,0,1-.07-.28.5.5,0,0,1,.19-.43.69.69,0,0,1,.58-.09l.61.19,1.13.41c.75.27,1.5.52,2.26.73a14.68,14.68,0,0,0,2.29.46,4.44,4.44,0,0,0,2.18-.22,1.81,1.81,0,0,0,.78-.62,4.31,4.31,0,0,0,.52-1,4.88,4.88,0,0,0-2-5.86,6.05,6.05,0,0,0-4.33-.87,5.58,5.58,0,0,0-3.34,2.87c-.19.32-.42.71-.65,1-.12.17-.24.33-.37.5a2.13,2.13,0,0,1-.53.52.49.49,0,0,1-.17,0,.32.32,0,0,1-.25-.07c-.22-.24-.12-.24-.16-.33a1,1,0,0,1,0-.25l.06-.28.13-.59c.09-.4.2-.79.31-1.18a11.6,11.6,0,0,1,2.27-4.34,6.36,6.36,0,0,1,4.38-2.23,10,10,0,0,1,4.8,1l.56.24.28.12c.07,0,.25.11.18.06a.65.65,0,0,0,.26-.17,2,2,0,0,0,.31-.4,4.66,4.66,0,0,0,.55-2.14,11.35,11.35,0,0,0-.92-4.53,8.71,8.71,0,0,0-1-2,5.15,5.15,0,0,0-1.77-1.36,4.43,4.43,0,0,0-4.26,0,3.94,3.94,0,0,0-1.53,3.87,3.11,3.11,0,0,0,1.13,1.81,5.33,5.33,0,0,0,.94.63c.36.2.64.29,1.12.55l-.07,0a.43.43,0,0,1,.17.13.37.37,0,0,1,0,.38.43.43,0,0,1-.11.11.51.51,0,0,1-.19.08l-.2,0h-.34a6.39,6.39,0,0,1-.66,0,7.1,7.1,0,0,1-1.28-.26,5.18,5.18,0,0,1-2.28-1.34,5.09,5.09,0,0,1-.87-5,7.5,7.5,0,0,1,3.19-4,8.28,8.28,0,0,1,2.39-1l.64-.14c.08,0,0,0,0,0a.23.23,0,0,0-.05.11.69.69,0,0,0-.07-.18,5.14,5.14,0,0,0-.68-.95,11.09,11.09,0,0,0-3.87-2.88,4.66,4.66,0,0,0-1.12-.3,8.9,8.9,0,0,0-1.2,0,14.23,14.23,0,0,0-2.42.33,7.49,7.49,0,0,0-4.14,2.26,5.73,5.73,0,0,0-1.13,4.48,16.39,16.39,0,0,0,1.41,4.69c.08.19.17.38.25.55l.14.25.08.12a.61.61,0,0,1,.06.12.25.25,0,0,1,0,.09.35.35,0,0,1-.34.36h-.09a2.76,2.76,0,0,1-.68-.26c-.2-.1-.38-.2-.57-.32l-.25-.17c-.06,0,0,0,.07,0a1.57,1.57,0,0,0,0,.36A5.26,5.26,0,0,0,134,133a5.75,5.75,0,0,0,.37,1.12,1.63,1.63,0,0,0,.27.44l.07.06a.38.38,0,0,1,.11.1c0-.07.15.23,0,.43a.38.38,0,0,1-.2.09.64.64,0,0,1-.16,0l-.34-.09a14.11,14.11,0,0,1-2.35-1,15.44,15.44,0,0,1-4-3.09,10.35,10.35,0,0,1-2.48-4.47,10.87,10.87,0,0,1,0-5.1,12.89,12.89,0,0,1,5.51-8.33l0,.52a11.48,11.48,0,0,0-4-1,15.82,15.82,0,0,0-4.13.19,23.17,23.17,0,0,0-7.77,2.89c-.59.36-1.2.71-1.79,1.09L111.35,118c-1.15.8-2.28,1.63-3.38,2.49a24.87,24.87,0,0,0-5.71,6,16,16,0,0,0-2.31,7.87,25,25,0,0,0,.14,4.16,10.56,10.56,0,0,0,4.06,6.91,11,11,0,0,0,1.73,1.11,3.85,3.85,0,0,0,.92.38c.33.07.66.19,1,.23a7,7,0,0,0,4-.35,5.63,5.63,0,0,0,1.68-1.08,4.65,4.65,0,0,0,1.15-1.53l0-.07c0,.08-.06.12,0,.28a.24.24,0,0,0,.09.06h0l-.16,0-.36.06a7,7,0,0,1-.75.09,4.1,4.1,0,0,1-1.54-.18,3.43,3.43,0,0,1-2.09-2.22,3.63,3.63,0,0,1-.21-.76,5.68,5.68,0,0,1,0-.76,4.72,4.72,0,0,1,.25-1.52,3.3,3.3,0,0,1,2.19-2.11,5.9,5.9,0,0,1,1.51-.24c.26,0,.52,0,.77,0a4.27,4.27,0,0,1,.76.22,3.17,3.17,0,0,1,1.77,2.47,7.35,7.35,0,0,1-.13,3,4.22,4.22,0,0,1-.6,1.44,13.23,13.23,0,0,0-.78,1.19,8.23,8.23,0,0,1-4.46,3.81,8.13,8.13,0,0,1-3,.36,8.75,8.75,0,0,1-2.92-.59,11.18,11.18,0,0,1-4.59-3.68A16.9,16.9,0,0,1,97.72,140v0a15.9,15.9,0,0,1-.72-4.42,21,21,0,0,1,.34-4.44,21.66,21.66,0,0,1,1.23-4.28,27.14,27.14,0,0,1,2-4l.06.35a5.85,5.85,0,0,1-1.83-2.33,5.34,5.34,0,0,1-.23-3c.35-1.95,1.34-3.65,1.87-5.42a5.6,5.6,0,0,0-1.4-5A5.26,5.26,0,0,0,96.79,106a4.69,4.69,0,0,0-2.67-.05,4.37,4.37,0,0,0-2.29,1.35,5.57,5.57,0,0,0-1.21,2.42,7,7,0,0,0-.18,1.36,5,5,0,0,0,0,.67,1.82,1.82,0,0,0,.06.3s0,.09,0,.06l-.05,0a.2.2,0,0,0-.15,0,.11.11,0,0,0-.07,0s0,0,0,0a1.18,1.18,0,0,0,.07-.25l.16-.41a2,2,0,0,1,.55-.6,3.91,3.91,0,0,1,1.38-.64,5.69,5.69,0,0,1,3,0,4.43,4.43,0,0,1,.71.29,3.59,3.59,0,0,1,.62.47,2.2,2.2,0,0,1,.46.64,2.93,2.93,0,0,1,.16.36l.08.39a2.49,2.49,0,0,1,0,.77,3.52,3.52,0,0,1-.1.74,5.13,5.13,0,0,1-.47,1.42A3,3,0,0,1,94.42,117a5.13,5.13,0,0,1-2.86-.76,7.48,7.48,0,0,1-2.22-1.92,6,6,0,0,1-1.09-2.74,8.64,8.64,0,0,1,0-2.93,6.7,6.7,0,0,1,3.27-4.72,9.4,9.4,0,0,1,5.61-1.38,11.56,11.56,0,0,1,5.4,2,26.26,26.26,0,0,1,2.3,1.74l1.1.91A4.55,4.55,0,0,0,107,108a.37.37,0,0,0,.18,0l.34-.13a6.86,6.86,0,0,1,.69-.25,10.55,10.55,0,0,1,1.42-.35,9.32,9.32,0,0,1,2.92,0,11.59,11.59,0,0,1,5.26,2.37l-.2,0c.4-.1.83-.31,1.31-.4h0a24.44,24.44,0,0,1,4.1-.69c1.38-.13,2.76-.2,4.14-.23a51.85,51.85,0,0,1,8.26.52l-.22.34a26.31,26.31,0,0,0-2.05-3,32.38,32.38,0,0,0-2.41-2.74l.05,0a22.43,22.43,0,0,0-3.43-1.58,1.56,1.56,0,0,0-.78-.09c-.07,0,0,.31.12.56a6,6,0,0,0,.49.78l.28.38.07.09a.4.4,0,0,1,.06.1.27.27,0,0,1,0,.13.28.28,0,0,1-.13.2.62.62,0,0,1-.38,0,5.1,5.1,0,0,1-1.81-.83,3.79,3.79,0,0,1-1.31-1.52,2.88,2.88,0,0,1-.11-2,5.24,5.24,0,0,1,.93-1.75l.15.34a2,2,0,0,0-1.11.84,4.59,4.59,0,0,0-.73,1.37,3,3,0,0,0,.4,2.9,5.1,5.1,0,0,0,2.67,1.54,15.19,15.19,0,0,0,3.19.43h0a.21.21,0,0,1,0,.41,19.71,19.71,0,0,1-5.65.33,11.67,11.67,0,0,1-5.38-1.73,8.43,8.43,0,0,1-2.09-2A9.24,9.24,0,0,1,115,99.8a15.1,15.1,0,0,1-.62-5.62l.38.07a2.07,2.07,0,0,1-.09.23,1,1,0,0,1-.16.24.18.18,0,0,1-.26,0h0c-.66-.69-1.33-1.35-2-2a12.51,12.51,0,0,0-2.3-1.63,2.73,2.73,0,0,0-2.55-.28,2.17,2.17,0,0,0-.84,1,4.5,4.5,0,0,0-.24.64l-.09.34,0,.18,0,.1,0,.06,0,.06a.2.2,0,0,1-.29,0l0,0a7.58,7.58,0,0,1-.85-1.42,2.73,2.73,0,0,1-.23-1.69,2.12,2.12,0,0,1,1.1-1.32,4.92,4.92,0,0,1,.76-.34l.39-.13.18-.06.06,0s-.07,0,0,.18l0,0s0,0,0,0l-.11-.06-.23-.13c-.16-.08-.32-.16-.49-.23-.33-.15-.67-.28-1-.41a17.42,17.42,0,0,0-2.11-.62,10.58,10.58,0,0,0-4.33-.2,5.22,5.22,0,0,0-1,.3l-.5.2-.45.28A5.86,5.86,0,0,0,95.28,89a8.28,8.28,0,0,0-1.08,1.87,5,5,0,0,0-.31,2.1,5.16,5.16,0,0,0,2.22,3.53,3.77,3.77,0,0,0,4,.19,3.31,3.31,0,0,0,1.56-1.35,1.44,1.44,0,0,0,.06-1,7.43,7.43,0,0,0-.23-1.06,3.12,3.12,0,0,0-1.11-1.74,2.1,2.1,0,0,0-2-.09l-.09-.31a.94.94,0,0,1,.8.26,3.05,3.05,0,0,1,.46.61h0a.79.79,0,0,1-.07,1,1.5,1.5,0,0,1-.81.5,1.54,1.54,0,0,1-1.64-.76,1.63,1.63,0,0,1,.14-1.8,2.86,2.86,0,0,1,1.5-1h0a5.69,5.69,0,0,1,2.9.7,4.32,4.32,0,0,1,1.93,2.27,6.41,6.41,0,0,1,.38,3,3.84,3.84,0,0,1-1.47,2.59,6,6,0,0,1-2.76,1.12,7.86,7.86,0,0,1-3-.08A5.77,5.77,0,0,1,94.21,98a10,10,0,0,1-1.9-2.28,7.11,7.11,0,0,1-1-2.81,6.81,6.81,0,0,1,.35-3c.19-.46.4-.91.63-1.35s.54-.84.83-1.23l1-1.12a9.72,9.72,0,0,1,1.11-1,8.72,8.72,0,0,1,5.56-1.81,15.71,15.71,0,0,1,5.74,1.31l-.13.23a35.1,35.1,0,0,0-7.7-4.16,23.87,23.87,0,0,0-4.22-1.16,19.75,19.75,0,0,0-4.36-.24A10.21,10.21,0,0,0,86,80.64a5.38,5.38,0,0,0-2.66,3.24,2,2,0,0,0,.35,1.94c.07.07.1.1.12.08a.51.51,0,0,0,.17-.13c.12-.12.23-.27.35-.41a5,5,0,0,1,.8-.79A2.75,2.75,0,0,1,87.29,84a5.77,5.77,0,0,1,2.06.86l0,0a4.53,4.53,0,0,1,.94,1.74,2.76,2.76,0,0,1-.19,2,4.6,4.6,0,0,1-3.22,2.13,4.49,4.49,0,0,1-3.66-1.19,7.34,7.34,0,0,1-2.06-3.31A8.12,8.12,0,0,1,81,82.37,6.83,6.83,0,0,1,82.82,79,11.59,11.59,0,0,1,86,76.74c.28-.15.6-.28.85-.43.05,0,0-.05,0,.06l-.09-.08-.18-.16-.35-.33c-.48-.43-.94-.89-1.43-1.31l-1.56-1.14c-.53-.36-1.12-.62-1.68-.94a18.27,18.27,0,0,0-1.8-.66c-.31-.06-.63-.1-.95-.15a3.51,3.51,0,0,0-1-.07,8.57,8.57,0,0,0-6.59,3.41,10.7,10.7,0,0,0-1.09,1.58,8.11,8.11,0,0,0-.62,1.81,4.47,4.47,0,0,0,.7,3.62,7.41,7.41,0,0,0,3,2.27,15,15,0,0,0,1.81.67l.93.26.47.12.24.06.12,0,.07,0,0,0a.13.13,0,0,1,0,.1.13.13,0,0,1-.06.08h0a10,10,0,0,1-6.05.74,6.32,6.32,0,0,1-4.43-4,9.31,9.31,0,0,1,0-6.08,12.09,12.09,0,0,1,3.32-5.13,13.88,13.88,0,0,1,5.34-3,22.55,22.55,0,0,1,6.1-.71,39,39,0,0,1,12,2.32h0l1.8.8h-.05a51.73,51.73,0,0,0,6.09-1.1l0,.17A26,26,0,0,1,96,69a11.48,11.48,0,0,1-4.72-2.09,6.46,6.46,0,0,1-2.46-4.45,8.3,8.3,0,0,1,.81-5.06,4.14,4.14,0,0,1,2-1.69,6.35,6.35,0,0,1,2.55-.48,9.59,9.59,0,0,1,1.3.09c.22,0,.43.06.64.11a2.12,2.12,0,0,1,.61.28,6.24,6.24,0,0,1,1.81,1.86,3.78,3.78,0,0,1,.64,2.5,3.51,3.51,0,0,1-1.38,2.17,3.9,3.9,0,0,1-2.38,1,3,3,0,0,1-2.31-1.14h0a1.87,1.87,0,0,1-.36-1.35,1.3,1.3,0,0,1,.91-1,1.16,1.16,0,0,1,1.3.43,1.26,1.26,0,0,1,.23.68.55.55,0,0,1-.4.6h0c-.17,0-.36.08-.57.1a.62.62,0,0,1-.59-.23l.12-.08a1.72,1.72,0,0,0,1.51,1A3.23,3.23,0,0,0,97,61.53a3.86,3.86,0,0,0,.73-.62,1.49,1.49,0,0,0,.15-.91,4.55,4.55,0,0,0-.63-1.82A3.74,3.74,0,0,0,96,56.8a4.24,4.24,0,0,0-1.88-.39,3.6,3.6,0,0,0-1.85.46A3.26,3.26,0,0,0,91,58.28a7.76,7.76,0,0,0-.55,3.82,5,5,0,0,0,2,3.2,12.55,12.55,0,0,0,3.42,1.88q.46.17.93.31c.16,0,.31.09.47.12l.2,0s0-.05-.07-.11a2.09,2.09,0,0,1-.44-.9,1,1,0,0,1,.5-.87h0c.15,0,.13.05.18.07l.09.09.17.18.35.34A5.94,5.94,0,0,0,99,67a5.77,5.77,0,0,0,1.78.77,8.5,8.5,0,0,0,3.88-.06l0,.12a6.37,6.37,0,0,1-1.95-1.65,2.49,2.49,0,0,1-.22-2.49,5.66,5.66,0,0,1,.67-1.1l.43-.48.11-.12.05-.06s0,0,0,0a1.66,1.66,0,0,0-.16-.25,8.71,8.71,0,0,1-1.29-2.21,4.69,4.69,0,0,1-.24-2.54,5.78,5.78,0,0,1,1.07-2.33,3.83,3.83,0,0,1,2.14-1.37,6,6,0,0,1,2.56,0h0a5.52,5.52,0,0,1-.66-3.45,2.21,2.21,0,0,1,1.13-1.41,4.71,4.71,0,0,1,1.75-.49c.3,0,.61,0,.91,0,.13,0,.19-.12.26-.25l.2-.4a5.09,5.09,0,0,1,1-1.53,2.54,2.54,0,0,1,1.65-.74,4.32,4.32,0,0,1,1.79.33l0,0q1.66,2,3.36,4.06c.57.67,1.14,1.33,1.73,2,.29.33.59.65.9,1a3.5,3.5,0,0,0,.48.42l.16.1a.43.43,0,0,1,.06.18,2.07,2.07,0,0,1,0,.34,17.36,17.36,0,0,1-1.32,5.1,25.25,25.25,0,0,1-2.48,4.65,23.8,23.8,0,0,1-7.62,7.19A26.09,26.09,0,0,1,101.24,73.6Z"/><path class="cls-1" d="M108.84,54.3a6.73,6.73,0,0,1,.18-1.86,3.65,3.65,0,0,1,2.42-2.67,4.32,4.32,0,0,1,1.86-.24h0a6.84,6.84,0,0,1,4.23,1.63A5.9,5.9,0,0,1,118.88,53a5.71,5.71,0,0,1,.41,1.11,2.09,2.09,0,0,1,0,.62,1.4,1.4,0,0,1-.08.32.72.72,0,0,1-.09.17.35.35,0,0,1-.1.09.23.23,0,0,1-.28,0h0a10.45,10.45,0,0,0-4.29-2.17,4,4,0,0,0-2.28.21,5.73,5.73,0,0,0-1.86,1.43,4.5,4.5,0,0,0-1.08,2,2.8,2.8,0,0,0,.43,2.14l.35.45.43.4a3.14,3.14,0,0,0,.94.62,2.43,2.43,0,0,0,2.11-.12A2.74,2.74,0,0,0,114,60l.19-.18.07-.09s0-.09,0,0a.25.25,0,0,0,0,.11.33.33,0,0,0,.15.21l0,0h0l-.14,0L114,60l-.63-.13a3.83,3.83,0,0,1-1.27-.51,1.62,1.62,0,0,1-.53-.58,1.77,1.77,0,0,1-.23-.74,1.71,1.71,0,0,1,.61-1.4,3.11,3.11,0,0,1,1.23-.69,2.07,2.07,0,0,1,.75-.1,5.21,5.21,0,0,1,.67.09,3.25,3.25,0,0,1,1.29.54A3,3,0,0,1,117,59a5.36,5.36,0,0,1-.15,1.33l0,.16a1.2,1.2,0,0,1-.07.22,2.52,2.52,0,0,1-.19.34c-.12.19-.25.36-.38.53-.26.34-.53.66-.82,1-.14.16-.29.32-.46.47a3.56,3.56,0,0,1-.27.23l-.2.13a.74.74,0,0,1-.2.07.55.55,0,0,1-.5-.14,3.28,3.28,0,0,0-2-.87l-.1,0c.1,0,0,0-.06,0h-.2a1.82,1.82,0,0,0-.41.1,2.07,2.07,0,0,0-.73.47,2.34,2.34,0,0,0-.74,1.5c0,.39.56.79,1.1.9h-.06l-.08,0a.47.47,0,0,0-.15.12.52.52,0,0,0-.13.27.51.51,0,0,0,.09.36l0,0,.08.07h0l0,0A1.39,1.39,0,0,1,110,66a1.08,1.08,0,0,1-.15-1,2.61,2.61,0,0,1,.7-1.19,1.52,1.52,0,0,1,1.53-.26,1.35,1.35,0,0,1,.9,1.31,1.75,1.75,0,0,1-.19.72l-.21.33-.25.24a4.21,4.21,0,0,1-1.06.62,12.36,12.36,0,0,1-2.16.66c-.36.08-.73.15-1.09.21l-.56.07-.29,0h-.26a.59.59,0,0,1-.32-.12l0,0a3.19,3.19,0,0,1-1.2-1.75,3.62,3.62,0,0,1,.17-2.06,8.48,8.48,0,0,1,.91-1.75l.22-.35a.09.09,0,0,0,0,.09l0-.06,0-.11-.1-.22c-.13-.3-.24-.6-.35-.91a6,6,0,0,1-.24-3.84,3.39,3.39,0,0,1,1.15-1.56A7.88,7.88,0,0,1,108.84,54.3Zm.1,0c-.15.21-.29.19-.44.28l-.43.21a4.55,4.55,0,0,0-.79.52,3.21,3.21,0,0,0-1,1.51,5.42,5.42,0,0,0,.37,3.65c.12.29.24.58.39.86l.11.21.05.11,0,.05a.42.42,0,0,1,0,.2,3.46,3.46,0,0,1-.25.48,7.94,7.94,0,0,0-.77,1.69,3,3,0,0,0-.06,1.71,2.48,2.48,0,0,0,1,1.29l0,0A.23.23,0,0,0,107,67h.15l.25,0,.52-.09c.35-.06.69-.14,1-.23a11.52,11.52,0,0,0,2-.67,3.33,3.33,0,0,0,.8-.49l.14-.14a.78.78,0,0,1,.08-.13.78.78,0,0,0,.08-.32.36.36,0,0,0-.26-.35.51.51,0,0,0-.52.09,1.86,1.86,0,0,0-.37.68c0,.13,0,.11,0,.07l.09.07,0,0h0l.11.09,0,.06a.55.55,0,0,1,.09.37.49.49,0,0,1-.13.28.56.56,0,0,1-.17.12l-.09,0h-.15a1.23,1.23,0,0,1-.24,0,2.92,2.92,0,0,1-1.21-.54,1.83,1.83,0,0,1-.74-1.27,2.31,2.31,0,0,1,.33-1.33,4.07,4.07,0,0,1,.74-1,3.08,3.08,0,0,1,1.1-.69,2.82,2.82,0,0,1,.65-.15h.34a1.19,1.19,0,0,1,.47.1l-.1,0a8.59,8.59,0,0,1,1.25.35,3.61,3.61,0,0,1,.64.32,2.38,2.38,0,0,1,.31.24l.15.15.07.09,0,0,0,0a.42.42,0,0,0-.35-.11l-.06,0,.06,0,.2-.16c.14-.13.28-.27.41-.41s.54-.6.78-.91c.12-.16.24-.31.35-.47l.12-.2,0-.08,0-.14a4.49,4.49,0,0,0,.15-1.12,2.19,2.19,0,0,0-.81-1.83,2.43,2.43,0,0,0-1-.42,4.43,4.43,0,0,0-.56-.09,1.31,1.31,0,0,0-.47.06c-.67.18-1.37.72-1.3,1.27a1,1,0,0,0,.14.43.86.86,0,0,0,.29.33,3.15,3.15,0,0,0,1,.42l.58.12.3.05.17,0,.12,0,.11,0a.4.4,0,0,1,.17.24.47.47,0,0,1,0,.14.65.65,0,0,1-.14.3l-.13.15a2.72,2.72,0,0,1-.26.24,3.44,3.44,0,0,1-.58.37,3.11,3.11,0,0,1-2.68.11,3.77,3.77,0,0,1-1.11-.74l-.47-.46c-.14-.17-.27-.36-.4-.54a3.42,3.42,0,0,1-.48-2.59,5.07,5.07,0,0,1,1.24-2.28A6.26,6.26,0,0,1,112,52.9a4.33,4.33,0,0,1,2.58-.21A10.83,10.83,0,0,1,119,55.06h0a.13.13,0,0,0-.15,0s0,0,0,0l0-.08a1.07,1.07,0,0,0,.06-.23,1.77,1.77,0,0,0,0-.52,5.53,5.53,0,0,0-.35-1,5.64,5.64,0,0,0-1.24-1.83,6.61,6.61,0,0,0-4.08-1.67h0a4.06,4.06,0,0,0-1.8.21,3.55,3.55,0,0,0-2.36,2.6A6.64,6.64,0,0,0,108.94,54.29Z"/><path class="cls-1" d="M96,189.25c.84.84,1.67,1.72,2.52,2.54l2.58,2.49a.16.16,0,0,1-.19.27h0a4.33,4.33,0,0,0-1.68-.5,2.59,2.59,0,0,0-1.6.44,5.56,5.56,0,0,0-2,2.81l-.51-.31a4.25,4.25,0,0,1,3.27-1.5,2.52,2.52,0,0,1,1.79.79,2,2,0,0,1,.42,2,3.12,3.12,0,0,1-1.18,1.56,4.08,4.08,0,0,1-1.82.62A8.12,8.12,0,0,1,94,200a5,5,0,0,1-1.64-.94,3.29,3.29,0,0,1-.65-.81l-.37-.82a6.13,6.13,0,0,1-.42-3.59,5.13,5.13,0,0,1,2-3A11.12,11.12,0,0,1,96,189.25Zm0,.1a9.15,9.15,0,0,0-2.84,1.78,4.57,4.57,0,0,0-1.46,2.82,6.16,6.16,0,0,0,.62,3.09l.35.73a2.33,2.33,0,0,0,.43.51,4.51,4.51,0,0,0,1.33.74,7.55,7.55,0,0,0,3.14.47,3.25,3.25,0,0,0,1.42-.41,2.3,2.3,0,0,0,.91-1.09,1.23,1.23,0,0,0-.22-1.23,1.78,1.78,0,0,0-1.26-.58,3.59,3.59,0,0,0-2.79,1.23h0a.3.3,0,0,1-.5-.32,7.5,7.5,0,0,1,.89-1.7A4.79,4.79,0,0,1,97.37,194a3,3,0,0,1,1.9-.43,4.51,4.51,0,0,1,1.79.63l-.19.26-2.42-2.61C97.64,191,96.8,190.2,96,189.34Z"/><path class="cls-1" d="M83.28,209A3,3,0,0,0,82,211a2.08,2.08,0,0,0,.22,1.1,4.23,4.23,0,0,0,.33.49l.2.23,0,.06,0,0a.22.22,0,0,0-.07-.06c-.14-.07-.17,0-.15-.05a2.34,2.34,0,0,0,.72-.74,4.09,4.09,0,0,0,.49-1,1.76,1.76,0,0,0,0-1A4.05,4.05,0,0,0,83.28,209Zm0-.1a2.19,2.19,0,0,1,1.17.87,2.14,2.14,0,0,1,.29,1.54,2.84,2.84,0,0,1-.68,1.35,3,3,0,0,1-1.29.89.59.59,0,0,1-.47-.06.58.58,0,0,1-.13-.12l0,0,0-.07-.19-.29a4.88,4.88,0,0,1-.32-.64,2.65,2.65,0,0,1-.12-1.45,2.6,2.6,0,0,1,.7-1.21A3.73,3.73,0,0,1,83.29,208.94Z"/><path class="cls-1" d="M77.44,210.19c0,.14.35.16.54.15a2.28,2.28,0,0,0,.63-.13,3.3,3.3,0,0,0,1.07-.63,1.58,1.58,0,0,0,.56-1,2.19,2.19,0,0,0-.14-1.11l0-.12a.36.36,0,0,0,.2.35c.07,0,0,0,0,0h-.43a3.1,3.1,0,0,0-.53.1,2.91,2.91,0,0,0-.9.4,2.21,2.21,0,0,0-.71.75,2.49,2.49,0,0,0-.23.56A4.27,4.27,0,0,0,77.44,210.19Zm-.1,0a8.47,8.47,0,0,1-.11-1.32,1.91,1.91,0,0,1,.57-1.36,2.38,2.38,0,0,1,1.35-.64,3.17,3.17,0,0,1,.72,0l.36,0,.19,0,.12,0,.1,0a.49.49,0,0,1,.27.39l0-.12a3,3,0,0,1,0,1.5A2.17,2.17,0,0,1,80,210a2.88,2.88,0,0,1-1.33.44,4.94,4.94,0,0,1-.68,0l-.34,0C77.54,210.38,77.38,210.37,77.34,210.2Z"/><path class="cls-1" d="M86.32,208.53a4.27,4.27,0,0,0,0,1.18,2.17,2.17,0,0,0,.39,1.06,1.75,1.75,0,0,0,.86.63,3.58,3.58,0,0,0,1.1.2h0c-.22,0-.25.07-.26.07l0-.06a1.65,1.65,0,0,0,0-.25,2.49,2.49,0,0,0,0-.57,3.9,3.9,0,0,0-.3-1.06,1.75,1.75,0,0,0-.67-.78A4.12,4.12,0,0,0,86.32,208.53Zm-.06-.08a2.21,2.21,0,0,1,1.48-.17,2.11,2.11,0,0,1,1.28,1,2.75,2.75,0,0,1,.38,1.5,3.91,3.91,0,0,1-.09.76,2.32,2.32,0,0,1-.13.4,1.23,1.23,0,0,1-.14.24.54.54,0,0,1-.53.22h0a4.26,4.26,0,0,1-1.3-.4,2.26,2.26,0,0,1-1-1,2.56,2.56,0,0,1-.27-1.3A3.61,3.61,0,0,1,86.26,208.46Z"/><path class="cls-1" d="M86.36,202.84c-.24-.12-.47-.25-.71-.36a3.57,3.57,0,0,0-.76-.2,2.42,2.42,0,0,0-1.5.21,3,3,0,0,0-1.13,1,4.54,4.54,0,0,0-.69,1.33v-.07a2.82,2.82,0,0,0,.3,1.36,2.12,2.12,0,0,0,1,.88,4.55,4.55,0,0,0,2.8.11,2,2,0,0,0,1.09-.61,3.22,3.22,0,0,0,.71-1.14,1.8,1.8,0,0,0-.08-1.36A2.76,2.76,0,0,0,86.36,202.84Zm.05-.09a4.34,4.34,0,0,1,1.28,1,2.38,2.38,0,0,1,.51,1.67,3,3,0,0,1-.68,1.67,2.78,2.78,0,0,1-1.6,1,5.15,5.15,0,0,1-3.4-.38,2.89,2.89,0,0,1-1.26-1.28,3.46,3.46,0,0,1-.28-1.72.24.24,0,0,1,0-.07,5.05,5.05,0,0,1,.87-1.46,3.22,3.22,0,0,1,1.4-1,2.94,2.94,0,0,1,1.65,0,6.76,6.76,0,0,1,.77.25Z"/><path class="cls-1" d="M88.83,206.42a4.32,4.32,0,0,0,.33,1.14,2.21,2.21,0,0,0,.71.88,1.74,1.74,0,0,0,1,.33,3.51,3.51,0,0,0,1.11-.16l-.05,0c-.22.12-.1.11-.14,0a1.33,1.33,0,0,0,0-.25,2.64,2.64,0,0,0-.19-.54,3.73,3.73,0,0,0-.62-.93,1.69,1.69,0,0,0-.89-.52,2.14,2.14,0,0,0-.59,0A4.42,4.42,0,0,0,88.83,206.42Zm-.09-.05a2.72,2.72,0,0,1,.61-.45,2,2,0,0,1,.74-.22,2.09,2.09,0,0,1,1.55.5,2.74,2.74,0,0,1,.84,1.33,4.13,4.13,0,0,1,.14.77,2,2,0,0,1,0,.43.92.92,0,0,1-.06.27.64.64,0,0,1-.32.36h-.05a4.19,4.19,0,0,1-1.36,0,2.25,2.25,0,0,1-1.25-.59,2.61,2.61,0,0,1-.67-1.15A3.67,3.67,0,0,1,88.74,206.37Z"/><path class="cls-1" d="M79.24,204.91a3,3,0,0,0-2.28-.6,2,2,0,0,0-1,.55,4,4,0,0,0-.35.46l-.15.25,0,.08c0-.26,0-.21,0-.22a2.44,2.44,0,0,0,.93.43,4.25,4.25,0,0,0,1.06.16,1.7,1.7,0,0,0,1-.26A3.76,3.76,0,0,0,79.24,204.91Zm.1,0a2,2,0,0,1-1.8,2.13,2.85,2.85,0,0,1-1.48-.22,3.17,3.17,0,0,1-1.25-.9.55.55,0,0,1-.08-.52.92.92,0,0,1,.12-.19l.22-.29a4.57,4.57,0,0,1,.5-.51,2.55,2.55,0,0,1,1.32-.57A3.2,3.2,0,0,1,79.33,204.88Z"/><path class="cls-1" d="M130,156.53a7.5,7.5,0,0,0-4.51,4,6.15,6.15,0,0,0-.39,1.48,2.12,2.12,0,0,0,.15,1.46,4.5,4.5,0,0,0,2.3,1.88,18.45,18.45,0,0,0,6,1.23,14.63,14.63,0,0,0,5.8-1.69,5.21,5.21,0,0,0,2.06-2,3.73,3.73,0,0,0,.17-2.79,5.41,5.41,0,0,0-4.2-3.67c-.49-.12-1-.19-1.5-.27a1.86,1.86,0,0,1-.25-.05.53.53,0,0,1-.2-.1.85.85,0,0,1-.16-.22,2.69,2.69,0,0,1-.14-.44,7.35,7.35,0,0,1-.15-.81,6.68,6.68,0,0,1,.31-3.27,2.47,2.47,0,0,1,1.24-1.33,3.28,3.28,0,0,1,1.77-.21,4.17,4.17,0,0,1,2.79,2,.46.46,0,0,1-.47.71h0c-1.2-.2-2.74,0-2.69,1.06a2.51,2.51,0,0,0,.11.81,1,1,0,0,0,.45.52,2.36,2.36,0,0,0,1.6.34,1.43,1.43,0,0,0,1.17-.89,2.72,2.72,0,0,0,0-1.71,7.39,7.39,0,0,0-1.86-3.35,4.74,4.74,0,0,0-6.92-.25,7.61,7.61,0,0,0-1.88,3.53A21,21,0,0,0,130,156.53Zm-.08-.07c0-2.65.31-5.65,2.2-7.85a5.35,5.35,0,0,1,7.83-.07,8.3,8.3,0,0,1,2.23,3.72,3.68,3.68,0,0,1,0,2.34,2.42,2.42,0,0,1-.77,1,2.76,2.76,0,0,1-1.17.49,3.29,3.29,0,0,1-2.35-.5,2,2,0,0,1-.84-1,3.42,3.42,0,0,1-.16-1.22,2.67,2.67,0,0,1,.13-.65,2.06,2.06,0,0,1,.37-.59,2.2,2.2,0,0,1,1.12-.65,5.28,5.28,0,0,1,2.28,0l-.51.7a3.28,3.28,0,0,0-2.11-1.55,2.44,2.44,0,0,0-1.28.12,1.61,1.61,0,0,0-.82.87,5.87,5.87,0,0,0-.3,2.85,6.62,6.62,0,0,0,.12.72,2.17,2.17,0,0,0,.09.3s-.1-.08-.09-.08l.13,0c.5.08,1,.17,1.56.3a7.11,7.11,0,0,1,2.9,1.45,5.56,5.56,0,0,1,1.74,2.75,4.36,4.36,0,0,1-.25,3.25,5.78,5.78,0,0,1-2.32,2.24,14.48,14.48,0,0,1-6.07,1.65,18.7,18.7,0,0,1-6.1-1.43,4.76,4.76,0,0,1-2.36-2,2.38,2.38,0,0,1-.21-.78A3.24,3.24,0,0,1,125,162a6.28,6.28,0,0,1,.44-1.5A7.62,7.62,0,0,1,129.95,156.46Z"/><path class="cls-1" d="M106.64,132.09a1.26,1.26,0,0,0-.49-1.06,1.52,1.52,0,0,0-1.06-.29,1.23,1.23,0,0,0,0,2.45A1.66,1.66,0,0,0,106,133,1.14,1.14,0,0,0,106.64,132.09Zm.1,0a2.23,2.23,0,0,1-.32,1.33,1.69,1.69,0,0,1-1.33.77,1.88,1.88,0,0,1-1.49-.61,2.09,2.09,0,0,1-.51-1.49,2,2,0,0,1,.63-1.37,1.89,1.89,0,0,1,1.37-.48,1.69,1.69,0,0,1,1.21.64A2.12,2.12,0,0,1,106.74,132.09Z"/><path class="cls-1" d="M109.94,125.49a1.23,1.23,0,0,0-.54-1.07,1.7,1.7,0,0,0-1.11-.28,1.23,1.23,0,1,0,0,2.45,1.89,1.89,0,0,0,1-.15A1.12,1.12,0,0,0,109.94,125.49Zm.1,0a2.11,2.11,0,0,1-.39,1.34,1.8,1.8,0,0,1-1.36.76,2,2,0,0,1-2.1-2.1,2,2,0,0,1,2.1-1.85A1.94,1.94,0,0,1,110,125.49Z"/><path class="cls-1" d="M123.34,116.59a1.85,1.85,0,0,0-1.47-1.77,2.26,2.26,0,0,0-2.15.51,1.54,1.54,0,0,0-.33,1.9,2.14,2.14,0,0,0,1.7,1h0a3.21,3.21,0,0,0,1.42-.34,1.92,1.92,0,0,0,.6-.51A1.41,1.41,0,0,0,123.34,116.59Zm.1,0a2.68,2.68,0,0,1-2.31,2.6h0a2.61,2.61,0,0,1-2.5-1.57,2.34,2.34,0,0,1,.71-2.78,2.62,2.62,0,0,1,2.71-.37A2.52,2.52,0,0,1,123.44,116.59Z"/><path class="cls-1" d="M111.84,119.79a1.33,1.33,0,0,0,.61,1.15,2,2,0,0,0,1.23.3,1.55,1.55,0,0,0,1.51-1.45,1.49,1.49,0,0,0-1.49-1.2,2.18,2.18,0,0,0-1.12.18A1.23,1.23,0,0,0,111.84,119.79Zm-.1,0a2.16,2.16,0,0,1,2-2.2,2.22,2.22,0,0,1,1.62.59,2.13,2.13,0,0,1,.67,1.61,2.19,2.19,0,0,1-2.31,1.95A2.08,2.08,0,0,1,111.74,119.79Z"/><path class="cls-1" d="M106.19,141.64a1.4,1.4,0,0,0,1.45-1.45,1.35,1.35,0,0,0-2.65,0,1.26,1.26,0,0,0,1.2,1.44Zm0,.1a2.7,2.7,0,0,1-1.33-.24,1.55,1.55,0,0,1-.87-1.29,1.74,1.74,0,0,1,.72-1.47,2.31,2.31,0,0,1,1.47-.45,2,2,0,0,1,2,1.89,1.52,1.52,0,0,1-.73,1.16A2.5,2.5,0,0,1,106.19,141.74Z"/><path class="cls-1" d="M91.73,44.58A1.24,1.24,0,0,0,93,44.8a1.13,1.13,0,0,0,.47-.34,2.48,2.48,0,0,0,.17-.26l.07-.14,0,0v0h0l0,.06c-.06.09,0,.27,0,.25v0a2,2,0,0,0-.48-.15c-.19,0-.36-.05-.51-.07a1.23,1.23,0,0,0-.51,0A.84.84,0,0,0,91.73,44.58Zm-.1,0a3.45,3.45,0,0,1,.2-.85,1.1,1.1,0,0,1,.79-.63,1.6,1.6,0,0,1,.95.13,2.26,2.26,0,0,1,.79.6l.06.1a.51.51,0,0,1,0,.34l0,.09h0l0,0,0,0-.14.17a3.09,3.09,0,0,1-.31.31,1.69,1.69,0,0,1-.82.36,1.31,1.31,0,0,1-.81-.22A6.57,6.57,0,0,1,91.64,44.61Z"/><path class="cls-1" d="M90.72,48.53a2.9,2.9,0,0,0,.07.66,1.11,1.11,0,0,0,.3.54.91.91,0,0,0,.49.25,2,2,0,0,0,.6,0l.12,0A.3.3,0,0,0,92,50a.33.33,0,0,0-.09.06c0,.08,0,0,0,0v-.09a1.22,1.22,0,0,0-.07-.27c-.06-.18-.14-.35-.21-.5a1.17,1.17,0,0,0-.57-.58A1.27,1.27,0,0,0,90.72,48.53Zm-.07-.07a1.15,1.15,0,0,1,.42-.22,1.17,1.17,0,0,1,.48,0,1.39,1.39,0,0,1,.89.5,1.59,1.59,0,0,1,.34.91,2.57,2.57,0,0,1,0,.49,1.43,1.43,0,0,1-.07.28.65.65,0,0,1-.11.21.51.51,0,0,1-.15.13.52.52,0,0,1-.37,0l.12,0a2.7,2.7,0,0,1-.81-.2A1.44,1.44,0,0,1,90.7,50a1.51,1.51,0,0,1-.2-.8A2,2,0,0,1,90.65,48.46Z"/><path class="cls-1" d="M89,49.68s0,0,0,0,0,0,.07.05v0l0,0,0,0-.06.06a1.38,1.38,0,0,0-.11.14,1.2,1.2,0,0,0-.16.31,1.49,1.49,0,0,0-.07.62,1.2,1.2,0,0,0,.65.87l0,0a.28.28,0,0,0-.24-.1h-.07s0,0,0,0l.06-.09a1.36,1.36,0,0,0,.13-.26,4.2,4.2,0,0,0,.16-.52,1.6,1.6,0,0,0,.08-.52.85.85,0,0,0-.12-.33A3.08,3.08,0,0,0,89,49.68Zm.1,0c.14.06.24,0,.36.09a1.38,1.38,0,0,1,.42.21,1.11,1.11,0,0,1,.47.93,1.55,1.55,0,0,1-.34.93,3,3,0,0,1-.33.35,1.61,1.61,0,0,1-.23.17.72.72,0,0,1-.19.09.51.51,0,0,1-.16,0,.52.52,0,0,1-.33-.13l0,0a1.76,1.76,0,0,1-.64-1.5,1.4,1.4,0,0,1,.37-.7l.25-.27L89,49.8l.06-.07,0,0h0s-.06,0,.06,0S89.12,49.71,89.14,49.71Z"/><path class="cls-1" d="M92,47a1.34,1.34,0,0,0,1.15.62,1,1,0,0,0,.55-.16,2,2,0,0,0,.24-.19l.11-.11,0,0,0,0a.3.3,0,0,0-.06.19.07.07,0,0,0,0,0s-.07-.07-.14-.11a1.21,1.21,0,0,0-.24-.15,5,5,0,0,0-.46-.22,1.32,1.32,0,0,0-.5-.15.88.88,0,0,0-.34.06A1.16,1.16,0,0,0,92,47Zm-.1,0a3.74,3.74,0,0,1,.48-.72,1.12,1.12,0,0,1,.94-.35,1.57,1.57,0,0,1,.87.42,2.23,2.23,0,0,1,.3.35,1.37,1.37,0,0,1,.25.51,1,1,0,0,1,0,.12.54.54,0,0,1-.08.27c-.08.11-.07.08-.09.1l0,0-.18.12a2.64,2.64,0,0,1-.4.2,1.56,1.56,0,0,1-.9.06,1.38,1.38,0,0,1-.69-.48C92.24,47.41,92.11,47.25,91.94,47Z"/><path class="cls-1" d="M54.19,168.54a2.42,2.42,0,0,1,.68.1.48.48,0,0,1,.26.26.49.49,0,0,1-.06.35,2.84,2.84,0,0,1-1,.91,3.28,3.28,0,0,1-1.26.49c-.22,0-.53-.09-.45.14a1.1,1.1,0,0,0,.4.48,4.76,4.76,0,0,0,2.47.8,9.81,9.81,0,0,0,2.62-.19h0a1.82,1.82,0,0,1,1.68.79,5.52,5.52,0,0,1,.86,1.63,12.88,12.88,0,0,1,.46,1.76l.15.9c0,.06,0,.12,0,.06s-.13,0-.07,0a1.18,1.18,0,0,0,.25-.26,6.71,6.71,0,0,0,1.09-3.22,4.53,4.53,0,0,0,0-.84c0-.07,0-.14,0-.2a.88.88,0,0,1,0-.35.76.76,0,0,1,.5-.47,3.17,3.17,0,0,1,2,.1,3.23,3.23,0,0,1,1.59,1.13,2.86,2.86,0,0,1,.43.91,2.28,2.28,0,0,1,.09.49l0,.12v.11c.13-.12-.44-.44-.39-.31-.24.1-.12.07-.16.08l0,0,0-.08a3.8,3.8,0,0,0,.12-3.17,4.57,4.57,0,0,0-.91-1.38,3.64,3.64,0,0,0-1.25-.94c-.89-.23-2.21.51-3.57.08a4.28,4.28,0,0,1-1.7-1,14.92,14.92,0,0,1-1.34-1.27,3.46,3.46,0,0,1-.58-.85,3.54,3.54,0,0,1-.24-1,3.12,3.12,0,0,0-.45-1.42,5.21,5.21,0,0,0-3-1.11,7.36,7.36,0,0,0-3.28.23,1.32,1.32,0,0,0-.32.16l-.14.09-.07.06,0-.06a.43.43,0,0,0,.06-.15c.11-.14-.18-.57-.23-.53a.44.44,0,0,0-.17-.06h.38l.5,0a6.72,6.72,0,0,1,1.86.51,10.92,10.92,0,0,1,1.65.88,7.61,7.61,0,0,1,1.49,1.17,1.06,1.06,0,0,1-.51,1.91,7.18,7.18,0,0,1-1.86.25,15.09,15.09,0,0,1-3.64-.31h0l-.06,0s0,0,0,0,0,0,.11-.07a.13.13,0,0,0,0-.12h0l.08.1.26.25c.18.16.38.31.57.46a12.91,12.91,0,0,0,1.23.8A6.22,6.22,0,0,0,54.19,168.54Zm0,.1a6.36,6.36,0,0,1-2.85-.86,13.14,13.14,0,0,1-1.28-.78l-.61-.44-.29-.25a.74.74,0,0,1-.16-.18v0a.19.19,0,0,1,0-.14c.06-.09.09-.07.15-.09a.27.27,0,0,1,.11,0l.1,0h0a15,15,0,0,0,3.5.06c1-.09,2.81-.44,1.82-1.08a8,8,0,0,0-1.37-1,10,10,0,0,0-1.54-.75,5.77,5.77,0,0,0-1.6-.38h-.4l-.48,0h-.06a.58.58,0,0,1-.2-.07c-.05,0-.35-.4-.24-.55a.59.59,0,0,1,.07-.18.67.67,0,0,1,.12-.14l.1-.09.23-.16a2.24,2.24,0,0,1,.48-.25,8.08,8.08,0,0,1,3.8-.32,9.49,9.49,0,0,1,1.85.43,4.06,4.06,0,0,1,1.73,1.07,2.28,2.28,0,0,1,.47,1,7.33,7.33,0,0,1,.17.94,2.7,2.7,0,0,0,.15.75,2.58,2.58,0,0,0,.42.63,14.24,14.24,0,0,0,1.24,1.22,3.05,3.05,0,0,0,2.94.88,4.76,4.76,0,0,1,1.94-.07,2.52,2.52,0,0,1,.91.53,7.06,7.06,0,0,1,.68.65,5.31,5.31,0,0,1,1,1.62,4.48,4.48,0,0,1-.21,3.77l-.07.12,0,.07c-.06,0,0,0-.24.16,0,.13-.53-.2-.4-.33h0v-.17a1.68,1.68,0,0,0-.06-.39,2.21,2.21,0,0,0-.32-.71,2.61,2.61,0,0,0-1.27-.93,2.66,2.66,0,0,0-1.56-.13.44.44,0,0,0-.15.08s0,0,0,0a.55.55,0,0,0,0,.1c0,.08,0,.16,0,.24a5.08,5.08,0,0,1,0,.95A7,7,0,0,1,61.56,177a1.55,1.55,0,0,1-.38.37.54.54,0,0,1-.18.07.35.35,0,0,1-.3-.09.54.54,0,0,1-.14-.35l-.12-.87a12.49,12.49,0,0,0-.39-1.72,5.19,5.19,0,0,0-.76-1.55,1.58,1.58,0,0,0-1.37-.74h0a10.37,10.37,0,0,1-2.69.12,4.89,4.89,0,0,1-2.52-.89,1.26,1.26,0,0,1-.43-.54.23.23,0,0,1,0-.2.24.24,0,0,1,.19-.07h.33a3.19,3.19,0,0,0,1.21-.47,2.76,2.76,0,0,0,1-.87.3.3,0,0,0-.15-.47A2.35,2.35,0,0,0,54.19,168.64Z"/><path class="cls-1" d="M72.36,150.54a6.69,6.69,0,0,0-.8-1.76,2.67,2.67,0,0,0-1.46-1.12,3.21,3.21,0,0,0-1.85.1,12.49,12.49,0,0,0-1.74.78l-.13,0s0,0-.1,0a.16.16,0,0,1-.08-.07l-.14-.19-.27-.39a7.54,7.54,0,0,0-.62-.72,3.62,3.62,0,0,0-1.6-.92,3.67,3.67,0,0,0-3.3,1.37.11.11,0,0,1-.1,0c-.56-.14-1.12-.26-1.69-.37-.28-.05-.57-.1-.85-.12a1.86,1.86,0,0,0-.4,0c-.07,0-.06,0-.05,0a.44.44,0,0,0,.09.11h0a12.82,12.82,0,0,1,2.27,2.15,11.13,11.13,0,0,1,1.65,2.65,8,8,0,0,1,.68,3.06,8.62,8.62,0,0,1-.52,3.09.13.13,0,0,1,0,.06l-1,.9h0A.16.16,0,0,1,60,159a10.41,10.41,0,0,0,1.09-2.76,3.9,3.9,0,0,0-.3-2.81,4.13,4.13,0,0,0-2.24-1.71,1.61,1.61,0,0,0-1.25.35c-.36.26-.68.71-.56,1v.07a.2.2,0,0,0-.11-.18l-.07,0h0l.1,0,.21-.06.44-.1a4.11,4.11,0,0,1,.9-.06,2.75,2.75,0,0,1,1.71.66,3.07,3.07,0,0,1,.32.34l.14.18.06.09a.45.45,0,0,1,.09.18.19.19,0,0,1,0,.14.27.27,0,0,1-.13.14l-.12,0H60a2.44,2.44,0,0,0-.39,0,2.13,2.13,0,0,0-1.28.84l-.12.16,0,0v0a.19.19,0,0,0,0-.17c0-.07-.13-.14-.13-.13h0l.41,0a5.9,5.9,0,0,1,.9,0,2.31,2.31,0,0,1,.93.2,1.26,1.26,0,0,1,.67.78,3.08,3.08,0,0,1-.21,1.84,6.68,6.68,0,0,1-.78,1.61l0,0h0A3.64,3.64,0,0,0,59,161v-.06a1,1,0,0,1-.06.28c0,.06,0,.14,0,.12l0,.14-1.3,1.81-.4-.34,1.17-1.38v0a.27.27,0,0,1,.45.27,8.14,8.14,0,0,1-.21.84l0,.06h0l-.4.4-.38-.38.3-.3a.27.27,0,0,1,.46.22v0a5.64,5.64,0,0,0,.1,2.52,3.34,3.34,0,0,0,1.5,1.89,4.78,4.78,0,0,0,2.41.62,4.27,4.27,0,0,0,1.24-.16c.37-.11.8-.3.91-.55l0,.13a12.07,12.07,0,0,1,2-5.63,18,18,0,0,1,4-4.36,14.4,14.4,0,0,1,1.2-.88l.61-.42.12-.08h0l0,.06,0,0a.33.33,0,0,0,0,.22.34.34,0,0,0,.17.21l.07,0h.08l-.31.14c-.87.41-1.73.87-2.58,1.33s-1.7.95-2.53,1.45a13.27,13.27,0,0,0-2.29,1.62l0,0a.36.36,0,0,1-.57-.43c.44-.79.85-1.6,1.23-2.42a14.25,14.25,0,0,0,.92-2.49v0h0c.06,0-.19,0,.16.43.55.11.4-.09.47-.06h0l0,0h0l0,.06-.07.12-.14.25-.28.5-.59,1c-.4.66-.83,1.31-1.3,1.94a9,9,0,0,1-1.64,1.75,2.38,2.38,0,0,1-1.25.54,1,1,0,0,1-.85-.34,1.11,1.11,0,0,1-.15-.87,6.81,6.81,0,0,1,1.1-2.19,23.21,23.21,0,0,1,1.43-1.85,25.55,25.55,0,0,1,3.31-3.28l0,0,0,.05,0,0v0s-.13.11,0,.43.44.16.45.18h0l0,0h0l-.09.05-.19.12-.38.26-.75.54-1.49,1.12c-1,.76-1.94,1.54-2.86,2.36a.46.46,0,0,1-.73-.51,9.33,9.33,0,0,0,.66-3.56,9.1,9.1,0,0,0-.79-3.52c-.13-.28-.25-.55-.41-.83l-.11-.21,0-.05v0a.63.63,0,0,1,0-.12.58.58,0,0,1,0-.37l.06-.12a2.67,2.67,0,0,1,.4-.45,5.62,5.62,0,0,1,1.76-1.14,2.53,2.53,0,0,1,.58-.14,1.56,1.56,0,0,1,.35,0l.31.07c.28.08.61.16.93.27a3.76,3.76,0,0,1,1.83,1.17l0,0c-.19-.15-.13-.07-.1-.09h1.34a13.79,13.79,0,0,1,1.67,0,2.89,2.89,0,0,1,.92.24,6.48,6.48,0,0,1,.77.41c.24.15.47.3.69.46l.59.42,0,0h0l.55.23.66.27c.44.19.88.39,1.31.62a6.18,6.18,0,0,1,1.27.86A5.31,5.31,0,0,1,77,153.8c.24.41.46.84.69,1.2.1.15.25.35.4.55s.28.41.4.62a6.13,6.13,0,0,1,.63,1.39,4.31,4.31,0,0,1,.15.78c0,.25,0,.54,0,.65v0a.37.37,0,0,1,0,.08.6.6,0,0,1,0,.21.59.59,0,0,1-.56.39h0a.53.53,0,0,1-.22-.06,1.53,1.53,0,0,0-.71,0,6.42,6.42,0,0,0-.92.23,16.17,16.17,0,0,0-1.85.75,32.75,32.75,0,0,0-3.54,2A34.72,34.72,0,0,0,68.12,165a19.87,19.87,0,0,0-2.88,2.81l-.65-.61,2.55-2a.42.42,0,0,1,.54.65h0a25.17,25.17,0,0,0-2.38,2.25l-.57-.57,3.34-2.9h0A26,26,0,0,1,72,162.32a7.72,7.72,0,0,1,2.23-.67,3.34,3.34,0,0,1,1.24.09,3.43,3.43,0,0,1,.59.29,2.87,2.87,0,0,1,.46.47,3.19,3.19,0,0,1,.3.56l.17.59.07.6,0,.15v.07h0s-.07-.27-.21-.28a.31.31,0,0,0-.24,0,.3.3,0,0,0-.1.09h0c0-.05.06-.14.08-.22a6.06,6.06,0,0,0,.32-2.09,2.15,2.15,0,0,0-.24-.94,1.43,1.43,0,0,0-.13-.19l-.08-.08a.38.38,0,0,1-.1-.25.28.28,0,0,1,.12-.23l.1-.06h.1a1.66,1.66,0,0,1,.68.09,2.35,2.35,0,0,1,1.06.67,2.11,2.11,0,0,1,.5,1.16v0c0-.06,0-.16-.19-.21a.18.18,0,0,0-.09,0l.05,0a1.06,1.06,0,0,0,.14-.18,1.66,1.66,0,0,0,.2-.47,2.06,2.06,0,0,0,0-1,.25.25,0,0,1,.17-.31h.11a5.54,5.54,0,0,1,1,.26l.45.19.21.09.06,0s-.11,0-.14.09l0,.06a4.17,4.17,0,0,0,0-1.58,3.63,3.63,0,0,0-.66-1.43A5.94,5.94,0,0,0,79,156.54c-.22-.16-.45-.32-.69-.47l-.36-.24a1.28,1.28,0,0,1-.18-.15l-.09-.09a.66.66,0,0,1-.07-.19h0v0c0-.36.11-.72.13-1.08a4.65,4.65,0,0,0-.09-1.07,2.8,2.8,0,0,0-1.08-1.8,4.5,4.5,0,0,0-2-.81A8.57,8.57,0,0,0,72.36,150.54Zm.05-.08a7.39,7.39,0,0,1,2.21,0,4.68,4.68,0,0,1,2.1.8,3,3,0,0,1,1.21,1.91,4.92,4.92,0,0,1,.12,1.14c0,.38-.07.75-.11,1.13v0h0l.06.05a1,1,0,0,0,.15.11l.35.22c.24.15.48.3.71.46a6.31,6.31,0,0,1,1.29,1.16,4.06,4.06,0,0,1,.78,1.58,4.41,4.41,0,0,1,0,1.76v.06A.34.34,0,0,1,81,161l-.17,0-.23-.1-.43-.17a5,5,0,0,0-.88-.22l.28-.31a2.57,2.57,0,0,1,0,1.3,2.17,2.17,0,0,1-.26.62,1.57,1.57,0,0,1-.22.28.81.81,0,0,1-.18.14.38.38,0,0,1-.23,0,.32.32,0,0,1-.26-.32v0a1.6,1.6,0,0,0-1.19-1.36,1.26,1.26,0,0,0-.42-.06h0l.07,0a.28.28,0,0,0,.09-.18c0-.1-.12-.24-.07-.19l.11.12a2,2,0,0,1,.19.27,2.71,2.71,0,0,1,.33,1.2,6.63,6.63,0,0,1-.33,2.31,2.83,2.83,0,0,1-.11.3l0,.07a.32.32,0,0,1-.11.1.3.3,0,0,1-.25,0c-.14,0-.24-.26-.22-.3h0v-.06l0-.13-.06-.52-.15-.48a2.61,2.61,0,0,0-.23-.42,1.68,1.68,0,0,0-1.7-.56,7.09,7.09,0,0,0-2,.64,25.35,25.35,0,0,0-3.79,2.24l0,0-3.26,2.9a.4.4,0,0,1-.57-.57,26,26,0,0,1,2.42-2.35l.53.66-2.45,2h0a.44.44,0,0,1-.63-.62,20.74,20.74,0,0,1,3-3,35.68,35.68,0,0,1,3.37-2.48,31.57,31.57,0,0,1,3.65-2.05,17.13,17.13,0,0,1,2-.8,7.36,7.36,0,0,1,1.08-.27,2.25,2.25,0,0,1,1.32.12l-.23-.06a.41.41,0,0,0-.29.13.4.4,0,0,0-.09.14.36.36,0,0,0,0,.13v.1c-.05-.35,0-.53-.06-.75a3.31,3.31,0,0,0-.12-.6,5.16,5.16,0,0,0-.53-1.16c-.11-.19-.24-.37-.36-.56s-.26-.35-.42-.59c-.27-.43-.48-.84-.71-1.24a4.44,4.44,0,0,0-.73-1,5.27,5.27,0,0,0-1.06-.71c-.39-.21-.81-.4-1.23-.58l-.64-.27a6.23,6.23,0,0,1-.73-.33l.05,0c-.36-.22-.48-.34-.72-.5s-.43-.3-.64-.43a5.53,5.53,0,0,0-.64-.35,1.86,1.86,0,0,0-.63-.16,13,13,0,0,0-1.54,0H66.36l-.24,0a.81.81,0,0,1-.48-.2l0,0,0,0a2.8,2.8,0,0,0-1.36-.84c-.28-.1-.57-.17-.9-.26a.58.58,0,0,0-.15,0s-.09,0-.13,0a1.57,1.57,0,0,0-.34.08,4.71,4.71,0,0,0-1.43.92,2.13,2.13,0,0,0-.24.26h0a.44.44,0,0,0,0-.26.36.36,0,0,0,0-.09h0v0l0,.05.11.22c.16.28.29.59.43.89a10,10,0,0,1,.85,3.89,10.25,10.25,0,0,1-.74,3.91L61,158c.95-.83,1.93-1.62,2.93-2.38l1.51-1.12.77-.55.39-.27.2-.13.11-.07.08,0,.06,0h0s.2-.11.46.18,0,.43,0,.43v0l0,0-.06.07,0,0h0a24.77,24.77,0,0,0-3.22,3.15,22.41,22.41,0,0,0-1.39,1.77,6.29,6.29,0,0,0-1,1.87.48.48,0,0,0,0,.24.27.27,0,0,0,.18,0,1.66,1.66,0,0,0,.82-.38,8.26,8.26,0,0,0,1.5-1.58c.45-.59.87-1.22,1.27-1.87l.58-1,.28-.5.14-.25.07-.13,0-.07,0,0,0-.05,0,0c.07,0-.08-.17.47-.05.35.44.1.39.16.44v0a14.92,14.92,0,0,1-1,2.63c-.39.84-.82,1.66-1.27,2.46l-.59-.41a13.13,13.13,0,0,1,2.47-1.76c.84-.51,1.7-1,2.56-1.45s1.73-.92,2.63-1.34l.36-.15.14,0s0,0,.16,0l.09,0a.35.35,0,0,1,.18.22.33.33,0,0,1,0,.23l0,0a.36.36,0,0,1-.07.09l0,0-.18.13-.6.41a13.86,13.86,0,0,0-1.17.85,17.35,17.35,0,0,0-3.91,4.17,11.53,11.53,0,0,0-1.91,5.29v0a.21.21,0,0,1,0,.09,2,2,0,0,1-1.29.86,4.85,4.85,0,0,1-1.41.17,5.35,5.35,0,0,1-2.7-.72,3.91,3.91,0,0,1-1.74-2.21,6.17,6.17,0,0,1-.1-2.78l.46.24-.3.3-.38-.38.4-.4-.05.07c.07-.14.09-.47.19-.76l.47.25-1.23,1.42a.26.26,0,0,1-.41-.32h0l1.3-1.79,0,.14a1,1,0,0,1,.06-.28c0-.06,0-.14,0-.12h0l0-.06A2.47,2.47,0,0,1,59,160a7.54,7.54,0,0,1,.6-.67l0,0a6.33,6.33,0,0,0,.72-1.48,2.66,2.66,0,0,0,.21-1.53c-.11-.45-.62-.64-1.16-.65a5.45,5.45,0,0,0-.82,0l-.45,0h-.15a.29.29,0,0,1-.17-.16.3.3,0,0,1,0-.23l0,0,0,0,.13-.19a2.59,2.59,0,0,1,1.55-1,2.89,2.89,0,0,1,.46-.05h.29s-.08,0-.09.1a.43.43,0,0,0,0,.09c0,.1,0,0,0,0l-.06-.09L60,154a2.64,2.64,0,0,0-.27-.29,2.32,2.32,0,0,0-1.44-.56,3.69,3.69,0,0,0-.81.05l-.41.09-.2.05-.11,0-.06,0h-.1l-.08,0a.22.22,0,0,1-.12-.19v.07a1.06,1.06,0,0,1,.14-.9,2.19,2.19,0,0,1,.57-.6,2,2,0,0,1,1.58-.4,4.48,4.48,0,0,1,2.46,1.9,4.25,4.25,0,0,1,.32,3.07,10.73,10.73,0,0,1-1.15,2.84l-.26-.19,1-.9,0,.06a8.32,8.32,0,0,0,.52-3,7.74,7.74,0,0,0-.64-3,10.87,10.87,0,0,0-1.59-2.6,12.61,12.61,0,0,0-2.21-2.12h0a.52.52,0,0,1-.17-.23A.2.2,0,0,1,57,147a.42.42,0,0,1,.14-.05,2,2,0,0,1,.46,0c.3,0,.58.08.87.13.57.11,1.14.24,1.7.38l-.1,0a3.86,3.86,0,0,1,3.5-1.41,3.79,3.79,0,0,1,1.68,1,7.69,7.69,0,0,1,.63.74l.28.4.14.2s0,0,.12,0c1.1-.55,2.38-1.23,3.69-.86A3.87,3.87,0,0,1,72.41,150.45Z"/><path class="cls-1" d="M58.54,33.21a12,12,0,0,1-3.74-7.66,7.34,7.34,0,0,1,.28-2.17l.17-.52a1.65,1.65,0,0,1,.1-.27.17.17,0,0,1,.19-.1.29.29,0,0,1,.13.12c.21.32.34.65.54,1A3.17,3.17,0,0,0,57.76,25a3.24,3.24,0,0,0,2.08,0,6.38,6.38,0,0,0,1-.39l.12-.05h0s0,.06,0,.07,0,0,0,0l-.24-.09-.52-.18A3.46,3.46,0,0,1,58.44,23,3.56,3.56,0,0,1,58,20.82a7.81,7.81,0,0,1,.49-2.14c.13-.34.27-.68.42-1a3,3,0,0,1,.26-.5.27.27,0,0,1,.09-.08.17.17,0,0,1,.15,0l.06.07a.77.77,0,0,1,0,.16l0,.27a4.39,4.39,0,0,0,.72,2,5.16,5.16,0,0,0,3.66,1.9h0c-.06,0-.13.11-.11.09a.08.08,0,0,0,0,0v0l-.05-.08-.12-.16L63.35,21c-.16-.22-.32-.45-.47-.68a7.26,7.26,0,0,1-.73-1.49,3.69,3.69,0,0,1,.27-3.26c.07-.12.16-.23.24-.35a.34.34,0,0,1,.3-.15.4.4,0,0,1,.26.16,3.93,3.93,0,0,1,.43.74c.24.49.47,1,.74,1.45a6.62,6.62,0,0,0,2.07,2.38,3.9,3.9,0,0,0,1.45.58,4.84,4.84,0,0,0,.78.07l.38,0s-.1.07-.08.13l0,0-.11-.14a14.56,14.56,0,0,1-2-2.6A5.77,5.77,0,0,1,66,14.55a5.8,5.8,0,0,1,1.24-3.09,9.29,9.29,0,0,1,1.12-1.24l.15-.15a.5.5,0,0,1,.13-.1l.1,0s.07,0,.16.09,0,.2,0,.18v0l0,.07-.2.36a7.5,7.5,0,0,0-.35.71,4.53,4.53,0,0,0-.3,3.05,4,4,0,0,0,.71,1.38,5.45,5.45,0,0,0,.53.58c.36.2-.08.34.13,0a9.44,9.44,0,0,1,1.21-3.09,5.57,5.57,0,0,1,2.6-2.12,8.17,8.17,0,0,1,3.3-.49c.28,0,.56,0,.84.06a3.81,3.81,0,0,1,.84.23,5.78,5.78,0,0,1,1.5.81,2.07,2.07,0,0,1,.91,1.53A2.45,2.45,0,0,1,79.87,15h0a1.75,1.75,0,0,1-1.48.61A2.62,2.62,0,0,1,77,14.92c-.1-.08-.19-.16-.28-.25l-.18-.16s.11,0,.12,0,0,0,0,0a1.11,1.11,0,0,0,0,.28A4.44,4.44,0,0,0,77,16.1a6.59,6.59,0,0,0,3.73,3.74h0a.32.32,0,0,1,.24.3.42.42,0,0,1,0,.18.73.73,0,0,1-.11.17,1.64,1.64,0,0,1-.23.22A2.59,2.59,0,0,1,80,21a2.28,2.28,0,0,1-1.16.24A2.38,2.38,0,0,1,77,19.91a5.11,5.11,0,0,1-.24-.5c0-.08-.07-.17-.1-.25l0-.13s-.07-.09.06.07.15.05.22,0a2,2,0,0,0-.22.29,3.2,3.2,0,0,0-.22.43,3.41,3.41,0,0,0-.25,1.9,3.89,3.89,0,0,0,2.59,2.72,14.36,14.36,0,0,0,4,.93h0a.47.47,0,0,1,.2.12.48.48,0,0,1,.06.1.58.58,0,0,1,.06.15,1.5,1.5,0,0,1,0,.24,3.52,3.52,0,0,1,0,.42,5.36,5.36,0,0,1-.09.8,5,5,0,0,1-.53,1.53,2.26,2.26,0,0,1-1.29,1.14,2.37,2.37,0,0,1-1.7-.24,6.19,6.19,0,0,1-1.31-.93q-.3-.26-.57-.55L77.59,28s-.06-.06,0,0l.09,0a.27.27,0,0,0,.19,0c.1-.07.1-.11.11-.12s0,.13,0,.22a3.64,3.64,0,0,0,1.48,2.3,4,4,0,0,0,2.71.59A9.3,9.3,0,0,0,85,30.19a25.18,25.18,0,0,0,5.07-3.26.34.34,0,0,1,.44,0h0L96,32a.35.35,0,0,1-.35.6,5.46,5.46,0,0,0-1.49-.28c-.53,0-1.07,0-1.6.1a17.11,17.11,0,0,0-3.15.62,13.94,13.94,0,0,0-5.5,3.14,8.41,8.41,0,0,0-1.86,2.52,10.2,10.2,0,0,0-1,3,6,6,0,0,0,.29,3,6.71,6.71,0,0,0,1.74,2.51,4.58,4.58,0,0,0,2.77,1.07,13.4,13.4,0,0,0,1.6,0,2.21,2.21,0,0,0,.73-.05,3.8,3.8,0,0,0,.69-.26c.89-.42,1.76-1.19,1.68-2A2,2,0,0,0,90,44.76,2.16,2.16,0,0,0,88.84,44a1.81,1.81,0,0,0-1.28.24,3.17,3.17,0,0,0-.58.42,2.42,2.42,0,0,0-.4.55,1.56,1.56,0,0,0-.17,1.25,2.77,2.77,0,0,0,.81,1.14l.15.14.09.1a.58.58,0,0,1,.16.3.48.48,0,0,1-.12.39.48.48,0,0,1-.22.14l-.15,0a.73.73,0,0,1-.19,0l-.25-.05a4.65,4.65,0,0,1-.85-.32,6,6,0,0,1-1.46-1,5.32,5.32,0,0,1-1.67-3.09h0a.35.35,0,0,1,0-.06,7,7,0,0,1,1.88-4.63,7.2,7.2,0,0,1,2.07-1.47A16.66,16.66,0,0,1,89,37.31a19,19,0,0,1,4.82-.71,12.09,12.09,0,0,1,4.84.94.49.49,0,0,1,.26.65.51.51,0,0,1-.11.16,4.19,4.19,0,0,0-1,1.4,2.09,2.09,0,0,0,0,1.54,3.44,3.44,0,0,0,1,1.36,5.23,5.23,0,0,0,.71.53,3.94,3.94,0,0,0,.38.2l.17.07h-.11l-.11,0a.5.5,0,0,0-.24.39.4.4,0,0,0,.06.24l0,0a5.27,5.27,0,0,1-.49-1.58,2.54,2.54,0,0,1,.06-.94,1.27,1.27,0,0,1,.79-.87,1.63,1.63,0,0,1,1.06.06,3.16,3.16,0,0,1,.77.42A7.54,7.54,0,0,1,103,42.29a36.24,36.24,0,0,1,3.51,4.95.5.5,0,0,1,0,.1l.22.7.1.33,0,.13s0,0,0,0l0,0a.39.39,0,0,0-.12-.09.47.47,0,0,0-.33,0,.42.42,0,0,0-.21.12l-.1.15a3.67,3.67,0,0,1,1.45-1.66,4.77,4.77,0,0,1,2.05-.56l.2,0h.06s0,0-.11.07a.3.3,0,0,0-.09.17l0-.06,0-.13c0-.09,0-.17.08-.25a4.43,4.43,0,0,1,.47-1A3.66,3.66,0,0,1,112,43.74h0l.09,0c.24,0,.48-.07.69-.1a3.36,3.36,0,0,0,.55-.09l.16,0h.28s.09,0,0,0a.38.38,0,0,0-.2.11.42.42,0,0,0-.12.28l.22.42c-1.55-1.17-2.84-2.42-4.21-3.67s-2.68-2.52-4-3.8c-2.65-2.55-5.25-5.15-7.83-7.77s-5.14-5.26-7.65-8c-1.25-1.36-2.5-2.7-3.67-4.14-.3-.35-.57-.76-.85-1.14l-.73-1.17c-.48-.78-1-1.55-1.48-2.3a17.54,17.54,0,0,0-3.57-4,16,16,0,0,0-2.25-1.48A11.86,11.86,0,0,0,75,5.76a16.11,16.11,0,0,0-10.6.48,18.28,18.28,0,0,0-8,7.06c-.25.38-.52.75-.75,1.14L55,15.66a14.26,14.26,0,0,0-1.16,2.45A18.7,18.7,0,0,0,53,23.49v0a24.91,24.91,0,0,0,.55,2.85,14.76,14.76,0,0,0,1,2.7,12.3,12.3,0,0,0,1.59,2.4,11.75,11.75,0,0,0,2.14,1.93h0a.43.43,0,0,0,.17,0C58.51,33.29,58.53,33.22,58.54,33.21Zm.09,0a.21.21,0,0,1-.13.22.52.52,0,0,1-.22.05h0a11.88,11.88,0,0,1-2.2-1.92,12.48,12.48,0,0,1-1.65-2.41,15,15,0,0,1-1.07-2.73,24.72,24.72,0,0,1-.6-2.85h0v0a19,19,0,0,1,.71-5.5,14.61,14.61,0,0,1,1.14-2.54l.63-1.24c.23-.4.5-.78.75-1.17a18.8,18.8,0,0,1,8.21-7.32,16.71,16.71,0,0,1,11-.59,12.54,12.54,0,0,1,2.59,1.12,16.66,16.66,0,0,1,2.36,1.53,18.26,18.26,0,0,1,3.75,4.15c.53.76,1,1.54,1.52,2.32l.74,1.16c.27.35.51.71.81,1.06,1.16,1.4,2.42,2.74,3.67,4.07,2.52,2.66,5.1,5.28,7.7,7.87s5.23,5.15,7.87,7.7c1.32,1.27,2.65,2.54,4,3.79s2.7,2.53,4.09,3.58h0a.55.55,0,0,1,.22.41.59.59,0,0,1-.16.41.6.6,0,0,1-.32.17,1.15,1.15,0,0,1-.24,0h-.28l.16,0a3.9,3.9,0,0,1-.75.13c-.22,0-.42,0-.61.09l.1,0a2.65,2.65,0,0,0-1.24,1,3.44,3.44,0,0,0-.36.76c0,.07,0,.14-.07.21l0,.11v.05a.68.68,0,0,1-.47.46l-.18,0-.28,0a3.82,3.82,0,0,0-1.66.43A2.67,2.67,0,0,0,107,49a.49.49,0,0,1-.1.15.58.58,0,0,1-.25.14.56.56,0,0,1-.37,0,.63.63,0,0,1-.16-.12l-.05-.07a.91.91,0,0,1-.09-.17l-.08-.21-.11-.35-.21-.67,0,.1a35.42,35.42,0,0,0-3.4-4.8,6.63,6.63,0,0,0-1-.94,1.39,1.39,0,0,0-.94-.35c-.06,0-.11.06-.16.21a1.62,1.62,0,0,0,0,.54,4.32,4.32,0,0,0,.4,1.27l0,0a.61.61,0,0,1,.08.3.53.53,0,0,1-.26.43l-.12.05H100l-.21,0-.28-.11A4.9,4.9,0,0,1,99,44a6.21,6.21,0,0,1-.85-.63,4.42,4.42,0,0,1-1.27-1.76,3.09,3.09,0,0,1,0-2.25,5.16,5.16,0,0,1,1.23-1.75l.15.81a11.12,11.12,0,0,0-4.45-.88,18.09,18.09,0,0,0-4.58.66,16,16,0,0,0-2.18.72,6.26,6.26,0,0,0-1.79,1.27,6.08,6.08,0,0,0-1.64,4v-.07A4.41,4.41,0,0,0,85,46.7a5.13,5.13,0,0,0,1.24.85,3.81,3.81,0,0,0,.68.27l.15,0s.07,0,0,0h0a.46.46,0,0,0-.18.12.42.42,0,0,0-.1.35c.06.2.07.13,0,.14l-.05-.05-.14-.14a3.61,3.61,0,0,1-1-1.52,2.43,2.43,0,0,1,.24-1.92,3.19,3.19,0,0,1,.57-.77,4,4,0,0,1,.75-.54A2.66,2.66,0,0,1,89,43.21a3,3,0,0,1,1.59,1,2.83,2.83,0,0,1,.82,1.7,2.37,2.37,0,0,1-.7,1.79,4.78,4.78,0,0,1-1.46,1,4.59,4.59,0,0,1-.84.31,3.1,3.1,0,0,1-.9.08,13.87,13.87,0,0,1-1.68,0,5.4,5.4,0,0,1-3.24-1.27,7.47,7.47,0,0,1-2-2.84,6.77,6.77,0,0,1-.32-3.43,11,11,0,0,1,1.05-3.22,9.2,9.2,0,0,1,2-2.72,14.67,14.67,0,0,1,5.81-3.29,17.83,17.83,0,0,1,3.29-.63c.55-.07,1.11-.06,1.67-.1A6.07,6.07,0,0,1,95.9,32l-.35.6-5.5-5.12.45,0a25.81,25.81,0,0,1-5.22,3.33,9.93,9.93,0,0,1-3,.87A4.62,4.62,0,0,1,79.11,31a4.26,4.26,0,0,1-1.74-2.73,1.16,1.16,0,0,1,0-.54.38.38,0,0,1,.17-.2.37.37,0,0,1,.24,0l.14.06a1,1,0,0,1,.13.12l.13.13q.25.27.53.52a5.6,5.6,0,0,0,1.17.85,1.76,1.76,0,0,0,1.25.2,1.66,1.66,0,0,0,.93-.85,4.43,4.43,0,0,0,.47-1.35,4.77,4.77,0,0,0,.08-.72,3,3,0,0,0,0-.34,1,1,0,0,0,0-.14v0l0,0a.17.17,0,0,0,.12.07h0a14.92,14.92,0,0,1-4.16-1,6.11,6.11,0,0,1-1.85-1.18,3.55,3.55,0,0,1-1.07-2A4,4,0,0,1,76,19.62a3.75,3.75,0,0,1,.26-.5,1.39,1.39,0,0,1,.47-.5c.11,0,.17-.08.34,0s.1.15.13.18l0,.12c0,.08.06.16.09.24a4.56,4.56,0,0,0,.21.45,1.84,1.84,0,0,0,1.39,1.08,1.74,1.74,0,0,0,.88-.18,2.05,2.05,0,0,0,.39-.25,1.13,1.13,0,0,0,.15-.15l0,0a.23.23,0,0,0,0,.06.22.22,0,0,0,.17.21h0a7.12,7.12,0,0,1-4-4.05,4.92,4.92,0,0,1-.35-1.45,1.57,1.57,0,0,1,0-.42.6.6,0,0,1,.12-.27A.41.41,0,0,1,76.7,14a1.22,1.22,0,0,1,.37.27c.08.07.16.16.25.22a2.13,2.13,0,0,0,1.13.52,1.26,1.26,0,0,0,1-.41h0a2,2,0,0,0,.59-1.27,1.6,1.6,0,0,0-.72-1.17A5.32,5.32,0,0,0,78,11.43a3.4,3.4,0,0,0-.73-.21c-.26,0-.53-.06-.79-.06a7.72,7.72,0,0,0-3.12.44A5.12,5.12,0,0,0,71,13.54a9,9,0,0,0-1.17,3l-.06.21a1.12,1.12,0,0,1-.05.12.33.33,0,0,1-.21.18.29.29,0,0,1-.22,0l0,0-.08-.07L69,16.71a5.86,5.86,0,0,1-.56-.63,4.38,4.38,0,0,1-.77-1.52A4.93,4.93,0,0,1,68,11.23a7.89,7.89,0,0,1,.37-.75l.2-.35v0h0s0,0,0,.15a.2.2,0,0,0,.15.08h.08s0,0,0,0l-.14.14a8.91,8.91,0,0,0-1.07,1.18,5.43,5.43,0,0,0-1.18,2.88,5.42,5.42,0,0,0,.75,3,14.3,14.3,0,0,0,2,2.56l.14.18a.61.61,0,0,1,.07.14.29.29,0,0,1,0,.19.31.31,0,0,1-.15.08l-.44,0a5.15,5.15,0,0,1-.84-.08,4.23,4.23,0,0,1-1.56-.63,6.92,6.92,0,0,1-2.17-2.5c-.27-.48-.5-1-.74-1.47a3.84,3.84,0,0,0-.38-.68.24.24,0,0,0-.07-.06s0,0,0,0-.16.21-.23.32a3.41,3.41,0,0,0-.26,3,7,7,0,0,0,.7,1.44c.14.23.29.45.45.67l.24.33.12.17.06.09,0,.06s.08.15-.13.22h0a5.4,5.4,0,0,1-3.82-2,4.63,4.63,0,0,1-.75-2.07l0-.27a.74.74,0,0,0,0-.1l0,0s.08,0,.08,0,0,0,0,0a3,3,0,0,0-.24.46c-.15.32-.29.66-.42,1a4.87,4.87,0,0,0-.07,4.11,3.26,3.26,0,0,0,1.63,1.28l.51.18a2.33,2.33,0,0,1,.27.1.22.22,0,0,1,.09.08s0,.13,0,.13l-.05,0-.13.06a6.56,6.56,0,0,1-1,.4,3.41,3.41,0,0,1-2.19,0,3.33,3.33,0,0,1-1.62-1.47c-.19-.31-.34-.66-.52-.94a.34.34,0,0,0-.06-.06s0,0,0,0a1.76,1.76,0,0,0-.09.24l-.17.51a7.2,7.2,0,0,0-.29,2.12,9.4,9.4,0,0,0,1.14,4.12A14.56,14.56,0,0,0,58.63,33.17Z"/><path class="cls-1" d="M61.78,29.54a5.58,5.58,0,0,0-1.28.93,3,3,0,0,0-.81,1.3,2.38,2.38,0,0,0,0,1.46,4,4,0,0,0,.29.7c.13.22.28.43.42.65l0,0c-.14-.14-.15-.09-.14-.1l.12,0a2.18,2.18,0,0,0,.32-.17,3.53,3.53,0,0,0,.61-.5,4.74,4.74,0,0,0,.9-1.25,2.27,2.27,0,0,0,.22-1.43A4.72,4.72,0,0,0,61.78,29.54Zm0-.1a3,3,0,0,1,1.31,1.39,2.67,2.67,0,0,1,0,2,3.72,3.72,0,0,1-1.19,1.58,5,5,0,0,1-.83.53,2.94,2.94,0,0,1-.48.2,1.6,1.6,0,0,1-.31.06.63.63,0,0,1-.55-.21l0,0c-.14-.26-.28-.51-.41-.78a4.65,4.65,0,0,1-.27-.85,2.9,2.9,0,0,1,.14-1.78,3.44,3.44,0,0,1,1.07-1.36A4.91,4.91,0,0,1,61.8,29.45Z"/><path class="cls-1" d="M59.16,37.43a5.47,5.47,0,0,0-1.57.24,2.89,2.89,0,0,0-1.29.81,2.32,2.32,0,0,0-.59,1.33,4.53,4.53,0,0,0,0,.75l.1.77v.06a.22.22,0,0,0,0-.15.15.15,0,0,0-.05-.07s0,0,0,0h.12a2.25,2.25,0,0,0,.35,0,3.74,3.74,0,0,0,.75-.2,4.91,4.91,0,0,0,1.32-.73A2.37,2.37,0,0,0,59,39,4.6,4.6,0,0,0,59.16,37.43Zm.06-.08a2.91,2.91,0,0,1,.52,1.8A2.72,2.72,0,0,1,58.88,41a3.72,3.72,0,0,1-1.71.91,5.19,5.19,0,0,1-1,.14,3,3,0,0,1-.51,0,1.42,1.42,0,0,1-.31-.07.79.79,0,0,1-.21-.12.75.75,0,0,1-.13-.15.62.62,0,0,1-.07-.26v.06c0-.29,0-.58,0-.88a5.14,5.14,0,0,1,.11-.88,2.86,2.86,0,0,1,.87-1.56,3.29,3.29,0,0,1,1.57-.74A4.83,4.83,0,0,1,59.22,37.35Z"/><path class="cls-1" d="M64.09,42.34c.22-.06.28-.45.3-.71a3.06,3.06,0,0,0-.07-.86,4.11,4.11,0,0,0-.66-1.52,2.19,2.19,0,0,0-1.24-.89,3.13,3.13,0,0,0-1.55,0h-.08a.35.35,0,0,0,.34-.18s0,0,0,0v.07l0,.17a3.46,3.46,0,0,0,0,.37,4.22,4.22,0,0,0,.05.73,3.46,3.46,0,0,0,.45,1.29,2.91,2.91,0,0,0,1,1,3.73,3.73,0,0,0,.72.34A7.18,7.18,0,0,0,64.09,42.34Zm0,.1a9.44,9.44,0,0,1-1.7-.1,2.56,2.56,0,0,1-1.61-.91,3.07,3.07,0,0,1-.65-1.77,4.07,4.07,0,0,1,0-.91c0-.15.05-.3.08-.45l.06-.23,0-.13a.81.81,0,0,1,0-.09.51.51,0,0,1,.4-.27h-.08a3.91,3.91,0,0,1,1.92.15A2.78,2.78,0,0,1,64.08,39a3.72,3.72,0,0,1,.45,1.77,5.3,5.3,0,0,1-.05.89,2.42,2.42,0,0,1-.1.44C64.34,42.22,64.29,42.4,64.09,42.44Z"/><path class="cls-1" d="M66.84,34.61A3.42,3.42,0,0,0,63.78,34a2.82,2.82,0,0,0-1.25.85,5.64,5.64,0,0,0-.44.65l-.18.35,0,.09s0,.08,0,0,0-.12,0-.1a2.87,2.87,0,0,0,1.28.56,4.49,4.49,0,0,0,1.46.08,2.47,2.47,0,0,0,2.23-1.82Zm.09,0a5.11,5.11,0,0,1-.58,1.7,2.48,2.48,0,0,1-1.56,1.13,3.61,3.61,0,0,1-1.9-.11,5,5,0,0,1-.86-.38,2.5,2.5,0,0,1-.8-.66.66.66,0,0,1-.14-.49.46.46,0,0,1,.08-.22l.06-.1.24-.38a6.3,6.3,0,0,1,.57-.71,3.39,3.39,0,0,1,1.61-.89,3,3,0,0,1,1.77.23A7.25,7.25,0,0,1,66.93,34.58Z"/><path class="cls-1" d="M53.53,34.27a3.76,3.76,0,0,0,2.4,2.07,2.66,2.66,0,0,0,1.5-.11,5.24,5.24,0,0,0,.69-.36l.32-.22.08-.05,0,0a.19.19,0,0,0-.07.09c0,.07,0,.07,0,0a3,3,0,0,0-.85-1.13,4.39,4.39,0,0,0-1.22-.79A2.67,2.67,0,0,0,55,33.58a2.63,2.63,0,0,0-.76.25,3,3,0,0,0-.35.22C53.74,34.14,53.66,34.18,53.53,34.27Zm-.09,0a2.76,2.76,0,0,1,.3-.37c.11-.1.19-.22.31-.31a3.42,3.42,0,0,1,.72-.55,2.45,2.45,0,0,1,1.91-.24,3.56,3.56,0,0,1,1.6,1,3.81,3.81,0,0,1,.94,1.7.76.76,0,0,1-.05.45.67.67,0,0,1-.14.17l-.06,0-.1.06-.4.22a5.88,5.88,0,0,1-.85.35,3.23,3.23,0,0,1-1.84,0,3.11,3.11,0,0,1-1.41-1.08C54,35.29,53.75,34.8,53.44,34.31Z"/><path class="cls-2" d="M128.19,123.09c-1.3,6.6,5.6,10,4.9,9.6s-1-3.7-.2-3.1c.3.2,1.7.8,1.5.6a9.66,9.66,0,0,1-1.6-2.5c-3.8-9.6,10.9-10.8,10.9-10.8C143.59,115.89,130.69,110.49,128.19,123.09Z"/><path class="cls-2" d="M39.39,199.69c.4-.2-4.3,2.2-9.9-5.4,0,0,0,2.8-4.9,3.4C24.59,197.69,36.29,201.39,39.39,199.69Z"/><path class="cls-2" d="M135.19,186.39c.1-.5-1-2.3-5.5-2.8-7.7-.7-4.5-7.6-4.5-7.6a14.42,14.42,0,0,1-3.1,2.1,15.33,15.33,0,0,1-7.9.5c2.2-2.5-.4-3.6.4-6.2,1.2-3.9,3.9-6.6,9-7.2.3,0-2,2.1-1.7,2.5.5.7,1.8.7,1.5,1.4a7.77,7.77,0,0,0,.2,3.8c1.5.7,9.7-3.5,7.8-1.8s-2.7,6.7-1.6,7.4c1.8,1.2,3.2-3.4,3.8-2.6s-2.4,3.6.3,2.5c2.3-.9,3.1-7.9,3.1-7.9,3,1,7.6,7.8,8.1,7.5,2.5-1.2.2-5.9.1-7.4,0-.5.9.3,1-.1a2.44,2.44,0,0,0-1-2.8c-.1-.5-.1-.5,1.1-.2s-1.3-3.3-.7-2.9c9.8,5.7-.6,16.9-.5,15.8s-6.2-4.9-6.1-4.2a8,8,0,0,1-.5,5.7C137.79,184.49,135.19,186.89,135.19,186.39Z"/><path class="cls-2" d="M107.29,109.19s6.2-1.9,8.9.9c.4.4-1.6.1-8,5-5.4,4.1-6.1,5.5-6.4,5.2-.6-.8-2.3-2.1.9-8a2.79,2.79,0,0,0-.7-3.9c-.5-.1.7-1.7,2.3-.9A16.06,16.06,0,0,1,107.29,109.19Z"/><path class="cls-2" d="M122.69,116.29a1.61,1.61,0,1,1-1.6-1.4A1.63,1.63,0,0,1,122.69,116.29Z"/><path class="cls-2" d="M90.09,46.29a1.8,1.8,0,0,1-1.7,1.9,1.87,1.87,0,0,1-1.7-1.9,1.71,1.71,0,1,1,3.4,0Z"/><path class="cls-2" d="M97,113.59a2.4,2.4,0,1,1-2.4-2.4A2.43,2.43,0,0,1,97,113.59Z"/><path class="cls-2" d="M89.49,87.69a2.46,2.46,0,0,1-2.6,2.2,2.4,2.4,0,0,1-2.6-2.2,2.64,2.64,0,0,1,5.2,0Z"/><path class="cls-2" d="M32.29,179.59a2.57,2.57,0,0,1-2.4,2.7,2.72,2.72,0,0,1,0-5.4A2.51,2.51,0,0,1,32.29,179.59Z"/><path class="cls-2" d="M52.39,186a1.7,1.7,0,1,1-3.4,0,1.69,1.69,0,0,1,1.7-1.7A1.75,1.75,0,0,1,52.39,186Z"/><path class="cls-2" d="M116.69,140.79a2.6,2.6,0,1,1-2.6-2.5A2.56,2.56,0,0,1,116.69,140.79Z"/><ellipse class="cls-2" cx="113.49" cy="119.89" rx="1.3" ry="1.2"/><ellipse class="cls-2" cx="108.19" cy="125.59" rx="1.1" ry="1"/><circle class="cls-2" cx="104.79" cy="132.39" r="1.1"/><circle class="cls-2" cx="105.89" cy="140.39" r="1"/><path class="cls-2" d="M64.09,166.09s-1.4-1.6,3.5-6.5c1-1-3.5,1.6-4,2.4s1.1-1.2,1.5-2.9c0-.2-2.1,2.8-3.6,2.7s.5-3.5,2.2-5.3c.3-.3-3.6,3.7-4.1,5.1C57.59,167.29,63.59,167.19,64.09,166.09Z"/><path class="cls-2" d="M88.69,24.39c-2.5-4-3.3-4.6-5.1-8.1-1.4-2.7-3.2-1.6-3-1.5.4.2,1.9,1.3.9,2a2.09,2.09,0,0,1-2.8-.5c-.8-.8-.4,2.4,3,3.8.3.1-.8,2.5-3.6,2-.5-.1.6,1.9,5.7,3.1.4.1.5,2.5-.8,4.5-.4.7,4,.4,6.4-3.8"/><path class="cls-2" d="M58.89,37.79s-2.9-.3-2.5,2.6C56.39,40.79,59.79,40.39,58.89,37.79Z"/><path class="cls-2" d="M61.39,31.09s-2.7,1-1.1,3.4C60.49,34.79,63.29,33,61.39,31.09Z"/><path class="cls-2" d="M61,38.09a2.12,2.12,0,0,0,2.1,2.8C63.49,40.89,63.59,37.59,61,38.09Z"/><path class="cls-2" d="M55.19,34.79s1,2.6,3.2,1C58.79,35.59,57,32.89,55.19,34.79Z"/><path class="cls-2" d="M65.39,35.09s-2.2-1.8-3.4.7C61.79,36.19,64.79,37.69,65.39,35.09Z"/><path class="cls-2" d="M73.09,9.29c.5-.2-7.2-6.1-15.3,3.6a20.53,20.53,0,0,0-3.5,6.9,6.44,6.44,0,0,0,0,4s.1-2.5,1.3-2.8c.8-.2.6,3.2,3.4,3.5.5.1-4.6-3,.3-8.5.8-1-.2,2.3,2.9,4.4a5.13,5.13,0,0,1,.5-6.4c.5-.6,1.5,3.8,4,4.6.5.2-4.7-6.2,2.5-9.2.5-.2-1.9,3.7.1,5.7C69.79,15.49,68.89,11.39,73.09,9.29Z"/><path class="cls-2" d="M118.59,55.69c-2.7-2.1-4.2-2.2-5.5-2.1-1.8,0-5.4,3.2-2.6,6.2a2.53,2.53,0,0,0,2.3.3,4,4,0,0,1-1.5-1.5c-.8-1.5,1.1-3.1,2.8-2.9,1.5.2,3.3,1.4,2.8,3.4Z"/><path class="cls-2" d="M113.89,63.39a3.23,3.23,0,0,0-2.5-1c-.8,0-2.4.8-2.1,2.3.1.5.7.7.6.6a1.75,1.75,0,0,1,.1-1.2,1.62,1.62,0,0,1,1.9-.9,1.07,1.07,0,0,1,.7,1.7C112.49,65.29,113.89,63.39,113.89,63.39Z"/><path class="cls-2" d="M129.89,157.29s-4.4,1.6-4.1,5.5c.1,1.2,9.8,6.6,15.5-.4.3-.3-7,2.6-11.3.3C129.09,162.19,125.89,160.39,129.89,157.29Z"/><path class="cls-3" d="M132.69,119.59c-1.9,1.9-3.9,6.8-1.8,10.3a8,8,0,0,1-2.2-7.1c.9-5,3.9-7,7.9-7.3,3.4-.3,6.1,1.2,3.5.9C140.19,116.39,135,117.19,132.69,119.59Z"/><path class="cls-3" d="M135.79,183.79c.1-.4-1.9-.7-5.8-2.3-5.8-2.4-3.7-6.7-3.7-6.7s-.7-.3-3.1.7a7.26,7.26,0,0,1-6-.4c.8-2.3-.2-3.7-.3-5.1s3-4.6,5.2-3.8c.3.1-.9,1.3-.7,1.7.4.7,1.7.9,1.3,1.5s-.1,3.9.8,4.1c1.5.4,8.2-2.9,6.4-1.2s-1.3,6-.2,6.6c2,1.1,3.2-2.9,3.7-2.5.8.7-2.8,3.1-.1,2.5,4-.9,4.2-7.4,4.2-7.4,2.9,1,7.3,7,7.8,6.7,3.3-1.4.7-5.9.6-7.3,0-.5.7.4,1-.4a2.08,2.08,0,0,0-.8-2.6c-.1-.5,0-.3,1.2,0s-.7-2.7-.3-2.2c4.9,5.8-1.1,14.4-1.7,13.5-1.6-2.2-6.4-4.1-6.2-3.4.5,2.3.1,3.1-.7,5.2C137.39,183.59,135.69,184.29,135.79,183.79Z"/><path class="cls-3" d="M108.59,109.59s3.6-1.3,5.5.7c.3.3-1.1.3-5.6,3.7-3.9,2.9-4.3,3.9-4.5,3.7-.4-.6-2.3-.9,0-5.1C105,110.89,107.59,109.79,108.59,109.59Z"/><ellipse class="cls-3" cx="139.59" cy="153.59" rx="1.5" ry="1.4"/><path class="cls-3" d="M88.19,24.69c-2.1-3.3-2.9-3.8-4.3-6.8-.9-1.9-1.7-1.7-1.5-1.6.4.2.2,1-.5,1.4a1.68,1.68,0,0,1-1.7-.1c-.7-.6-.4.8,2.5,2,.3.1-.3,3.3-2.7,2.9-.4-.1,0,.6,4.2,1.6.4.1,1.2,2.8.1,4.5-.4.6,2.5.8,4.5-2.7"/><path class="cls-3" d="M71.49,8.79c.4-.2-7-3.3-13.2,3.8a12.92,12.92,0,0,0-3.5,7.9,2.1,2.1,0,0,1,1.1-1.4c.4-.1-.3.8,1.2,1.7.3.2-1.7-2.3,2.3-5.9.8-.7-.3-.1,1.4,1.8.1.1-.3-2.8,1.8-4,.6-.3.4,1,2.1,2.4.4.3-1.3-4.1,4.7-6.1.8-.3-.9,2.9-.3,4C69.29,13.49,69.79,9.49,71.49,8.79Z"/><path class="cls-3" d="M118.19,55.69c-2.7-1.8-3.6-1.8-5.1-1.8a3.49,3.49,0,0,0-3.1,3.8c0,.9.8,1.5.7,1.2-.1-.9-.3-1.1,0-1.9.7-1.5,1.9-1.9,3.6-1.7,1.4.2,3.1,1.5,2.6,3.2C116.79,59.09,118.19,55.69,118.19,55.69Z"/><path class="cls-3" d="M130.39,164.79s-3.7-1.7-3.9-3.2c-.1-.5.2,1.3,6.1,2.3,4.2.7,7.1-.8,7-.5-.1.7-1.9,1.5-3.7,1.8A12.14,12.14,0,0,1,130.39,164.79Z"/><path class="cls-2" d="M132.44,72.22h1.8l-3.7,8.6h-.6l-2.5-5.9-2.5,5.9h-.5l-3.8-8.6h1.8l2.2,5.1,2.2-5.1H128l2.1,5.1Z"/><path class="cls-2" d="M142.54,76.52h-5.9a2.56,2.56,0,0,0,.8,1.9,2.49,2.49,0,0,0,1.9.7,4.72,4.72,0,0,0,3-1v1.6a5.07,5.07,0,0,1-1.5.7,9,9,0,0,1-1.8.2,4.14,4.14,0,0,1-2.3-.6,4.39,4.39,0,0,1-1.4-1.6,4.34,4.34,0,0,1-.5-2.3,4.5,4.5,0,0,1,1.1-3.1,3.63,3.63,0,0,1,2.8-1.2,3.42,3.42,0,0,1,2.7,1.2,4.45,4.45,0,0,1,1,3.1v.4Zm-5.9-1h4.2a1.89,1.89,0,0,0-2-2,2.46,2.46,0,0,0-1.5.5A3.48,3.48,0,0,0,136.64,75.52Z"/><path class="cls-2" d="M154.84,75.52v3.6c0,.3.1.4.3.4a1.63,1.63,0,0,0,.9-.4v1c-.4.2-.7.4-.9.5a1.7,1.7,0,0,1-.7.1,1.25,1.25,0,0,1-1.3-.8,3.41,3.41,0,0,1-2.3.8,2.05,2.05,0,0,1-2.1-2.1,2,2,0,0,1,.6-1.4,3.66,3.66,0,0,1,1.6-1l2.1-.7v-.4a1.33,1.33,0,0,0-1.5-1.5,4,4,0,0,0-2.7,1.4v-1.8a3.3,3.3,0,0,1,2.8-1.1,3.23,3.23,0,0,1,2.2.7c.2.2.3.4.5.6s.2.5.3.8A3.48,3.48,0,0,1,154.84,75.52Zm-1.6,3.4v-2.5l-1.1.4a3.12,3.12,0,0,0-1.2.7,1.27,1.27,0,0,0-.4.9,1.61,1.61,0,0,0,.3.9,1.22,1.22,0,0,0,.9.3A1.93,1.93,0,0,0,153.24,78.92Z"/><path class="cls-2" d="M159.34,72.22v1.9l.1-.1c.8-1.3,1.6-2,2.4-2a2.93,2.93,0,0,1,2,1l-.9,1.5a2.22,2.22,0,0,0-1.6-.8,1.87,1.87,0,0,0-1.4.8,2.79,2.79,0,0,0-.6,1.8v4.4h-1.7v-8.4h1.7Z"/><path class="cls-2" d="M172.24,76.52h-5.9a2.56,2.56,0,0,0,.8,1.9,2.49,2.49,0,0,0,1.9.7,4.72,4.72,0,0,0,3-1v1.6a5.07,5.07,0,0,1-1.5.7,9,9,0,0,1-1.8.2,4.14,4.14,0,0,1-2.3-.6,4.39,4.39,0,0,1-1.4-1.6,5.56,5.56,0,0,1-.5-2.3,4.5,4.5,0,0,1,1.1-3.1,3.63,3.63,0,0,1,2.8-1.2,3.42,3.42,0,0,1,2.7,1.2,4.45,4.45,0,0,1,1,3.1v.4Zm-5.9-1h4.2a1.89,1.89,0,0,0-2-2,2.46,2.46,0,0,0-1.5.5A2.63,2.63,0,0,0,166.34,75.52Z"/><path class="cls-2" d="M184.44,72.22h1.9l-6,12.7h-1.9l2.9-6.1-3.3-6.6h1.9l2.3,4.8Z"/><path class="cls-2" d="M191.54,72.22a4.38,4.38,0,0,1,3.2,1.2,4,4,0,0,1,1.3,3.1,3.8,3.8,0,0,1-1.3,3,4.62,4.62,0,0,1-3.3,1.2,4.54,4.54,0,0,1-3.2-1.2,3.87,3.87,0,0,1-1.3-3.1,4,4,0,0,1,1.3-3.1A5.24,5.24,0,0,1,191.54,72.22Zm-.1,1.5a2.73,2.73,0,1,0,2,.8A2.79,2.79,0,0,0,191.44,73.72Z"/><path class="cls-2" d="M203.24,80.62v-1.1a4.7,4.7,0,0,1-1.2.9,3.19,3.19,0,0,1-1.4.3,2.82,2.82,0,0,1-1.5-.4,2.66,2.66,0,0,1-1-1.1,6.33,6.33,0,0,1-.3-2.3v-4.8h1.7v4.8a3.16,3.16,0,0,0,.4,1.9,1.43,1.43,0,0,0,1.3.5,2.31,2.31,0,0,0,2-1.2v-6h1.7v8.4h-1.7Z"/><path class="cls-2" d="M209,72.22v1.9l.1-.1c.8-1.3,1.6-2,2.4-2a2.93,2.93,0,0,1,2,1l-.9,1.5a2.22,2.22,0,0,0-1.6-.8,1.87,1.87,0,0,0-1.4.8,2.79,2.79,0,0,0-.6,1.8v4.4h-1.7v-8.4H209Z"/><path class="cls-2" d="M225,72.22h1.8l-3.7,8.6h-.6l-3.8-8.6h1.8l2.3,5.2Z"/><path class="cls-2" d="M228.94,68.62a1,1,0,1,1-.7.3A1.08,1.08,0,0,1,228.94,68.62Zm-.8,3.6h1.7v8.4h-1.7Z"/><path class="cls-2" d="M232.24,67.82h1.7v12.8h-1.7Z"/><path class="cls-2" d="M236.34,67.82H238v12.8h-1.7Z"/><path class="cls-2" d="M245.74,75.52v3.6c0,.3.1.4.3.4a1.63,1.63,0,0,0,.9-.4v1c-.4.2-.7.4-.9.5a1.7,1.7,0,0,1-.7.1,1.25,1.25,0,0,1-1.3-.8,3.41,3.41,0,0,1-2.3.8,2.05,2.05,0,0,1-2.1-2.1,2,2,0,0,1,.6-1.4,3.66,3.66,0,0,1,1.6-1l2.1-.7v-.4a1.33,1.33,0,0,0-1.5-1.5,4,4,0,0,0-2.7,1.4v-1.8a3.3,3.3,0,0,1,2.8-1.1,3.23,3.23,0,0,1,2.2.7c.2.2.3.4.5.6s.2.5.3.8S245.74,74.82,245.74,75.52Zm-1.6,3.4v-2.5l-1.1.4a3.12,3.12,0,0,0-1.2.7,1.27,1.27,0,0,0-.4.9,1.61,1.61,0,0,0,.3.9,1.22,1.22,0,0,0,.9.3A2.08,2.08,0,0,0,244.14,78.92Z"/><path class="cls-2" d="M248,75.12a2.39,2.39,0,0,1,1-2.1,4.55,4.55,0,0,1,2.7-.8h3.5v1.3h-1.7a2.76,2.76,0,0,1,.7.9,2.92,2.92,0,0,1,.2.9,2.2,2.2,0,0,1-.4,1.3,3.18,3.18,0,0,1-1,1,5.61,5.61,0,0,1-1.9.5c-.6.1-.9.3-.9.7a.51.51,0,0,0,.4.5,5,5,0,0,0,1.3.4,18.21,18.21,0,0,1,2,.5,1.56,1.56,0,0,1,.8.6,2,2,0,0,1,.6,1.5,2.26,2.26,0,0,1-1.1,1.9,6.36,6.36,0,0,1-5.8,0,2.26,2.26,0,0,1-1.1-1.9c0-1.1.7-1.9,2.1-2.2-.6-.4-.8-.7-.8-1.1a.75.75,0,0,1,.4-.7,2.34,2.34,0,0,1,1-.5A2.8,2.8,0,0,1,248,75.12Zm2.8,5.9a2.12,2.12,0,0,0-1.4.4.87.87,0,0,0-.5.9c0,.9.8,1.3,2.3,1.3a4,4,0,0,0,1.7-.3,1,1,0,0,0,.6-.9c0-.4-.3-.7-.8-1A3.58,3.58,0,0,0,250.84,81Zm.3-7.4a1.85,1.85,0,0,0-1.2.5,1.27,1.27,0,0,0-.5,1.1,1.7,1.7,0,1,0,2.9-1.1A1.66,1.66,0,0,0,251.14,73.62Z"/><path class="cls-2" d="M263.64,76.52h-5.9a2.56,2.56,0,0,0,.8,1.9,2.49,2.49,0,0,0,1.9.7,4.72,4.72,0,0,0,3-1v1.6a5.07,5.07,0,0,1-1.5.7,9,9,0,0,1-1.8.2,4.14,4.14,0,0,1-2.3-.6,4.39,4.39,0,0,1-1.4-1.6,5.56,5.56,0,0,1-.5-2.3A4.5,4.5,0,0,1,257,73a3.63,3.63,0,0,1,2.8-1.2,3.42,3.42,0,0,1,2.7,1.2,4.45,4.45,0,0,1,1,3.1v.4Zm-5.9-1h4.2a1.89,1.89,0,0,0-2-2,2.46,2.46,0,0,0-1.5.5A5.23,5.23,0,0,0,257.74,75.52Z"/></svg>