<svg id="Layer_1" data-name="Layer 1" xmlns="http://www.w3.org/2000/svg" viewBox="0 0 282.88 240.54"><defs><style>.cls-1{fill:#377e81;}.cls-2{fill:#df1174;}.cls-3{fill:#f17622;}</style></defs><title>Artboard 1</title><path class="cls-1" d="M26.35,177.08a6.1,6.1,0,0,0-.86-1,2.55,2.55,0,0,0-1-.6,1.9,1.9,0,0,0-1,0c-.17,0-.35.12-.53.16l-.53.26-.07,0a.5.5,0,0,0,.22-.16.47.47,0,0,0,.1-.15.38.38,0,0,0,0-.14s0,0,0,0a1.35,1.35,0,0,0,.08.22,2.92,2.92,0,0,0,.3.52,3.15,3.15,0,0,0,.84.87,1.88,1.88,0,0,0,1.11.34A3.42,3.42,0,0,0,26.35,177.08Zm.07,0a2.92,2.92,0,0,1-1.32.71,2.19,2.19,0,0,1-1.47-.2,3.39,3.39,0,0,1-1.14-1,3.65,3.65,0,0,1-.4-.64,2.14,2.14,0,0,1-.13-.36c0-.12-.1-.28.09-.43h0a4.34,4.34,0,0,1,1.32-.46,2.3,2.3,0,0,1,1.38.17,2.74,2.74,0,0,1,1.06.9A4,4,0,0,1,26.42,177.11Z"/><path class="cls-1" d="M27.56,183.32a6,6,0,0,0-1.15.36,2.35,2.35,0,0,0-.85.6,1.66,1.66,0,0,0-.37.83c0,.15,0,.33-.05.49l0,.53v-.05a.48.48,0,0,0-.2-.34h0l.18,0a2.23,2.23,0,0,0,.53,0,2.78,2.78,0,0,0,1-.36,1.65,1.65,0,0,0,.69-.79A3.16,3.16,0,0,0,27.56,183.32Zm0-.06a2.69,2.69,0,0,1,.14,1.39,2,2,0,0,1-.71,1.18,3,3,0,0,1-1.25.59,3,3,0,0,1-.7.08,1.52,1.52,0,0,1-.36,0,.39.39,0,0,1-.32-.25h0a3.88,3.88,0,0,1,.1-1.27,2.06,2.06,0,0,1,.66-1.08,2.53,2.53,0,0,1,1.15-.54A3.69,3.69,0,0,1,27.61,183.27Z"/><path class="cls-1" d="M26,180.2a3.75,3.75,0,0,0-2.47-.35,2.1,2.1,0,0,0-.85.6,5.71,5.71,0,0,0-.34.48l-.16.28,0,.07,0,0a.47.47,0,0,0,.06-.15.46.46,0,0,0,0-.34,1.27,1.27,0,0,0,.3.23,3.91,3.91,0,0,0,.52.25,3.12,3.12,0,0,0,1.12.23,1.79,1.79,0,0,0,1.05-.34A3.42,3.42,0,0,0,26,180.2Zm.07,0a2.9,2.9,0,0,1-.64,1.29,2.09,2.09,0,0,1-1.26.65A3.27,3.27,0,0,1,22.7,182a2.61,2.61,0,0,1-1.23-.75.3.3,0,0,1-.06-.22.73.73,0,0,1,.09-.18l.19-.31a4.85,4.85,0,0,1,.44-.57,2.49,2.49,0,0,1,1.25-.69A3.33,3.33,0,0,1,26,180.18Z"/><path class="cls-1" d="M33.91,180.43l-.18.29a0,0,0,0,1-.06,0,0,0,0,0,1,0-.05,3.48,3.48,0,0,0,.18-.63c0-.2,0-.44,0-.66a3.64,3.64,0,0,0-.21-1.28,3.79,3.79,0,0,0-1.58-2,3.23,3.23,0,0,0-2.43-.37,3.32,3.32,0,0,0-2,1.39,3.52,3.52,0,0,0,.26,4.36,3.26,3.26,0,0,0,1.92,1A3.47,3.47,0,0,0,32,182a.65.65,0,0,1,.8,1l0,0-.1.1L32.21,182a11.14,11.14,0,0,0,4.22-.64,5.19,5.19,0,0,0,2.79-2.9,10.33,10.33,0,0,0,.55-4.36V174c0-.05,0-.13,0,0s.08.06,0,.06a1.81,1.81,0,0,0-.49,0,7.26,7.26,0,0,0-1.09.22,9.28,9.28,0,0,0-1.07.36,4.47,4.47,0,0,0-.5.24.91.91,0,0,0-.33.27h0a13.55,13.55,0,0,1,0,1.6,6.4,6.4,0,0,1-.29,1.58,3.6,3.6,0,0,1-.78,1.4A2.49,2.49,0,0,1,33.91,180.43Zm0-.06a2.85,2.85,0,0,0,2.07-2.14,6.26,6.26,0,0,0,.25-1.55,12.85,12.85,0,0,0,0-1.57h0c.05-.25.25-.33.4-.45a4.63,4.63,0,0,1,.51-.27,9.51,9.51,0,0,1,1.08-.42,7.62,7.62,0,0,1,1.12-.28,2.19,2.19,0,0,1,.59,0,.33.33,0,0,1,.28.17,2.25,2.25,0,0,1,0,.3,10.85,10.85,0,0,1-.39,4.58,5.63,5.63,0,0,1-3,3.34,10.58,10.58,0,0,1-4.54.73.07.07,0,0,1-.07-.07.08.08,0,0,1,0-.05l.1-.1.09.11a4.14,4.14,0,0,1-2.59.57,3.76,3.76,0,0,1-2.29-1.31,4,4,0,0,1-.1-5,3.65,3.65,0,0,1,2.21-1.43,3.56,3.56,0,0,1,2.58.49,3.94,3.94,0,0,1,1.61,2.08,3.76,3.76,0,0,1,.19,1.32c0,.22,0,.44,0,.67a3.55,3.55,0,0,1-.19.64l-.07,0Z"/><path class="cls-1" d="M93.19,180.06s0,0,0-.11l0-.27.29.12c.07-.09.17-.18.05-.26l-.09,0-.09,0a.65.65,0,0,0-.56.17.69.69,0,0,0-.18.69.58.58,0,0,0,.06.13.79.79,0,0,0,.12.14l.09.06a.12.12,0,0,0,.15,0,.57.57,0,0,0,.1-.32c0-.14,0-.17,0-.19Zm0,0a.4.4,0,0,1,.15,0l0,0h0l0,0v0a.08.08,0,0,1,0,.08c-.12,0-.07,0-.1,0a.24.24,0,0,1-.06-.06l0,0-.1,0Z"/><path class="cls-1" d="M27.2,171.33a5.33,5.33,0,0,0-.1,1.13,2,2,0,0,0,.23.92,1.59,1.59,0,0,0,.59.59c.11.08.28.14.41.22l.47.17-.07,0a.43.43,0,0,0-.31,0l-.11.05s0,.06,0,0a.71.71,0,0,0,.08-.15,2.44,2.44,0,0,0,.15-.46,2.65,2.65,0,0,0,.07-1,1.53,1.53,0,0,0-.4-.86,1.55,1.55,0,0,0-.43-.35A5.43,5.43,0,0,0,27.2,171.33Zm0-.07a2.51,2.51,0,0,1,1.24.37,1.84,1.84,0,0,1,.75,1,2.88,2.88,0,0,1,.06,1.28,3.19,3.19,0,0,1-.17.62,1.52,1.52,0,0,1-.15.29.38.38,0,0,1-.32.21h0a3.84,3.84,0,0,1-1.06-.54,2,2,0,0,1-.71-1,2.26,2.26,0,0,1-.06-1.19A3.33,3.33,0,0,1,27.17,171.26Z"/><path class="cls-1" d="M40.35,172.4a17.39,17.39,0,0,0-1.18-3.26A5,5,0,0,0,38,167.85a12,12,0,0,0-1.29-1.16,15.83,15.83,0,0,0-6.12-3.15,18.28,18.28,0,0,0-13.38,1.88,14.52,14.52,0,0,0-4.75,4.9A20.63,20.63,0,0,0,10,176.74a15.81,15.81,0,0,0,.07,6.82,15.53,15.53,0,0,0,1.19,3.21,17.09,17.09,0,0,0,.84,1.5l.47.73c.08.13.16.24.24.38l.12.2a2.63,2.63,0,0,1,.1.29v0a.5.5,0,0,1-.11.42.78.78,0,0,1-.26.19,4,4,0,0,1-.43.17,1.55,1.55,0,0,0-.33.15c-.08.07-.07,0-.07.08v0a9.13,9.13,0,0,0,1.48,2.09c.58.67,1.21,1.3,1.85,1.91a29.6,29.6,0,0,0,4.2,3.27,21,21,0,0,0,4.76,2.3,40.15,40.15,0,0,0,5.19,1.21,67.73,67.73,0,0,0,21.33-.31,20.82,20.82,0,0,0,5-1.72c1.62-.73,3.21-1.55,4.77-2.43a71.1,71.1,0,0,0,8.89-6c1.41-1.1,2.77-2.26,4.1-3.45a44.52,44.52,0,0,1,4.25-3.39,32.12,32.12,0,0,1,9.81-4.69.45.45,0,0,1,.37.07c.34.23.68.46,1,.68l.54.34a3.73,3.73,0,0,1,.58.43.44.44,0,0,1-.11.72h0c-2.35,1.17-3.71,3.62-4.65,6.11-.49,1.26-.88,2.54-1.33,3.85a12.56,12.56,0,0,1-2,3.76,6.29,6.29,0,0,1-3.67,2.3c-.36.08-.71.12-1.06.17a5.66,5.66,0,0,1-1.13,0,4.93,4.93,0,0,1-2.13-.73,3.23,3.23,0,0,1-1.48-1.86,1.59,1.59,0,0,1,0-.75l.22-.56a4.23,4.23,0,0,1,.36-.53,2,2,0,0,1,.55-.41,2.84,2.84,0,0,1,2.39.13,8.19,8.19,0,0,1,1.86,1.14l-.82.4A2.88,2.88,0,0,0,75,192.15a4.1,4.1,0,0,0-1.93-.08,5.4,5.4,0,0,0-.95.26,5,5,0,0,0-.85.48A3.8,3.8,0,0,0,70,194.24a3.64,3.64,0,0,0-.29.91l-.09.47c0,.17,0,.34,0,.52a4.82,4.82,0,0,0,1.35,3.6,7.68,7.68,0,0,0,3.59,1.86,11.09,11.09,0,0,0,4.13.36,9.05,9.05,0,0,0,6.66-4.32h0a.55.55,0,0,1,1,.17,5.67,5.67,0,0,0,1.42,2.58,10.38,10.38,0,0,0,2.48,1.87,12.12,12.12,0,0,0,6,1.49,7.08,7.08,0,0,0,5.36-2.49,4.4,4.4,0,0,0,.19-5.42.58.58,0,0,1,.85-.79,27.67,27.67,0,0,0,8.86,4.9,40.72,40.72,0,0,0,10,2.18,38.63,38.63,0,0,0,19.92-3.38c.76-.38,1.5-.79,2.24-1.21s1.45-.88,2.11-1.41l2-1.55c.66-.53,1.26-1.14,1.9-1.7a43.53,43.53,0,0,0,6.53-7.85,56.69,56.69,0,0,0,4.76-9.07,53.66,53.66,0,0,0,3.06-9.76v0a.65.65,0,0,1,.76-.51,2.09,2.09,0,0,0,2.17-.58,4.28,4.28,0,0,0,.67-2.53,6.67,6.67,0,0,0-.47-2.75,5.22,5.22,0,0,0-.7-1.18c-.14-.19-.3-.36-.47-.56s-.18-.2-.28-.34a1.23,1.23,0,0,1-.28-.73,83.25,83.25,0,0,0,0-12.24,46,46,0,0,0-3.2-11.71,41.64,41.64,0,0,0-5.91-10.58l0,0h0a65.86,65.86,0,0,0-5.62-7.26c-2-2.33-4.15-4.56-6.31-6.76-4.34-4.38-8.88-8.57-13.54-12.63s-9.38-8-14.35-11.7c-2.48-1.86-5-3.55-7.63-5.24S103.66,75.49,101,74a.48.48,0,0,1-.19-.64.49.49,0,0,1,.35-.24,26.57,26.57,0,0,0,9.74-3.32,23.29,23.29,0,0,0,7.46-7,24.75,24.75,0,0,0,2.44-4.56A17,17,0,0,0,122,53.29a1.66,1.66,0,0,0,0-.25s0,0,0,0a.32.32,0,0,0,.18.12l-.06,0-.13-.07a1.77,1.77,0,0,1-.33-.26l-.26-.24c-.32-.32-.62-.65-.92-1-.59-.66-1.17-1.33-1.74-2-1.14-1.34-2.25-2.7-3.36-4.07l.17.13a2.61,2.61,0,0,0-2.94.31,4.64,4.64,0,0,0-.89,1.39l-.21.42a1.56,1.56,0,0,1-.17.26.66.66,0,0,1-.23.18.69.69,0,0,1-.22,0h-.05c-.29,0-.58,0-.86,0-1.12.1-2.26.54-2.48,1.55a3.36,3.36,0,0,0,.06,1.59,8,8,0,0,0,.26.82l.16.42.08.22s0,.07,0,.14a.57.57,0,0,1,0,.12.64.64,0,0,1,0,.13.4.4,0,0,1-.1.2.44.44,0,0,1-.31.14h-.08a4.12,4.12,0,0,0-4.26,1.21,5.35,5.35,0,0,0-1,2.13,4.24,4.24,0,0,0,.21,2.3,8.28,8.28,0,0,0,1.24,2.1,1.83,1.83,0,0,1,.22.36.57.57,0,0,1,0,.16s-.1.34-.12.32l-.05.06-.1.11-.41.45a5.25,5.25,0,0,0-.61,1,2,2,0,0,0,.17,2.07,3.8,3.8,0,0,0,.8.83c.32.26.63.43,1.05.72a.36.36,0,0,1-.12.64h0a8.92,8.92,0,0,1-4.08.06,6.2,6.2,0,0,1-1.91-.83,6.36,6.36,0,0,1-.82-.65l-.37-.37-.17-.18-.07-.07h0l0,0s.2.06.27,0l0,0c-.23.16-.33.31-.31.48a1.78,1.78,0,0,0,.37.72,1,1,0,0,1,.09.17l0,.06a.49.49,0,0,1,0,.17.4.4,0,0,1-.24.32.75.75,0,0,1-.3,0l-.15,0c-.19,0-.34-.08-.51-.13-.33-.1-.65-.2-1-.32a12.94,12.94,0,0,1-3.53-2A5.41,5.41,0,0,1,90,62.15a8.1,8.1,0,0,1,.6-4A3.63,3.63,0,0,1,92,56.56a4,4,0,0,1,2-.5,4.54,4.54,0,0,1,2,.44A4.07,4.07,0,0,1,97.56,58a4.87,4.87,0,0,1,.66,2A1.79,1.79,0,0,1,98,61.09a1.86,1.86,0,0,1-.41.39,4.46,4.46,0,0,1-.4.31,3.52,3.52,0,0,1-1.94.76,2,2,0,0,1-1.77-1.14.23.23,0,0,1,.1-.31.24.24,0,0,1,.29.06.3.3,0,0,0,.31.11c.16,0,.33-.09.6-.1h0c.19,0,.21-.53,0-.82a.86.86,0,0,0-1-.32,1,1,0,0,0-.71.81A1.59,1.59,0,0,0,93.36,62v0a2.74,2.74,0,0,0,2.06,1A3.64,3.64,0,0,0,97.64,62a3.25,3.25,0,0,0,1.3-2,3.54,3.54,0,0,0-.6-2.34,6,6,0,0,0-1.73-1.8,1.94,1.94,0,0,0-.53-.25c-.2,0-.42-.08-.63-.11a9.38,9.38,0,0,0-1.27-.1,4.78,4.78,0,0,0-4.34,2.05,8.13,8.13,0,0,0-.8,4.94,6.28,6.28,0,0,0,2.38,4.35,11.33,11.33,0,0,0,4.65,2.08,25.89,25.89,0,0,0,5.12.6v.07A26,26,0,0,1,96.05,69a11.44,11.44,0,0,1-4.7-2.08,6.41,6.41,0,0,1-2.44-4.42,8.27,8.27,0,0,1,.8-5,4.1,4.1,0,0,1,1.94-1.68,6.31,6.31,0,0,1,2.54-.47,9.56,9.56,0,0,1,1.29.09,2.59,2.59,0,0,1,1.24.39,6.2,6.2,0,0,1,1.8,1.85,3.74,3.74,0,0,1,.64,2.48,3.47,3.47,0,0,1-1.37,2.15,3.87,3.87,0,0,1-2.36,1,2.93,2.93,0,0,1-2.28-1.12h0a1.84,1.84,0,0,1-.35-1.33,1.27,1.27,0,0,1,.89-1A1.13,1.13,0,0,1,95,60.2a1.23,1.23,0,0,1,.22.67.52.52,0,0,1-.38.57h0c-.18,0-.37.08-.57.1a.59.59,0,0,1-.56-.22l.07,0a1.75,1.75,0,0,0,1.53,1A3.25,3.25,0,0,0,97,61.56a3.86,3.86,0,0,0,.73-.63,1.51,1.51,0,0,0,.15-.92,4.57,4.57,0,0,0-.63-1.83A3.77,3.77,0,0,0,96,56.77a4.26,4.26,0,0,0-1.89-.39,3.63,3.63,0,0,0-1.87.46,3.29,3.29,0,0,0-1.28,1.42,7.79,7.79,0,0,0-.55,3.83,5,5,0,0,0,2,3.21,12.57,12.57,0,0,0,3.43,1.88q.46.17.93.31c.16,0,.32.09.47.12a.92.92,0,0,0,.22,0s0-.08-.06-.14a2.07,2.07,0,0,1-.44-.9.93.93,0,0,1,.49-.85h0c.18,0,.17.11.24.16l.17.18.35.35A6,6,0,0,0,99,67a5.79,5.79,0,0,0,1.79.77,8.51,8.51,0,0,0,3.89-.06l0,.08a6.36,6.36,0,0,1-1.95-1.64,2.48,2.48,0,0,1-.22-2.47,5.64,5.64,0,0,1,.67-1.1l.43-.48.11-.12.05-.06v0a1.66,1.66,0,0,0-.16-.26,8.69,8.69,0,0,1-1.29-2.2,4.68,4.68,0,0,1-.24-2.53,5.77,5.77,0,0,1,1.07-2.32,3.81,3.81,0,0,1,2.13-1.37,6,6,0,0,1,2.55,0h0a5.7,5.7,0,0,1-.65-3.46,2.2,2.2,0,0,1,1.12-1.4,4.7,4.7,0,0,1,1.75-.49c.3,0,.61,0,.91,0,.14,0,.19-.13.27-.25l.2-.41a5.08,5.08,0,0,1,1-1.53,2.54,2.54,0,0,1,1.65-.74,4.31,4.31,0,0,1,1.79.32l0,0q1.66,2,3.36,4.06c.57.67,1.14,1.33,1.73,2,.29.32.59.65.9,1a3.5,3.5,0,0,0,.48.42l.15.1a.42.42,0,0,1,.06.18,2.07,2.07,0,0,1,0,.34,17.36,17.36,0,0,1-1.32,5.1,25.25,25.25,0,0,1-2.48,4.65,23.8,23.8,0,0,1-7.61,7.19,27.1,27.1,0,0,1-9.93,3.4l0-.11c2.72,1.48,5.36,3.1,7.94,4.82s5.18,3.39,7.66,5.24c5,3.66,9.72,7.67,14.4,11.71s9.23,8.25,13.59,12.64c2.17,2.2,4.31,4.44,6.34,6.78a66.38,66.38,0,0,1,5.69,7.33h0a42.3,42.3,0,0,1,6,10.74,46.6,46.6,0,0,1,3.26,11.88,83.67,83.67,0,0,1,0,12.33,1.44,1.44,0,0,0,.39.59c.17.19.34.39.5.59a5.94,5.94,0,0,1,.8,1.34,7.37,7.37,0,0,1,.53,3,4.93,4.93,0,0,1-.83,3,2.4,2.4,0,0,1-1.31.84,3.67,3.67,0,0,1-1.56,0l.09-.06a54.29,54.29,0,0,1-3.09,9.92,56.52,56.52,0,0,1-4.82,9.2,44.26,44.26,0,0,1-6.65,8c-.65.58-1.26,1.19-1.94,1.73l-2.07,1.58c-.68.54-1.45,1-2.16,1.44s-1.51.85-2.29,1.23a39.32,39.32,0,0,1-20.29,3.42,41.4,41.4,0,0,1-10.14-2.23,28.34,28.34,0,0,1-9.06-5l.1-.09a5,5,0,0,1-.22,6.2,7.73,7.73,0,0,1-5.84,2.72,12.74,12.74,0,0,1-6.36-1.58,11,11,0,0,1-2.63-2,6.26,6.26,0,0,1-1.57-2.89l.12,0a9.65,9.65,0,0,1-7.13,4.63,11.68,11.68,0,0,1-4.35-.38,8.25,8.25,0,0,1-3.85-2,5.41,5.41,0,0,1-1.51-4,4.72,4.72,0,0,1,.12-1.1,4.21,4.21,0,0,1,.34-1,4.38,4.38,0,0,1,1.44-1.65,5.51,5.51,0,0,1,1-.54,6,6,0,0,1,1.06-.29,4.67,4.67,0,0,1,2.19.1,3.37,3.37,0,0,1,1.81,1.21,3.77,3.77,0,0,1,.71,2.07.06.06,0,0,1-.05.06h0a7.67,7.67,0,0,0-1.72-1.06,2.32,2.32,0,0,0-1.92-.14c-.16,0-.26.19-.39.29a4.3,4.3,0,0,0-.28.41l-.18.47a1,1,0,0,0,0,.48,2.72,2.72,0,0,0,1.23,1.51,4.39,4.39,0,0,0,1.89.65,6.74,6.74,0,0,0,2-.16,5.74,5.74,0,0,0,3.37-2.1c1.73-2.14,2.18-4.95,3.21-7.46a17.24,17.24,0,0,1,1.86-3.65,8.48,8.48,0,0,1,3-2.72v.09a7.9,7.9,0,0,0-1-.7c-.36-.22-.71-.45-1.06-.69h0a31.63,31.63,0,0,0-9.66,4.61c-3,2-5.47,4.64-8.34,6.81a71.56,71.56,0,0,1-9,6c-1.57.88-3.17,1.71-4.81,2.44a21.24,21.24,0,0,1-5.09,1.74,68.13,68.13,0,0,1-21.48.28,25,25,0,0,1-17.72-11.11h0a.39.39,0,0,1,.2-.4,1.82,1.82,0,0,1,.4-.18,3.8,3.8,0,0,0,.39-.15c.12-.06.23-.15.21-.27h0a12.88,12.88,0,0,0-.88-1.48,17.38,17.38,0,0,1-.85-1.53,15.82,15.82,0,0,1-1.2-3.28,16.07,16.07,0,0,1,0-6.93,20.86,20.86,0,0,1,2.54-6.47,14.72,14.72,0,0,1,4.84-5,18.44,18.44,0,0,1,13.51-1.85,16,16,0,0,1,6.15,3.2,12.06,12.06,0,0,1,1.29,1.17,5.08,5.08,0,0,1,1.14,1.32,17.45,17.45,0,0,1,1.18,3.28Z"/><path class="cls-1" d="M95.07,70.63l-1.8-.8h0a38.86,38.86,0,0,0-12-2.3,22.41,22.41,0,0,0-6.06.71,13.73,13.73,0,0,0-5.28,3,11.94,11.94,0,0,0-3.28,5.07,9.15,9.15,0,0,0,0,6A6.15,6.15,0,0,0,71,86.16,9.81,9.81,0,0,0,77,85.42h0s0,.1,0,.11h0l0,0-.11,0-.23-.06-.47-.12L75.12,85a15.22,15.22,0,0,1-1.83-.67A7.58,7.58,0,0,1,70.18,82a4.66,4.66,0,0,1-.74-3.77,8.29,8.29,0,0,1,.63-1.86,10.83,10.83,0,0,1,1.11-1.61,8.77,8.77,0,0,1,6.74-3.49,3.65,3.65,0,0,1,1,.08c.32.05.65.09,1,.16a18.36,18.36,0,0,1,1.84.67c.57.32,1.17.59,1.71,1L85,74.32c.49.42,1,.88,1.44,1.32l.36.33.18.17.09.08c.11.2-.05.23-.06.26-.3.19-.59.31-.88.46A11.37,11.37,0,0,0,83,79.11a6.61,6.61,0,0,0-1.79,3.31,7.89,7.89,0,0,0,.23,3.78,7.12,7.12,0,0,0,2,3.2,4.25,4.25,0,0,0,3.47,1.13,4.37,4.37,0,0,0,3-2,3.15,3.15,0,0,0-.72-3.43l0,0a5.53,5.53,0,0,0-2-.82,2.49,2.49,0,0,0-2,.48,4.76,4.76,0,0,0-.76.75c-.12.14-.23.28-.37.43a.71.71,0,0,1-.28.2.3.3,0,0,1-.24,0,.83.83,0,0,1-.12-.11,2.22,2.22,0,0,1-.43-2.2,5.64,5.64,0,0,1,2.78-3.41,10.48,10.48,0,0,1,4.26-1.24,20,20,0,0,1,4.43.24,24.16,24.16,0,0,1,4.27,1.17,35.39,35.39,0,0,1,7.77,4.18.16.16,0,0,1-.16.29,15.41,15.41,0,0,0-5.63-1.28,8.41,8.41,0,0,0-5.37,1.76A10.81,10.81,0,0,0,92,90.09a6.49,6.49,0,0,0-.33,2.81,6.78,6.78,0,0,0,.92,2.68,9.7,9.7,0,0,0,1.84,2.2,5.44,5.44,0,0,0,2.44,1.4,6.88,6.88,0,0,0,5.44-1,3.49,3.49,0,0,0,1.34-2.36,6.08,6.08,0,0,0-.37-2.79A4,4,0,0,0,101.51,91a5.33,5.33,0,0,0-2.72-.65h.06a2.51,2.51,0,0,0-1.31.85,1.26,1.26,0,0,0-.12,1.4,1.17,1.17,0,0,0,1.23.59c.46-.08.93-.63.68-.9v0c-.25-.43-.53-.78-.89-.71a.21.21,0,0,1-.12-.4h0a2.48,2.48,0,0,1,2.32.12,3.47,3.47,0,0,1,1.26,1.94,7.81,7.81,0,0,1,.25,1.11,1.83,1.83,0,0,1-.09,1.21A3.67,3.67,0,0,1,100.31,97a5.23,5.23,0,0,1-2.24.52,3.78,3.78,0,0,1-1.16-.18,4,4,0,0,1-1-.57A5.55,5.55,0,0,1,93.5,93a5.42,5.42,0,0,1,.33-2.28,8.68,8.68,0,0,1,1.13-2,6.27,6.27,0,0,1,1.63-1.6l.49-.31.54-.22a5.62,5.62,0,0,1,1.1-.32,11,11,0,0,1,4.5.19,17.84,17.84,0,0,1,2.16.63c.35.13.7.27,1,.42.17.07.34.16.51.24l.26.14.13.08a.87.87,0,0,1,.2.21l0-.06a.31.31,0,0,1,0,.21.28.28,0,0,1-.06.11.32.32,0,0,1-.1.09l-.13.06-.2.07-.38.13a4.5,4.5,0,0,0-.7.31,1.7,1.7,0,0,0-.89,1,2.32,2.32,0,0,0,.21,1.42,7.16,7.16,0,0,0,.8,1.33l0,0a.23.23,0,0,0-.34,0l0,0h0l0-.07,0-.17.1-.36a4.92,4.92,0,0,1,.26-.71,2.6,2.6,0,0,1,1-1.18,2.3,2.3,0,0,1,1.55-.24,4.9,4.9,0,0,1,1.42.51,12.93,12.93,0,0,1,2.38,1.68c.73.63,1.42,1.31,2.08,2h-.37l0,0,0-.08a1.63,1.63,0,0,0,.07-.18.26.26,0,0,1,.5.1,14.66,14.66,0,0,0,.6,5.45,8,8,0,0,0,3.22,4.25,11.21,11.21,0,0,0,5.17,1.65,19.26,19.26,0,0,0,5.49-.33l.05.54a15.65,15.65,0,0,1-3.29-.45,5.57,5.57,0,0,1-2.93-1.7,3.5,3.5,0,0,1-.49-3.36,5.08,5.08,0,0,1,.8-1.52,3.71,3.71,0,0,1,.61-.64,1.48,1.48,0,0,1,.93-.39.28.28,0,0,1,.22.45v0a3.22,3.22,0,0,0-.76,3.25,4.16,4.16,0,0,0,2.75,2.05h.1s-.05,0-.07,0a.25.25,0,0,0-.13.21.23.23,0,0,0,0,.11c.06.09,0,0,0,0l-.07-.1-.29-.39a6.5,6.5,0,0,1-.53-.85A2,2,0,0,1,126,102a.76.76,0,0,1,0-.37.58.58,0,0,1,.31-.36,1.82,1.82,0,0,1,1.15.07,22.75,22.75,0,0,1,3.53,1.62l.07.05a32.89,32.89,0,0,1,2.46,2.78,26.84,26.84,0,0,1,2.09,3.07h0a.31.31,0,0,1-.31.46,51.32,51.32,0,0,0-8.17-.5c-1.37,0-2.73.09-4.09.23a24,24,0,0,0-4,.68h0c-.41.08-.79.27-1.28.4a.31.31,0,0,1-.27-.05h0a11,11,0,0,0-5-2.25,8.75,8.75,0,0,0-2.74,0,10,10,0,0,0-1.34.33,6.38,6.38,0,0,0-.65.24l-.32.13a.88.88,0,0,1-.58,0,4.82,4.82,0,0,1-1.3-.83l-1.1-.91a25.69,25.69,0,0,0-2.25-1.7,11,11,0,0,0-5.13-1.94c-3.57-.28-7.71,1.88-8.23,5.61a8,8,0,0,0,0,2.73,5.4,5.4,0,0,0,1,2.47,6.88,6.88,0,0,0,2,1.76,4.54,4.54,0,0,0,2.52.68,2.34,2.34,0,0,0,2-1.34,4.88,4.88,0,0,0,.47-2.54,2.08,2.08,0,0,0-1.61-1.66,5.08,5.08,0,0,0-2.62,0,3.3,3.3,0,0,0-1.16.53,1.41,1.41,0,0,0-.38.4A1.58,1.58,0,0,1,91,112a1.5,1.5,0,0,1-.16.47l-.06.09a.58.58,0,0,1-.18.13.45.45,0,0,1-.32,0,.42.42,0,0,1-.15-.11.75.75,0,0,1-.16-.3,2.39,2.39,0,0,1-.08-.42,5.6,5.6,0,0,1,0-.77,7.65,7.65,0,0,1,.2-1.49,6.2,6.2,0,0,1,1.35-2.69A5,5,0,0,1,94,105.3a5.34,5.34,0,0,1,3,.06A5.9,5.9,0,0,1,99.51,107a6.24,6.24,0,0,1,1.55,5.66c-.57,1.9-1.53,3.56-1.85,5.36a4.67,4.67,0,0,0,.19,2.59,5.19,5.19,0,0,0,1.62,2.05.41.41,0,0,1,.1.52,26.47,26.47,0,0,0-1.92,3.89A21,21,0,0,0,98,131.24a20.3,20.3,0,0,0-.33,4.3,15.29,15.29,0,0,0,.68,4.21v0a16.25,16.25,0,0,0,2.6,5,10.49,10.49,0,0,0,4.3,3.45,8.05,8.05,0,0,0,2.69.54,7.42,7.42,0,0,0,2.71-.33,7.52,7.52,0,0,0,4.08-3.52,13.72,13.72,0,0,1,.83-1.25,3.71,3.71,0,0,0,.46-1.17,6.66,6.66,0,0,0,.12-2.69,2.45,2.45,0,0,0-1.35-1.94,3.93,3.93,0,0,0-2.53,0,2.55,2.55,0,0,0-1.72,1.66,3.93,3.93,0,0,0,0,2.55,2.69,2.69,0,0,0,1.64,1.77,3.37,3.37,0,0,0,1.26.14,6.27,6.27,0,0,0,.67-.08l.35-.06.21,0h.18l.12,0,.06,0a.51.51,0,0,1,.16.11.46.46,0,0,1,.13.31.55.55,0,0,1-.05.24l0-.11c-1.36,3.08-4.8,4.14-7.67,3.56-.37-.05-.72-.17-1.08-.25a2.56,2.56,0,0,1-.55-.19l-.5-.24a11.79,11.79,0,0,1-1.84-1.19,11.32,11.32,0,0,1-4.35-7.4,16.33,16.33,0,0,1-.16-2.16c0-.71,0-1.43,0-2.15a16.76,16.76,0,0,1,2.42-8.24,25.62,25.62,0,0,1,5.88-6.23c1.12-.88,2.26-1.72,3.42-2.53l1.76-1.19c.6-.38,1.22-.75,1.83-1.12a24,24,0,0,1,8-3,16.63,16.63,0,0,1,4.33-.2,12.15,12.15,0,0,1,4.28,1.08.5.5,0,0,1,.05.86h0a12.06,12.06,0,0,0-5.14,7.82,10,10,0,0,0,0,4.73,9.51,9.51,0,0,0,2.29,4.11,14.61,14.61,0,0,0,3.83,2.91,13.34,13.34,0,0,0,2.2,1l.24.06h-.06a.53.53,0,0,0-.29.13c-.32.32,0,.83-.08.69.11.13.08.08.1.1a1.4,1.4,0,0,1-.2-.16,2.38,2.38,0,0,1-.44-.68,6.57,6.57,0,0,1-.43-1.3,6,6,0,0,1-.17-1.37,2.38,2.38,0,0,1,0-.41,1,1,0,0,1,.3-.58.73.73,0,0,1,.55-.17.86.86,0,0,1,.37.12l.27.18.5.28a4.35,4.35,0,0,0,.41.18h-.05a.47.47,0,0,0-.35.17.5.5,0,0,0-.13.37.68.68,0,0,0,0,.11.41.41,0,0,0,0,.1l-.1-.15-.17-.31c-.1-.2-.19-.4-.27-.6a17.23,17.23,0,0,1-1.48-4.93,8.17,8.17,0,0,1,.11-2.67,5.77,5.77,0,0,1,1.21-2.46,8.33,8.33,0,0,1,4.61-2.56,15.1,15.1,0,0,1,2.57-.36,9.47,9.47,0,0,1,1.34,0,5.49,5.49,0,0,1,1.35.36,11.92,11.92,0,0,1,4.21,3.11,5.87,5.87,0,0,1,.81,1.13,1.41,1.41,0,0,1,.16.5.72.72,0,0,1-.19.58.82.82,0,0,1-.46.22l-.56.13a7.4,7.4,0,0,0-2.13.91,6.61,6.61,0,0,0-2.81,3.54,4.2,4.2,0,0,0,.68,4.14,4.29,4.29,0,0,0,1.89,1.1,6.2,6.2,0,0,0,1.12.23,5.49,5.49,0,0,0,.56,0h.29l-.09,0a.49.49,0,0,0-.15.17.58.58,0,0,0,0,.63.45.45,0,0,0,.21.17h0l-.14-.06-.44-.2-.57-.28a6.23,6.23,0,0,1-1.09-.73,4,4,0,0,1-1.44-2.32,5.14,5.14,0,0,1,.25-2.67,4.45,4.45,0,0,1,1.67-2.15c3.33-2,7.64.48,8.44,3.8a12.24,12.24,0,0,1,1,4.91,5.56,5.56,0,0,1-.68,2.58,2.86,2.86,0,0,1-.47.6,1.3,1.3,0,0,1-1,.42,1.37,1.37,0,0,1-.47-.14l-.27-.12-.54-.23a9.06,9.06,0,0,0-4.37-.89,5.4,5.4,0,0,0-3.74,1.92,10.67,10.67,0,0,0-2.07,4c-.11.37-.21.74-.29,1.12l-.12.57-.07.32v0s0,0,0,0a.32.32,0,0,0,0-.09.61.61,0,0,0-.21-.31.56.56,0,0,0-.23-.1l-.13,0a.52.52,0,0,0-.22.05l0,0,0,0,.07-.07.17-.2c.11-.14.23-.29.33-.45.23-.33.38-.59.61-1a8.67,8.67,0,0,1,1.58-2,5.49,5.49,0,0,1,2.35-1.28,5.56,5.56,0,0,1,2.67,0,8.16,8.16,0,0,1,1.23.4,9.2,9.2,0,0,1,1.17.57,5.86,5.86,0,0,1,2.42,7,5.26,5.26,0,0,1-.64,1.2,2.8,2.8,0,0,1-1.18.95,5.36,5.36,0,0,1-2.68.3,15.63,15.63,0,0,1-2.46-.49c-.79-.22-1.57-.48-2.32-.75l-1.12-.4-.5-.16s-.09.07.24-.1a.51.51,0,0,0,.2-.41.23.23,0,0,0,0-.11l-.23-.26a34.3,34.3,0,0,1,9.48,8.54,22.12,22.12,0,0,1,4.31,12,27,27,0,0,1-2.55,12.53,27.46,27.46,0,0,1-1.5,2.85,16.59,16.59,0,0,1-2,2.61,27.58,27.58,0,0,1-4.85,4.23.66.66,0,0,1-.92-.17.68.68,0,0,1-.12-.33,19.1,19.1,0,0,0-1.94-6.43c-.49-1-1-2-1.63-3-.29-.49-.6-1-.92-1.48l-.06-.09,0,0a.61.61,0,0,1-.06-.11,1,1,0,0,1-.05-.14l0-.07a.7.7,0,0,1,.21-.61.54.54,0,0,1,.18-.12.76.76,0,0,1,.38-.06,1.11,1.11,0,0,1,.28.08,3.58,3.58,0,0,1,.48.26c.27.17.52.34.76.52a19.26,19.26,0,0,1,2.74,2.38,5.56,5.56,0,0,1,.61.79,2,2,0,0,1,.25.59.89.89,0,0,1,0,.22v.13a.39.39,0,0,0,0-.12.53.53,0,0,0-.07-.18c-.31-.43-.56-.27-.56-.3h0a3.45,3.45,0,0,0,.58-.38c.21-.16.42-.35.63-.53a15.94,15.94,0,0,0,3.87-5.43,9,9,0,0,0,.4-6.39,11.54,11.54,0,0,0-3.93-5.23,22.81,22.81,0,0,0-2.81-1.91c-.25-.14-.49-.29-.75-.42l-.38-.2-.09-.05,0,0h0a.53.53,0,0,0,.31,0l.16,0a.59.59,0,0,0,.37-.62v0a.35.35,0,0,0,0-.08l0,0c.25.42.61.93.94,1.4.66,1,1.34,1.91,1.95,3a3.31,3.31,0,0,1,.4,1,.84.84,0,0,1,0,.28.88.88,0,0,1,0,.19.9.9,0,0,1-.19.26.8.8,0,0,1-.48.2l-.28,0-.36-.06a1,1,0,0,0-.48,0s0,0,0,.12v.1h0a.59.59,0,0,0-.19-.44A.63.63,0,0,0,144,167h.25a1.57,1.57,0,0,1,1.31.81,3.66,3.66,0,0,1,.44,1.56h0v0a.75.75,0,0,1-.16.46.84.84,0,0,1-.21.18l-.16.06a1,1,0,0,1-.39,0,3.28,3.28,0,0,1-.4-.06l-.28,0c-.06,0-.14,0,.07-.06a.5.5,0,0,0,.16-.17.41.41,0,0,0,.06-.19c0-.05,0,.06,0,.08a2.13,2.13,0,0,0,0,.27c0,.19.09.39.14.59.22.81.49,1.66.69,2.54a9.14,9.14,0,0,1,.25,2.77,6,6,0,0,1-.1.72c0,.12-.06.24-.09.36l-.05.18v.07s0,0,0,.08a.71.71,0,0,1-.42.35.78.78,0,0,1-.28,0,.67.67,0,0,1-.27-.09l-.13-.08-.17-.13-.27-.24-.48-.47c-1.23-1.26-2.4-2.53-3.64-3.72-.62-.59-1.25-1.17-1.92-1.68a8,8,0,0,0-2.05-1.25l.79-.51a25.58,25.58,0,0,1-1.25,5.79,6.55,6.55,0,0,1-1.66,2.7,6.68,6.68,0,0,1-.65.48,1,1,0,0,1-.4.16.59.59,0,0,1-.45-.11A.61.61,0,0,1,132,178a.83.83,0,0,1,0-.29,2.91,2.91,0,0,1,.18-.43,10.88,10.88,0,0,0,.59-1.24,1.35,1.35,0,0,0,.1-.47c0-.08,0,.06.24.07.11,0-.12.08-.24.24s-.28.34-.43.52c-.29.37-.59.77-1,1.16a4,4,0,0,1-.63.56,1.75,1.75,0,0,1-1,.36.93.93,0,0,1-.75-.52,1.76,1.76,0,0,1-.15-.53,4.06,4.06,0,0,1,0-.84,10.29,10.29,0,0,1,.23-1.51,17.7,17.7,0,0,1,.9-2.85,9.93,9.93,0,0,1,1.53-2.66l.42-.44s0,0,0,.25a.52.52,0,0,0,.22.38.5.5,0,0,0,.19.08c.12,0,.05,0,0,0l-.28.08c-.42.14-.87.33-1.31.51-1.78.73-3.53,1.54-5.45,2.12a5.57,5.57,0,0,1-1.6.27,1.31,1.31,0,0,1-.6-.15.92.92,0,0,1-.27-.26l-.08-.17a1.54,1.54,0,0,1-.08-.27,4.81,4.81,0,0,1-.08-.82,12.38,12.38,0,0,1,.07-1.51,5.4,5.4,0,0,1,.34-1.56h0s0,0,0,0a.34.34,0,0,0,0,.15.48.48,0,0,0,.18.27.41.41,0,0,0,.15.08h0a2.51,2.51,0,0,1-.44,0,1.85,1.85,0,0,1-.9-.48,3,3,0,0,1-.55-.72.64.64,0,0,1-.07-.18.61.61,0,0,1,0-.21.89.89,0,0,1,0-.24,1.73,1.73,0,0,1,.12-.25,4,4,0,0,1,.23-.36c.31-.42.63-.79.94-1.16l.46-.54.2-.26.07-.1s0,0,0,0v.06a.62.62,0,0,0,0,.13.5.5,0,0,0,.08.22.5.5,0,0,0,.27.21l.1,0a10.16,10.16,0,0,0-3,0,8,8,0,0,0-2.77,1.13,11.38,11.38,0,0,0-3.89,4.67c-.94,1.84-1.35,4-2.51,6a6.76,6.76,0,0,1-2.47,2.42,13.73,13.73,0,0,1-3.12,1.23l.34-.74a3.83,3.83,0,0,0,1.27,1.24,6.15,6.15,0,0,0,1.79.71,11.84,11.84,0,0,0,4,.14,23.92,23.92,0,0,0,4-.93c.65-.22,1.32-.41,2-.68l1-.38.48-.19.25-.11a1,1,0,0,1,.27-.08h.15a.53.53,0,0,1,.47.55.58.58,0,0,1,0,.15.59.59,0,0,1-.06.12.78.78,0,0,1-.12.16l.13-.2a3.61,3.61,0,0,0,0,1.76,3.38,3.38,0,0,0,.88,1.54,6.74,6.74,0,0,0,3.41,1.64c.65.17,1.29.2,2,.32a4.69,4.69,0,0,1,2.16.8,5.19,5.19,0,0,1,1.82,4,10,10,0,0,1-.15,2.18v0a.42.42,0,0,0,0-.12.49.49,0,0,0-.07-.21.48.48,0,0,0-.17-.16l-.1,0-.09,0s0,0,0,0l.18-.06.43-.19a9.62,9.62,0,0,0,.85-.48,13.28,13.28,0,0,0,3-2.61,10.93,10.93,0,0,0,2.67-7.28h0a.43.43,0,0,1,0-.16.52.52,0,0,1,.28-.31.55.55,0,0,1,.21,0l.13,0a.5.5,0,0,1,.16.07l.08.06a1,1,0,0,1,.14.15l.13.2c.07.12.13.24.18.36s.21.46.3.7c.18.46.36.92.52,1.38a23.86,23.86,0,0,1,.84,2.85,13.28,13.28,0,0,1,.36,3,7.16,7.16,0,0,1-.63,3,.48.48,0,0,1-.23.23,28.22,28.22,0,0,1-7.8,2.41,29.73,29.73,0,0,1-8.15.09,54,54,0,0,1-15.54-4.51l-.07,0a14.89,14.89,0,0,1-5.33-5.77,9.64,9.64,0,0,1-.93-3.9,10.36,10.36,0,0,1,.16-2c.06-.33.13-.66.22-1l.13-.47.06-.22,0-.09s0,0,0,0v.06a.4.4,0,0,0,.28.31h0a7.8,7.8,0,0,0-1.58-.5,2.41,2.41,0,0,0-1.45.11,1.62,1.62,0,0,0-.8,1.09,4.4,4.4,0,0,0-.14.79l0,.42,0,.23s0,.09,0,.16a.63.63,0,0,1,0,.15.61.61,0,0,1-.1.15.5.5,0,0,1-.47.11h0a1.39,1.39,0,0,1-.29-.18,1.6,1.6,0,0,1-.14-.13c-.08-.08-.16-.16-.23-.24s-.28-.32-.4-.49c-.26-.33-.5-.66-.73-1A19.42,19.42,0,0,1,96.74,176a12.24,12.24,0,0,1-1.43-4.78,6.64,6.64,0,0,1,0-1.28l.09-.64c.05-.21.13-.42.19-.62a6.75,6.75,0,0,1,1.28-2.21,10,10,0,0,1,1.81-1.77,6.23,6.23,0,0,1,2.38-1,6.12,6.12,0,0,1,4.82,1.47,4.18,4.18,0,0,1,1.51,2.15,5.66,5.66,0,0,1,.07,2.6,4.52,4.52,0,0,1-1.19,2.36,2,2,0,0,1-.62.41,2.79,2.79,0,0,1-.38.11l-.32,0a9.38,9.38,0,0,1-1.27.06,4.1,4.1,0,0,1-2.52-.8,2.88,2.88,0,0,1-.92-2.54.4.4,0,0,1,.8,0h0a.52.52,0,0,0,.38.43c.13.05.25.08.46.15a.2.2,0,0,0,.17,0,1,1,0,0,0,.27-1.23,1.27,1.27,0,0,0-1.32-.55,1.59,1.59,0,0,0-1,1.15,2.27,2.27,0,0,0-.11.82,4.71,4.71,0,0,0,.28.89,5,5,0,0,0,1,1.57,4.26,4.26,0,0,0,3.4,1.25,5.23,5.23,0,0,0,3.46-1.26,4.15,4.15,0,0,0,.94-1.57,6.39,6.39,0,0,0,.25-1.89,8,8,0,0,0-1-3.7A4.46,4.46,0,0,0,107,164.2a12,12,0,0,0-1.65-1.07,8.81,8.81,0,0,0-3.72-1.06,6.24,6.24,0,0,0-3.66,1,3.83,3.83,0,0,0-.79.56,7.21,7.21,0,0,0-.74.64,11.58,11.58,0,0,0-1.27,1.51,11,11,0,0,0-1.78,3.49,11.36,11.36,0,0,0,.73,7.69,25.25,25.25,0,0,0,4.45,6.63h0a.35.35,0,0,1-.46.52l-5.81-4a.34.34,0,0,1,.19-.62h.21v.68a.74.74,0,0,1-.25-.05l-.15-.06L92,179.9l0,0c-1.18-.86-2.32-1.75-3.43-2.73l0,0a21.59,21.59,0,0,1-4.17-3.4,9.87,9.87,0,0,1-1.58-2.23,5.69,5.69,0,0,1-.68-2.7,3.93,3.93,0,0,1,1-2.64,4.11,4.11,0,0,1,2.61-1.07,11.24,11.24,0,0,1,2.73.13c.45.07.89.16,1.33.27.24.06.43.13.62.17l.22,0s0,0-.08,0a.24.24,0,0,0-.09.23c0,.06,0,0,0,0l0,0a10.29,10.29,0,0,0-2.45-2,5,5,0,0,0-3-.49,6.3,6.3,0,0,0-3,.76,5.59,5.59,0,0,0-2.13,2.25,10.36,10.36,0,0,0-1,3,4.61,4.61,0,0,0,.73,3A19.28,19.28,0,0,0,84,177.26a.3.3,0,0,1,0,.42.31.31,0,0,1-.24.11,32.7,32.7,0,0,1-5.76-.53,11.28,11.28,0,0,1-5.31-2.39c-.19-.16-.36-.32-.54-.49a3,3,0,0,1-.5-.62,2.65,2.65,0,0,1-.36-1.54,3.79,3.79,0,0,1,1.48-2.63,4.9,4.9,0,0,1,1.34-.73,8.3,8.3,0,0,1,1.46-.31,12.24,12.24,0,0,1,1.46-.1h1.29l-.05,0a.23.23,0,0,0-.08.07.26.26,0,0,0,0,.25c.06.13.08.1.08.11h0l0,0a6.42,6.42,0,0,0-2.88-1.48,5,5,0,0,0-3.16.33,6.61,6.61,0,0,0-2.48,2.1,4.46,4.46,0,0,0-.78,3.06,5.13,5.13,0,0,0,1.25,2.93,7.22,7.22,0,0,0,2.72,1.81,15,15,0,0,0,3.24.85c.56.09,1.12.14,1.68.19l.84,0h.53a.38.38,0,0,1,.27.08.31.31,0,0,1,.1.3.41.41,0,0,1-.05.13.73.73,0,0,1-.1.13.24.24,0,0,1-.2.07h0a7,7,0,0,0-2.83.35A11.14,11.14,0,0,0,73.68,181a15.44,15.44,0,0,0-2.32,1.8c-.75.64-1.35,1.43-2.09,2.12h0a.24.24,0,0,1-.17.06,16.58,16.58,0,0,1-5.37-.84,9,9,0,0,1-4.39-3.2,10.25,10.25,0,0,1-1.75-5.14,17.84,17.84,0,0,1,0-2.72V173s0-.15,0-.06l0,0a.22.22,0,0,0,.2.08h0l-.09,0-.17,0a5.76,5.76,0,0,1-.69.11,4,4,0,0,1-1.43-.1l.3-.23a20.41,20.41,0,0,0,1,4.85,12.15,12.15,0,0,0,2.53,4.19,10.91,10.91,0,0,0,4.08,2.68,15.31,15.31,0,0,0,4.85.88.21.21,0,0,1,.21.21.22.22,0,0,1-.07.15,26.6,26.6,0,0,1-7.87,5.21,11.36,11.36,0,0,1-2.27.75,9.14,9.14,0,0,1-2.4.09,13.56,13.56,0,0,1-2.35-.42c-.38-.1-.76-.22-1.14-.35l-.56-.21a3.38,3.38,0,0,1-.6-.29l.05,0s0,0,0,0,.05-.06.05-.06h0l0,.05a2.17,2.17,0,0,0,.12,1.73,3.33,3.33,0,0,0,.56.72l.1.12a.41.41,0,0,1,0,.09.19.19,0,0,1,0,.17.25.25,0,0,1-.09.08h0l-.24.08-.47.17a5.2,5.2,0,0,1-1,.19,5.88,5.88,0,0,1-1,0,4.42,4.42,0,0,1-1.84-.8,9,9,0,0,1-2.45-3.06l-.45-.86c-.14-.26-.34-.63-.42-.63s-.33.32-.42.59a6,6,0,0,0-.27.89h0a.17.17,0,0,1-.21.13h0a2.4,2.4,0,0,1-1.54-1.47,3.9,3.9,0,0,1,0-2.11A9.81,9.81,0,0,1,43.44,183a6.74,6.74,0,0,1,3.47-2.19,8.92,8.92,0,0,1,4.12-.1h0a4.83,4.83,0,0,1,1.67.93,2.78,2.78,0,0,1,.94,1.68,4.32,4.32,0,0,1-.15,1.91,6.94,6.94,0,0,1-.78,1.73.16.16,0,0,1-.29-.12h0a5.71,5.71,0,0,0,.15-1.67,2,2,0,0,0-.62-1.43,2.59,2.59,0,0,0-1.54-.44,2.39,2.39,0,0,0-1.54.38,2.06,2.06,0,0,0-.64,1.43,3.87,3.87,0,0,0,.18,1.62,3.07,3.07,0,0,0,2.91,1.13,3.81,3.81,0,0,0,2.59-1.94,4.09,4.09,0,0,0,.6-1.55,3.82,3.82,0,0,0-.16-1.64,5.41,5.41,0,0,0-3.63-3.26,8.31,8.31,0,0,0-1.69-.21,9.66,9.66,0,0,0-6.38,2,6.92,6.92,0,0,0-2,2.7,8.92,8.92,0,0,0-.55,1.61c-.12.56-.19,1.13-.26,1.69a8.5,8.5,0,0,0,2,6.35,11.57,11.57,0,0,0,5.82,3.42h0a.11.11,0,0,1,.09.11v.2a.11.11,0,0,1-.07.11,19,19,0,0,1-5.24,1.12,16.21,16.21,0,0,1-2.69,0,16.53,16.53,0,0,1-2.63-.58,15.73,15.73,0,0,1-4.76-2.46,17.46,17.46,0,0,1-2-1.77c-.31-.33-.61-.66-.9-1-.14-.17-.28-.35-.41-.53a.77.77,0,0,0-.19-.21s-.06,0-.1.09v0h0a13.91,13.91,0,0,1-2.07,2.49,7.33,7.33,0,0,1-2.74,1.73,3.83,3.83,0,0,1-3.17-.37,6,6,0,0,1-1.23-1.07,8.9,8.9,0,0,1-1-1.27,9.35,9.35,0,0,1-1.4-2.92,4.6,4.6,0,0,1,.28-3.2,8.62,8.62,0,0,1,.89-1.36c.06-.11.16-.22.08-.28a1,1,0,0,0-.26-.27,1.31,1.31,0,0,0-.71-.23,6.32,6.32,0,0,0-3,1h0a.07.07,0,0,1-.08,0,2.71,2.71,0,0,1-.73-1.45,5.5,5.5,0,0,1,0-1.62,10.92,10.92,0,0,1,1-3.06,9.6,9.6,0,0,1,.8-1.4,2.83,2.83,0,0,1,.54-.61c.22-.16.41-.35.21-.54a3.69,3.69,0,0,0-1.43-.6c-.52-.13-1-.23-1.56-.31a.06.06,0,0,1-.05-.07v0a17.64,17.64,0,0,1,4.08-6.27,12.76,12.76,0,0,1,6.56-3.48A10,10,0,0,1,30.94,168a9.61,9.61,0,0,1,4,6.17h-.07a9.54,9.54,0,0,0-3.95-6.12A9.93,9.93,0,0,0,23.68,167a12.67,12.67,0,0,0-6.51,3.46,17.55,17.55,0,0,0-4,6.23l0-.05c.53.08,1.06.18,1.58.31a3.72,3.72,0,0,1,1.48.63.32.32,0,0,1,.07.4,1.3,1.3,0,0,1-.29.29,2.74,2.74,0,0,0-.52.59,9.5,9.5,0,0,0-.79,1.38,10.81,10.81,0,0,0-1,3,5.39,5.39,0,0,0,0,1.58,2.6,2.6,0,0,0,.7,1.38h0a6.42,6.42,0,0,1,3.06-1,1.43,1.43,0,0,1,.78.25,1.11,1.11,0,0,1,.29.3c.13.14,0,.31-.08.41a8.55,8.55,0,0,0-.88,1.34,4.48,4.48,0,0,0-.27,3.12,9.23,9.23,0,0,0,1.38,2.88,8.78,8.78,0,0,0,1,1.26,5.88,5.88,0,0,0,1.21,1,3.69,3.69,0,0,0,3.07.36,7.2,7.2,0,0,0,2.68-1.7,13.79,13.79,0,0,0,2-2.47h0c0-.11.15-.27.29-.18a.84.84,0,0,1,.24.25c.13.18.27.35.41.52.28.35.59.67.89,1a17.32,17.32,0,0,0,2,1.76,15.58,15.58,0,0,0,4.72,2.43,16.38,16.38,0,0,0,2.6.57,16.06,16.06,0,0,0,2.66,0,18.87,18.87,0,0,0,5.2-1.12l0,0v-.2l0,0a11.72,11.72,0,0,1-5.91-3.47,8.67,8.67,0,0,1-2-6.47c.07-.57.14-1.15.26-1.72a9.09,9.09,0,0,1,.56-1.65,7.1,7.1,0,0,1,2.07-2.76,9.84,9.84,0,0,1,6.5-2.06,5.67,5.67,0,0,1,5.48,3.58,4,4,0,0,1,.17,1.73,4.28,4.28,0,0,1-.62,1.62,4,4,0,0,1-2.72,2,3.41,3.41,0,0,1-1.73-.19,2.71,2.71,0,0,1-1.39-1,4,4,0,0,1-.2-1.73,2.26,2.26,0,0,1,.71-1.57,2.58,2.58,0,0,1,1.67-.43,2.78,2.78,0,0,1,1.67.48,2.15,2.15,0,0,1,.7,1.57,5.91,5.91,0,0,1-.15,1.74l-.08,0a5.36,5.36,0,0,0,.9-3.49,2.57,2.57,0,0,0-.88-1.56,4.62,4.62,0,0,0-1.6-.88h0a8.72,8.72,0,0,0-4,.11,6.52,6.52,0,0,0-3.36,2.12,9.6,9.6,0,0,0-1.83,3.58,3.68,3.68,0,0,0,0,2A2.18,2.18,0,0,0,43.2,190l-.06,0a6.25,6.25,0,0,1,.28-.93c.14-.27.24-.66.64-.73.2,0,.3.21.38.33s.16.28.24.43l.45.85a8.8,8.8,0,0,0,2.38,3,4.19,4.19,0,0,0,1.74.75,5.69,5.69,0,0,0,1,0,5,5,0,0,0,.94-.19l.45-.16.23-.08c.06,0,0,0,0,0l-.07-.09a3.55,3.55,0,0,1-.6-.77,2.41,2.41,0,0,1-.14-1.91h0a.18.18,0,0,1,.09-.16.21.21,0,0,1,.18,0h0a13.67,13.67,0,0,0,4.49,1.2,8.89,8.89,0,0,0,2.33-.09,11.14,11.14,0,0,0,2.22-.74,26.35,26.35,0,0,0,7.79-5.17l0,.08a15.57,15.57,0,0,1-4.94-.89,11.18,11.18,0,0,1-4.18-2.75,12.42,12.42,0,0,1-2.59-4.28,20.68,20.68,0,0,1-1-4.92,0,0,0,0,1,0-.05h0a3.75,3.75,0,0,0,1.31.08,5.49,5.49,0,0,0,.66-.11l.16,0,.08,0s0-.06.13,0a1.42,1.42,0,0,1,0,.36,17.57,17.57,0,0,0,0,2.68,10,10,0,0,0,1.71,5,8.69,8.69,0,0,0,4.26,3.1,16.3,16.3,0,0,0,5.27.82h0c.73-.68,1.34-1.48,2.1-2.13a15.74,15.74,0,0,1,2.36-1.84,11.44,11.44,0,0,1,2.71-1.28,7.28,7.28,0,0,1,3-.36h0s.08-.13.08-.11h-.61l-.86,0c-.57,0-1.14-.1-1.7-.19a15.26,15.26,0,0,1-3.31-.87,7.53,7.53,0,0,1-2.84-1.89,5.45,5.45,0,0,1-1.33-3.11,4.78,4.78,0,0,1,.83-3.27,6.92,6.92,0,0,1,2.6-2.21,5.33,5.33,0,0,1,3.37-.36,6.75,6.75,0,0,1,3,1.55h0c-1.74.28-3.92-.06-5.42,1.21a3.46,3.46,0,0,0-1.35,2.39,2.31,2.31,0,0,0,.32,1.34,4.47,4.47,0,0,0,1,1,10.93,10.93,0,0,0,5.16,2.31,32.37,32.37,0,0,0,5.7.52l0,.09a19.6,19.6,0,0,1-4.45-4.88,5,5,0,0,1-.77-3.19,10.71,10.71,0,0,1,1-3.14,6,6,0,0,1,2.26-2.39,6.66,6.66,0,0,1,3.2-.81,9,9,0,0,1,1.66,0,4.53,4.53,0,0,1,1.58.52,10.63,10.63,0,0,1,2.55,2.11h0a.49.49,0,0,1,.09.17c0,.1-.09.16-.15.16a1.16,1.16,0,0,1-.35,0c-.22,0-.43-.12-.64-.17-.43-.11-.86-.19-1.29-.26a10.88,10.88,0,0,0-2.63-.12,3.74,3.74,0,0,0-2.37,1,3.55,3.55,0,0,0-.92,2.38,5.31,5.31,0,0,0,.64,2.52,9.49,9.49,0,0,0,1.52,2.14,21.21,21.21,0,0,0,4.09,3.33h0c1.08,1,2.23,1.84,3.4,2.7h0a1.87,1.87,0,0,0,.48.19h0a.06.06,0,0,1,0,.11h-.2l0-.1,5.8,4-.07.08a25.65,25.65,0,0,1-4.53-6.74,11.78,11.78,0,0,1-.76-8,11.46,11.46,0,0,1,1.85-3.62,12,12,0,0,1,1.31-1.56,7.63,7.63,0,0,1,.77-.67,4.15,4.15,0,0,1,.83-.59,6.67,6.67,0,0,1,3.9-1,9.24,9.24,0,0,1,3.9,1.11,12.39,12.39,0,0,1,1.71,1.11,4.9,4.9,0,0,1,1.39,1.49,8.42,8.42,0,0,1,1,3.92,6.83,6.83,0,0,1-.27,2,4.59,4.59,0,0,1-1,1.75,5.66,5.66,0,0,1-3.76,1.4,4.71,4.71,0,0,1-3.74-1.38,5.41,5.41,0,0,1-1.11-1.72,5.14,5.14,0,0,1-.31-1,2.58,2.58,0,0,1,.12-1,2,2,0,0,1,1.36-1.47,1.73,1.73,0,0,1,1.83.75,1.41,1.41,0,0,1-.45,1.87.67.67,0,0,1-.54,0,4.81,4.81,0,0,1-.49-.16,1,1,0,0,1-.65-.79h.12a2.42,2.42,0,0,0,.76,2.14,3.65,3.65,0,0,0,2.23.69,8.92,8.92,0,0,0,1.2-.06,1.49,1.49,0,0,0,1.06-.43,4.08,4.08,0,0,0,1-2.1,5.2,5.2,0,0,0-.07-2.37,3.69,3.69,0,0,0-1.36-1.91,5.65,5.65,0,0,0-4.44-1.37,5.75,5.75,0,0,0-2.18.95,9.48,9.48,0,0,0-1.71,1.68,6.26,6.26,0,0,0-1.19,2.06c-.06.19-.13.38-.18.57l-.08.59a6.16,6.16,0,0,0,0,1.2,11.77,11.77,0,0,0,1.38,4.58,15.42,15.42,0,0,0,2.72,3.92h0c-.08,0,0-.08,0-.14v-.22l0-.44a4.89,4.89,0,0,1,.16-.88,2.12,2.12,0,0,1,1.06-1.4,2.88,2.88,0,0,1,1.76-.15,8.28,8.28,0,0,1,1.69.53h0c.11.12,0,.13,0,.18l0,.12-.07.23-.13.46c-.08.31-.15.62-.21.94a9.85,9.85,0,0,0-.15,1.91,9.13,9.13,0,0,0,.89,3.7,14.39,14.39,0,0,0,5.16,5.56h0a53.47,53.47,0,0,0,15.39,4.46,29.19,29.19,0,0,0,8-.09,27.67,27.67,0,0,0,7.65-2.37l0,0a9,9,0,0,0,.23-5.68,23.31,23.31,0,0,0-.82-2.79c-.16-.46-.34-.91-.52-1.36-.09-.22-.18-.45-.29-.67s-.11-.22-.16-.32l-.09-.15c0-.06-.12-.05,0-.09v0a11.49,11.49,0,0,1-2.8,7.65,13.84,13.84,0,0,1-3.12,2.73,10.18,10.18,0,0,1-.91.51c-.16.08-.31.15-.48.21l-.25.08-.14,0a.13.13,0,0,1-.11-.05.15.15,0,0,1,0-.11,9.42,9.42,0,0,0,.14-2,4.63,4.63,0,0,0-1.59-3.61c-1.12-.82-2.6-.69-3.94-1a7.29,7.29,0,0,1-3.71-1.8,4,4,0,0,1-1-3.89l0,0,0,0s0,0,0,0,0,0,0,0l-.11,0-.24.1-.49.2-1,.39c-.65.28-1.32.48-2,.7a24.5,24.5,0,0,1-4.11,1,12.42,12.42,0,0,1-4.21-.15,5.29,5.29,0,0,1-3.47-2.28.06.06,0,0,1,0-.08h0a13.16,13.16,0,0,0,3-1.17,6.14,6.14,0,0,0,2.25-2.21c1.08-1.85,1.51-4,2.48-5.94a12,12,0,0,1,4.1-4.92,8.6,8.6,0,0,1,3-1.22,10.77,10.77,0,0,1,3.23,0h0a.12.12,0,0,1,.06.16l0,.09-.1.16-.22.29-.47.56c-.31.37-.63.73-.91,1.12-.12.18-.31.43-.27.57a2.43,2.43,0,0,0,.42.55,1.22,1.22,0,0,0,.59.32,1.93,1.93,0,0,0,.35,0c.05,0,.16,0,.22.12a.41.41,0,0,1,0,.22,4.82,4.82,0,0,0-.29,1.39,11.77,11.77,0,0,0-.07,1.43,4.27,4.27,0,0,0,.06.71c0,.1.06.24.11.28a.76.76,0,0,0,.32.06,5.06,5.06,0,0,0,1.4-.25c1.84-.56,3.6-1.36,5.38-2.1.45-.18.89-.37,1.35-.53l.36-.1a.6.6,0,0,1,.2,0,.13.13,0,0,1,.12.12.22.22,0,0,1,0,.12,7.21,7.21,0,0,1-.49.54,9.35,9.35,0,0,0-1.42,2.48,17.07,17.07,0,0,0-.87,2.74,9.67,9.67,0,0,0-.22,1.42,3.46,3.46,0,0,0,0,.71c0,.22.11.48.31.49a2,2,0,0,0,1.14-.72c.33-.35.61-.73.91-1.11.15-.19.3-.38.46-.56A1.28,1.28,0,0,1,133,175c.32-.06.51.28.52.52a1.9,1.9,0,0,1-.13.73c-.22.75-1.4,2.38-.08,1.19a6,6,0,0,0,1.46-2.42,25,25,0,0,0,1.21-5.62.07.07,0,0,1,.07-.06h0a14.48,14.48,0,0,1,4.21,3.08c1.26,1.2,2.44,2.48,3.66,3.73a5,5,0,0,0,.94.82s0,0,0,0a.46.46,0,0,0,0-.07l0-.15c0-.1.06-.2.08-.31a5.35,5.35,0,0,0,.09-.64,8.48,8.48,0,0,0-.24-2.57c-.19-.85-.45-1.67-.68-2.52-.05-.21-.11-.42-.15-.64a2.73,2.73,0,0,1,0-.33,1.22,1.22,0,0,1,0-.17.23.23,0,0,1,.11-.19,1.21,1.21,0,0,1,.69,0c.18,0,.5.09.49,0h0a3,3,0,0,0-.34-1.26.89.89,0,0,0-.76-.48h-.32s-.08,0-.08-.08h0a.76.76,0,0,1,.34-.83,1.52,1.52,0,0,1,.9-.13c.27,0,.69.23.6-.08a2.88,2.88,0,0,0-.32-.78c-.57-1-1.25-2-1.91-2.92-.33-.48-.67-.95-1-1.46l-.05-.1,0-.07s0-.17.08-.12a.82.82,0,0,1,.24.1l.39.21c.26.13.51.28.76.43a23.5,23.5,0,0,1,2.9,2,12.24,12.24,0,0,1,4.16,5.56,9.74,9.74,0,0,1-.41,6.88,16.64,16.64,0,0,1-4,5.69,6.37,6.37,0,0,1-1.42,1c-.07,0-.15.1-.3,0s0-.15,0-.24a1.35,1.35,0,0,0-.17-.38,4.89,4.89,0,0,0-.53-.68,18.61,18.61,0,0,0-2.63-2.28c-.23-.17-.47-.34-.72-.49a3,3,0,0,0-.37-.21l-.08,0s0,0,0,0,0,0,0,0l.11.18c.32.49.63,1,.93,1.49.6,1,1.16,2,1.66,3.08a19.8,19.8,0,0,1,2,6.69l-.12-.06a26.85,26.85,0,0,0,4.71-4.12,19.44,19.44,0,0,0,3.34-5.28,26.35,26.35,0,0,0,2.49-12.18,21.38,21.38,0,0,0-4.16-11.64,33.59,33.59,0,0,0-9.27-8.36h0l0,0a.3.3,0,0,1,0-.37.45.45,0,0,1,.35,0l.58.18,1.13.41c.75.27,1.51.52,2.28.74a14.94,14.94,0,0,0,2.34.47,4.69,4.69,0,0,0,2.32-.24,2.87,2.87,0,0,0,1.44-1.75,5.15,5.15,0,0,0-2.12-6.19,6.31,6.31,0,0,0-4.54-.9,4.79,4.79,0,0,0-2.05,1.12,8,8,0,0,0-1.45,1.87,7.87,7.87,0,0,1-1.45,1.95s-.08,0-.14,0,0-.08,0-.12a.84.84,0,0,1,0-.17l.06-.29.13-.59c.09-.39.19-.78.31-1.16a11.34,11.34,0,0,1,2.21-4.24,6.09,6.09,0,0,1,4.2-2.14,9.71,9.71,0,0,1,4.68.94c.36.14.75.35,1.09.44s.62-.39.82-.69a4.91,4.91,0,0,0,.59-2.26,11.6,11.6,0,0,0-.94-4.63,8.9,8.9,0,0,0-1.08-2.1,5.41,5.41,0,0,0-1.86-1.43,4.68,4.68,0,0,0-4.52,0,4.19,4.19,0,0,0-1.64,4.14,3.38,3.38,0,0,0,1.22,2,9.15,9.15,0,0,0,2.07,1.19h0l.06,0c0,.09,0,.12,0,.13l-.1,0-.16,0h-.32a6.14,6.14,0,0,1-.63,0,6.85,6.85,0,0,1-1.24-.25,4.93,4.93,0,0,1-2.17-1.27,4.83,4.83,0,0,1-.82-4.78,7.25,7.25,0,0,1,3.08-3.88,8,8,0,0,1,2.32-1l.62-.14c.2,0,.11-.22,0-.4a5.34,5.34,0,0,0-.72-1,11.33,11.33,0,0,0-4-2.94,4.9,4.9,0,0,0-1.19-.32,9.06,9.06,0,0,0-1.24,0,14.48,14.48,0,0,0-2.47.34,7.73,7.73,0,0,0-4.28,2.35,6,6,0,0,0-1.18,4.67,16.64,16.64,0,0,0,1.43,4.76c.08.19.17.38.26.57l.15.27.08.13s.06,0,0,.15a.14.14,0,0,1-.13,0,4.74,4.74,0,0,1-1.15-.54c-.18-.1-.36-.29-.47-.19a.88.88,0,0,0-.13.54,5.49,5.49,0,0,0,.15,1.22,6,6,0,0,0,.39,1.17,1.84,1.84,0,0,0,.32.51l.11.09,0,0s0,.06,0,.11l-.06,0h-.1l-.31-.08a13.89,13.89,0,0,1-2.3-1,15.2,15.2,0,0,1-4-3,10.1,10.1,0,0,1-2.42-4.36,10.62,10.62,0,0,1,0-5,12.65,12.65,0,0,1,5.41-8.18v.11a11.68,11.68,0,0,0-4-1,16.06,16.06,0,0,0-4.19.19,23.41,23.41,0,0,0-7.85,2.92c-.6.37-1.21.72-1.8,1.1l-1.75,1.18c-1.15.81-2.29,1.63-3.4,2.5a25.09,25.09,0,0,0-5.76,6.09,16.21,16.21,0,0,0-2.34,8,25.15,25.15,0,0,0,.15,4.2,10.79,10.79,0,0,0,4.14,7.06,8,8,0,0,0,3.75,1.77,7.25,7.25,0,0,0,4.11-.37,5.85,5.85,0,0,0,1.75-1.13,4.69,4.69,0,0,0,1.22-1.66v0c0,.06,0,0-.07,0l-.18,0-.36.06a6.77,6.77,0,0,1-.73.09,3.88,3.88,0,0,1-1.46-.17,3.2,3.2,0,0,1-2-2.08,3.68,3.68,0,0,1-.24-1.44,4.5,4.5,0,0,1,.23-1.45,3.07,3.07,0,0,1,2-2,4.4,4.4,0,0,1,2.89,0,3,3,0,0,1,1.64,2.31,7.14,7.14,0,0,1-.12,2.9A4,4,0,0,1,116,144a13.38,13.38,0,0,0-.8,1.2,8,8,0,0,1-4.34,3.72,7.91,7.91,0,0,1-2.89.35,8.53,8.53,0,0,1-2.85-.57,11,11,0,0,1-4.5-3.61,16.7,16.7,0,0,1-2.68-5.14h0a15.71,15.71,0,0,1-.7-4.36,20.76,20.76,0,0,1,.34-4.4,21.45,21.45,0,0,1,1.22-4.24,26.93,26.93,0,0,1,2-4V123A5.64,5.64,0,0,1,99,120.8a5.13,5.13,0,0,1-.22-2.84c.34-1.9,1.32-3.59,1.86-5.4a5.8,5.8,0,0,0-1.45-5.24,5.46,5.46,0,0,0-2.34-1.54,4.9,4.9,0,0,0-2.78-.06,4.58,4.58,0,0,0-2.39,1.42,5.77,5.77,0,0,0-1.26,2.5,7.22,7.22,0,0,0-.19,1.4,5.18,5.18,0,0,0,0,.7,2,2,0,0,0,.07.34.4.4,0,0,0,.06.14s0,0,0,0a1.2,1.2,0,0,0,.1-.32l.14-.35a1.82,1.82,0,0,1,.5-.54,3.72,3.72,0,0,1,1.31-.6,5.49,5.49,0,0,1,2.85,0,2.51,2.51,0,0,1,1.9,2,2.31,2.31,0,0,1,0,.72,3.35,3.35,0,0,1-.1.71,4.93,4.93,0,0,1-.45,1.37,2.77,2.77,0,0,1-2.3,1.56,4.94,4.94,0,0,1-2.75-.74,7.28,7.28,0,0,1-2.16-1.87,5.8,5.8,0,0,1-1.05-2.65,8.45,8.45,0,0,1,0-2.86,6.5,6.5,0,0,1,3.17-4.58,9.21,9.21,0,0,1,5.49-1.35,11.37,11.37,0,0,1,5.31,2,26.08,26.08,0,0,1,2.29,1.72,11.83,11.83,0,0,0,2.27,1.68c.21.1.41,0,.65-.12a6.7,6.7,0,0,1,.67-.25,10.37,10.37,0,0,1,1.39-.34,9.14,9.14,0,0,1,2.86,0,11.41,11.41,0,0,1,5.18,2.33h0c.43-.11.85-.31,1.3-.4h0a24.29,24.29,0,0,1,4.07-.69c1.37-.13,2.75-.2,4.12-.23a51.68,51.68,0,0,1,8.23.52l-.05.08a26.48,26.48,0,0,0-2.06-3,32.55,32.55,0,0,0-2.43-2.75h0a22.53,22.53,0,0,0-3.46-1.59,1.6,1.6,0,0,0-.9-.08c-.26.14-.09.53,0,.79a6.19,6.19,0,0,0,.5.8l.28.38.07.09s.11.08,0,.18a.52.52,0,0,1-.27,0,5,5,0,0,1-1.75-.8,3.62,3.62,0,0,1-1.25-1.45,2.71,2.71,0,0,1-.1-1.9,5.08,5.08,0,0,1,.91-1.69l0,.08a2,2,0,0,0-1.25.9,4.75,4.75,0,0,0-.75,1.42,3.16,3.16,0,0,0,.43,3,5.25,5.25,0,0,0,2.76,1.59,15.34,15.34,0,0,0,3.22.44.05.05,0,0,1,.05.05.05.05,0,0,1,0,0,19.56,19.56,0,0,1-5.6.33,11.53,11.53,0,0,1-5.31-1.71,8.3,8.3,0,0,1-3.34-4.42,15,15,0,0,1-.61-5.56l.1,0a1.3,1.3,0,0,1-.21.42,0,0,0,0,1-.06,0h0c-.66-.69-1.34-1.36-2.06-2A12.64,12.64,0,0,0,110,91a2.86,2.86,0,0,0-2.68-.28,2.31,2.31,0,0,0-.89,1.05,4.63,4.63,0,0,0-.25.66l-.09.34,0,.17,0,.09,0,0,0,0a.06.06,0,0,1-.09,0h0a7.45,7.45,0,0,1-.83-1.39,2.6,2.6,0,0,1-.23-1.6,2,2,0,0,1,1-1.23,4.79,4.79,0,0,1,.74-.33l.38-.13c.11,0,.3-.13.3-.11h0a14.19,14.19,0,0,0-4.09-1.54,10.71,10.71,0,0,0-4.38-.2,5.34,5.34,0,0,0-1.06.3l-.51.2-.47.29a6,6,0,0,0-1.56,1.53,8.41,8.41,0,0,0-1.09,1.91A5.15,5.15,0,0,0,93.77,93,5.28,5.28,0,0,0,96,96.58a3.89,3.89,0,0,0,4.15.2,3.42,3.42,0,0,0,1.62-1.41,1.56,1.56,0,0,0,.07-1.05,7.55,7.55,0,0,0-.24-1.08,3.23,3.23,0,0,0-1.15-1.8,2.22,2.22,0,0,0-2.08-.1l0-.09a.82.82,0,0,1,.71.23,3,3,0,0,1,.44.59h0a.67.67,0,0,1-.07.85,1.38,1.38,0,0,1-.75.46,1.42,1.42,0,0,1-1.51-.71A1.51,1.51,0,0,1,97.33,91,2.75,2.75,0,0,1,98.77,90h0a5.58,5.58,0,0,1,2.84.69A4.21,4.21,0,0,1,103.51,93a6.31,6.31,0,0,1,.38,2.91,3.73,3.73,0,0,1-1.43,2.52,5.91,5.91,0,0,1-2.71,1.1,7.75,7.75,0,0,1-2.94-.07A5.67,5.67,0,0,1,94.28,98a9.93,9.93,0,0,1-1.88-2.26,7,7,0,0,1-1-2.77A6.71,6.71,0,0,1,91.79,90a11,11,0,0,1,3.5-4.66,8.62,8.62,0,0,1,5.5-1.8,15.62,15.62,0,0,1,5.71,1.3l0,.08a35.19,35.19,0,0,0-7.72-4.17A24,24,0,0,0,94.5,79.6a19.83,19.83,0,0,0-4.38-.24,10.29,10.29,0,0,0-4.18,1.21,5.46,5.46,0,0,0-2.69,3.29,2.05,2.05,0,0,0,.37,2c.12.19.27.08.4-.05s.24-.27.36-.41a4.94,4.94,0,0,1,.79-.78,2.67,2.67,0,0,1,2.11-.52,5.7,5.7,0,0,1,2,.85h0a4.46,4.46,0,0,1,.93,1.71,2.69,2.69,0,0,1-.19,1.92,4.54,4.54,0,0,1-3.16,2.1,4.42,4.42,0,0,1-3.6-1.17,7.28,7.28,0,0,1-2-3.27A8,8,0,0,1,81,82.38,6.77,6.77,0,0,1,82.86,79a11.52,11.52,0,0,1,3.19-2.2c.29-.15.59-.27.86-.44,0,0,0-.05,0,0l-.09-.08-.18-.16-.36-.33c-.48-.44-.94-.89-1.43-1.31l-1.56-1.14c-.53-.36-1.13-.62-1.69-.94a18.29,18.29,0,0,0-1.81-.67c-.31-.06-.64-.1-1-.15a3.55,3.55,0,0,0-1-.08,8.63,8.63,0,0,0-6.63,3.43,10.74,10.74,0,0,0-1.1,1.59,8.17,8.17,0,0,0-.62,1.82A4.53,4.53,0,0,0,70.29,82a7.46,7.46,0,0,0,3.06,2.29,15.1,15.1,0,0,0,1.82.67l.93.26.47.12.24.06.12,0,.06,0,0,0s0,.08,0,.09h0a9.93,9.93,0,0,1-6,.74,6.27,6.27,0,0,1-4.39-4,9.26,9.26,0,0,1,0-6,12,12,0,0,1,3.31-5.11,13.83,13.83,0,0,1,5.32-3,22.5,22.5,0,0,1,6.08-.71,38.94,38.94,0,0,1,12,2.31h0l1.8.8Z"/><path class="cls-1" d="M108.85,54.29a6.73,6.73,0,0,1,.17-1.86,3.67,3.67,0,0,1,2.41-2.7,4.25,4.25,0,0,1,1.88-.24h0a6.85,6.85,0,0,1,4.25,1.65A5.94,5.94,0,0,1,118.91,53a5.71,5.71,0,0,1,.42,1.12,2.14,2.14,0,0,1,0,.63,1.45,1.45,0,0,1-.08.33.77.77,0,0,1-.09.18.41.41,0,0,1-.11.11.29.29,0,0,1-.36,0l0,0a10.36,10.36,0,0,0-4.27-2.11,3.77,3.77,0,0,0-2.21.24,5.59,5.59,0,0,0-1.79,1.42,4.3,4.3,0,0,0-1,2,2.57,2.57,0,0,0,.43,2l.33.42.41.37a2.88,2.88,0,0,0,.87.57,2.17,2.17,0,0,0,1.89-.12,2.48,2.48,0,0,0,.41-.27l.17-.16.05-.06h0a.38.38,0,0,0,0,.16.52.52,0,0,0,0,.2.6.6,0,0,0,.27.38l.09,0c.05,0,0,0,0,0l-.13,0-.31,0c-.21,0-.43-.07-.65-.13a4.07,4.07,0,0,1-1.36-.55,1.89,1.89,0,0,1-.61-.67,2,2,0,0,1-.26-.84c.32-2.8,3.43-2.93,5-1.77A3.26,3.26,0,0,1,117.24,59a5.53,5.53,0,0,1-.18,1.38l0,.16,0,.08a1.15,1.15,0,0,1-.06.16,2.57,2.57,0,0,1-.21.36c-.13.19-.26.36-.4.53-.27.34-.55.66-.84,1-.15.16-.3.31-.47.47s-.18.16-.29.24l-.21.13a.87.87,0,0,1-.23.08.67.67,0,0,1-.6-.17,3.14,3.14,0,0,0-1.93-.87l-.12,0c.13,0,0,0,0,0h-.19a1.75,1.75,0,0,0-.4.08,2,2,0,0,0-.73.44,2.37,2.37,0,0,0-.79,1.48c0,.42.56.84,1.12,1h0l-.1,0a.39.39,0,0,0-.13.1.45.45,0,0,0-.11.23.43.43,0,0,0,.08.3l0,0,.07.06h0l0,0a1.33,1.33,0,0,1-.3-.27,1,1,0,0,1-.13-.89,2.54,2.54,0,0,1,.68-1.13,1.4,1.4,0,0,1,1.41-.22,1.22,1.22,0,0,1,.8,1.19,1.6,1.6,0,0,1-.18.66l-.19.3-.24.22a4.06,4.06,0,0,1-1,.59,12.21,12.21,0,0,1-2.13.64c-.36.08-.72.14-1.09.2l-.55.07-.28,0h-.23a.43.43,0,0,1-.21-.07l0,0a3,3,0,0,1-1.14-1.65,3.56,3.56,0,0,1,.15-2,8.37,8.37,0,0,1,.86-1.74c.08-.13.18-.29.22-.38s0,0,0,0l0-.05-.05-.11-.1-.22c-.14-.29-.25-.59-.36-.9a5.79,5.79,0,0,1-.28-3.81,3.36,3.36,0,0,1,1.13-1.56A8.61,8.61,0,0,1,108.85,54.29Zm.07,0c-.14.19-.29.18-.43.27l-.43.2a4.59,4.59,0,0,0-.8.51,3.26,3.26,0,0,0-1.08,1.52,5.67,5.67,0,0,0,.31,3.72c.11.3.23.59.37.88s.17.25.17.47a3.76,3.76,0,0,1-.24.43,8.21,8.21,0,0,0-.83,1.71,3.28,3.28,0,0,0-.12,1.86,2.78,2.78,0,0,0,1.08,1.49h0a14.4,14.4,0,0,0,4.16-1c.63-.28,1.36-.71,1.37-1.45a.8.8,0,0,0-.54-.78,1,1,0,0,0-1,.16,2.15,2.15,0,0,0-.52.9.51.51,0,0,0,.05.47.84.84,0,0,0,.19.16l.07,0s0,0,0,.06,0,0,0,.06h-.06l-.15,0a1.82,1.82,0,0,1-1.58-1.4,1.87,1.87,0,0,1,.27-1.07,3.62,3.62,0,0,1,.65-.89,2.29,2.29,0,0,1,2.05-.68h0a3.78,3.78,0,0,1,2.24,1,.57.57,0,0,0,.19-.1l.23-.2c.15-.14.29-.29.43-.44.28-.3.54-.62.8-.94a2.49,2.49,0,0,0,.59-1,4.85,4.85,0,0,0,.15-1.21,2.54,2.54,0,0,0-1-2.1,2.77,2.77,0,0,0-1.1-.47,2.2,2.2,0,0,0-1.19,0,2.65,2.65,0,0,0-1,.58,1.25,1.25,0,0,0-.47,1,1.35,1.35,0,0,0,.56,1,3.43,3.43,0,0,0,1.12.45l.6.12.31.05.16,0,.08,0,0,0a.1.1,0,0,1,0,.1,2.16,2.16,0,0,1-1,.85,2.84,2.84,0,0,1-2.45.12,3.52,3.52,0,0,1-1-.69l-.45-.43c-.13-.16-.25-.34-.38-.5a3.17,3.17,0,0,1-.46-2.41,4.85,4.85,0,0,1,1.17-2.19,6,6,0,0,1,2-1.49,4.2,4.2,0,0,1,2.46-.21,10.7,10.7,0,0,1,4.38,2.28h0s.08-.08.1-.16a1.19,1.19,0,0,0,.07-.26,1.88,1.88,0,0,0,0-.55,5.61,5.61,0,0,0-.37-1.06,5.72,5.72,0,0,0-1.29-1.84,6.68,6.68,0,0,0-4.13-1.64h0a4.16,4.16,0,0,0-1.81.22,3.56,3.56,0,0,0-2.37,2.6A6.65,6.65,0,0,0,108.92,54.29Z"/><path class="cls-1" d="M96,189.26c1.69,1.65,3.36,3.36,5.14,5a.2.2,0,0,1-.22.34h0a4.15,4.15,0,0,0-1.67-.46,2.46,2.46,0,0,0-1.53.46,4.15,4.15,0,0,0-1.11,1.24,6.73,6.73,0,0,0-.69,1.55l-.89-.55a4.37,4.37,0,0,1,3.45-1.6,2.78,2.78,0,0,1,2,.87,2.24,2.24,0,0,1,.47,2.24A3.33,3.33,0,0,1,99.58,200a4.2,4.2,0,0,1-1.92.59A7.65,7.65,0,0,1,94,200a5.2,5.2,0,0,1-1.59-1,3.21,3.21,0,0,1-.6-.8l-.34-.82a6.37,6.37,0,0,1-.39-3.51A5.27,5.27,0,0,1,93,190.92,9.89,9.89,0,0,1,96,189.26Zm0,.07a10.27,10.27,0,0,0-2.92,1.7,4.82,4.82,0,0,0-1.69,2.86,6,6,0,0,0,.52,3.31l.36.77a2.74,2.74,0,0,0,.53.64,4.66,4.66,0,0,0,1.47.82,7.77,7.77,0,0,0,3.34.44,3.58,3.58,0,0,0,1.58-.5,2.63,2.63,0,0,0,1-1.29,1.56,1.56,0,0,0-.31-1.53,2.08,2.08,0,0,0-1.47-.66,3.86,3.86,0,0,0-3,1.34.06.06,0,0,1-.09,0,.07.07,0,0,1,0-.07,5.87,5.87,0,0,1,2.14-3,2.85,2.85,0,0,1,1.78-.44,4.49,4.49,0,0,1,1.75.57l-.06.08Z"/><path class="cls-1" d="M83.28,209a3.53,3.53,0,0,0-1,2,2.08,2.08,0,0,0,.23.93c.11.15.16.3.29.45l.18.23,0,.06,0,0a.54.54,0,0,0-.14-.13.48.48,0,0,0-.37-.08,1.21,1.21,0,0,0,.29-.19,4,4,0,0,0,.38-.37,3,3,0,0,0,.57-.88,1.68,1.68,0,0,0,.08-1A3.11,3.11,0,0,0,83.28,209Zm0-.07a2.62,2.62,0,0,1,.89,1,2,2,0,0,1,.13,1.31,3.13,3.13,0,0,1-.59,1.19,2.57,2.57,0,0,1-1,.85.27.27,0,0,1-.22,0c-.08-.07-.08-.09-.12-.14l-.2-.27a4.55,4.55,0,0,1-.33-.58,2.42,2.42,0,0,1-.17-1.31A3.09,3.09,0,0,1,83.29,209Z"/><path class="cls-1" d="M77.42,210.19c.07.14.36.14.55.13a2.45,2.45,0,0,0,1.64-.84,1.46,1.46,0,0,0,.37-.92,3.08,3.08,0,0,0-.13-1l0-.19a.63.63,0,0,0,.35.58l.06,0h0l-.1,0-.25,0a2.68,2.68,0,0,0-.52,0,2,2,0,0,0-1,.22,1.62,1.62,0,0,0-.75.83,2.45,2.45,0,0,0-.16.59C77.42,209.78,77.43,210,77.42,210.19Zm-.07,0a3.84,3.84,0,0,1,.08-1.26,2,2,0,0,1,.65-1.09,2.46,2.46,0,0,1,1.15-.54,3.17,3.17,0,0,1,.64-.07h.32l.16,0,.08,0h0a.16.16,0,0,1,.08.09v0a2.58,2.58,0,0,1,.07,1.34,1.94,1.94,0,0,1-.75,1.11,3.12,3.12,0,0,1-1.23.53,3.21,3.21,0,0,1-.67.07,1.9,1.9,0,0,1-.34,0C77.54,210.37,77.39,210.36,77.35,210.2Z"/><path class="cls-1" d="M86.31,208.52a5.71,5.71,0,0,0,.15,1.19,2.22,2.22,0,0,0,.44.92,1.66,1.66,0,0,0,.75.49c.14.06.32.08.47.14l.52.07h.07a.5.5,0,0,0-.25,0,.51.51,0,0,0-.16.07.41.41,0,0,0-.12.11h0a1.09,1.09,0,0,0,.06-.19,2.45,2.45,0,0,0,0-.52,2.79,2.79,0,0,0-.17-1.05,1.63,1.63,0,0,0-.63-.8A3.13,3.13,0,0,0,86.31,208.52Zm0-.06a2.65,2.65,0,0,1,1.36.12,2,2,0,0,1,1,.89,3,3,0,0,1,.36,1.3,3.2,3.2,0,0,1,0,.68,1.89,1.89,0,0,1-.09.34c-.05.09-.08.26-.3.27h0a4,4,0,0,1-1.22-.31,2.06,2.06,0,0,1-1-.82,2.43,2.43,0,0,1-.33-1.21A3.57,3.57,0,0,1,86.26,208.47Z"/><path class="cls-1" d="M86.37,202.83a4.6,4.6,0,0,0-1.48-.53,2.3,2.3,0,0,0-1.48.23,2.84,2.84,0,0,0-1.05,1,4.31,4.31,0,0,0-.56,1.32l0-.13a2.15,2.15,0,0,0,1.19,2,5.05,5.05,0,0,0,2.68.35,1.94,1.94,0,0,0,1.2-.52,2.76,2.76,0,0,0,.77-1.21,1.82,1.82,0,0,0-.17-1.44A3.2,3.2,0,0,0,86.37,202.83Zm0-.06a3.48,3.48,0,0,1,1.18,1.07,2.15,2.15,0,0,1,.31,1.55,2.77,2.77,0,0,1-2.07,2.24,4.9,4.9,0,0,1-3.15-.24,2.57,2.57,0,0,1-1.15-1.11,3.22,3.22,0,0,1-.29-1.58v0a4.86,4.86,0,0,1,.79-1.41,3.16,3.16,0,0,1,1.29-1,2.73,2.73,0,0,1,1.6-.12,4.75,4.75,0,0,1,.78.23C85.93,202.51,86.16,202.64,86.41,202.76Z"/><path class="cls-1" d="M88.82,206.41a5.81,5.81,0,0,0,.52,1.08,2.29,2.29,0,0,0,.71.74,1.65,1.65,0,0,0,.87.24c.15,0,.33,0,.49,0l.52-.1-.09,0a.41.41,0,0,0-.23.16c-.06.11,0,.07-.06.09s0,.05,0,0a.83.83,0,0,0,0-.2,2.62,2.62,0,0,0-.12-.52,2.73,2.73,0,0,0-.49-1,1.58,1.58,0,0,0-.86-.55,1.76,1.76,0,0,0-.6-.07A6.51,6.51,0,0,0,88.82,206.41Zm-.06,0a2.76,2.76,0,0,1,1.33-.36,1.91,1.91,0,0,1,1.26.52,3,3,0,0,1,.75,1.15,3.37,3.37,0,0,1,.17.67,1.63,1.63,0,0,1,0,.35.42.42,0,0,1-.17.36h0a3.88,3.88,0,0,1-1.26.09,2,2,0,0,1-1.16-.49,2.48,2.48,0,0,1-.7-1A3.63,3.63,0,0,1,88.75,206.37Z"/><path class="cls-1" d="M79.25,204.9a3.61,3.61,0,0,0-2.25-.32,1.94,1.94,0,0,0-.79.51c-.1.14-.23.25-.32.4l-.14.22,0,.05,0,0h0l0-.07a.6.6,0,0,0,0-.27.41.41,0,0,0,0-.14.26.26,0,0,0,0-.08,1.26,1.26,0,0,0,.28.22,4,4,0,0,0,.47.24,3.12,3.12,0,0,0,1,.26,1.63,1.63,0,0,0,1-.23A2.91,2.91,0,0,0,79.25,204.9Zm.07,0a2.5,2.5,0,0,1-.64,1.15,1.92,1.92,0,0,1-1.19.53,3.18,3.18,0,0,1-1.3-.18,2.67,2.67,0,0,1-1.13-.69.24.24,0,0,1-.05-.22,1.2,1.2,0,0,1,.09-.15l.19-.27a4.31,4.31,0,0,1,.44-.49,2.32,2.32,0,0,1,1.18-.57A3.12,3.12,0,0,1,79.32,204.88Z"/><path class="cls-1" d="M130,156.52a7.52,7.52,0,0,0-4.47,4,6.12,6.12,0,0,0-.4,1.47,2.09,2.09,0,0,0,.15,1.45,4.36,4.36,0,0,0,2.29,1.86,18.4,18.4,0,0,0,6,1.17,14.2,14.2,0,0,0,5.72-1.75,5,5,0,0,0,2-2,3.58,3.58,0,0,0,.12-2.61,5.14,5.14,0,0,0-4-3.48c-.48-.12-.94-.18-1.48-.26a2,2,0,0,1-.29-.06.79.79,0,0,1-.29-.15,1.1,1.1,0,0,1-.24-.31,3,3,0,0,1-.16-.49,7.63,7.63,0,0,1-.15-.85,7.88,7.88,0,0,1,0-1.68,5.12,5.12,0,0,1,.41-1.72,2.69,2.69,0,0,1,1.38-1.43,3.24,3.24,0,0,1,.94-.23,4,4,0,0,1,.94,0,3.83,3.83,0,0,1,1.68.75,4.76,4.76,0,0,1,1.19,1.34.59.59,0,0,1-.6.89h0a4.3,4.3,0,0,0-1.77,0,1.21,1.21,0,0,0-.61.33c-.09.06-.11.17-.18.25a1.66,1.66,0,0,0-.07.35,2.51,2.51,0,0,0,.08.81,1,1,0,0,0,.44.54,2.36,2.36,0,0,0,1.62.39,1.52,1.52,0,0,0,1.26-.92,2.82,2.82,0,0,0,0-1.79,7.54,7.54,0,0,0-1.89-3.44,4.82,4.82,0,0,0-7.11-.19,8,8,0,0,0-1.85,3.58A20.77,20.77,0,0,0,130,156.52Zm-.06,0c.06-2.65.39-5.66,2.31-7.75a5.24,5.24,0,0,1,3.74-1.58,5.19,5.19,0,0,1,3.7,1.66,7.9,7.9,0,0,1,2.06,3.56,3.25,3.25,0,0,1,0,2.06,2,2,0,0,1-1.6,1.24,2.88,2.88,0,0,1-2-.43,1.6,1.6,0,0,1-.67-.81,3,3,0,0,1-.14-1,1.6,1.6,0,0,1,1.29-1.51,4.9,4.9,0,0,1,2.08,0l-.07.1a3.65,3.65,0,0,0-2.4-1.73,2.79,2.79,0,0,0-1.49.16,2,2,0,0,0-1,1.07,6.24,6.24,0,0,0-.3,3,6.89,6.89,0,0,0,.13.76,2.31,2.31,0,0,0,.11.36c0,.09.15.09.28.12.51.08,1,.16,1.53.29a6.82,6.82,0,0,1,2.79,1.38A5.29,5.29,0,0,1,142,160a4.11,4.11,0,0,1-.22,3.06,5.56,5.56,0,0,1-2.22,2.16,14.6,14.6,0,0,1-6,1.67,18.61,18.61,0,0,1-6.06-1.34,4.67,4.67,0,0,1-2.35-2,2.34,2.34,0,0,1-.21-.76A3.22,3.22,0,0,1,125,162a6.26,6.26,0,0,1,.42-1.5A7.57,7.57,0,0,1,130,156.47Z"/><path class="cls-1" d="M106.65,132.09a1.33,1.33,0,0,0-.51-1,1.3,1.3,0,0,0-1-.19,1.14,1.14,0,0,0-.72.52,1.39,1.39,0,0,0,0,1.45,1.13,1.13,0,0,0,.72.52,1.3,1.3,0,0,0,1-.2A1.34,1.34,0,0,0,106.65,132.09Zm.08,0a1.64,1.64,0,0,1-1.64,1.66,1.66,1.66,0,1,1,0-3.31A1.64,1.64,0,0,1,106.72,132.09Z"/><path class="cls-1" d="M109.95,125.49a1.3,1.3,0,0,0-.57-1,1.45,1.45,0,0,0-1.09-.19,1.32,1.32,0,0,0-.78.53,1.17,1.17,0,0,0,0,1.42,1.31,1.31,0,0,0,.79.53,1.45,1.45,0,0,0,1.1-.19A1.3,1.3,0,0,0,109.95,125.49Zm.08,0a1.72,1.72,0,0,1-1.74,1.66,1.66,1.66,0,1,1,0-3.31A1.72,1.72,0,0,1,110,125.49Z"/><path class="cls-1" d="M123.35,116.59a1.83,1.83,0,0,0-1.5-1.72,2,2,0,0,0-2,.66,1.51,1.51,0,0,0-.32,1.62,2,2,0,0,0,1.52,1.2h0a2.46,2.46,0,0,0,1.5-.38A1.72,1.72,0,0,0,123.35,116.59Zm.08,0a2,2,0,0,1-.76,1.5,2.87,2.87,0,0,1-1.58.65h0a2.4,2.4,0,0,1-2.17-1.29,2,2,0,0,1,.54-2.42,2.5,2.5,0,0,1,2.49-.44A2.2,2.2,0,0,1,123.42,116.59Z"/><path class="cls-1" d="M111.82,119.79a1.4,1.4,0,0,0,.64,1.14,1.7,1.7,0,0,0,1.22.21,1.56,1.56,0,0,0,1.23-1.34,1.46,1.46,0,0,0-1.22-1.34,1.68,1.68,0,0,0-1.21.22A1.4,1.4,0,0,0,111.82,119.79Zm-.08,0A1.92,1.92,0,0,1,113.7,118a1.88,1.88,0,0,1,2,1.76,1.94,1.94,0,0,1-2,1.76A1.86,1.86,0,0,1,111.75,119.79Z"/><path class="cls-1" d="M106.19,141.66a1.49,1.49,0,0,0,1.07-.48,1.11,1.11,0,0,0,.27-1,1,1,0,0,0-.57-.63,1.57,1.57,0,0,0-.78-.19,1.55,1.55,0,0,0-.78.2,1,1,0,0,0-.56.64,1.1,1.1,0,0,0,.26,1A1.53,1.53,0,0,0,106.19,141.66Zm0,.08a1.65,1.65,0,0,1-1.76-1.52,1.77,1.77,0,1,1,1.76,1.52Z"/><path class="cls-1" d="M91.72,44.58a1.45,1.45,0,0,0,.64.27.93.93,0,0,0,.62-.16,1.09,1.09,0,0,0,.31-.42l.12-.24.06-.11,0,0h0a.56.56,0,0,0-.05.12.58.58,0,0,0,0,.29.89.89,0,0,0,.06.16.2.2,0,0,0,0,.06c.06.06,0,0-.08-.07a1.86,1.86,0,0,0-.21-.17,1.58,1.58,0,0,0-.5-.3.72.72,0,0,0-.6.06A1.1,1.1,0,0,0,91.72,44.58Zm-.07,0a1.24,1.24,0,0,1,1-1,1.91,1.91,0,0,1,1.43.49.17.17,0,0,1,0,.15c0,.06,0,.06-.05.09l-.11.16a2.85,2.85,0,0,1-.25.29,1.46,1.46,0,0,1-.68.35A1.7,1.7,0,0,1,91.65,44.6Z"/><path class="cls-1" d="M90.71,48.52a4.72,4.72,0,0,0,.27.65,1,1,0,0,0,.33.39.92.92,0,0,0,.37.13,2.57,2.57,0,0,0,.5,0l.21,0a.58.58,0,0,0-.51,0,.51.51,0,0,0-.16.14c-.09.15-.05.09-.07.13s0,0,0,0a1.12,1.12,0,0,0,0-.23,1.81,1.81,0,0,0-.08-.5,1,1,0,0,0-.27-.42.84.84,0,0,0-.27-.2A1.83,1.83,0,0,0,90.71,48.52Zm-.05-.06a1.55,1.55,0,0,1,.79,0,1.26,1.26,0,0,1,.63.46,1.94,1.94,0,0,1,.32,1.12.94.94,0,0,1,0,.2c0,.05,0,.19-.21.18h0a2.37,2.37,0,0,1-.73-.12,1.22,1.22,0,0,1-.6-.44,1.4,1.4,0,0,1-.25-.69A2,2,0,0,1,90.66,48.47Z"/><path class="cls-1" d="M89.05,49.69l0,0c.09,0,0,0,0,0h0v0l0,0-.05.07-.1.14a1.33,1.33,0,0,0-.15.31,1,1,0,0,0,0,.62.72.72,0,0,0,.32.36l.4.29.05,0a.56.56,0,0,0-.44-.18l-.15,0-.09,0s0,0,0,0l.19-.17a1.86,1.86,0,0,0,.39-.44.77.77,0,0,0,.07-.62.93.93,0,0,0-.2-.3Zm.07,0a1.19,1.19,0,0,1,.6.44,1.13,1.13,0,0,1,.22.76,1.73,1.73,0,0,1-.25.75,2.11,2.11,0,0,1-.23.32,1.1,1.1,0,0,1-.15.14c-.06,0-.12.12-.27,0h0a1.35,1.35,0,0,1-.42-1.93C88.77,50,88.86,49.81,89.12,49.7Z"/><path class="cls-1" d="M92,47a1.57,1.57,0,0,0,.53.45,1,1,0,0,0,.64.06.89.89,0,0,0,.42-.29l.17-.18.09-.09,0,0-.07.08a.58.58,0,0,0-.1.35.23.23,0,0,0,0,.09c.05.13,0,0,0,0a2.75,2.75,0,0,0-.52-.65.76.76,0,0,0-.6-.14A1.15,1.15,0,0,0,92,47Zm-.07,0a1.31,1.31,0,0,1,1.32-.64,1.72,1.72,0,0,1,1.19.92.17.17,0,0,1,0,.15c0,.05-.05,0-.08.08l-.15.12a2.35,2.35,0,0,1-.33.2,1.32,1.32,0,0,1-.76.1A1.84,1.84,0,0,1,91.95,47Z"/><path class="cls-1" d="M54.19,168.56a2.41,2.41,0,0,1,.67.09.47.47,0,0,1,.26.25.48.48,0,0,1-.06.35,2.85,2.85,0,0,1-1,.92,3.29,3.29,0,0,1-1.26.5c-.25,0-.5-.07-.42.1a1.12,1.12,0,0,0,.39.46,4.73,4.73,0,0,0,2.45.8,9.27,9.27,0,0,0,2.62-.2h0a1.86,1.86,0,0,1,1.73.79,5.58,5.58,0,0,1,.89,1.64,13,13,0,0,1,.48,1.77l.16.9c0,.06,0,.1,0,0a.21.21,0,0,0-.17-.06s0,0,0,0a1.18,1.18,0,0,0,.22-.24,6.51,6.51,0,0,0,1-3.17,4.35,4.35,0,0,0,0-.81c0-.07,0-.13,0-.19a1.08,1.08,0,0,1,0-.12,1.15,1.15,0,0,1,0-.31.85.85,0,0,1,.29-.43,1.37,1.37,0,0,1,.32-.17,3.37,3.37,0,0,1,2.1.07,3.46,3.46,0,0,1,1.72,1.2,3,3,0,0,1,.47,1,2.53,2.53,0,0,1,.1.54l0,.14v.12c.23-.22-.78-.79-.7-.56a.53.53,0,0,0-.23.1l-.06,0,0,0h0l0-.06a3.54,3.54,0,0,0,.1-2.94,4.31,4.31,0,0,0-.86-1.29,3.48,3.48,0,0,0-1.12-.86c-.68-.2-2.12.5-3.55,0a4.47,4.47,0,0,1-1.77-1.07,15.24,15.24,0,0,1-1.33-1.31,3.63,3.63,0,0,1-.59-.9,3.59,3.59,0,0,1-.23-1,3.11,3.11,0,0,0-.4-1.39,3.16,3.16,0,0,0-1.25-.77,8.44,8.44,0,0,0-1.63-.41,7.35,7.35,0,0,0-3.33.15,1.43,1.43,0,0,0-.34.16l-.15.09-.07.06,0,0a.31.31,0,0,0,0-.11c.08-.1-.14-.43-.17-.39a.31.31,0,0,0-.12,0h.4l.49,0a6.57,6.57,0,0,1,1.81.51,10.76,10.76,0,0,1,1.62.88,7.91,7.91,0,0,1,1.45,1.15,1.13,1.13,0,0,1,.37,1,1.16,1.16,0,0,1-.8.65,7.6,7.6,0,0,1-1.81.26,15,15,0,0,1-3.61-.23h0l-.07,0s0,0,0,0,0,0,.06,0a.07.07,0,0,0,0-.07h0l.1.11.27.24c.19.16.38.31.58.45a13,13,0,0,0,1.24.8A6.24,6.24,0,0,0,54.19,168.56Zm0,.08a6.32,6.32,0,0,1-2.82-.9,13.06,13.06,0,0,1-1.26-.79c-.2-.14-.4-.29-.59-.45l-.28-.25a.74.74,0,0,1-.13-.15s0,0,0-.06,0,0,.05,0l.06,0,.09,0h0a15,15,0,0,0,3.56.18,6.94,6.94,0,0,0,1.75-.29,1,1,0,0,0,.64-.51.9.9,0,0,0-.33-.74,10.34,10.34,0,0,0-3-1.88,6.21,6.21,0,0,0-1.72-.44,5.08,5.08,0,0,0-.89,0h-.05s0-.05,0-.07v0l0-.05.09-.07.19-.13a1.82,1.82,0,0,1,.41-.21,7.76,7.76,0,0,1,3.57-.28,5.61,5.61,0,0,1,3.31,1.32c.79,1,.29,2.46,1.24,3.29a14.61,14.61,0,0,0,1.28,1.24,3.4,3.4,0,0,0,3.24.94,4.45,4.45,0,0,1,1.81-.09,4,4,0,0,1,1.45,1.09,5,5,0,0,1,1,1.52,4.21,4.21,0,0,1-.17,3.53c-.06.07,0,.12-.18.21s-.11,0-.09-.07h0v-.19a1.92,1.92,0,0,0-.07-.43,2.47,2.47,0,0,0-.36-.79,3.12,3.12,0,0,0-3.12-1.12.43.43,0,0,0-.29.23,2,2,0,0,0,0,.42,4.87,4.87,0,0,1,0,.91,6.91,6.91,0,0,1-1.19,3.37,1.38,1.38,0,0,1-.33.33.21.21,0,0,1-.27,0,.39.39,0,0,1-.09-.24l-.13-.88a12.62,12.62,0,0,0-.43-1.73,5.3,5.3,0,0,0-.8-1.58A1.65,1.65,0,0,0,57.9,172h0a10.13,10.13,0,0,1-2.67.16,4.87,4.87,0,0,1-2.52-.85,1.21,1.21,0,0,1-.43-.53.22.22,0,0,1,0-.2.24.24,0,0,1,.18-.07h.33a3.2,3.2,0,0,0,1.22-.47,2.77,2.77,0,0,0,1-.87.31.31,0,0,0-.16-.49A2.36,2.36,0,0,0,54.19,168.63Z"/><path class="cls-1" d="M72.37,150.53a6.53,6.53,0,0,0-.81-1.74,2.66,2.66,0,0,0-1.46-1.11,3.19,3.19,0,0,0-1.84.11,12.53,12.53,0,0,0-1.74.79l-.13,0a.23.23,0,0,1-.13,0c-.1-.05-.09-.08-.1-.09l-.14-.19-.27-.39a7.48,7.48,0,0,0-.62-.7,3,3,0,0,0-4.79.48.22.22,0,0,1-.21.07c-.56-.13-1.12-.25-1.69-.35-.28,0-.56-.09-.84-.11a1.76,1.76,0,0,0-.37,0h0s.09-.12.06-.16,0,0,.06,0l0,0a13,13,0,0,1,2.31,2.16,11.28,11.28,0,0,1,1.7,2.68,8.21,8.21,0,0,1,.72,3.12,8.59,8.59,0,0,1-.52,3.17.3.3,0,0,1-.08.13l-1,.9h0a.37.37,0,0,1-.57-.45,10.21,10.21,0,0,0,1.07-2.7,3.69,3.69,0,0,0-.28-2.66,3.37,3.37,0,0,0-.9-1c-.2-.12-.39-.25-.6-.36a5.64,5.64,0,0,0-.6-.26,1.42,1.42,0,0,0-1.08.31c-.34.23-.57.66-.49.79l0,.14a.41.41,0,0,0-.22-.36c-.17-.06-.12,0-.14,0h-.05l.1,0,.22-.06.45-.1a4.31,4.31,0,0,1,1-.07,3,3,0,0,1,1.84.71,3.28,3.28,0,0,1,.35.36l.15.2.07.1c0,.07,0,0,.12.26a.38.38,0,0,1,0,.25.5.5,0,0,1-.23.25.75.75,0,0,1-.19.05H60a2.23,2.23,0,0,0-.36,0,1.92,1.92,0,0,0-1.15.76l-.11.15,0,0v0a.42.42,0,0,0,0-.36c0-.13-.26-.29-.27-.27h-.05s0,0,0,0l.39,0a6.1,6.1,0,0,1,.93,0,2.51,2.51,0,0,1,1,.23,1.48,1.48,0,0,1,.78.91,3.26,3.26,0,0,1-.21,2,6.88,6.88,0,0,1-.81,1.67l0,0h0a6.84,6.84,0,0,0-.54.6,1.84,1.84,0,0,0-.33.58v-.11a.84.84,0,0,1,0,.23l0,.12,0,.08s0,0,0,0l-.08.26-1.3,1.82-.73-.62,1.15-1.36h0a.49.49,0,0,1,.84.47,2.48,2.48,0,0,0-.07.33,2,2,0,0,1-.15.53.41.41,0,0,1-.08.12h0l-.4.4-.7-.7.3-.3a.49.49,0,0,1,.84.4v0a5.42,5.42,0,0,0,.09,2.41,3.11,3.11,0,0,0,1.4,1.76,4.55,4.55,0,0,0,2.3.59,4,4,0,0,0,1.18-.15c.34-.09.74-.31.76-.42l-.05.23a12.27,12.27,0,0,1,2-5.76,18.24,18.24,0,0,1,4.08-4.42,14.61,14.61,0,0,1,1.21-.89l.61-.43.09-.07,0,0h0a.54.54,0,0,0-.07.1l0,.06a.58.58,0,0,0,0,.38.6.6,0,0,0,.3.37l.13,0c.27,0,.16,0,.21,0s0,0,0,0l-.3.13c-.85.41-1.72.87-2.56,1.33s-1.69.94-2.51,1.44c-.41.25-.82.51-1.21.77a6.37,6.37,0,0,0-1,.8h0a.62.62,0,0,1-1-.71c.43-.79.85-1.59,1.22-2.4a14,14,0,0,0,.9-2.45v-.05h0c.1.08-.32,0,.27.74.94.19.68-.16.8-.1l0,0,0,0s0,0,0,0l0,.05-.07.12-.14.25-.28.51-.59,1c-.41.67-.83,1.32-1.31,2a9.21,9.21,0,0,1-1.7,1.8,2.63,2.63,0,0,1-1.4.59,1.24,1.24,0,0,1-1.09-.45,1.37,1.37,0,0,1-.2-1.08A7,7,0,0,1,62,158.44a23.43,23.43,0,0,1,1.46-1.86,25.78,25.78,0,0,1,3.37-3.29l-.06.05-.07.08,0,0v0s-.19.17,0,.64a.64.64,0,0,0,.48.28.62.62,0,0,0,.19,0h0l.06,0h0l-.08.05-.18.12-.38.26-.75.53-1.49,1.1c-1,.75-1.95,1.52-2.87,2.33h0a.61.61,0,0,1-1-.68,9.19,9.19,0,0,0,.67-3.5,9,9,0,0,0-.76-3.48c-.13-.27-.25-.55-.4-.82l-.11-.21,0-.05v0a.73.73,0,0,1,0-.14.68.68,0,0,1,0-.43l.07-.13a2.71,2.71,0,0,1,.41-.47,5.7,5.7,0,0,1,1.79-1.15,2.61,2.61,0,0,1,.6-.14,1.64,1.64,0,0,1,.36,0,1.88,1.88,0,0,1,.33.07c.28.08.61.17.93.28a3.82,3.82,0,0,1,1.85,1.2l0-.05c-.22-.17-.16-.09-.13-.1h1.33a13.86,13.86,0,0,1,1.67.05,2.94,2.94,0,0,1,.93.25,6.5,6.5,0,0,1,.77.42c.24.15.47.31.69.47l.58.42,0,0h0l.55.23.66.27c.44.19.88.39,1.31.62a6.21,6.21,0,0,1,1.27.86A5.31,5.31,0,0,1,77,153.8c.24.41.46.84.68,1.2.1.15.25.35.4.55s.28.41.4.62a6.13,6.13,0,0,1,.62,1.39,4.31,4.31,0,0,1,.15.78c0,.25,0,.54,0,.65v0a.35.35,0,0,1,0,.07.59.59,0,0,1,0,.21.58.58,0,0,1-.55.38h0a.5.5,0,0,1-.21-.06,1.52,1.52,0,0,0-.71,0,6.42,6.42,0,0,0-.93.23,16.18,16.18,0,0,0-1.86.75,31.66,31.66,0,0,0-3.55,2,34.75,34.75,0,0,0-3.31,2.38,19.88,19.88,0,0,0-2.88,2.82l-.62-.58,2.54-2a.41.41,0,0,1,.53.64h0a25.16,25.16,0,0,0-2.37,2.26l-.57-.56,3.33-2.9h0A26,26,0,0,1,72,162.3a7.74,7.74,0,0,1,2.24-.68,3.37,3.37,0,0,1,1.25.09,3.32,3.32,0,0,1,.6.29,2.9,2.9,0,0,1,.46.48,3.21,3.21,0,0,1,.3.57l.17.6.06.6,0,.15v.07h0s-.08-.28-.23-.3a.32.32,0,0,0-.25,0,.32.32,0,0,0-.11.1h0c0-.05.06-.14.09-.22a6.05,6.05,0,0,0,.33-2.08,2.15,2.15,0,0,0-.24-.94,1.43,1.43,0,0,0-.13-.19l-.08-.08a.38.38,0,0,1-.1-.25.28.28,0,0,1,.12-.23l.1-.06h.1a1.65,1.65,0,0,1,.68.09,2.35,2.35,0,0,1,1.06.67,2.09,2.09,0,0,1,.49,1.16v0c0-.05,0-.15-.18-.19a.16.16,0,0,0-.08,0l.06,0a1.07,1.07,0,0,0,.15-.19,1.67,1.67,0,0,0,.2-.47,2.08,2.08,0,0,0,0-1h0a.22.22,0,0,1,.16-.28h.1a5.51,5.51,0,0,1,1,.26l.45.19.21.09.07,0s-.08,0-.1.07l0,.05a4.09,4.09,0,0,0,0-1.59,3.67,3.67,0,0,0-.67-1.44A6,6,0,0,0,79,156.51c-.22-.16-.45-.32-.69-.47l-.35-.24a1.26,1.26,0,0,1-.18-.14l-.09-.09a.67.67,0,0,1-.07-.18h0v0c0-.36.11-.72.13-1.09a4.67,4.67,0,0,0-.09-1.08,2.82,2.82,0,0,0-1.09-1.81,4.52,4.52,0,0,0-2-.81A8.41,8.41,0,0,0,72.37,150.53Zm0-.06a7.54,7.54,0,0,1,2.21,0,4.63,4.63,0,0,1,2.07.81,3,3,0,0,1,1.16,1.87,4.82,4.82,0,0,1,.11,1.11c0,.37-.08.74-.12,1.11h0c.1.2.4.34.61.5s.47.3.7.47a6.17,6.17,0,0,1,1.24,1.14,3.89,3.89,0,0,1,.73,1.52,4.32,4.32,0,0,1,0,1.69h0c-.08.12-.21.05-.27,0l-.22-.09-.44-.18a5.25,5.25,0,0,0-.91-.24l0-.05a2.36,2.36,0,0,1,0,1.19,2,2,0,0,1-.23.56,1.36,1.36,0,0,1-.19.24.61.61,0,0,1-.13.1.17.17,0,0,1-.1,0c-.06,0-.07-.06-.08-.1h0a1.83,1.83,0,0,0-1.35-1.56,1.41,1.41,0,0,0-.53-.07c-.05,0,0,0,0,0l.1.1a1.75,1.75,0,0,1,.17.23,2.47,2.47,0,0,1,.29,1.09,6.38,6.38,0,0,1-.33,2.22,2.69,2.69,0,0,1-.1.27l0,0s0,0-.06,0,0-.07,0-.06v-.07l0-.14-.06-.55-.16-.53a2.85,2.85,0,0,0-.26-.48,2,2,0,0,0-2-.69,7.35,7.35,0,0,0-2.12.65,25.63,25.63,0,0,0-3.85,2.25h0l-3.3,2.9a.05.05,0,0,1-.07,0,.05.05,0,0,1,0-.07,25.57,25.57,0,0,1,2.4-2.31l.07.08-2.5,2a.05.05,0,0,1-.08,0,.06.06,0,0,1,0-.07,20.34,20.34,0,0,1,2.94-2.91,35.25,35.25,0,0,1,3.34-2.43,32.18,32.18,0,0,1,3.6-2,16.7,16.7,0,0,1,1.92-.78,3.3,3.3,0,0,1,2.06-.18h0s0,0,0,0h0a6.41,6.41,0,0,0-.19-1.38,5.58,5.58,0,0,0-.57-1.26c-.23-.41-.52-.76-.79-1.16s-.46-.82-.7-1.22a4.82,4.82,0,0,0-.81-1.12,5.67,5.67,0,0,0-1.15-.77c-.82-.45-1.69-.75-2.57-1.15h0c-.46-.31-.87-.63-1.33-.91a3.26,3.26,0,0,0-1.45-.57,13.32,13.32,0,0,0-1.6,0h-.8a2.09,2.09,0,0,1-.84-.09h0a3.22,3.22,0,0,0-1.56-1c-.61-.15-1.22-.49-1.81-.21a5.1,5.1,0,0,0-1.57,1,2.25,2.25,0,0,0-.31.34c-.1,0,.07.23.12.36s.29.57.42.86a9.64,9.64,0,0,1,.82,3.73,9.86,9.86,0,0,1-.7,3.76l-.11-.08c.94-.83,1.91-1.61,2.9-2.37l1.5-1.12.76-.54.39-.27.2-.13.1-.06.06,0h0s0,0,.08,0,0,.07,0,.08h0l0,0h0A25.1,25.1,0,0,0,64,157.06a22.73,22.73,0,0,0-1.41,1.8,6.48,6.48,0,0,0-1,2,.66.66,0,0,0,.06.49.52.52,0,0,0,.45.16,2,2,0,0,0,1-.44,8.55,8.55,0,0,0,1.56-1.65c.46-.61.88-1.25,1.28-1.9l.58-1,.28-.5.14-.25.07-.13,0-.06,0,0,0,0h0s0,0,.09,0,0,.08,0,.09h0a14.66,14.66,0,0,1-1,2.58c-.38.83-.81,1.64-1.25,2.44l-.12-.08a13.17,13.17,0,0,1,2.4-1.7c.84-.5,1.69-1,2.55-1.45s1.72-.92,2.61-1.34l.34-.15.1,0h0s0,0,.06.05,0,0,0,.06l0,.05-.15.11-.6.41a14.08,14.08,0,0,0-1.18.86,17.61,17.61,0,0,0-4,4.25A11.74,11.74,0,0,0,65,167.09h0v0a1.8,1.8,0,0,1-1.14.74,4.62,4.62,0,0,1-1.34.17,5.13,5.13,0,0,1-2.59-.68,3.68,3.68,0,0,1-1.64-2.08,6,6,0,0,1-.1-2.68l.1.05-.3.3-.08-.08.4-.4v0c.1-.23.1-.52.2-.79l.1.05-1.21,1.4a.06.06,0,0,1-.08,0,.06.06,0,0,1,0-.08l1.3-1.8v0c0-.16.09-.29.1-.4h0a3.83,3.83,0,0,1,1-1.43h0a6.46,6.46,0,0,0,.75-1.53,2.82,2.82,0,0,0,.21-1.65,1.28,1.28,0,0,0-1.33-.78,5.62,5.62,0,0,0-.85,0l-.43,0s-.06,0-.16-.06,0-.09.06-.14l.13-.18a2.41,2.41,0,0,1,1.45-.93,2.72,2.72,0,0,1,.44,0h.22c.06,0,.18,0,.13,0a2.8,2.8,0,0,0-.52-.63,2.48,2.48,0,0,0-1.54-.6,3.85,3.85,0,0,0-.85.06l-.42.09-.21.06-.1,0h-.06s0,.06-.11-.05v0a1.32,1.32,0,0,1,.66-1.33,1.85,1.85,0,0,1,1.46-.38A4.35,4.35,0,0,1,61,153.33a4.13,4.13,0,0,1,.32,3,10.62,10.62,0,0,1-1.12,2.81l-.08-.06,1-.9v0a8.42,8.42,0,0,0,.52-3,7.84,7.84,0,0,0-.65-3,11,11,0,0,0-1.62-2.62,12.67,12.67,0,0,0-2.23-2.12h0a.46.46,0,0,1-.14-.19c0-.13.12-.17.18-.18a2,2,0,0,1,.44,0c.29,0,.58.07.86.12.57.11,1.14.23,1.7.38h0a3.8,3.8,0,0,1,3.44-1.4,3.75,3.75,0,0,1,1.66,1,7.65,7.65,0,0,1,.63.73l.28.4.14.2c0,.06.09,0,.16,0,1.1-.56,2.37-1.23,3.67-.87A3.87,3.87,0,0,1,72.41,150.46Z"/><path class="cls-1" d="M114,43.93c-1.48-1.1-2.82-2.37-4.18-3.6s-2.69-2.5-4-3.77q-4-3.8-7.91-7.68c-2.61-2.59-5.2-5.19-7.74-7.86-1.26-1.34-2.53-2.67-3.72-4.1-.3-.35-.57-.75-.86-1.12l-.74-1.16q-.74-1.16-1.51-2.29a17.53,17.53,0,0,0-3.6-4,16,16,0,0,0-2.25-1.47A11.8,11.8,0,0,0,75,5.82a16,16,0,0,0-10.53.54,18.12,18.12,0,0,0-7.91,7.05c-.24.38-.51.75-.74,1.14l-.62,1.21a14,14,0,0,0-1.11,2.42,18.42,18.42,0,0,0-.71,5.31v-.11a25,25,0,0,0,.58,2.84,14.39,14.39,0,0,0,1,2.62,11.9,11.9,0,0,0,1.56,2.31A11.33,11.33,0,0,0,58.57,33l-.28-.09h0a.35.35,0,0,0-.17.29l.16.36a14.93,14.93,0,0,1-2.67-3.62,10,10,0,0,1-1.23-4.37,7.79,7.79,0,0,1,.3-2.3l.18-.55,0-.14,0-.07.06-.13a.72.72,0,0,1,.18-.21.62.62,0,0,1,.54-.09.69.69,0,0,1,.19.1l.07.07a.74.74,0,0,1,.1.11c.27.43.36.68.56,1a2.72,2.72,0,0,0,1.32,1.21,2.79,2.79,0,0,0,1.79,0,5.94,5.94,0,0,0,.93-.37l.08,0a.36.36,0,0,0-.11.1.56.56,0,0,0-.12.24.52.52,0,0,0,.05.34.42.42,0,0,0,.15.17l0,0-.17-.06L60,24.74a3.91,3.91,0,0,1-2-1.53,4,4,0,0,1-.53-2.42A8.26,8.26,0,0,1,58,18.52c.14-.35.27-.71.44-1a3.12,3.12,0,0,1,.32-.59l.07-.08a.79.79,0,0,1,.18-.13.61.61,0,0,1,.29-.06.62.62,0,0,1,.32.11.71.71,0,0,1,.21.25,1.15,1.15,0,0,1,.08.28l0,.29a3.93,3.93,0,0,0,.65,1.77A4.72,4.72,0,0,0,64,21h-.08a.57.57,0,0,0-.44.21.62.62,0,0,0-.12.28.52.52,0,0,0,0,.28l0,0,0-.05-.11-.15L63,21.28c-.17-.23-.33-.46-.48-.71A7.71,7.71,0,0,1,61.71,19,4.16,4.16,0,0,1,62,15.33c.08-.14.18-.26.27-.39a1.13,1.13,0,0,1,.2-.2.76.76,0,0,1,.5-.13.93.93,0,0,1,.25.07l.13.08a.87.87,0,0,1,.17.16,4.19,4.19,0,0,1,.5.84c.24.5.47,1,.73,1.42a6.17,6.17,0,0,0,1.92,2.22,3.44,3.44,0,0,0,1.28.51,4.38,4.38,0,0,0,.7.06H69a.52.52,0,0,0-.33.22.55.55,0,0,0-.11.47s.06.13,0,.1l-.07-.1A14.9,14.9,0,0,1,66.43,18a6.24,6.24,0,0,1-.87-3.48,6.26,6.26,0,0,1,1.33-3.33,9.74,9.74,0,0,1,1.17-1.3l.16-.15.05,0,.05,0,0,0,.12-.07a.72.72,0,0,1,.31-.06c.06,0,.22-.06.53.3s0,.65.07.58l0,0-.06.12-.21.36a7,7,0,0,0-.33.67,4.07,4.07,0,0,0-.27,2.74,3.51,3.51,0,0,0,.63,1.22,5.24,5.24,0,0,0,.48.53l.13.12.06.06s.05,0,0,0a.61.61,0,0,0-.5-.1.55.55,0,0,0-.22.1.84.84,0,0,0-.11.1l0,.07s0,0,0,0l0-.15a9.88,9.88,0,0,1,1.28-3.21,6,6,0,0,1,2.81-2.27,8.58,8.58,0,0,1,3.48-.5c.29,0,.58,0,.87.07a4.15,4.15,0,0,1,.93.26,6.18,6.18,0,0,1,1.6.88,2.46,2.46,0,0,1,1,1.83,2.82,2.82,0,0,1-.82,1.9l0,0a2.12,2.12,0,0,1-1.81.74,3,3,0,0,1-1.61-.72c-.11-.08-.2-.18-.3-.27s-.21-.16,0-.08a.44.44,0,0,0,.26,0,.51.51,0,0,0,.24-.15.32.32,0,0,0,.07-.11.8.8,0,0,0,0,.18A4.11,4.11,0,0,0,77.28,16a6.25,6.25,0,0,0,3.52,3.56l-.07,0a.71.71,0,0,1,.34.22.7.7,0,0,1,.15.4.84.84,0,0,1,0,.22.74.74,0,0,1,0,.11,1,1,0,0,1-.16.24,2,2,0,0,1-.27.26,2.91,2.91,0,0,1-.56.35,2.6,2.6,0,0,1-1.33.27,2.32,2.32,0,0,1-1.29-.53,3.44,3.44,0,0,1-.79-1,5.42,5.42,0,0,1-.26-.53c0-.09-.07-.17-.1-.26l0-.13v0a.55.55,0,0,0,.18.24.51.51,0,0,0,.2.09l.11,0a.45.45,0,0,0,.22,0c.13-.07,0,0,0,0a1.45,1.45,0,0,0-.11.15,2.89,2.89,0,0,0-.2.39,3.11,3.11,0,0,0-.24,1.73,3.61,3.61,0,0,0,2.4,2.51,14.1,14.1,0,0,0,3.91.93h.05a.65.65,0,0,1,.45.35.81.81,0,0,1,.08.21,1.73,1.73,0,0,1,0,.28,3.76,3.76,0,0,1,0,.45,5.6,5.6,0,0,1-.1.84,5.27,5.27,0,0,1-.56,1.61,2.51,2.51,0,0,1-1.44,1.25,2.6,2.6,0,0,1-1.88-.26,6.4,6.4,0,0,1-1.36-1q-.3-.27-.58-.57l-.14-.15s-.07-.06,0,0a.43.43,0,0,0,.17.07.5.5,0,0,0,.34-.05.49.49,0,0,0,.17-.16l0-.08c0-.12,0,0,0,0v.13a3.43,3.43,0,0,0,1.38,2.16,3.77,3.77,0,0,0,2.57.56,9.11,9.11,0,0,0,2.77-.8,25,25,0,0,0,5-3.22.51.51,0,0,1,.65,0l5.48,5.1h0a.48.48,0,0,1-.48.8,5.36,5.36,0,0,0-1.45-.28c-.53,0-1.07,0-1.59.09a17,17,0,0,0-3.13.6A13.86,13.86,0,0,0,84,36.25a8.35,8.35,0,0,0-1.86,2.5,10.15,10.15,0,0,0-1,3,6,6,0,0,0,.27,3,6.69,6.69,0,0,0,1.72,2.51,4.57,4.57,0,0,0,2.76,1.08,13.34,13.34,0,0,0,1.6,0,2.24,2.24,0,0,0,.73-.05,3.8,3.8,0,0,0,.7-.26c.89-.42,1.78-1.18,1.71-2A2,2,0,0,0,90,44.74,2.2,2.2,0,0,0,88.85,44a1.86,1.86,0,0,0-1.32.24,3.22,3.22,0,0,0-.59.43,2.46,2.46,0,0,0-.41.56,1.62,1.62,0,0,0-.18,1.3,2.83,2.83,0,0,0,.83,1.18l.15.14.09.09a.52.52,0,0,1,.14.27.4.4,0,0,1-.1.33.4.4,0,0,1-.19.11l-.13,0a.66.66,0,0,1-.17,0l-.24-.05a4.57,4.57,0,0,1-.83-.32,5.88,5.88,0,0,1-1.43-1,5.22,5.22,0,0,1-1.61-3h0v0a6.84,6.84,0,0,1,1.88-4.52,7,7,0,0,1,2-1.42,16.46,16.46,0,0,1,2.31-.75,18.81,18.81,0,0,1,4.77-.66,11.82,11.82,0,0,1,4.72,1,.19.19,0,0,1,.1.25l0,.06a4.5,4.5,0,0,0-1.08,1.5,2.42,2.42,0,0,0,0,1.78,3.77,3.77,0,0,0,1.07,1.5,5.57,5.57,0,0,0,.76.57,4.28,4.28,0,0,0,.41.23l.21.09.09,0h0c-.08.08-.05.11,0,.14h0a4.92,4.92,0,0,1-.45-1.46,2.19,2.19,0,0,1,0-.79.89.89,0,0,1,.55-.61,1.83,1.83,0,0,1,1.48.43,7.17,7.17,0,0,1,1.1,1,35.88,35.88,0,0,1,3.42,4.91h0l.21.69.11.34a1.08,1.08,0,0,0,.11.26l.05.05c-.15.06-.14-.09-.17-.12l-.06-.17-.11-.34-.22-.68h0a35.8,35.8,0,0,0-3.45-4.87,7,7,0,0,0-1.09-1,1.71,1.71,0,0,0-1.35-.41c-.48.17-.54.78-.49,1.24a4.76,4.76,0,0,0,.44,1.41h0s0,.07,0,.11a.16.16,0,0,1-.08,0l-.12,0-.23-.09a4.45,4.45,0,0,1-.43-.23,5.76,5.76,0,0,1-.79-.58,4,4,0,0,1-1.14-1.57,2.63,2.63,0,0,1,0-1.93A4.72,4.72,0,0,1,98.46,38V38a11.56,11.56,0,0,0-4.63-.91,18.52,18.52,0,0,0-4.69.68,16.25,16.25,0,0,0-2.25.75A6.68,6.68,0,0,0,85,39.91a6.49,6.49,0,0,0-1.75,4.28h0A4.82,4.82,0,0,0,84.74,47a5.53,5.53,0,0,0,1.34.91,4.18,4.18,0,0,0,.76.29c.11,0,.31,0,.32.07A2,2,0,0,0,86.9,48,3.23,3.23,0,0,1,86,46.64,2,2,0,0,1,86.17,45a2.8,2.8,0,0,1,1.16-1.16,2.29,2.29,0,0,1,1.61-.29,2.62,2.62,0,0,1,1.39.87,2.47,2.47,0,0,1,.73,1.47,2,2,0,0,1-.61,1.52,4.43,4.43,0,0,1-1.35,1,3.07,3.07,0,0,1-1.6.35,13.64,13.64,0,0,1-1.64,0,5,5,0,0,1-3-1.18A7.14,7.14,0,0,1,81,44.91a6.43,6.43,0,0,1-.31-3.26,10.63,10.63,0,0,1,1-3.13,8.86,8.86,0,0,1,2-2.64,14.36,14.36,0,0,1,5.68-3.23A17.53,17.53,0,0,1,92.54,32c.54-.07,1.1-.06,1.64-.1a5.82,5.82,0,0,1,1.63.3l-.06.1-5.5-5.1h.08a25.55,25.55,0,0,1-5.15,3.3,9.68,9.68,0,0,1-2.94.86,4.36,4.36,0,0,1-3-.66,4,4,0,0,1-1.63-2.56,1,1,0,0,1,0-.41s.12-.12.17-.06l.08.08.13.14q.26.28.54.53a5.83,5.83,0,0,0,1.23.88,2,2,0,0,0,1.43.21,1.9,1.9,0,0,0,1.07-1,4.66,4.66,0,0,0,.49-1.42,5,5,0,0,0,.09-.75,1.44,1.44,0,0,0-.08-.66h0a14.7,14.7,0,0,1-4.1-1,5.89,5.89,0,0,1-1.78-1.14,3.33,3.33,0,0,1-1-1.85,3.75,3.75,0,0,1,.27-2.09,2.13,2.13,0,0,1,.62-.89c.07-.06.2.07.18.1L77,19c0,.08.06.16.1.24a4.77,4.77,0,0,0,.23.47,2,2,0,0,0,1.56,1.18,1.94,1.94,0,0,0,1-.21,2.25,2.25,0,0,0,.43-.27,1.32,1.32,0,0,0,.18-.17c.06,0,.07-.17.09-.11h0a6.93,6.93,0,0,1-3.92-3.93,4.74,4.74,0,0,1-.34-1.39,1.4,1.4,0,0,1,0-.37c0-.11.13-.32.32-.26a4.27,4.27,0,0,1,.56.46,2.31,2.31,0,0,0,1.23.56,1.44,1.44,0,0,0,1.2-.48h0a2.15,2.15,0,0,0,.64-1.4,1.77,1.77,0,0,0-.78-1.3,4.91,4.91,0,0,0-3-1,7.87,7.87,0,0,0-3.18.46,5.27,5.27,0,0,0-2.46,2,9.17,9.17,0,0,0-1.18,3c-.06.13,0,.26-.22.42-.19,0-.15-.09-.23-.13l-.15-.14a5.7,5.7,0,0,1-.55-.62,4.25,4.25,0,0,1-.75-1.47,4.81,4.81,0,0,1,.32-3.24,7.77,7.77,0,0,1,.37-.74l.2-.35,0,0s0-.05,0,0,0,0,.07,0l-.06.05-.15.14a9,9,0,0,0-1.09,1.2,5.54,5.54,0,0,0-1.2,2.95A5.52,5.52,0,0,0,67,17.65a14.38,14.38,0,0,0,2,2.57l.13.17a.53.53,0,0,1,.05.11.13.13,0,0,1-.11.16l-.42,0a5.06,5.06,0,0,1-.83-.07A4.14,4.14,0,0,1,66.33,20a6.84,6.84,0,0,1-2.14-2.47c-.27-.48-.5-1-.74-1.46a3.85,3.85,0,0,0-.4-.69c-.16-.27-.3.12-.45.31a3.48,3.48,0,0,0-.26,3.08,7.06,7.06,0,0,0,.71,1.45c.14.23.3.45.46.67l.24.33.12.17.06.09,0,.05s0,.1-.07.13h0a5.35,5.35,0,0,1-3.78-2,4.58,4.58,0,0,1-.75-2.05l0-.27a.7.7,0,0,0,0-.11s0,0,0,0l0,0a3,3,0,0,0-.24.47c-.15.33-.29.66-.42,1a7.64,7.64,0,0,0-.49,2.09,3.39,3.39,0,0,0,.43,2.05,3.3,3.3,0,0,0,1.65,1.29l.51.18.26.1a.19.19,0,0,1,.08.07.11.11,0,0,1-.06.14l-.13.06a6.53,6.53,0,0,1-1,.4,3.39,3.39,0,0,1-2.17,0,3.31,3.31,0,0,1-1.61-1.46c-.19-.31-.34-.65-.53-.94-.07-.07-.06-.11-.1,0a1.75,1.75,0,0,0-.09.25l-.17.51a7.21,7.21,0,0,0-.28,2.13,9.4,9.4,0,0,0,1.15,4.12,14.4,14.4,0,0,0,2.55,3.48.07.07,0,0,1,0,0,.23.23,0,0,1-.14.21.53.53,0,0,1-.22,0h0a11.88,11.88,0,0,1-2.18-1.94,12.45,12.45,0,0,1-1.63-2.42,14.93,14.93,0,0,1-1-2.72,24.72,24.72,0,0,1-.57-2.85h0A18.93,18.93,0,0,1,53.58,18a14.47,14.47,0,0,1,1.16-2.51l.64-1.22c.23-.4.5-.77.75-1.16a18.59,18.59,0,0,1,8.15-7.21A16.46,16.46,0,0,1,75.1,5.4a12.24,12.24,0,0,1,2.53,1.11A16.38,16.38,0,0,1,79.94,8a18,18,0,0,1,3.67,4.1c.52.76,1,1.53,1.5,2.31l.73,1.17c.28.36.53.75.83,1.09,1.16,1.42,2.42,2.76,3.67,4.11,2.51,2.68,5.08,5.3,7.67,7.91s5.21,5.18,7.85,7.74q2,1.91,4,3.79c1.35,1.24,2.68,2.52,4.14,3.62Z"/><path class="cls-1" d="M61.78,29.53a6.93,6.93,0,0,0-1.16,1.09,3.16,3.16,0,0,0-.67,1.25A2.27,2.27,0,0,0,60,33.16a5.51,5.51,0,0,0,.26.64c.12.21.25.41.38.62l0,0c-.28-.27-.36-.18-.38-.2l.07,0a1.75,1.75,0,0,0,.29-.13,3.53,3.53,0,0,0,.61-.43,3.78,3.78,0,0,0,1-1.14,2.17,2.17,0,0,0,.25-1.41A3.94,3.94,0,0,0,61.78,29.53Zm0-.07a3.47,3.47,0,0,1,1,1.48,2.5,2.5,0,0,1-.09,1.77,4,4,0,0,1-1.05,1.44,4.27,4.27,0,0,1-.73.53,2.53,2.53,0,0,1-.41.19c-.14,0-.31.13-.5,0h0c-.14-.24-.29-.48-.41-.72a4.38,4.38,0,0,1-.28-.79,2.69,2.69,0,0,1,.07-1.65,3.31,3.31,0,0,1,1-1.34A4.89,4.89,0,0,1,61.79,29.46Z"/><path class="cls-1" d="M59.16,37.42a6.76,6.76,0,0,0-1.53.44,3,3,0,0,0-1.15.82A2.22,2.22,0,0,0,56,39.87a6.36,6.36,0,0,0,0,.69l.08.73v.1a.49.49,0,0,0-.08-.3.41.41,0,0,0-.12-.14.25.25,0,0,0-.1-.06h.05a1.8,1.8,0,0,0,.31,0,4.55,4.55,0,0,0,2.06-.74A2.26,2.26,0,0,0,59,39,3.82,3.82,0,0,0,59.16,37.42Zm0-.06a3.38,3.38,0,0,1,.22,1.74,2.57,2.57,0,0,1-.85,1.51,4.09,4.09,0,0,1-1.53.84,4.48,4.48,0,0,1-.86.18,2.58,2.58,0,0,1-.45,0c-.13,0-.35,0-.43-.25h0l-.07-.83a4.87,4.87,0,0,1,.08-.83,2.65,2.65,0,0,1,.76-1.47,3.16,3.16,0,0,1,1.46-.78A4.81,4.81,0,0,1,59.21,37.36Z"/><path class="cls-1" d="M64.09,42.36c.22-.08.26-.46.29-.72a3.46,3.46,0,0,0-.08-.85,3.51,3.51,0,0,0-.74-1.46,2.11,2.11,0,0,0-1.22-.7,4,4,0,0,0-1.42,0h-.13a.61.61,0,0,0,.57-.33c0-.09,0,0,0,0l0,0,0,.16-.06.34a3.9,3.9,0,0,0-.07.71,2.68,2.68,0,0,0,.26,1.39,2.3,2.3,0,0,0,1.07,1,3.64,3.64,0,0,0,.76.27Zm0,.07-.83-.07a4.74,4.74,0,0,1-.8-.21,2.72,2.72,0,0,1-1.33-1,3.17,3.17,0,0,1-.57-1.55,4.17,4.17,0,0,1,0-.83c0-.14,0-.28.05-.41l0-.21,0-.1,0-.06a.2.2,0,0,1,.09-.09h0a3.52,3.52,0,0,1,1.77.07,2.55,2.55,0,0,1,1.38,1.1,4.21,4.21,0,0,1,.56,2.56,2.21,2.21,0,0,1-.09.44C64.34,42.22,64.28,42.4,64.09,42.43Z"/><path class="cls-1" d="M66.85,34.61a4.11,4.11,0,0,0-1.5-.68,2.67,2.67,0,0,0-1.55.14,2.76,2.76,0,0,0-1.08.92c-.13.22-.28.4-.38.63l-.18.33,0,.08,0,0a.48.48,0,0,0,.05-.15c0-.26-.06-.31,0-.3a1.52,1.52,0,0,0,.43.32,4.53,4.53,0,0,0,.66.32,3.54,3.54,0,0,0,1.46.31A2.18,2.18,0,0,0,66.06,36,3.12,3.12,0,0,0,66.85,34.61Zm.07,0a3.57,3.57,0,0,1-.73,1.56,2.56,2.56,0,0,1-1.48.84A3.88,3.88,0,0,1,63,36.89a3.17,3.17,0,0,1-1.52-.82.34.34,0,0,1-.08-.25.73.73,0,0,1,.1-.21l.22-.37a6,6,0,0,1,.52-.69,3.16,3.16,0,0,1,1.46-.88A3.91,3.91,0,0,1,66.92,34.58Z"/><path class="cls-1" d="M53.52,34.28a5.37,5.37,0,0,0,1,1.31,2.76,2.76,0,0,0,1.41.65A2.59,2.59,0,0,0,57.34,36a7.26,7.26,0,0,0,.63-.36l.3-.2.08,0h0a.45.45,0,0,0-.15.18.43.43,0,0,0-.05.2,1.64,1.64,0,0,0-.23-.51,4.62,4.62,0,0,0-.41-.6,3.47,3.47,0,0,0-1.11-1,2.16,2.16,0,0,0-1.5-.2,2.64,2.64,0,0,0-.75.33C53.91,33.94,53.73,34.12,53.52,34.28Zm-.07,0a3.34,3.34,0,0,1,1.39-1,2.53,2.53,0,0,1,1.69,0,3.81,3.81,0,0,1,1.44.92,3.34,3.34,0,0,1,.93,1.45.44.44,0,0,1,0,.25c-.07.11-.13.1-.19.15l-.37.22a5.62,5.62,0,0,1-.78.35,3,3,0,0,1-1.7,0A4.45,4.45,0,0,1,53.45,34.31Z"/><path class="cls-2" d="M128.19,123.09c-1.3,6.6,5.6,10,4.9,9.6s-1-3.7-.2-3.1c.3.2,1.7.8,1.5.6a9.66,9.66,0,0,1-1.6-2.5c-3.8-9.6,10.9-10.8,10.9-10.8C143.59,115.89,130.69,110.49,128.19,123.09Z"/><path class="cls-2" d="M39.39,199.69c.4-.2-4.3,2.2-9.9-5.4,0,0,0,2.8-4.9,3.4C24.59,197.69,36.29,201.39,39.39,199.69Z"/><path class="cls-2" d="M135.19,186.39c.1-.5-1-2.3-5.5-2.8-7.7-.7-4.5-7.6-4.5-7.6a14.42,14.42,0,0,1-3.1,2.1,15.33,15.33,0,0,1-7.9.5c2.2-2.5-.4-3.6.4-6.2,1.2-3.9,3.9-6.6,9-7.2.3,0-2,2.1-1.7,2.5.5.7,1.8.7,1.5,1.4a7.77,7.77,0,0,0,.2,3.8c1.5.7,9.7-3.5,7.8-1.8s-2.7,6.7-1.6,7.4c1.8,1.2,3.2-3.4,3.8-2.6s-2.4,3.6.3,2.5c2.3-.9,3.1-7.9,3.1-7.9,3,1,7.6,7.8,8.1,7.5,2.5-1.2.2-5.9.1-7.4,0-.5.9.3,1-.1a2.44,2.44,0,0,0-1-2.8c-.1-.5-.1-.5,1.1-.2s-1.3-3.3-.7-2.9c9.8,5.7-.6,16.9-.5,15.8s-6.2-4.9-6.1-4.2a8,8,0,0,1-.5,5.7C137.79,184.49,135.19,186.89,135.19,186.39Z"/><path class="cls-2" d="M107.29,109.19s6.2-1.9,8.9.9c.4.4-1.6.1-8,5-5.4,4.1-6.1,5.5-6.4,5.2-.6-.8-2.3-2.1.9-8a2.79,2.79,0,0,0-.7-3.9c-.5-.1.7-1.7,2.3-.9A16.06,16.06,0,0,1,107.29,109.19Z"/><path class="cls-2" d="M122.69,116.29a1.61,1.61,0,1,1-1.6-1.4A1.63,1.63,0,0,1,122.69,116.29Z"/><path class="cls-2" d="M90.09,46.29a1.8,1.8,0,0,1-1.7,1.9,1.87,1.87,0,0,1-1.7-1.9,1.71,1.71,0,1,1,3.4,0Z"/><path class="cls-2" d="M97,113.59a2.4,2.4,0,1,1-2.4-2.4A2.43,2.43,0,0,1,97,113.59Z"/><path class="cls-2" d="M89.49,87.69a2.46,2.46,0,0,1-2.6,2.2,2.4,2.4,0,0,1-2.6-2.2,2.64,2.64,0,0,1,5.2,0Z"/><path class="cls-2" d="M32.29,179.59a2.57,2.57,0,0,1-2.4,2.7,2.72,2.72,0,0,1,0-5.4A2.51,2.51,0,0,1,32.29,179.59Z"/><path class="cls-2" d="M52.39,186a1.7,1.7,0,1,1-3.4,0,1.69,1.69,0,0,1,1.7-1.7A1.75,1.75,0,0,1,52.39,186Z"/><path class="cls-2" d="M116.69,140.79a2.6,2.6,0,1,1-2.6-2.5A2.56,2.56,0,0,1,116.69,140.79Z"/><ellipse class="cls-2" cx="113.49" cy="119.89" rx="1.3" ry="1.2"/><ellipse class="cls-2" cx="108.19" cy="125.59" rx="1.1" ry="1"/><circle class="cls-2" cx="104.79" cy="132.39" r="1.1"/><circle class="cls-2" cx="105.89" cy="140.39" r="1"/><path class="cls-2" d="M64.09,166.09s-1.4-1.6,3.5-6.5c1-1-3.5,1.6-4,2.4s1.1-1.2,1.5-2.9c0-.2-2.1,2.8-3.6,2.7s.5-3.5,2.2-5.3c.3-.3-3.6,3.7-4.1,5.1C57.59,167.29,63.59,167.19,64.09,166.09Z"/><path class="cls-2" d="M88.69,24.39c-2.5-4-3.3-4.6-5.1-8.1-1.4-2.7-3.2-1.6-3-1.5.4.2,1.9,1.3.9,2a2.09,2.09,0,0,1-2.8-.5c-.8-.8-.4,2.4,3,3.8.3.1-.8,2.5-3.6,2-.5-.1.6,1.9,5.7,3.1.4.1.5,2.5-.8,4.5-.4.7,4,.4,6.4-3.8"/><path class="cls-2" d="M58.89,37.79s-2.9-.3-2.5,2.6C56.39,40.79,59.79,40.39,58.89,37.79Z"/><path class="cls-2" d="M61.39,31.09s-2.7,1-1.1,3.4C60.49,34.79,63.29,33,61.39,31.09Z"/><path class="cls-2" d="M61,38.09a2.12,2.12,0,0,0,2.1,2.8C63.49,40.89,63.59,37.59,61,38.09Z"/><path class="cls-2" d="M55.19,34.79s1,2.6,3.2,1C58.79,35.59,57,32.89,55.19,34.79Z"/><path class="cls-2" d="M65.39,35.09s-2.2-1.8-3.4.7C61.79,36.19,64.79,37.69,65.39,35.09Z"/><path class="cls-2" d="M73.09,9.29c.5-.2-7.2-6.1-15.3,3.6a20.53,20.53,0,0,0-3.5,6.9,6.44,6.44,0,0,0,0,4s.1-2.5,1.3-2.8c.8-.2.6,3.2,3.4,3.5.5.1-4.6-3,.3-8.5.8-1-.2,2.3,2.9,4.4a5.13,5.13,0,0,1,.5-6.4c.5-.6,1.5,3.8,4,4.6.5.2-4.7-6.2,2.5-9.2.5-.2-1.9,3.7.1,5.7C69.79,15.49,68.89,11.39,73.09,9.29Z"/><path class="cls-2" d="M118.59,55.69c-2.7-2.1-4.2-2.2-5.5-2.1-1.8,0-5.4,3.2-2.6,6.2a2.53,2.53,0,0,0,2.3.3,4,4,0,0,1-1.5-1.5c-.8-1.5,1.1-3.1,2.8-2.9,1.5.2,3.3,1.4,2.8,3.4Z"/><path class="cls-2" d="M113.89,63.39a3.23,3.23,0,0,0-2.5-1c-.8,0-2.4.8-2.1,2.3.1.5.7.7.6.6a1.75,1.75,0,0,1,.1-1.2,1.62,1.62,0,0,1,1.9-.9,1.07,1.07,0,0,1,.7,1.7C112.49,65.29,113.89,63.39,113.89,63.39Z"/><path class="cls-2" d="M129.89,157.29s-4.4,1.6-4.1,5.5c.1,1.2,9.8,6.6,15.5-.4.3-.3-7,2.6-11.3.3C129.09,162.19,125.89,160.39,129.89,157.29Z"/><path class="cls-3" d="M132.69,119.59c-1.9,1.9-3.9,6.8-1.8,10.3a8,8,0,0,1-2.2-7.1c.9-5,3.9-7,7.9-7.3,3.4-.3,6.1,1.2,3.5.9C140.19,116.39,135,117.19,132.69,119.59Z"/><path class="cls-3" d="M135.79,183.79c.1-.4-1.9-.7-5.8-2.3-5.8-2.4-3.7-6.7-3.7-6.7s-.7-.3-3.1.7a7.26,7.26,0,0,1-6-.4c.8-2.3-.2-3.7-.3-5.1s3-4.6,5.2-3.8c.3.1-.9,1.3-.7,1.7.4.7,1.7.9,1.3,1.5s-.1,3.9.8,4.1c1.5.4,8.2-2.9,6.4-1.2s-1.3,6-.2,6.6c2,1.1,3.2-2.9,3.7-2.5.8.7-2.8,3.1-.1,2.5,4-.9,4.2-7.4,4.2-7.4,2.9,1,7.3,7,7.8,6.7,3.3-1.4.7-5.9.6-7.3,0-.5.7.4,1-.4a2.08,2.08,0,0,0-.8-2.6c-.1-.5,0-.3,1.2,0s-.7-2.7-.3-2.2c4.9,5.8-1.1,14.4-1.7,13.5-1.6-2.2-6.4-4.1-6.2-3.4.5,2.3.1,3.1-.7,5.2C137.39,183.59,135.69,184.29,135.79,183.79Z"/><path class="cls-3" d="M108.59,109.59s3.6-1.3,5.5.7c.3.3-1.1.3-5.6,3.7-3.9,2.9-4.3,3.9-4.5,3.7-.4-.6-2.3-.9,0-5.1C105,110.89,107.59,109.79,108.59,109.59Z"/><ellipse class="cls-3" cx="139.59" cy="153.59" rx="1.5" ry="1.4"/><path class="cls-3" d="M88.19,24.69c-2.1-3.3-2.9-3.8-4.3-6.8-.9-1.9-1.7-1.7-1.5-1.6.4.2.2,1-.5,1.4a1.68,1.68,0,0,1-1.7-.1c-.7-.6-.4.8,2.5,2,.3.1-.3,3.3-2.7,2.9-.4-.1,0,.6,4.2,1.6.4.1,1.2,2.8.1,4.5-.4.6,2.5.8,4.5-2.7"/><path class="cls-3" d="M71.49,8.79c.4-.2-7-3.3-13.2,3.8a12.92,12.92,0,0,0-3.5,7.9,2.1,2.1,0,0,1,1.1-1.4c.4-.1-.3.8,1.2,1.7.3.2-1.7-2.3,2.3-5.9.8-.7-.3-.1,1.4,1.8.1.1-.3-2.8,1.8-4,.6-.3.4,1,2.1,2.4.4.3-1.3-4.1,4.7-6.1.8-.3-.9,2.9-.3,4C69.29,13.49,69.79,9.49,71.49,8.79Z"/><path class="cls-3" d="M118.19,55.69c-2.7-1.8-3.6-1.8-5.1-1.8a3.49,3.49,0,0,0-3.1,3.8c0,.9.8,1.5.7,1.2-.1-.9-.3-1.1,0-1.9.7-1.5,1.9-1.9,3.6-1.7,1.4.2,3.1,1.5,2.6,3.2C116.79,59.09,118.19,55.69,118.19,55.69Z"/><path class="cls-3" d="M130.39,164.79s-3.7-1.7-3.9-3.2c-.1-.5.2,1.3,6.1,2.3,4.2.7,7.1-.8,7-.5-.1.7-1.9,1.5-3.7,1.8A12.14,12.14,0,0,1,130.39,164.79Z"/><path class="cls-2" d="M132.44,72.22h1.8l-3.7,8.6h-.6l-2.5-5.9-2.5,5.9h-.5l-3.8-8.6h1.8l2.2,5.1,2.2-5.1H128l2.1,5.1Z"/><path class="cls-2" d="M142.54,76.52h-5.9a2.56,2.56,0,0,0,.8,1.9,2.49,2.49,0,0,0,1.9.7,4.72,4.72,0,0,0,3-1v1.6a5.07,5.07,0,0,1-1.5.7,9,9,0,0,1-1.8.2,4.14,4.14,0,0,1-2.3-.6,4.39,4.39,0,0,1-1.4-1.6,4.34,4.34,0,0,1-.5-2.3,4.5,4.5,0,0,1,1.1-3.1,3.63,3.63,0,0,1,2.8-1.2,3.42,3.42,0,0,1,2.7,1.2,4.45,4.45,0,0,1,1,3.1v.4Zm-5.9-1h4.2a1.89,1.89,0,0,0-2-2,2.46,2.46,0,0,0-1.5.5A3.48,3.48,0,0,0,136.64,75.52Z"/><path class="cls-2" d="M154.84,75.52v3.6c0,.3.1.4.3.4a1.63,1.63,0,0,0,.9-.4v1c-.4.2-.7.4-.9.5a1.7,1.7,0,0,1-.7.1,1.25,1.25,0,0,1-1.3-.8,3.41,3.41,0,0,1-2.3.8,2.05,2.05,0,0,1-2.1-2.1,2,2,0,0,1,.6-1.4,3.66,3.66,0,0,1,1.6-1l2.1-.7v-.4a1.33,1.33,0,0,0-1.5-1.5,4,4,0,0,0-2.7,1.4v-1.8a3.3,3.3,0,0,1,2.8-1.1,3.23,3.23,0,0,1,2.2.7c.2.2.3.4.5.6s.2.5.3.8A3.48,3.48,0,0,1,154.84,75.52Zm-1.6,3.4v-2.5l-1.1.4a3.12,3.12,0,0,0-1.2.7,1.27,1.27,0,0,0-.4.9,1.61,1.61,0,0,0,.3.9,1.22,1.22,0,0,0,.9.3A1.93,1.93,0,0,0,153.24,78.92Z"/><path class="cls-2" d="M159.34,72.22v1.9l.1-.1c.8-1.3,1.6-2,2.4-2a2.93,2.93,0,0,1,2,1l-.9,1.5a2.22,2.22,0,0,0-1.6-.8,1.87,1.87,0,0,0-1.4.8,2.79,2.79,0,0,0-.6,1.8v4.4h-1.7v-8.4h1.7Z"/><path class="cls-2" d="M172.24,76.52h-5.9a2.56,2.56,0,0,0,.8,1.9,2.49,2.49,0,0,0,1.9.7,4.72,4.72,0,0,0,3-1v1.6a5.07,5.07,0,0,1-1.5.7,9,9,0,0,1-1.8.2,4.14,4.14,0,0,1-2.3-.6,4.39,4.39,0,0,1-1.4-1.6,5.56,5.56,0,0,1-.5-2.3,4.5,4.5,0,0,1,1.1-3.1,3.63,3.63,0,0,1,2.8-1.2,3.42,3.42,0,0,1,2.7,1.2,4.45,4.45,0,0,1,1,3.1v.4Zm-5.9-1h4.2a1.89,1.89,0,0,0-2-2,2.46,2.46,0,0,0-1.5.5A2.63,2.63,0,0,0,166.34,75.52Z"/><path class="cls-2" d="M184.44,72.22h1.9l-6,12.7h-1.9l2.9-6.1-3.3-6.6h1.9l2.3,4.8Z"/><path class="cls-2" d="M191.54,72.22a4.38,4.38,0,0,1,3.2,1.2,4,4,0,0,1,1.3,3.1,3.8,3.8,0,0,1-1.3,3,4.62,4.62,0,0,1-3.3,1.2,4.54,4.54,0,0,1-3.2-1.2,3.87,3.87,0,0,1-1.3-3.1,4,4,0,0,1,1.3-3.1A5.24,5.24,0,0,1,191.54,72.22Zm-.1,1.5a2.73,2.73,0,1,0,2,.8A2.79,2.79,0,0,0,191.44,73.72Z"/><path class="cls-2" d="M203.24,80.62v-1.1a4.7,4.7,0,0,1-1.2.9,3.19,3.19,0,0,1-1.4.3,2.82,2.82,0,0,1-1.5-.4,2.66,2.66,0,0,1-1-1.1,6.33,6.33,0,0,1-.3-2.3v-4.8h1.7v4.8a3.16,3.16,0,0,0,.4,1.9,1.43,1.43,0,0,0,1.3.5,2.31,2.31,0,0,0,2-1.2v-6h1.7v8.4h-1.7Z"/><path class="cls-2" d="M209,72.22v1.9l.1-.1c.8-1.3,1.6-2,2.4-2a2.93,2.93,0,0,1,2,1l-.9,1.5a2.22,2.22,0,0,0-1.6-.8,1.87,1.87,0,0,0-1.4.8,2.79,2.79,0,0,0-.6,1.8v4.4h-1.7v-8.4H209Z"/><path class="cls-2" d="M225,72.22h1.8l-3.7,8.6h-.6l-3.8-8.6h1.8l2.3,5.2Z"/><path class="cls-2" d="M228.94,68.62a1,1,0,1,1-.7.3A1.08,1.08,0,0,1,228.94,68.62Zm-.8,3.6h1.7v8.4h-1.7Z"/><path class="cls-2" d="M232.24,67.82h1.7v12.8h-1.7Z"/><path class="cls-2" d="M236.34,67.82H238v12.8h-1.7Z"/><path class="cls-2" d="M245.74,75.52v3.6c0,.3.1.4.3.4a1.63,1.63,0,0,0,.9-.4v1c-.4.2-.7.4-.9.5a1.7,1.7,0,0,1-.7.1,1.25,1.25,0,0,1-1.3-.8,3.41,3.41,0,0,1-2.3.8,2.05,2.05,0,0,1-2.1-2.1,2,2,0,0,1,.6-1.4,3.66,3.66,0,0,1,1.6-1l2.1-.7v-.4a1.33,1.33,0,0,0-1.5-1.5,4,4,0,0,0-2.7,1.4v-1.8a3.3,3.3,0,0,1,2.8-1.1,3.23,3.23,0,0,1,2.2.7c.2.2.3.4.5.6s.2.5.3.8S245.74,74.82,245.74,75.52Zm-1.6,3.4v-2.5l-1.1.4a3.12,3.12,0,0,0-1.2.7,1.27,1.27,0,0,0-.4.9,1.61,1.61,0,0,0,.3.9,1.22,1.22,0,0,0,.9.3A2.08,2.08,0,0,0,244.14,78.92Z"/><path class="cls-2" d="M248,75.12a2.39,2.39,0,0,1,1-2.1,4.55,4.55,0,0,1,2.7-.8h3.5v1.3h-1.7a2.76,2.76,0,0,1,.7.9,2.92,2.92,0,0,1,.2.9,2.2,2.2,0,0,1-.4,1.3,3.18,3.18,0,0,1-1,1,5.61,5.61,0,0,1-1.9.5c-.6.1-.9.3-.9.7a.51.51,0,0,0,.4.5,5,5,0,0,0,1.3.4,18.21,18.21,0,0,1,2,.5,1.56,1.56,0,0,1,.8.6,2,2,0,0,1,.6,1.5,2.26,2.26,0,0,1-1.1,1.9,6.36,6.36,0,0,1-5.8,0,2.26,2.26,0,0,1-1.1-1.9c0-1.1.7-1.9,2.1-2.2-.6-.4-.8-.7-.8-1.1a.75.75,0,0,1,.4-.7,2.34,2.34,0,0,1,1-.5A2.8,2.8,0,0,1,248,75.12Zm2.8,5.9a2.12,2.12,0,0,0-1.4.4.87.87,0,0,0-.5.9c0,.9.8,1.3,2.3,1.3a4,4,0,0,0,1.7-.3,1,1,0,0,0,.6-.9c0-.4-.3-.7-.8-1A3.58,3.58,0,0,0,250.84,81Zm.3-7.4a1.85,1.85,0,0,0-1.2.5,1.27,1.27,0,0,0-.5,1.1,1.7,1.7,0,1,0,2.9-1.1A1.66,1.66,0,0,0,251.14,73.62Z"/><path class="cls-2" d="M263.64,76.52h-5.9a2.56,2.56,0,0,0,.8,1.9,2.49,2.49,0,0,0,1.9.7,4.72,4.72,0,0,0,3-1v1.6a5.07,5.07,0,0,1-1.5.7,9,9,0,0,1-1.8.2,4.14,4.14,0,0,1-2.3-.6,4.39,4.39,0,0,1-1.4-1.6,5.56,5.56,0,0,1-.5-2.3A4.5,4.5,0,0,1,257,73a3.63,3.63,0,0,1,2.8-1.2,3.42,3.42,0,0,1,2.7,1.2,4.45,4.45,0,0,1,1,3.1v.4Zm-5.9-1h4.2a1.89,1.89,0,0,0-2-2,2.46,2.46,0,0,0-1.5.5A5.23,5.23,0,0,0,257.74,75.52Z"/></svg>