<svg id="Layer_1" data-name="Layer 1" xmlns="http://www.w3.org/2000/svg" viewBox="0 0 509.9 504.86"><defs><style>.cls-1{fill:none;stroke:#377e81;stroke-miterlimit:10;stroke-width:0.75px;}</style></defs><title>Artboard 1</title><path class="cls-1" d="M194,222.32a16.71,16.71,0,0,0,2.59,8.46c1.15,1.81.68,2.22-1.2,2.23-14.31.06-24.54-8.18-21.74-24.62l.49-2.87c-1.78.77-3.27,2.09-5,.94a5.27,5.27,0,0,1-2.33-3c-.82-2.92,1.14-5.59,4.81-6.57-2.52-1.2-3.85-.83-6.08,1.72s-4,2.3-5.39-.69a14.71,14.71,0,0,1-1.29-4.26,4.27,4.27,0,0,1,3.59-4.88c1.65-.14,3.25,0,2.13,2.41-.35.77-.78,1.61.18,2.23a1.83,1.83,0,0,0,2.5-2.59,5,5,0,0,0-6-3c-2.25.48-3.28-.32-3.82-2.45-1-4,.17-7,3.54-8.38a7.81,7.81,0,0,1,10.1,3.46,8.85,8.85,0,0,1,.66,1.54c.56,1.72,1.49,4,3.23,3.48,1.4-.41,1.5-3,1.29-4.79-.47-4-3.59-7-8.24-8-.76-.17-1.87.14-2.09-1-.18-.9.55-1.55,1.13-2.15a14.6,14.6,0,0,1,7.47-4.2c7.1-1.46,14.19-2.33,21,1.79,0-1.11-.87-1.29-1.42-1.65-1.83-1.18-3.93-1.93-4.12-4.72-.08-1.21-1.47-2.14-2.65-2.74-2.92-1.47-4.44-3.67-3.81-7,.58-3.07,3-3.75,5.94-3.9-2.58-1-5.87-.44-6.6,2-1.64,5.47-6,8.85-9,13.21a4.6,4.6,0,0,1-1.83,1.65,34,34,0,0,0-9.72,7c-.49.5-1,1.46-1.8,1-.92-.57-.25-1.6.09-2.25,1.47-2.81,3-5.55,4.59-8.32a14.13,14.13,0,0,0,.31-14.16c-1.83-3.6-1.21-5,2.4-7a11.52,11.52,0,0,1,8.28-1.54c-3.42-1.48-9.55-.17-11.86,2.44a3.92,3.92,0,0,0-.79,4.8c3.2,6.77,2.57,13.27-2.24,19.1a9,9,0,0,0-2.12,5.59,22.55,22.55,0,0,1-2.69,9.91c-.43.78-.67,2.08-1.77,1.87s-.87-1.48-1-2.37c-1-8.41.39-16.57,2.84-24.54,2.23-7.23,5.09-14.23,9.51-20.45a18.7,18.7,0,0,1,7.81-6.18c2.89-1.28,5.47-.52,7.78,1.45.92.79,1.16,1.54-.34,1.91-1.3.32-2.31.94-2.14,2.45a1.51,1.51,0,0,0,1.85,1.3,3,3,0,0,0,2.81-2.65c.51-2.81-1.74-5.62-4.93-6a41.1,41.1,0,0,0-4.75-.13,2.21,2.21,0,0,1-2.47-2.09,8.5,8.5,0,0,1,7.62-10.14c5.42-.72,9.11,2.16,9.69,7.56.1.89.15,1.78.28,3.34,2.32-3.4,2.23-6.24.65-9.11-2.89-5.25-7.79-4.93-13-4.36a11.06,11.06,0,0,1,12.86,2.39,9.86,9.86,0,0,1,.24,12c-.41.59-.78,1.54-1.62,1.28s-.49-1.28-.53-2c-.06-1.12,0-2.24,0-3.36-.2-4.73-2.68-6.87-7.71-6.68-4.42.16-7.41,3.25-7.35,7.47,0,1.75.69,2.58,2.49,2.56a18.27,18.27,0,0,1,3.9.26c4,.81,5.63,3.2,5.39,7.22a3.53,3.53,0,0,1-2.91,3.59c-1.35.33-2.72.21-3.43-1.15a3.34,3.34,0,0,1,1-4.48,4.48,4.48,0,0,0,.53-.62c-4-3-10.77.4-13.76,7.2l4.14-1a12.57,12.57,0,0,1,7.71.43c3.24,1.25,4.73,4.79,3.63,8.37a6.38,6.38,0,0,1-7,4.25c-3.67-.6-5.48-4.56-3.38-7.4a3.35,3.35,0,0,1,3.67-1.43c.85.19,1.67.53,1.64,1.6a2.06,2.06,0,0,1-1.3,2c-.56.25-2-.71-1.49,1a1.85,1.85,0,0,0,2.47,1.23,3.13,3.13,0,0,0,2.71-2.5,3.63,3.63,0,0,0-1.34-3.75c-2.7-2.07-9.78-.5-11.37,2.49a2.33,2.33,0,0,0,.21,2.4c4.13,6.9,2.17,13.24-1.67,19.45-.51.83-1.33,1.52-1.43,2.86a49.82,49.82,0,0,1,8.32-5.34c.81-.39,1.13-1.18,1.56-1.91.61-1,1.13-2.5,2.06-2.91,3.32-1.47,4.21-4.4,5.3-7.38a7.83,7.83,0,0,1,5.83-5.15,6.08,6.08,0,0,1,6.52,2.15c1.66,2,1.67,4.31.87,6.61a3.19,3.19,0,0,1-3.11,2.4,3,3,0,0,1-2.93-1.79,3.22,3.22,0,0,1,.89-4c.52-.42,1.57-.72.87-1.67-.49-.67-1.36-.51-2.09-.34-2.73.65-3.83,4.7-1.48,6.51a27.65,27.65,0,0,1,6.82,7.4c1.41,2.24,4.59,3.62,6.62,5.83a13.19,13.19,0,0,1,3.14,12.22,6.13,6.13,0,0,1-4.93,5.15c-2.92.6-5.81.47-8-1.95-1.2-1.31-2.05-2.8-.82-4.51a3.32,3.32,0,0,1,3.89-1.52,3.89,3.89,0,0,1,2.7,4.12c0,.7-.89,1.57-.07,2s1.77-.26,2.5-.83c2.13-1.69,3-5.66,1.89-8.48-2.23-5.67-9.22-9.91-15.27-9.31-1,.1-1.54.41-1.54,1.51a1.94,1.94,0,0,1-2,2.16c-1.17,0-1.43-.86-1.67-1.86-.59-2.46-2.16-.63-3.56-.85a9.07,9.07,0,0,1,1.15,2,2.19,2.19,0,0,1-1.58,2.85c-1.31.39-2.06-.39-2.6-1.53-.26-.56.43-1.94-.85-1.59a4.35,4.35,0,0,0-3.13,2.55c-.32,1,1.08,1,1.79,1.32,3.52,1.58,6.53,3.59,7.37,7.76a10.91,10.91,0,0,1-.67,5.76c-.39,1.16-.74,3.12-2.15,2.86a4.21,4.21,0,0,1-3.28-3.06,14.33,14.33,0,0,0-1.89-4.64,6.13,6.13,0,0,0-8.3-2.26,4.74,4.74,0,0,0-2.92,5.21c.2,2,.9,3.21,3.35,3,3.78-.26,5.75,1,6.77,3.71.63,1.67.74,3.29-.73,4.64-4.31.15-4.31.15-4.78-3.64a1.36,1.36,0,0,0-.41-.92c-.58-.34-1,.1-1.44.48-1.75,1.67-.84,6.79,1.36,7.9.92.46,1.44,0,1.82-.68a10.73,10.73,0,0,1,3.47-3.12c2.91-.29,5.59.19,7.73,2.38.38.39.93.82.57,1.43s-1,.34-1.52.22a14.66,14.66,0,0,0-2.72-.57,3.79,3.79,0,0,0-3.51,5.28c.91,1.87,2.46,2.25,4.05.87a26.6,26.6,0,0,0,2.22-2.5c.53-.6,1-1.67,2-1.13s.13,1.34-.07,2a36,36,0,0,0-2,11.52c.38,11.48,9.18,16.62,18.34,17.38,1.62.13,2.27-.52,1.69-2.18-.66-1.89-1.25-3.82-1.92-5.9-1.66,4-2.61,4.35-6.66,2.41-4.77-2.28-6.89-6.82-5.58-12.09.34-1.35,1-2.62,1.3-4,.38-1.89.78-3.83-1.4-5.15s-2.83-5.18-1.29-7.4,4.87-3,6.61-.9c2.82,3.39,7.3,1.92,10.25,4.41.52.44,1.27-.07,1.83-.38,3.52-2,6.83-1.17,10.06.74,2.39,1.41,4.61,3.2,7.76,1.9,1.33-.55,1.54.59,1.27,1.65-.66,2.57-2.55,4.06-4.79,5.15s-4.64,1.75-4.19,5.19c.18,1.38-1.1,2.72-2.22,3.76-1.39,1.29-1.47,2.59-.46,4.22,1.32,2.11.83,2.9-1.76,3-2.25.06-4.34-.77-7-1.76,1,2,1.67,3.5,2.5,4.9,1.31,2.21,3.18,2.86,5.72,2.11,10.63-3.12,16.39-10.47,18.49-21.05a37.53,37.53,0,0,0,.61-10c-.07-.93-1-2.35.32-2.7s1,1.51,1.79,2.29c.55-2.49,0-4.8-.49-7.1-.16-.72-.36-1.4-1.47-1.21-3.42.57-4.79-1.15-3.59-4.45.22-.61.5-1.2.76-1.8h0a3.53,3.53,0,0,0,2.93-.44,3.51,3.51,0,0,1,4.18.44c1.6,1.26,1.59,2.81-.23,3.68-1.36.65-1.19,1.24-.78,2.36,7.08,19.19-5.25,41.26-25.22,44.59-10.53,1.75-20.15-1-28.53-7.83-3-2.46-6.07-5-9.31-7.15-4.42-3-9.06-3.29-13.53,0-1.44,1.07-2.18,1.06-2.78-.77-.72-2.2-2-4-4.69-3.27-2.51.67-4.09,2.25-3.57,5.13.25,1.38-.4,1.8-1.67,1.9-2.52.21-3.07,1.15-2,3.6.7,1.54,1.4,2.78-1,3.25-.64.12-.76.65-.73,1.3.2,4.15,5.58,8.56,9.72,7.95,2.36-.35,6.47-4.13,6.95-6.71-2.1,1.66-5.09.62-6.59,3.17a1,1,0,0,1-1.49.29,1.22,1.22,0,0,1-.49-1.48,22.78,22.78,0,0,1,1.06-2.17c-.61-.75-1.28-.22-1.88-.27s-1.72-.27-1.63-.77a24.13,24.13,0,0,1,1.51-5.51c.55-1.2,2.47-.14,3.52.94a2,2,0,0,0,.68.3c.38-.28.28-.53.07-.74-.76-.75-1.41-1.53-1-2.7a1,1,0,0,1,1.1-.69,2.37,2.37,0,0,1,2,2.32A3.22,3.22,0,0,0,150,228.6c7.91,3.06,4.5,13.32-.85,15.94-6.13,3-14.81.17-18.63-6.37-3.45-5.92-2.92-12.1,1.52-17.4a3.71,3.71,0,0,0,1.26-3.12c-.18-1.84,1.42-3.15,2.88-4.19,7.23-5.19,14.78-3.93,22.39-1,.93.35,1.71,1.15,2.9,1,0-.27.11-.6,0-.76-12.29-15.74-14.93-33.32-10.08-52.35a176,176,0,0,1,14.9-38.24,13.53,13.53,0,0,1,2.4-3.31c-2.09,4.24-4.13,8.48-6,12.79-5.36,12.26-10,24.73-12,38-2.55,16.91,2.82,31.42,13.48,44.28,1.47,1.77,3.39,3.15,4.84,5.09-2.45-1.37-5.08-2.24-7.39-3.72a27,27,0,0,0-17.1-4.09,14.05,14.05,0,0,0-8.84,4.35c-.39.38-1,1.12-.87,1.35,1.53,2.78-1.05,3.7-2.31,5.12-5.69,6.4-3.28,16.76,4.94,21,5.19,2.68,10.1,2.23,13.38-1.3.46-.5,1.8-1.06.66-1.92-.76-.58-1.55-1.56-3-.78-7.59,4.23-14.11,1.26-16-7.23-.21-1-1-2.36,1.12-2.32,1.28,0,1-.83.74-1.56a7.27,7.27,0,0,1-.21-3.59c.14-.75.5-1.93,1-1.85,3.19.46,2.52-2.2,3.31-3.74,1.07-2.12,3-2.94,5.29-3.09a4.42,4.42,0,0,1,4.44,2.8c.45.89.55,2,2.12,1.12,6.51-3.66,12.21-1.54,17.5,2.73,3.19,2.57,6.21,5.38,9.71,7.55,12.66,7.86,28.55,8,40.51-3.45,6.44-6.14,8.8-14.35,9.49-23a31.27,31.27,0,0,0-.21-6c-.3,3-.15,6.11-1.08,9.07-1.37-.09-.5-1.49-1.32-1.89A66.62,66.62,0,0,1,223,214.92c-3,9.41-9.2,15.38-18.8,17.72-3.36.82-4.81.18-6.47-2.84-1.35-2.44-2.52-5-3.76-7.48.81-1.49,1.53-.37,2.2.12a11.43,11.43,0,0,0,6.09,2.59c1.2.07,2.24-.14,1.4-1.69-1.2-2.22-.36-3.89,1.17-5.53,1-1,2.25-2.48,1.69-3.65-1.64-3.45.95-3.52,2.91-4.22a9.91,9.91,0,0,0,6.09-5.28c-3.43.68-5.82-.41-8.16-1.92s-4.71-2.74-7.6-1.64c-1,.39-1.71.77-.7,2,.45.53.4,1.47.84,2,2,2.5.79,3.57-1.73,4.22-.66.17-1.66.18-1.72,1.13,0,.73.81,1,1.33,1.3,1.73,1.15,2.34,2.25.4,3.89-2.19,1.86-3.69.15-5.14-.91-1.76-1.3-2.43-.81-2.71,1.08-.22,1.47-.36,3-.6,4.43-.1.61-.13,1.41-.94,1.56a1.46,1.46,0,0,1-1.54-1c-1.09-2.88-4-4.34-5.35-7.06-2,5.41,1.52,11.46,6.92,12.16,1.3.17,1.59-.51,1.86-1.51.42-1.56.7-3.22,2.22-4.57Zm-38.84-42.75a13.32,13.32,0,0,0,2.7-8.27c.11-3.4,1.49-5.89,3.4-8.53a14.81,14.81,0,0,0,1.65-15.34c-.27-.63-.36-1.65-1.3-1.57-.73.06-.76,1-1,1.55a82,82,0,0,0-5.43,19.88C154.66,171.26,153.87,175.3,155.17,179.57Zm24.56,19c5,.64,5.64,1.82,3.7,6.31a3.39,3.39,0,0,0,.23,3.69,3.14,3.14,0,0,0,3.51,1,9.78,9.78,0,0,0,6.35-4.2c1.95-2.91,1.25-4.7-2.19-4.79a7.82,7.82,0,0,1-5.64-2.45C183.57,196.09,182.19,196.25,179.72,198.56Zm18,15a7,7,0,0,0-3.55-2.41c-.46-.14-.93-.37-.93-.9s.46-.79.91-.94c1.24-.41,2.5-.76,3.73-1.18.62-.21,1.52-.55,1.14-1.27-.59-1.1-.65-2.63-1.95-3.21-.9-.4-1.26.46-1.64,1.12-2.31,4.05-5.69,6.34-10.46,6.23-1.58,0-2.06,1.15-1.35,1.9,1.86,2,3,4.46,4.81,7.11.52-2.78.83-4.88,1.32-6.94.34-1.4,1.29-2,2.36-.67C193.63,214.2,195.36,214.42,197.75,213.56Z"/><path class="cls-1" d="M371,205.56c6.37,3.91,12.5,8.1,17.77,13.49,16.84,17.22,21.86,37.45,15.42,60.51-2.26,8.09-5.2,16-10.25,22.86-10.29,14.07-24.14,18.3-40.92,15.44-16.62-2.84-24.06-19.57-22.17-33,1.79-12.69,8.45-20.06,19.72-22.48s22.13,3.64,24.86,14.17c1.63,6.3.93,12.4-4.07,17.38-4.5,4.48-9.83,5.51-15.73,3.89a11.24,11.24,0,0,1-8.57-9.07c-.87-4.5-.26-8.75,3.73-11.88a10.73,10.73,0,0,1,10.86-1,8.2,8.2,0,0,1,4.25,8.19c-.48,4.48-4.59,7.31-8.51,5.73a3.43,3.43,0,0,1,.77-.29c4.89-.43,7.63-3.23,6.92-7.08a8.21,8.21,0,0,0-9.72-6.62,9.69,9.69,0,0,0-7.7,8.9,11.24,11.24,0,0,0,5.51,10.92c7.32,4.55,17.52.79,20.69-7.25,5.25-13.3-6.1-25.26-17.49-25.23-14.15,0-24.32,10-24.66,24.13-.22,9.42,2.58,17.38,9.58,23.83,3.88,3.58,8.58,5.19,13.62,6,14.71,2.32,27.08-1.74,36.58-13.56,6.53-8.13,10-17.68,12.44-27.59,3.94-16,1.88-31.2-7.24-45.07a69.19,69.19,0,0,0-34.6-27.64,81.51,81.51,0,0,0-29.26-5.5C314.92,198,299.09,204,285.05,215c-8.3,6.49-15.22,14.58-23.94,20.6-8.18,5.64-16.53,10.9-26.18,13.66-10.4,3-20.72,1.27-31-.79-2.81-.56-5.58-1.32-8.43-2-.14,1.26.82,1.3,1.36,1.62,11.59,7.06,21.28,16,28.08,27.9,5,8.66,7.19,18.11,8.36,27.94,1.52,12.87-2,25.19-3.62,37.72-1.56,11.83-3.07,23.64-3.84,35.57a259.71,259.71,0,0,0-.35,26c.62,17.18,3.24,34,11.25,49.52,10.51,20.38,27.63,31,50.12,33.27a115.39,115.39,0,0,0,48.87-5.16c16.58-5.54,29.2-16,37.44-31.41,4.89-9.15,7.21-19.19,8.28-29.47a122.61,122.61,0,0,0-2.2-37.81c-2.39-11.52-8.18-21.41-15.38-30.45-11.26-14.12-26-22.39-43.91-24.94-12.52-1.79-24.83-.7-36.4,4.61-10,4.58-17,12.33-21.41,22.35-6.41,14.5-8,29.43-3.49,44.77,3.45,11.83,11,20.4,22.21,25.15,13,5.48,26.41,7.86,39.83,1.35,15-7.26,23.82-19,25.09-36,.62-8.24-.77-16-5.16-23-6.3-10.14-15.25-16-27.28-17.19a30.47,30.47,0,0,0-23.17,6.8c-9.59,7.78-13.22,23.46-6.77,34,8.51,13.91,25.63,14.39,33.73,5.48,6.56-7.22,6.4-18.09-.47-24.07-7.19-6.25-17.61-3.84-20.64,4.77a9.81,9.81,0,0,0,3,10.89c3.39,2.57,7.31,2.54,11.06-.06.12-.08.32,0,.83-.05a7.35,7.35,0,0,1-7.49,2.88c-4.6-.68-8.13-4.1-8.57-8-.72-6.42,1.88-11.41,7.08-13.58,9.32-3.9,20,2.73,20.92,12.92,1.14,13.27-10,23.18-23.2,21-18.33-3-24.65-21.4-18.12-36.38,6.18-14.2,20.62-20.66,36.19-17.27,16.78,3.65,28.08,17,29.3,34.14,1.29,18-5.81,31.8-20.85,41.38-9.8,6.24-20.61,7.54-32,5.36-12.46-2.37-23.24-7.37-30.87-17.91-5.2-7.18-7.42-15.46-8.11-24.11a67.06,67.06,0,0,1,5.48-33.07c6.85-15.36,18.5-24.75,35.07-27.8a73.69,73.69,0,0,1,36.76,2.13c17.9,5.86,30.78,17.65,40.16,33.76,6.81,11.7,9.36,24.35,10.29,37.66a107.56,107.56,0,0,1-3.68,37.92c-6.32,21.73-20.39,36.4-41.58,43.93a110.92,110.92,0,0,1-58.75,4.5c-21.72-4.15-36.71-17-45.46-37.17-5.37-12.38-7.63-25.47-8.75-38.85a215.89,215.89,0,0,1-.41-22.93,375.93,375.93,0,0,1,4.09-44.23c1.39-9.78,3.78-19.46,4.07-29.35.5-17.15-4-32.83-15.1-46.29A83.61,83.61,0,0,0,184,243c-.67-.27-1.46-.41-1.74-1.52,1.3-.81,2.46.06,3.55.46A138.07,138.07,0,0,0,217,249.36c11.09,1.31,21.11-1.41,30.62-6.65,11.1-6.11,20.74-14.12,29.92-22.85,13.7-13,29.8-21.19,49-22.9,13-1.16,25.23,1.24,37.24,5.75a20.59,20.59,0,0,0,5,1.7Z"/><path class="cls-1" d="M186.73,102.48a1.83,1.83,0,0,1-1.8-1.45c-.39-1.16-.92-2.22-1.65-.14-.15.42-.82.57-.84.31-.22-2.94-5.54-2.72-4.34-5.58.62,2.38-2.64,3.23-4.28,5.21-4.89,5.9-8.13,12.71-11,19.69-1.76,4.22-3.25,8.54-4.89,12.81-.28.73-.24,1.7-1.59,2.07-.33-3.07-.45-6.1-1-9.05-3.58-19.09-13.94-32.51-32.87-38.43a42.53,42.53,0,0,0-22.94-.53c-1.78.43-3.1.62-4.08-1.5s-3.19-2.09-5.16-1.7c-2.19.43-3.13,2.11-3.63,4.17-.21.89.68,2.46-.75,2.54S84,89.56,83.7,88.32s.61-2.86-.91-3.17-2.71,1-3.67,2.19-1.92,2.52-2.93,3.75a.7.7,0,0,1-1.19,0c-.36-.54,0-.77.54-.94,1.1-.33,1.36-1.47,2-2.26,1.27-1.64,2.6-3.2,4.66-3.87.79-.26,1.67-.79,2.41-.26.94.67,0,1.52-.09,2.29-.18,1.21-.31,2.39.85,3.24.74-.34.5-1,.56-1.49a5,5,0,0,1,3.87-4.61c2.45-.66,4.72-.27,6.28,1.85.89,1.21,1.68,1.73,3.23,1.34,23.62-6,49.84,8.13,56.22,35.56.62,2.67,1.13,5.37,1.83,8.75,1.47-3.67,2.59-6.71,3.9-9.67,1.67-3.75,3.4-7.48,5.27-11.13,3.64-7.11,3.39-14.46,1.26-21.82-1.38-4.78-5-7.57-9.7-8.81a8.16,8.16,0,0,0-9.48,4.11,7.8,7.8,0,0,0,1.65,9.7,7.58,7.58,0,0,0,6,1.78A4,4,0,0,0,159.43,89a2,2,0,0,0-1.77-1.17.83.83,0,0,0-.93.83c0,.91.87.73,1.32,1.07,1.53,1.18.33,2-.63,2.65A5.48,5.48,0,0,1,150,90.89a6.34,6.34,0,0,1,2.21-8.11c3.71-2.22,9.49-.6,12.06,3.39,3.59,5.58,3.43,11.66,2.29,17.85-.23,1.25-.89,1.87-2.17,1-.65-.42-1.3-.89-2-.14s0,1.37.33,2a5.38,5.38,0,0,1,.54,2.71c.09,5.42-3.36,9.43-5.11,14.25-1.39-.82-1.28-1.87-1.5-2.72a82.36,82.36,0,0,0-21.61-38.57c-1.37-1.37-1.09-1.92.6-2.35a23.51,23.51,0,0,0,8.68-3.7c-3.51,1.16-7,2.19-10.78,1.93a5.79,5.79,0,0,1-4.94-2.69c-1.28-2.08-2.06-4.36-.56-6.57,1.71-2.53,4.32-3,7.3-2.15-2.43-2.79-2.93-2.71-8.29,1.17.32-3.64.81-7.18-1.33-10.37a6.53,6.53,0,0,0-8-2c-2.68,1.17-4.16,3.81-3.49,6.28.45,1.65,1.33,3,3.16,3.1a3.49,3.49,0,0,0,3.35-2.14c.8-1.54-.3-2.65-1.2-3.72a22.56,22.56,0,0,0-1.8-1.68,4.49,4.49,0,0,1,5.46.66c2.81,2.31,3.58,5.34,2.73,8.82a15.41,15.41,0,0,1-10,11.21c-7,2.73-14.29,2.61-21.55,2.12a22.31,22.31,0,0,0-14.33,3.54c-.31.2-.62.41-.93.6-.06,0-.16,0-.71-.13,3.65-3.55,7.92-4.76,12.48-5,3.72-.18,7.41.74,11.16.52,4.88-.29,9.69-.92,14.15-3,4.65-2.13,8-5.52,8.76-10.82.48-3.2-.38-5.17-3.21-7.2.28,1.9,1,3.59-.17,5.19-1.77,2.35-4.45,3-6.59,1.4a6.1,6.1,0,0,1-1.21-8.06,8.33,8.33,0,0,1,8.56-3.44c4,.82,5.5,3.8,6,7.24.31,2.37.71,3.07,3.29,2.55,3.37-.69,6.49,2.58,6.44,6.12,0,1.41-.35,2.65-1.85,3.11a3.25,3.25,0,0,1-3.64-.69c-1.07-1.2-.56-2.42.23-3.57.15-.22.27-.47.57-1-2.26.23-4.13.82-4.65,3A4.84,4.84,0,0,0,131,76.23a8,8,0,0,0,6,.91,24.78,24.78,0,0,0,16.15-9.19c.44-.56,1.22-1.16.82-1.93s-1.34-.41-2.05-.46a7.21,7.21,0,0,1-4.63-1.69c-2.26-2.06-2.36-3.57-.16-5.76,1.1-1.1,1.67-2.52,2.79-3.68,2.81-2.93,6.23-2.45,9.57-2.76,2.43-.23,4.38,2.27,4.08,5.22a10.13,10.13,0,0,1-2.47,5.24c-.61.78-1.43,1.7-.22,2.65,1,.78,1.89,1.13,2.68-.38a1.55,1.55,0,0,1,2.4-.58c1.36,1,.71,2.08-.17,3.26a15.77,15.77,0,0,0,14.87-4,4.37,4.37,0,0,0-.79-7.33c-.62,1.12.11,1.95.57,2.83.31.59.62,1.23,0,1.8s-1.33.34-2-.13a4,4,0,0,0-1.47-.74c-2.54-.47-3.52-2.11-3-4.46s2.68-2.73,4.63-2.74a6.33,6.33,0,0,1,6,6c.24,4.18-1.26,7.6-5,9.61-2.58,1.39-5,2.82-6.33,5.76a3.59,3.59,0,0,1,2.72,4.65,4.22,4.22,0,0,1-3.88,3.49c-2.4.31-4.48-.29-5.68-2.61a5.85,5.85,0,0,1-.85-2.34c-.09-3.74-3.5-5.57-4.88-8.59a1.87,1.87,0,0,0-3.41-.19c-4.53,7-11.67,10.2-19.12,12.85-1.55.55-2.09.88-.7,2.31,10,10.26,16.28,22.62,20,36.37.09.35.25.68.6,1.64,1.66-3.63,3.28-6.66,4.05-10.14.71-3.19-2.28-4.08-3.41-6.11-.08-.13-.92,0-1.29.22-2.44,1.47-2.89.13-2.86-2,.05-4.54,3.43-7.06,7.58-6.1A1.24,1.24,0,0,1,163,99c-1.27,1.77.23,2.58,1,3.67.89,1.27,1.67.93,1.77-.37.41-5.42.81-10.89-2.69-15.62a8.41,8.41,0,0,0-8.53-3.64c-2.64.43-3.68,2.47-3.93,4.82a3.71,3.71,0,0,0,2.82,4c1.52.5,3,.64,2.13-1.86-.47-1.36-.33-2.71,1.34-3.13a2.88,2.88,0,0,1,3.72,1.62c1.64,3.66-.53,7.09-4.55,7.3-3.64.19-6.72-.8-8.56-4.11-2-3.55-1.36-7.08.83-10.31s5.32-4,8.88-3.47c7.28,1,12.44,7,12.71,14.82.08,2.19,0,4.38,0,7.24,2.23-2.25,2.09-4.67,3-6.56,1-2.09,3.61-2.34,5.59-3,.27-1.11-1.65-1.56-.65-2.54a2.87,2.87,0,0,1,3.43-.23c2.32,1.23,4.39.57,6.32-.7,1.77-1.17,2.47-2.88,1.12-4.79-.73-1-.92-1.78.14-2.6a2.31,2.31,0,0,1,3.07.06c3.59,2.63,5.21,3.94,6.43,7.79.69,2.17,1.7,4.75.48,7.25a1.79,1.79,0,0,0,0,2.1c.65.73,1.4.24,2-.08C210.43,92,220,87.5,227.28,79.5c12.58-13.91,7.49-30.47-6.58-38.17-10.35-5.66-23.91,2.69-23.29,13.9.5,9,9,14.53,16.55,10.76,3.35-1.68,5.58-5.58,5.11-8.93a7.88,7.88,0,0,0-6.42-6.87c-3.3-.55-6.86,2.1-7,5.24a5,5,0,0,0,3.24,5.09,3.5,3.5,0,0,0,4.26-1.2c1.56-1.78.78-3.44-.9-5.12,1.88.56,2.11.75,2.36,2a4,4,0,0,1-1.14,4.1,5,5,0,0,1-5.23,1,5.11,5.11,0,0,1-3.55-4.3,6.36,6.36,0,0,1,4-7.23,8.32,8.32,0,0,1,9.64,2.36,10,10,0,0,1-5.16,15.62c-6.29,1.86-12.16-.43-15.1-5.89-3.39-6.31-2-14.17,2.77-18.49,8.47-7.67,22.54-6.73,30.71,5.79,7.64,11.71,3.64,25.66-5.69,33.77C213.32,93.81,198,99.46,183,105.52a15.3,15.3,0,0,0-2.36,1,90.32,90.32,0,0,1,10,1.52c17.7,3.87,30.09,14.18,37.26,30.79a15.06,15.06,0,0,1,1,8c-.48,3.8-3.16,6.25-7.37,6.77-4,.48-7.15-1.35-8.5-4.88a6.51,6.51,0,0,1,2.16-7.27,5.21,5.21,0,0,1,6.5-.19,4.25,4.25,0,0,1,2,4.59,4,4,0,0,1-3,3.38,3.15,3.15,0,0,1-3.81-1.62,2.72,2.72,0,0,1,.51-3.59c1.13-1,2.35-.83,4.06.63-2.12-.42-4-1-4,1.4a2.12,2.12,0,0,0,2.49,2.1c1.88-.2,2.69-1.57,2.6-3.38a3.89,3.89,0,0,0-5.14-3.23,5.53,5.53,0,0,0-3.52,6.25,6.85,6.85,0,0,0,7.25,4.92,7.6,7.6,0,0,0,6.76-8.95c-1.32-7.88-5.77-14.16-11-19.77-9.86-10.56-22.32-15.56-36.7-15.92a24.89,24.89,0,0,1-5.06-.4c3.68-2.33,8-3,11.68-5.22,2.44-.91,4.89-1.79,7.32-2.74,3.6-1.41,3.79-2.16,1.38-5.1-.29-.36-.56-.74-.84-1.11.72.18,1.43.38,2.15.52s1.58-.48,1.32-1c-.92-1.7-.35-3.67-.91-5.21a11.22,11.22,0,0,0-6.69-7.12c0,1.78.54,3.49-.1,5.31.75-.28,1.54-.77,1.69-.61,1.24,1.25-1.12,2-.56,3.12.45.92,3.2.05,1.92,2.34a7.62,7.62,0,0,1-1.88,2A23.21,23.21,0,0,1,189,94.52l.79.74c1.73-.17,2.73-2.34,4.74-1.74-1,.72-1.85,1.82-2.93,2.08C187.89,96.5,187,99.2,186.73,102.48ZM167.31,78c2.16-5.55,7-8.22,11.28-11.55-4.31,1.95-8.7,3.12-13.44,1.77-.81-.23-1.94-1.25-2.49-.28s.33,2.19,1.21,2.86a6.94,6.94,0,0,1,2.84,5.48A6.3,6.3,0,0,0,167.31,78Zm-6.47-20.74c0-.76-.07-1.6-1-1.29a3,3,0,0,1-2.83-.65,1.56,1.56,0,0,0-2.07,0c-1.5,1.77-4.19,2-5.29,4.29-.23.47-1.45.51-.85,1.37a3.42,3.42,0,0,0,1.8,1.21c1,.25.76-.71,1-1.24a10.7,10.7,0,0,1,2.1-3.09c1.23-1.09,2.7-1.37,3.7.47.37.67.22,2,1.44,1.64S160.58,58.46,160.84,57.31Z"/><path class="cls-1" d="M137.44,142.8l-4.23,3c0,.77.45.61.79.61,2.31,0,4.6,0,5.1,3.08s-.7,5.45-3.45,6.61a6.19,6.19,0,0,1-7.19-1.19c.76,2.84,2.45,3.89,5.21,3.25,2.19-.51,4.31-1.58,5.75,1.33a7.35,7.35,0,0,1-1.25,8.54,7.53,7.53,0,0,1-6.69,2.11,3.31,3.31,0,0,1-3-3.18c-.09-.81-.12-1.62-.2-2.72-1.53,3.23-.72,5.46,2.54,7.62,2.25,1.5,2.28,2.15.21,3.86-4.44,3.67-9.29,2.34-12.77-.55-2.08-1.73-2.26-4.35-1.42-6.73a10.45,10.45,0,0,0,.45-6.43c-7.61,1.57-10.29,10.56-5.13,17.22.59.76,2,1.32,1.47,2.42s-2,.81-3.08.9c-5.24.42-9.73-1.54-13.76-4.59C91,173.65,85.42,169.1,84,161.37a31.67,31.67,0,0,1-.07-7.36,18.89,18.89,0,0,0,.48,12.23c.7,1.67,1,3-.61,4.46-1.38,1.2-1.28,3-1,4.73.24,1.28.64,2.54.82,3.83.54,4-1.63,7.24-5.09,7.75-3.77.57-6.15-1.51-6.79-5.92-.9,4.43,3.52,8.78,8.11,7.27,5.1-1.68,9.84-4.52,15.52-3.32,3.42-2.41,6.83-1.17,10.34-.12,8.77,2.62,16.74.05,24.45-4,1-.53,2.08-2,3.14-1.14.87.7-.24,2.06-.51,3.1-1.21,4.74.42,8.84,4.32,10.71,2.77,1.33,5.79.34,7.74-2.54,2.07-3.06,1.89-6.29-.48-8.38a2.92,2.92,0,0,0-4.27-.06,2.78,2.78,0,0,0-.43,4.2c1,1.38,2.25,1.51,3.58.33.46-.41,1-1.08,1.66-.48a1.68,1.68,0,0,1,.26,1.84c-.7,2.43-2.23,4.21-4.76,4.58a5.64,5.64,0,0,1-6-3.19c-1.9-3.47-.77-8.82,2.55-12.71,3.87-4.53,7.71-9,10.51-14.41,5-9.71,5.58-20,4.88-30.54-.59-9-2.78-17.53-8.46-24.79-6.79-8.69-15-15-26.6-15.61a19.21,19.21,0,0,1-4.32-.84c9.33-.11,17.88,2,25.09,8.42,9.56,8.57,14.17,19.3,15.22,32,1,11.68.08,22.89-5.51,33.43a54.81,54.81,0,0,1-8,10.74c-2.38,2.66-4.62,5.37-5.21,9.08a7.39,7.39,0,0,0,.49,4.11c1.6,3.82,5.41,4.29,8.07,1-.21-.85-.9-.42-1.39-.48a4.21,4.21,0,0,1-3.9-3.79,3.94,3.94,0,0,1,2.3-4.38,4.27,4.27,0,0,1,5.37.91c2.34,2.31,2.59,6.07.68,9.34a7.79,7.79,0,0,1-8.3,3.79c-4.61-1.2-7.17-5.32-6.48-10.9.26-2.08,0-2.66-2-1.55a32.53,32.53,0,0,1-28.34,2.15,3.79,3.79,0,0,0-3.19.48,9.21,9.21,0,0,1-7.58.68c-1.7-.66-2.83.3-4.1,1.08-3.6,2.21-7.32,3.84-11.59,1.84-3.37-1.58-4.72-4-4.36-7.94A6.16,6.16,0,0,1,75,175.08c1.68-.5,3.22-.42,4.2,1.18a3.9,3.9,0,0,1,0,4.49c-1,1.37-2.55,1.42-4.08,1a20.8,20.8,0,0,1-2.08-.78c.25,3.35,1.79,5,4.5,4.87a5.06,5.06,0,0,0,4.92-5.08,16.23,16.23,0,0,0-.57-3.86c-.64-2.56-.64-5,1-7.22.93-1.26.39-2.48,0-3.73A23.27,23.27,0,0,1,83,151.92c1.67-5.14,6.15-8.64,10.87-8.61a8.94,8.94,0,0,1,8.75,8.46c.05,2-.39,4-2.9,4.43-2,.32-3.88-.11-4.48-2.34a4.14,4.14,0,0,1,2.34-5.12c.54-.28,1.54-.13,1.54-.94,0-1-1-1.27-1.72-1.61-4.64-2-10.42,1.63-11.85,7.19-2.12,8.24,1.14,14.33,7.22,19.48.9.76,1.34.6,2-.31a2.07,2.07,0,0,1,3.36-.52c1.17,1,.49,2-.16,3.17-1.75,3.18,1.88,2.3,2.85,3.65.28-1.84,0-3.88,2.55-4.06,1.21-.09,2.3.26,2.64,1.57.5,1.91-.7,2.92-2.29,3.68a5.19,5.19,0,0,0,2.89,1.15c1.55.28,3.59.89,4.56-.16s-.9-2.32-1.45-3.52c-3.16-6.87-1-13.16,5.69-16.41,1.17-.57,2.33-1.22,3.72-.83-.54,1.68,1.29,3.1.5,4.8-.39.85-.84,1.67-1.2,2.53-1.44,3.51-.68,5.91,2.47,7.91,2.91,1.85,7.2,1.42,9.32-.85,1.15-1.24,0-1.63-.71-2.07-2.85-1.76-3.58-4.4-3.15-7.5a3.82,3.82,0,0,1,2.64-3.32c1.13-.38,2.64-1.12,3.38,0s-1,1.39-1.64,2.06c-.95,1.06-1.54,2.1-.92,3.52a2.86,2.86,0,0,0,2.95,1.68,6.44,6.44,0,0,0,6.36-6.45c-.08-2.8-1.56-4-4.26-3.35-5.18,1.2-9.14-2.11-8.59-7.18.06-.54,0-1.22.62-1.43s1,.4,1.25.86a22.6,22.6,0,0,0,1.36,2.12,4.7,4.7,0,0,0,7.93-.78c1.45-2.72.26-4.87-2.8-5-1.11,0-2.23.13-3.35.16-.94,0-2.32,1-2.69-.3-.33-1.14,1.29-1.33,2.11-1.84a28.28,28.28,0,0,0,10.88-11.37c3.52-7.1,1.93-18.29-3.31-24.25-1.4-1.6-2.51-2.27-3.45.35-.37,1-1,2-1.74,3.59,2.44-1.58,3.36-.05,4.4,1.29,5.72,7.4,3.53,15.95-5.17,19.31-2.26.87-3.26,2.63-4.64,4.2a1.31,1.31,0,0,0-.09,1.53,5.93,5.93,0,0,1-3.86,8c-3.28,1-6.3-.71-7-4.47-.56-3.05-2.06-5.48-3.4-8.16-1.71-3.44-3.45-5.62-7.06-7.09-3-1.23-4.19-4.61-4.89-7.8s-1.52-6-4.93-7.24c-1.42-.52-1.16-1.51-.11-2.31a6.51,6.51,0,0,1,3.67-1.2,14.15,14.15,0,0,1,6.31,1c2.44,1,4.45,1.89,6.24-1.19.81-1.4,2.87-1.57,4.61-1.54,2.76.06,4.35-1.11,4.66-4,.24-2.22,1.16-2.47,2.94-1.09,2.07,1.62,3.26,3.47,5.19,8.09,3.11-4.71,2.45-7.43-2.48-10.09-8-4.32-23.17-2.18-29.81,4.11a10.62,10.62,0,0,0-3.23,7.21c-.28,3.29-2.06,4.2-4.74,2.3-.68-.49-1-.92-1.82-.21a7.57,7.57,0,0,0-.21,10.8,4.26,4.26,0,0,0,5.86.19,3.55,3.55,0,0,0,1.18-4c-.44-1.53-1.74-1.44-3-1.35-.62.45-.11.83,0,1.21.51,1.32.09,2.24-1.27,2.54a1.92,1.92,0,0,1-2.56-1.85,4.57,4.57,0,0,1,3-4.85,5.87,5.87,0,0,1,7.14,2.21c1.44,2.64.45,6.94-2.05,8.87-5.52,4.27-12.49,1.84-14.3-5a20,20,0,0,1,1.21-14.18c4.14-8.63,10.32-14.93,20-17.09a27.61,27.61,0,0,0-9.37,5.23c-4,3.47-7.64,7.18-9.74,12.1-2.38,5.58-2.83,11.21.43,16.66,1.39,2.33,3.47,3.74,6.28,3.32,3.05-.46,5.81-1.52,6.87-4.9,1.35-4.31-1.3-7.1-5.83-6.11,0,.15.08.42.15.43,1.7.26,3.75,0,4.23,2.34.43,2.12.24,4.14-1.74,5.51s-3.91,1.79-6.06.65A7.64,7.64,0,0,1,84.68,118,21.62,21.62,0,0,1,87,113.81c1.7-2.52,2-2.5,3.73,0a1.67,1.67,0,0,0,1.62.87c.91-.1.88-.79.89-1.46.05-5.72,3.13-9.35,8.08-11.7a33.54,33.54,0,0,1,24.24-2.13c.45.13.89.27,1.33.44,6.72,2.57,8.27,8.8,3.55,14.3-.36.41-.7,1-1.36.67s-.59-.93-.56-1.47c.13-3-1.4-5.35-3.24-7.51-1-1.13-1.89-1.67-2.43.42-.65,2.54-2.47,3.57-5,3.61-2.77,0-5.17.65-6.14,3.76-.54,1.73-1.76.88-2.73.43-2.46-1.15-4.9-2.33-7.67-2.47-1,0-2.29-.25-2.83.75s.78,1.51,1.36,2.1c1.82,1.83,2.32,4.2,2.91,6.56.79,3.17,2.1,6,5.17,7.62,1.11.58,2.23,1.29,2.28-1.07,0-1.7,1.53-3.06,1.73-4.9.13-1.2,1.41-1,2.32-.66a26.35,26.35,0,0,1,2.59,1c1.48.67,2.16.34,1.84-1.37a6.36,6.36,0,0,1-.2-1.1c0-1.25-.6-2.74.85-3.54,1.07-.59,4.61,1,5,2.21a14.79,14.79,0,0,1,.8,3.81c.09,2.19,1,2.14,2.38,1,1.76-1.38,3.48-2.81,5.22-4.21.51-.41,1-.92,1.73-.54a1.2,1.2,0,0,1,.65,1.43c-1.6,3.74.09,7.81-1.31,11.59,7.62-3.85,6.5-11.2,2.34-16.21-.93-1.11-1.69-.6-2.61.09-1.13.85-2.66,2.53-3.78,1.38s1-2.3,1.63-3.42a27.87,27.87,0,0,0,3.14-6.23c.62-2.07,1.5-2,2.91-.69,9.23,8.81,9.83,24.67,1.28,34.08-.44.48-.83,1-1.25,1.51ZM125,146.37c-2.69-.1-3.83-.91-3.91-3.06-.1-2.43.57-3.86,3.24-4.2a4.4,4.4,0,0,0,3.94-3.82c.39-2.26-1.26-3.37-2.89-4.33a11.27,11.27,0,0,0-9.17-1.12c-3.61,1.05-4.37,3.31-1.67,5.88a8,8,0,0,1,2.9,6.54,6.73,6.73,0,0,0,1,3.16C119.69,147.81,121.71,148.23,125,146.37Zm-5.3-27.6a10.53,10.53,0,0,0,.92,4.84c.28.81,1.47,1.61.51,2.46s-1.72-.19-2.54-.54a9.85,9.85,0,0,1-1-.57c-1.28-.74-2.55-1.94-4-1.64s-.41,2.23-1.33,3.09a1.51,1.51,0,0,0-.11,2.23c.61.88,1.34.78,2.21.5,6.27-2,11.67-.92,15.86,4.71.76-1.06,2.06-2,1.94-2.83-.51-3.46.77-6.59,1.63-10.31-2.81,2.1-4.83,4.34-7.58,5.57-1.05.47-2.4.69-2.14-.86C124.67,122,122.3,120.59,119.72,118.77Z"/><path class="cls-1" d="M89.77,197.47c2.54-3.38,7.38-4.22,12.19-2.55,2,.7,4,1.58,6.12,2.45-.07-1.89-.77-3.55.67-5.3,2.36-2.87,5.28-3.75,8.72-3.69.55,0,1.1.21,1.66.25,1.38.11,3-.14,3.48,1.63a6.38,6.38,0,0,1-.65,5.63c-.61.88-2.72,1.26-1.61,2.69s2.74.78,4.17.2a11.73,11.73,0,0,0,1.36-.75c.31-.92-.44-1-.8-1.36a3.56,3.56,0,0,1-.7-4.37,3.11,3.11,0,0,1,3.17-1.88,3.61,3.61,0,0,1,3.57,2.62,4.92,4.92,0,0,1-.05,3.83c-1.06,2.17,0,2.86,2,3a15.42,15.42,0,0,1,2.75.51c2.46.67,4.68,1.31,4.84-2.61.06-1.58,1.65-2.41,3.24-2.65a4,4,0,0,1,3.78,1.35c.37.41.79.94.54,1.5-.32.72-1,.37-1.43.14-1.52-.72-2.69-.08-3.91,1.1-.3-1.77,1.25-2.1,2.36-3.21-2.62.2-4,1.42-3.71,3.4.42,3.26-.91,3.46-3.38,2.51a9.72,9.72,0,0,0-1.39-.28c.16,1,.59,2-.24,2.85,2.66-.94,5.36.34,7.91-.4.36-1.11-1-1.36-.8-2.72,3.51,3.59,8.45,4.13,12.9,6.85-1.86.44-2.91-.28-4-.6-3.93-1.17-7.85-2.45-12-2.59-1.54-.05-3.21.06-2.22,2.52.59,1.46-.37,2.28-1.64,2.72a2.35,2.35,0,0,1-3.25-1.28,3,3,0,0,1,0-3c2.07-3,.29-3.31-2.18-3.65-6.24-.87-12.41-1.39-18.75,1.47,1.25.72,2.33.42,3.33.48,6.1.4,10.73,4.22,12,10,1.23,5.57-2.47,10-8,9.72a6.94,6.94,0,0,1-6.15-9.48c.83-2.24,4.33-3.21,6.13-1.68a2.44,2.44,0,0,1,.81,2.78,1.66,1.66,0,0,1-2.31,1c-2.54-.79-2,.77-1.5,2a3,3,0,0,0,3.92,1.79c2-.52,3.29-1.68,3.36-3.91a8.61,8.61,0,0,0-8.74-8.47c-7.64,0-15,1.79-21,6.94-2.82,2.42-3.26,5.45-1.81,8.64a5.14,5.14,0,0,0,5.18,3.11c2.25,0,3.21-1.49,3.89-3.27-.64-.67-1-.17-1.33,0-2.84,1.6-5.78,1-7-1.41s.25-6.16,3-7.26c2.1-.84,4.37-1.54,6.32.29a9.71,9.71,0,0,1,2.94,8.67,7.77,7.77,0,0,1-7.25,7c-4.61.36-7.86-1.59-9.24-5.56-2.28-6.51-.22-12,5.93-15.4,2.11-1.17,4.43-2,6.57-3.11s4.77-2.19,4.92-5.17c.09-1.67-3.13-3.08-6.56-3.25A9.33,9.33,0,0,0,93.41,200c-.93.7-2.76,1.11-1,2.77a.67.67,0,0,1,.12.51c-.2,1.62-3-1-3,2,0,1.56-2.16.58-3.19-.39a4.09,4.09,0,0,0-4.93-.52C80.1,205.07,79,206.16,80,208c.36.71-.07,1.25-.72,1.59a1.75,1.75,0,0,1-1.85-.13c-4.16-2.57-5.26-11.06-2-14.91,1-1.13,1.61-1.73,2,.34.3,1.6,1.28,2.1,2.88,1.65,2.07-.59,4.69,0,5.44-3.11.19-.77,1.22-1.45,1.94.15C88.23,194.83,90.78,194.64,89.77,197.47Zm24.55,3.68c-4.66-1.82-9.11-3.67-13.64-5.27-1.81-.64-3.78-1.24-5.75-.64-.85.26-2.42.14-2,1.66.35,1.36,1.57.93,2.59.66a13.52,13.52,0,0,1,9.55.71c2.79,1.34,3.37,3.29,1.7,5.91-1.49,2.34-3.89,3.44-6.38,4.26a22.59,22.59,0,0,0-7.05,3.89,10.13,10.13,0,0,0-3.64,11.22c1.3,4.69,5.93,7.26,10.21,5.66,3.83-1.43,5.56-6.49,3.57-10.66-.77-1.63-1.78-3.22-3.84-3.25a5.58,5.58,0,0,0-5.09,2.91c-.73,1.23-.94,2.5.11,3.61s2.23,1.75,3.76,1.14a2.9,2.9,0,0,0,2-3.3c-.06-.55-.67-1.24.38-1.78a6.13,6.13,0,0,1,1.56,6.84c-.76,2.23-2.56,3.12-4.78,3.21-2.7.1-5-.68-6.23-3.34-2.47-5.17-.12-10.7,5.83-13.47a54.77,54.77,0,0,1,15-4.39c5.1-.78,10.18,1.63,12.2,5.56,2.61,5.1.43,9.11-5.21,9.55-.31,0-.8-.09-.67.65a6.57,6.57,0,0,0,7.88-8.84,12,12,0,0,0-11.31-8.1c-2.34-.08-4.69,0-7.21,0C109.3,203.11,112.24,202.93,114.32,201.15Zm19.63.37,0-.49c-1.38-.17-2.76-.33-4.14-.51-.61-.08-1.43.19-1.71-.59-.23-.62.5-.91.8-1.34,1.14-1.63,2.25-3.3,1.18-5.39a2.62,2.62,0,0,0-3.29-1.43,2.23,2.23,0,0,0-1.9,2.41c.16,1.58,1.18,2.23,2.75,2,.38,0,.74,0,.87.45-.34,1.75-2.21,2.3-3.2,3.77,2.23,1,4.45.33,6.5.95A9.57,9.57,0,0,0,133.95,201.51Zm-52.35-3.8c-1.71-.07-3.27.26-4.69-.86a.8.8,0,0,0-1.36.3c-1.33,2.67-.16,7.89,2.3,10.14a13.76,13.76,0,0,0,.09-6.7c-.15-.79.39-1.22,1-1.54C79.77,198.56,80.69,198.16,81.59,197.72Z"/><path class="cls-1" d="M371,205.56l-2.27-1.16c-1.3-1.61-2.58-3.2-2.23-5.51a4.47,4.47,0,0,1,6.74-3.35,3.47,3.47,0,0,1,.94,4.91c-1.15,1.45-2.72,1.38-4.45-.4,1.42.8,2.79,1.29,3.8-.42.7-1.2.23-2.15-.65-3-1.33-1.27-2.73-1-4.05,0a3.31,3.31,0,0,0-1.24,4.19c1.11,2.74,4.92,4.56,8.26,3.87a65.13,65.13,0,0,0,30.2-14.5c14.6-12.66,22.07-29,21.78-48.13-.25-16.86-5.48-32.55-18.38-44.3-12.22-11.14-26.68-16.35-43.11-11.31-13.9,4.26-23.91,13.2-26.81,28.06-3.36,17.19,7.6,35,24.75,37.53,12,1.79,29-6.86,28.47-23.62a19.89,19.89,0,0,0-17.1-18.85c-5.68-.69-13.07,3.41-15.52,8.61a13.07,13.07,0,0,0,3,15.37,10,10,0,0,0,13.27.7c.5-.38.85-1,1.65-1,.43,1-.39,1.34-.92,1.73a11.3,11.3,0,0,1-11.91,1.3c-4.57-2-6.59-5.88-7.15-10.6-.83-7,2.23-12.08,8.28-15.12s12.58-3,18.35,1c12,8.4,12.29,26.25.67,35.45-14.82,11.74-36.06,6.39-43.89-10.86-5.73-12.63-5.36-24.86,3-36,9.14-12.18,21.71-18,37.09-16.45,24.68,2.49,41.1,20.7,46,45.21a97.59,97.59,0,0,1,1.94,15.49c2.54-7.68,7.32-13.76,13.08-19.19,6.1-5.75,14.15-7.46,20.28-4.3,5.24,2.7,8.25,9.41,7.09,15.8a13.88,13.88,0,0,1-12.05,11.56,9.32,9.32,0,0,1-8.59-3.77c-2.21-2.86-2.15-6.14-.94-9.32,1.28-3.36,5.62-5.08,9.19-3.9a6.12,6.12,0,0,1,4,7.35,4.86,4.86,0,0,1-6.08,3.51c-2.38-.56-3.23-2.37-2.43-5.2.45-.16.42.16.43.43.09,2.77,1.32,4.25,3.4,4.09a4.18,4.18,0,0,0,3.58-4.59,4.79,4.79,0,0,0-3.93-4.53A5.65,5.65,0,0,0,450,135a7.42,7.42,0,0,0,0,8.22,7.67,7.67,0,0,0,7.65,3.7c7.24-.68,12.43-7.89,11.1-15.11-1.51-8.21-7.94-12.7-15.54-11-5.16,1.18-9.06,4.32-12.52,8-5.53,6-10.2,12.43-10.41,21.07a16,16,0,0,0,2.35,9.62c.56.83,1,1.84,2.37,1.35a.89.89,0,0,1,1.27,1c-.08.81-.76,1-1.46,1-1.31,0-2-.94-2.64-1.84-2.47-3.4-3-7.34-3.16-11.43a93.8,93.8,0,0,1-5,17.9c-5.27,13.32-14.34,23.15-26.55,30.35a69.88,69.88,0,0,1-20.87,7.79C374.68,206.1,372.86,205.34,371,205.56Z"/><path class="cls-1" d="M173.28,239.2a71.14,71.14,0,0,1,3.63,7.46,32,32,0,0,1,.26,19.57c-2.84,9.79-10.48,13.92-19.81,15.27-7.05,1-13.92.08-20.21-3.8-7.37-4.56-11.58-15.18-9.1-23.43a7.32,7.32,0,0,1,7-5.49,6.24,6.24,0,0,1,6.06,4.51,5.47,5.47,0,0,1-1.26,5.47c-1.29,1.45-3.06,1.26-4.71,1a3.09,3.09,0,0,1-2.69-3.12c-.1-1.59.19-3,2.83-3.52-2.44,1.79-2.79,3.55-1,5.29a3,3,0,0,0,4.1.16,4.14,4.14,0,0,0,1.44-5.64,5.34,5.34,0,0,0-9.23-.82,10.6,10.6,0,0,0-1.94,4.9c-1.05,7.63,3.55,16.69,10.42,20.15,10.57,5.34,20.91,4.93,30.62-2,5.14-3.7,6.86-9.34,7.49-15.35,1-9.73-2.75-17.66-9.27-24.55a10.86,10.86,0,0,1-1.72-2.21,21.71,21.71,0,0,1,7.45,4.31c11.53,9.36,20.39,20.67,25.18,34.88,5.69,16.85,1.82,31.73-9.3,45.16-6.54,7.9-14.29,14-24.46,16.24-11.93,2.68-22.85.8-31.75-8.21-6.33-6.41-8.31-16.68-4.82-23.51,4.75-9.29,17.35-12.56,25.42-6.6a14.24,14.24,0,0,1,5,14.51c-1.2,4.8-4.79,7.91-10.21,8.59a9.24,9.24,0,0,1-9-4,8.56,8.56,0,0,1-.82-9,7.37,7.37,0,0,1,7.93-4,6.22,6.22,0,0,1,5.16,5.5,5.08,5.08,0,0,1-4,5.62c-2.78.51-4.45-.66-5.11-3.57.16,0,.41,0,.46.11,1,1.87,2.26,3.27,4.66,2.46,2.21-.74,3-2.45,2.81-4.61a4.45,4.45,0,0,0-3.8-4.27c-2.28-.46-4.5-.17-6.11,1.82a7,7,0,0,0-1.23,7.35c1.33,3.27,3.73,5.48,7.33,5.67a10,10,0,0,0,9.7-5.46c4.22-7.55-1.58-17.77-10.41-18.44-13.47-1-22.16,11.35-16.72,23.84,4.12,9.47,11.9,14.21,21.64,15.71,14.81,2.28,26.16-4.39,35.81-14.85a55.52,55.52,0,0,0,9.62-14.68c5.13-11.2,4.36-22.49,0-33.72C192,258,184.18,248.45,174.9,240A9.82,9.82,0,0,0,173.28,239.2Z"/><path class="cls-1" d="M216.31,255.07c1.26.3,2.54.53,3.78.91a207.22,207.22,0,0,0,38,7.57c11.59,1.35,23.09,1.11,34.15-3.35,4.81-1.94,8.57-4.89,10-10.15a8.24,8.24,0,0,0-9.36-10.23c-3,.58-5.41,3.58-5.16,6.42a5,5,0,0,0,5.1,4.6,3.15,3.15,0,0,0,3-1.66c.85-1.59.8-3.06-.68-4.26a2.25,2.25,0,0,0-3.28.15c-1.59,1.63,0,2.62,1.39,4.18-2.38-.68-3.26-1.76-2.81-3.57a3.09,3.09,0,0,1,4-2.48,3.77,3.77,0,0,1,3.11,4.34c-.18,2.38-1.29,4.08-3.83,4.47a6.19,6.19,0,0,1-6.89-3.61,7.58,7.58,0,0,1,2.11-8.16c2.41-2.06,6.71-2.42,9.77-.83a9.6,9.6,0,0,1,4.94,9.33,13.77,13.77,0,0,1-7.43,10.89c-5.9,3.22-12.34,4.67-19,5.3-14,1.33-27.69-.95-41.27-4.08a2.68,2.68,0,0,0-1.76,0c2.71,1.26,5.4,2.54,8.13,3.76A116.31,116.31,0,0,1,271,282.5c11.14,9.58,11.75,25.12,2.85,35.31-4.23,4.84-10.19,5-16.11,3.57-11.09-2.69-15.77-14.74-9.11-23.37a11.72,11.72,0,0,1,14.85-3.07,9.82,9.82,0,0,1,4.33,12.56,7.66,7.66,0,0,1-7.22,4.84,7,7,0,0,1-6.85-4.83,5.73,5.73,0,0,1,1.72-6.36,4.67,4.67,0,0,1,5.7-.7,4,4,0,0,1,2.06,5.2c-.67,2.11-2.37,2.66-4.5,2.13a2.49,2.49,0,0,1,.17-.52,3.1,3.1,0,0,0,3.58-2.78c.3-1.49-.69-2.45-1.88-3.13-1.63-.94-3.06-.41-4.34.74a4.77,4.77,0,0,0-.14,7.18,6.27,6.27,0,0,0,9.21-.28,8.54,8.54,0,0,0,.89-9.9A10.18,10.18,0,0,0,256,294.8c-6,1.26-10.48,8.41-9,14.39a15.72,15.72,0,0,0,14.17,11.62c7,.56,11.78-2.58,15-8.91,5.7-11.28,1.24-22.31-7.15-29.26-11.47-9.52-24.62-16.08-38.31-21.69A122,122,0,0,0,216,255.73Z"/><path class="cls-1" d="M267.78,172.72c2.05-.35,3.14.68,3.3,2.44a2.94,2.94,0,0,1-2.39,3.33c-2.07.45-4,0-4.92-2.15a5.13,5.13,0,0,1,4.59-7.22,7.09,7.09,0,0,1,7.24,5.08c4.48,18.89,1.85,45-18.08,59.37-15.31,11.07-32.44,15.18-51.15,12-14.13-2.4-26.77-8.5-38.88-15.88a22.42,22.42,0,0,0-5.8-3.07,42.78,42.78,0,0,1,5.25,16.76c.63,7,.07,13.8-3.32,20.12-2.87,5.36-8.23,8.29-13.59,7.52a4.72,4.72,0,0,1-4.19-4.8,4.3,4.3,0,0,1,3.67-4.6,3.41,3.41,0,0,1,4.18,3.63,2.65,2.65,0,0,1-2.52,2.83,2.14,2.14,0,0,1-2.58-1.64c-.41-1.61.45-2.44,2-2.77.21,0,.39-.28.84-.62-2.25-.68-3.62.11-4.18,1.88a3.66,3.66,0,0,0,2.18,4.85c3.76,1.52,6.79-.47,9.45-2.66,5.41-4.46,6.7-10.81,7.05-17.36.49-9.23-1.66-17.77-7.43-25.2-.34-.44-.86-1-.4-1.46.65-.71,1.16.1,1.67.4,7.17,4.18,14.1,8.74,21.6,12.38,13,6.29,26.47,10.65,41,9.23,20.84-2,38.52-10.07,48.39-29.85,6.26-12.54,6.86-26,4-39.62-.7-3.26-3-5.26-5.63-5.37a4.39,4.39,0,0,0-4.26,2.16c-1.13,1.94-.57,3.62,1.25,4.83,1.38.92,2.84.81,3.64-.64C270.75,174.76,269.57,173.54,267.78,172.72Z"/><path class="cls-1" d="M116.92,69.67c-10.33-1.21-15.35-5.78-17.05-16-1.37-8.2-.88-16.27,4.43-23.22A9.81,9.81,0,0,1,115,26.6a7,7,0,0,1,5.66,7.34,6,6,0,0,1-7.28,5.77,4,4,0,0,1-3.13-3.23,2.94,2.94,0,0,1,1.46-3.35c1.3-.8,2.76-1,3.8.32a2.49,2.49,0,0,1-.4,3.87c-.22-.2-.45-.36-.43-.41.47-1.13,1.16-2.32-.57-3A1.88,1.88,0,0,0,111.53,35a2.4,2.4,0,0,0,1,3.15c2.41,1.71,6.34-.2,6.83-3.36A5.56,5.56,0,0,0,117.33,29,7.78,7.78,0,0,0,109.64,28a11,11,0,0,0-6.14,5.84,29.74,29.74,0,0,0-.7,25.47c2.92,6.87,8.77,9.85,16.1,8.74.7-.11,1.43-.54,2.26.26-.86,1.64-2.51,2.36-4,3.16-9.79,5.21-20.09,5.34-30.46,2.4-7.51-2.13-15-3.9-22.86-3.22C59,71.06,54.17,72,50.66,75.9a9.94,9.94,0,0,0,1.69,15,7.79,7.79,0,0,0,9.36-.48,6.43,6.43,0,0,0,1.82-7.6A4.89,4.89,0,0,0,55,81.69a3.34,3.34,0,0,0,.85,4.94c1.61,1.23,3.16.78,4.3-.92a1.31,1.31,0,0,1,.88-.65,3.31,3.31,0,0,1-3.18,3.16,3.83,3.83,0,0,1-4.18-3,5.25,5.25,0,0,1,3.85-6.68,6.39,6.39,0,0,1,7.71,5.12c.63,4.11-1.11,7.55-4.53,9-3.93,1.65-8.75.61-11.25-2.45A11.84,11.84,0,0,1,52.3,72.63a24.32,24.32,0,0,1,11.46-3.25c8-.5,15.75,1.07,23.42,3.3C96.61,75.42,106,75.4,115,71.09,115.68,70.79,116.47,70.63,116.92,69.67Z"/><path class="cls-1" d="M405.79,236.72c-.71,9.38,3.17,16.6,9.92,22,12.88,10.36,27.88,14,44.11,11.47a19.42,19.42,0,0,0,16.61-16.68c1-7.79-2.14-14.28-8.36-19.06-6.37-4.89-13.31-5.5-20.48-1.83-4.08,2.09-7.27,8.06-6.45,12.47A11.83,11.83,0,0,0,450,255a8,8,0,0,0,7.34-1.71c1-.79,1.9-1.72,3.05-2.79a7.89,7.89,0,0,1-7.17,5.45c-4.87.36-8.84-1.25-11.38-5.58-2.79-4.78-2.79-9.68.31-14.28,5.33-7.92,17.37-9.5,26-3.25,7.4,5.35,10.83,12.83,9.34,21.92s-7.75,14.19-16.34,16.41c-9.33,2.4-18.53.94-27.58-1.73-8.26-2.44-15.84-6.09-21.72-12.64a26.46,26.46,0,0,1-7.28-18.55,7.36,7.36,0,0,1,.4-2.46c.53-1.41,1.46-2.46,3.19-2a1.85,1.85,0,0,1,1.35,2.41C409.2,237.48,408.43,237.6,405.79,236.72Z"/><path class="cls-1" d="M103.14,134.33c-4.38,3.11-9.57,3.16-15.19,4.14L91.31,140c-1.74.51-2.8-.11-3.87-.32-8.39-1.66-16-.33-22.1,6.1a6.3,6.3,0,0,0-.68,8,4,4,0,0,0,3.92,1.66,3.46,3.46,0,0,0,2.93-2.68,2.71,2.71,0,0,0-1.28-2.89,1.94,1.94,0,0,0-1.16-.17c1.18.86,1.93,1.82,1.07,3.22a1.88,1.88,0,0,1-2.43.81,2.49,2.49,0,0,1-1.8-2.56,2.62,2.62,0,0,1,2-2.69A3.74,3.74,0,0,1,72.81,151a4.76,4.76,0,0,1-3.67,5.7c-2.15.39-4.22,0-5.5-1.91a7.6,7.6,0,0,1-.52-8c2.07-4.15,6-6,10-7.52A27.12,27.12,0,0,1,78.64,138c-5-1.14-10-2.23-14.69-4.28a11,11,0,0,1-5-16.34c3.26-4.65,10.32-5.08,13.84-.83,1.76,2.12,1.89,6.81.26,9-1.5,2-4.87,2.72-7.42,1.67-2.27-.94-2.83-2.81-2.71-5a3.9,3.9,0,0,1,3.47-3.82,2.94,2.94,0,0,1,3.75,2.78c.25,1.88-.45,3.25-3.13,3.14,1.49-1.06,3.16-1.73,2-3.6a2.25,2.25,0,0,0-3.15-.94,3.14,3.14,0,0,0-1.59,4c.82,2.7,4.32,3.52,6.7,1.61a5.72,5.72,0,0,0,1.55-6.61A6.9,6.9,0,0,0,65.17,115a8.14,8.14,0,0,0-6.64,6.72c-.74,4.12,1,8.28,4.41,10.09,5.1,2.68,10.65,3.92,16.3,4.8a45.63,45.63,0,0,0,23.13-2.27A2.39,2.39,0,0,1,103.14,134.33Z"/><path class="cls-1" d="M422.86,350c.15-1.29.92-2.73-.89-2.92-1-.1-1.51.76-1.52,1.66,0,1.48.9,2.19,2.31,2.24a2.63,2.63,0,0,0,2.45-1.58,2.87,2.87,0,0,0-.06-3.17,4.34,4.34,0,0,0-5.32-1.83,5.44,5.44,0,0,0-3,6.5c1.57,4.25,6.19,5.78,10.39,3.34,5.89-3.42,7.73-9.09,8.07-15.39.53-9.66-1.83-18.87-4.68-28-4.8-15.35-11.42-30-18-44.57-1.88-4.14-3.58-8.35-5.39-12.61,1.2-.34,1.25.41,1.42.82,5.56,13.24,12.19,26,17.27,39.46,4.42,11.7,8.9,23.39,10.33,35.92.86,7.59.92,15.12-3.79,21.79a12,12,0,0,1-8.42,5,7.61,7.61,0,0,1-7.8-3.83,6.91,6.91,0,0,1,.7-7.86,5.7,5.7,0,0,1,9.68,1.21,4.08,4.08,0,0,1-1.06,4.86,3.67,3.67,0,0,1-4.64.6,3,3,0,0,1-1.6-3,2.48,2.48,0,0,1,1.71-2.34,2.23,2.23,0,0,1,2.7.94C424.36,348.22,424.14,349.1,422.86,350Z"/><path class="cls-1" d="M132.81,48.89c.13.08.26.11.27.16.1,1.36-.17,3.08,2,2.83,1.55-.18,1.87-1.49,1.61-2.76A2.56,2.56,0,0,0,133.31,47c-2.28.53-3.12,2.24-2.92,4.44a7.29,7.29,0,0,0,5.26,5.94,6.29,6.29,0,0,0,6.86-2.65,25.79,25.79,0,0,0,3.63-7.84c1.26-4.05,3.16-7.46,8.05-7.71a11.71,11.71,0,0,1,11,7.31,34.53,34.53,0,0,1,2.2,8.54c2.34-2.22,4.56-4.43,6.9-6.51,3.93-3.49,8.45-5.46,13.82-4.85,2.07.23,3.93,1.07,4.05,3.48a2.74,2.74,0,0,1-2.38,3,1.91,1.91,0,0,1-2.29-1.9c-.14-1.85,1.18-2.19,2.74-2.27-2.92-1.84-5.86-1.42-8.77-.22-5.54,2.28-9.59,6.35-13,11.12-.54.74-1.08,1.48-1.73,2.37-1.08-1-.65-2.21-.68-3.21a21.73,21.73,0,0,0-3.1-10.9c-1.86-3.07-4.74-4.41-8.15-4.74-3.14-.3-5.57,1.63-6.9,5.42-1.14,3.26-2.06,6.6-4.15,9.44a7.79,7.79,0,0,1-11.55,1.63c-2.95-2.31-3.89-6.55-2-9.22,1.41-2,3.4-2.21,5.49-1.47s2.6,2.34,2.27,4.29a3,3,0,0,1-2.64,2.55,2.65,2.65,0,0,1-2.88-1.3C131.8,50.76,131.63,49.69,132.81,48.89Z"/><path class="cls-1" d="M203.59,104.67c4.12-1.73,8.4-2.18,12.64-2.62,13.55-1.42,27-.95,40.21,2.73,6.66,1.85,12.75,4.77,17.43,10.08a19.18,19.18,0,0,1,5.24,12.93c0,4.87-3.62,7.88-8.26,7.17a5.67,5.67,0,0,1-4-8.43,4.5,4.5,0,0,1,5.61-1.81c2.14.91,2.44,2.68,2.08,4.66a2.93,2.93,0,0,1-4.15,2,2.34,2.34,0,0,1-1.31-2.55,2,2,0,0,1,1.66-2c1.76-.35,2,1.28,2.84,2.15a2.62,2.62,0,0,0-2.22-3.28,3,3,0,0,0-3.7,2.2,4.42,4.42,0,0,0,1.66,5.23c1.88,1.44,3.87,1.18,5.71-.1,2.81-2,3.62-5.62,2.33-9.62-2.36-7.31-7.77-11.76-14.36-14.85-7.51-3.53-15.62-4.76-23.85-5.55-11.61-1.11-23.07,0-34.53,1.64A7.62,7.62,0,0,1,203.59,104.67Z"/><path class="cls-1" d="M137.45,142.8c8-2,10-8,10.16-16a16.66,16.66,0,0,1,2.42,8.24c.77,8.69.88,17.34-2.57,25.62a40.35,40.35,0,0,1-9.58,13.3c-.56.54-1.23,1.49-2.09.6-.68-.71.12-1.37.56-1.93a31.13,31.13,0,0,0,4.85-8.46c1-2.85,1-5.5-1.32-7.75-.58-.56-1.1-1.08-.47-1.89,3.24-4.12,2.7-7.68-1.52-10.74-.26-.19-.31-.66-.46-1Zm3.89,25c7.9-7.62,9.6-25,6.87-34-1,4.14-3.2,7.27-7,9.14-1.32.66-.84,1.35-.16,2.17,1.23,1.48,2.43,3.39,1.65,5.1a11.57,11.57,0,0,0-.39,9.75C143.34,162.38,142.21,165.18,141.33,167.75Z"/><path class="cls-1" d="M73.89,92.64c1.14-.11,2-.26,2.8-.26s1.91.16,2.28,1.23A1.69,1.69,0,0,1,78,95.72a2,2,0,0,0-.92,2.59,1.62,1.62,0,0,1-.9,2.1,1.81,1.81,0,0,1-2.28-.53c-.91-1.21-1.39-1.07-2.09.2a2.15,2.15,0,0,1-2.64,1.07A2,2,0,0,1,68,98.62a2.93,2.93,0,0,0-1.22-3.09c-2-1.79-1.68-2.9,1.07-3.69a2.37,2.37,0,0,0,1.85-1.46c.38-1,.58-2.43,2.15-2a2.87,2.87,0,0,1,2,2.77C73.92,91.63,73.89,92.08,73.89,92.64Z"/><path class="cls-1" d="M289.77,192.66a6.68,6.68,0,0,1-.93,3.18c-.87,1.35-2.08,2.31-3.73,1.54s-1.85-2.39-1.05-3.8c1-1.7,1.12-2.65-1.1-3.33a2.58,2.58,0,0,1-2-3c.36-1.54,1.74-1.91,3.1-1.7,1.59.24,2.21-.3,2.31-1.87.08-1.31.33-2.89,2-2.85,1.85,0,2.63,1.59,2.92,3.24a3.33,3.33,0,0,1-1.26,3.51c-2.88,1.65-2.66,3.21-.32,5.05Z"/><path class="cls-1" d="M86.14,67.92c-1.7-1-3.35-2-5.11-2.83-3.77-1.79-7.6-2.32-11.62-.59a16.46,16.46,0,0,1-8.8,1c-4.84-.66-7.55-4.91-6.56-10.2a7.8,7.8,0,0,1,9.57-6,6.32,6.32,0,0,1,4.64,7.26c-.75,3.24-3.13,4.95-6.1,4.33a4.14,4.14,0,0,1-3.54-3.5,3.66,3.66,0,0,1,2.08-4c0,.56.1.89,0,1-1.11,1.52-1.51,3,0,4.5a3.34,3.34,0,0,0,4.39.29,4.23,4.23,0,0,0,2-4.83c-1-3.84-6.1-5.38-9.31-2.87a7.87,7.87,0,0,0-2.36,8.14,7.14,7.14,0,0,0,6.35,4.7,19,19,0,0,0,7.66-1.29C76.11,60.75,81.55,63.11,86.14,67.92Z"/><path class="cls-1" d="M208.4,102.18c1-1.11,2.39-1.21,3.67-1.58,9.51-2.75,18.84-6,27.27-11.31,4-2.55,7.9-5.3,10.34-9.6,1.63-2.87,2.49-5.82,1.29-9.08-.46-1.25-1-2.45-2.75-2.77.65,1.14,1.66,2.35-.13,3.05a1.65,1.65,0,0,1-2.33-1.33,2.09,2.09,0,0,1,1.79-2.89c2.24-.38,3.84.45,4.53,2.7,1.67,5.44.18,10.13-3.57,14.16-6.41,6.88-14.7,10.73-23.28,14C219.79,99.6,214.27,101.54,208.4,102.18Z"/><path class="cls-1" d="M239.6,147.87c1.74.57,2.41,0,2.22-2.34-.13-1.55.22-3.79,2.34-3.87,2-.07,3,1.69,3.48,3.5a4,4,0,0,1-2.91,5.31,1.19,1.19,0,0,0-.95.75c-1.43,3.25-5.39,3.82-7.94,1.18-.79-.82-1.54-1.73-1-3a2.67,2.67,0,0,1,2.48-1.54C237.93,147.81,238.58,147.87,239.6,147.87Z"/><path class="cls-1" d="M106.82,82c2.5-.61,5-1.11,7.48-1.85a23.84,23.84,0,0,0,7-3.53,3.23,3.23,0,0,1,3.89-.2c6.71,4,11.78,9.64,16.17,16a7.35,7.35,0,0,1,.4,1.74c-5.36-4.18-11-6.46-16.75-8.42a58,58,0,0,0-18.08-3Zm29.42,6.48c-3.34-4.64-7.22-8.58-12.35-11.14a1.6,1.6,0,0,0-1.32.08,59.64,59.64,0,0,1-9.31,4.51C121.39,82.64,128.83,85.35,136.24,88.49Z"/><path class="cls-1" d="M252.17,148.37a8.8,8.8,0,0,1,1.11,0c1.5.19,3.17.39,3.27,2.32a2.87,2.87,0,0,1-2.65,3.1c-2.35.27-2.13,1.15-1.24,2.82.79,1.46,1.53,3.42-.49,4.39s-3.85,0-4.9-2c-.89-1.69-1.36-3.49,0-5.24a2.27,2.27,0,0,0,.44-1.26C248,149.2,248.95,148.34,252.17,148.37Z"/><path class="cls-1" d="M220.88,185.36c-1.41.63-2.68,1.78-4.41,1.24-.9-.28-1.86-.56-2.09-1.6a2,2,0,0,1,1.51-2.37c1.59-.58,2.54-1.26,1.82-3.18a1.78,1.78,0,0,1,.92-2.15,2.24,2.24,0,0,1,2.78.67c1.17,1.37,2.12,2,3.78.6.92-.76,2.17-.33,3,.63s.28,1.77-.24,2.56a3.48,3.48,0,0,1-4.54,1.61c-2.08-.83-2.78-.09-2.5,2Z"/><path class="cls-1" d="M141.83,354.18c0-.87,0-1.62.13-2.36.77-5.12,4.37-7,8.8-4.39,7.51,4.44,8.66,12.31,5,18.75-1.26,2.23-3.11,2.74-5.43,1.49C144.88,364.76,141.81,360.38,141.83,354.18Zm1.08-.19a14.11,14.11,0,0,0,7,12c2.66,1.6,3.53,1.37,5.15-1.34,3.44-5.76,1.19-12.64-5-16.17-3.94-2.24-5.66-.44-6.92,3.33A9.48,9.48,0,0,0,142.9,354Z"/><path class="cls-1" d="M137.16,366.75a11.45,11.45,0,0,1,7.48,2.06c4.22,3,3.9,8.18-.59,10.66-5.91,3.26-13.32,2-17.21-2.89-2.14-2.7-2-4.47.57-6.72A13.42,13.42,0,0,1,137.16,366.75Zm-.3,1.21a12.43,12.43,0,0,0-7.32,2c-3.28,1.89-3.57,4-1,6.68A12.19,12.19,0,0,0,144,378.1c3.11-2.15,3.2-5.85.12-8.08A11,11,0,0,0,136.86,368Z"/><path class="cls-1" d="M167.55,372.6a18.77,18.77,0,0,0,9.26-6.28c1.33-1.77,3.29-3.65,2.13-5.94s-3.83-2.85-6.29-3c-4.79-.24-10.4,3.67-12,8.12-.76,2.07-.72,3.78,1.48,5a19,19,0,0,1,2.35,1.82c-4.76-.47-6.37-2.88-5-7,2.46-7.37,11.56-11.25,18.18-7.75,2.93,1.55,3.57,3.22,2.22,6.16C177.48,368.93,173.56,372.21,167.55,372.6Z"/><path class="cls-1" d="M158.23,389.52c.16,5.87-2.82,9.29-7.32,11.67-1.5.8-3.1,1-4.37-.41-3.35-3.68-3.4-8.13-2.64-12.65a9.61,9.61,0,0,1,6.91-8c2.19-.73,3.79-.26,5,1.67A12.29,12.29,0,0,1,158.23,389.52Zm-13.48,2.42a11.43,11.43,0,0,0,2.08,7.32,2.58,2.58,0,0,0,3.82.91,11.76,11.76,0,0,0,3.88-17.83,2.69,2.69,0,0,0-3.61-1C146.8,383,144.76,386.32,144.75,391.94Z"/><path class="cls-1" d="M173.59,393.18c-7.3,0-12.84-4.41-14.09-11-.85-4.47.63-6.29,5.13-6.52a13.91,13.91,0,0,1,12.52,5.94c2.34,3.1,1.7,6.61.83,9.9C177.4,393.7,175.07,393,173.59,393.18Zm-7.91-16.28c-4.88,0-6,1.44-4.68,6.17,1.6,5.75,9.1,10.2,14.76,8.82,1.49-.36,1.79-1.41,1.94-2.68C178.46,382.36,173.19,377,165.68,376.89Z"/><path class="cls-1" d="M289.75,192.63c.4-1.6,1.36-3,1.52-4.71.12-1.26,1.32-2,2.7-2s2.93,0,3.78,1.33.12,2.51-1.24,3.13c-1.13.51-2,.93-1.23,2.45.62,1.29,1,2.88-.85,3.53s-3-.35-3.88-1.91c-.31-.57-.52-1.19-.78-1.79Z"/><path class="cls-1" d="M187.1,307.94c-1.59-2-3.3,1.88-4.44-.12a19.12,19.12,0,0,1-1.92-4.52c-.17-.65,3.64-4.19,4.21-4.08.84.15,5.22,3.75,5,4C188.43,304.39,190,307.46,187.1,307.94Z"/><path class="cls-1" d="M399.71,175.47a1.75,1.75,0,0,1,1.3,1c.24.4.46,1.08.75,1.12,5,.63,1.76,3.59,1.53,5.59-.1.89-5.76,1.8-6,1a15.75,15.75,0,0,0-2-4.93.27.27,0,0,1,0-.26Z"/><path class="cls-1" d="M88.13,63.62c-1.06-3.29.85-5.56,2.7-7.7A9.16,9.16,0,0,0,93,47.63c-.61-3-2.27-4.24-5.37-4,1.5,1,2.63,2,1.41,3.61a2.11,2.11,0,0,1-2.77.55,2.3,2.3,0,0,1-1.39-2.24,3.18,3.18,0,0,1,1.51-2.82c2.2-1.41,4.91-.74,6.58,1.65,2,2.9,2,8.13-.26,11.06C90.76,58,88.88,60.44,88.13,63.62Z"/><path class="cls-1" d="M211.36,357.84a48.79,48.79,0,0,1,5,.07,4.36,4.36,0,0,1,4,3.73c.37,2-1.46,2.65-2.8,3.37a8.33,8.33,0,0,1-6.52.38c-3.18-1-3.46-3.73-.84-6.95Zm3.21,1.15a5.13,5.13,0,0,0-3,.62c-.92.6-2.14,1-2.09,2.38s1.08,1.89,2.06,2.45c2.11,1.2,4,.28,5.76-.79,2.07-1.26,2-2.81-.09-4A5,5,0,0,0,214.57,359Z"/><path class="cls-1" d="M201.84,365.68c1.49-.92,2.72-2.94,4.86-1.4a7,7,0,0,1,2.85,6.85,5.54,5.54,0,0,1-3.86,4.7c-1.38.51-2.22-.67-2.95-1.61-2-2.65-1.54-5.6-.89-8.54Zm6.62,4.06c-.41-1.66-.69-3.85-3.12-4.4-1.43-.32-3,2.13-2.83,4.43.14,2.1.72,4.17,3,4.8C206.86,374.93,208.51,372.21,208.46,369.74Z"/><path class="cls-1" d="M171.29,34c3.68-.73,2.86,2.64,3.47,4s-2,2.25-3.08,2.19c-1.24-.07-3.5-.55-3.21-2.64C168.69,36,168,33,171.29,34Z"/><path class="cls-1" d="M203.54,355.18c0,2.17-1.37,3.73-3.31,3.69-3-.06-6.21-3.55-6.13-6.89,0-1.76.48-3.44,2.73-3.51C200.05,348.36,203.5,351.86,203.54,355.18Zm-1.26.15c-.09-2.33-3.19-5.52-5.16-5.51-1.48,0-1.85,1-1.8,2.26.1,2.58,2.95,5.78,5,5.55A2.1,2.1,0,0,0,202.29,355.34Z"/><path class="cls-1" d="M211.36,357.84l-1.15.6c-4.2.92-5.43-.19-5-4.52.28-2.92,2.22-5.46,4.61-6,2.6-.64,4.18.5,4.33,3.18S213,355.88,211.36,357.84Zm1.6-6c-.1-.74.17-2.33-1.33-2.85-1.33-.46-2.58.35-3.46,1.36a6.08,6.08,0,0,0-1.48,6.22c.34,1,1.2,1,2.09.74C211.18,356.48,212.92,355.12,213,351.8Z"/><path class="cls-1" d="M201.85,365.68c-2.15,2.66-4.67,4.26-8.24,3-2.3-.83-2.93-2.29-1.63-4.3a8.4,8.4,0,0,1,5.73-4.12c3.27-.51,4.82,1.61,4.15,5.46Zm-6.08,2.5a6.39,6.39,0,0,0,4.72-3.52c.85-1.44.33-2.46-1.21-3-2.53-.89-4,.89-5.46,2.35-.77.75-1.67,1.71-1,2.91C193.45,368,194.68,368,195.77,368.18Z"/></svg>